%TF.GenerationSoftware,KiCad,Pcbnew,9.0.5*%
%TF.CreationDate,2025-12-07T11:50:43+11:00*%
%TF.ProjectId,inputSwitchboard,696e7075-7453-4776-9974-6368626f6172,rev?*%
%TF.SameCoordinates,Original*%
%TF.FileFunction,Legend,Bot*%
%TF.FilePolarity,Positive*%
%FSLAX46Y46*%
G04 Gerber Fmt 4.6, Leading zero omitted, Abs format (unit mm)*
G04 Created by KiCad (PCBNEW 9.0.5) date 2025-12-07 11:50:43*
%MOMM*%
%LPD*%
G01*
G04 APERTURE LIST*
%ADD10C,0.000000*%
G04 APERTURE END LIST*
D10*
%TO.C,G\u002A\u002A\u002A*%
G36*
X81680000Y-60623405D02*
G01*
X81680000Y-62650001D01*
X79653404Y-62650001D01*
X77626809Y-62650001D01*
X77626809Y-60623405D01*
X77626809Y-58596809D01*
X79653404Y-58596809D01*
X81680000Y-58596809D01*
X81680000Y-60623405D01*
G37*
G36*
X81680000Y-90076596D02*
G01*
X81680000Y-92103192D01*
X79653404Y-92103192D01*
X77626809Y-92103192D01*
X77626809Y-90076596D01*
X77626809Y-88050001D01*
X79653404Y-88050001D01*
X81680000Y-88050001D01*
X81680000Y-90076596D01*
G37*
G36*
X111133192Y-60623405D02*
G01*
X111133192Y-62650001D01*
X109106596Y-62650001D01*
X107080000Y-62650001D01*
X107080000Y-60623405D01*
X107080000Y-58596809D01*
X109106596Y-58596809D01*
X111133192Y-58596809D01*
X111133192Y-60623405D01*
G37*
G36*
X76114431Y-78704158D02*
G01*
X76272892Y-79143596D01*
X76275745Y-79268086D01*
X76164140Y-79782304D01*
X75724703Y-79940765D01*
X75600213Y-79943618D01*
X75085995Y-79832013D01*
X74927534Y-79392576D01*
X74924681Y-79268086D01*
X75036286Y-78753867D01*
X75475723Y-78595407D01*
X75600213Y-78592554D01*
X76114431Y-78704158D01*
G37*
G36*
X94759112Y-93565861D02*
G01*
X94917573Y-94005298D01*
X94920426Y-94129788D01*
X94808821Y-94644006D01*
X94369384Y-94802467D01*
X94244894Y-94805320D01*
X93730675Y-94693715D01*
X93572215Y-94254278D01*
X93569362Y-94129788D01*
X93680966Y-93615570D01*
X94120404Y-93457109D01*
X94244894Y-93454256D01*
X94759112Y-93565861D01*
G37*
G36*
X100163367Y-80055222D02*
G01*
X100321828Y-80494660D01*
X100324681Y-80619150D01*
X100213076Y-81133368D01*
X99773639Y-81291829D01*
X99649149Y-81294681D01*
X99134931Y-81183077D01*
X98976470Y-80743639D01*
X98973617Y-80619150D01*
X99085222Y-80104931D01*
X99524659Y-79946470D01*
X99649149Y-79943618D01*
X100163367Y-80055222D01*
G37*
G36*
X105567623Y-85459478D02*
G01*
X105726083Y-85898915D01*
X105728936Y-86023405D01*
X105617332Y-86537623D01*
X105177894Y-86696084D01*
X105053404Y-86698937D01*
X104539186Y-86587332D01*
X104380725Y-86147895D01*
X104377872Y-86023405D01*
X104489477Y-85509187D01*
X104928914Y-85350726D01*
X105053404Y-85347873D01*
X105567623Y-85459478D01*
G37*
G36*
X113674006Y-69516924D02*
G01*
X113832466Y-69956362D01*
X113835319Y-70080852D01*
X113723715Y-70595070D01*
X113284277Y-70753531D01*
X113159787Y-70756384D01*
X112645569Y-70644779D01*
X112487108Y-70205342D01*
X112484255Y-70080852D01*
X112595860Y-69566633D01*
X113035297Y-69408173D01*
X113159787Y-69405320D01*
X113674006Y-69516924D01*
G37*
G36*
X98424396Y-72129350D02*
G01*
X98824416Y-72241124D01*
X98960819Y-72511872D01*
X98973617Y-72782979D01*
X98862012Y-73297198D01*
X98422575Y-73455658D01*
X98298085Y-73458511D01*
X97768358Y-73585172D01*
X97622553Y-73998937D01*
X97464228Y-74422718D01*
X96947021Y-74539362D01*
X96530165Y-74488964D01*
X96332662Y-74241234D01*
X96274069Y-73651375D01*
X96271489Y-73323405D01*
X96271489Y-72107447D01*
X97622553Y-72107447D01*
X98424396Y-72129350D01*
G37*
G36*
X84382128Y-60623405D02*
G01*
X84382128Y-65352128D01*
X79653404Y-65352128D01*
X74924681Y-65352128D01*
X74924681Y-64001064D01*
X76275745Y-64001064D01*
X79653404Y-64001064D01*
X83031064Y-64001064D01*
X83031064Y-60623405D01*
X83031064Y-57245745D01*
X79653404Y-57245745D01*
X76275745Y-57245745D01*
X76275745Y-60623405D01*
X76275745Y-64001064D01*
X74924681Y-64001064D01*
X74924681Y-60623405D01*
X74924681Y-55894681D01*
X79653404Y-55894681D01*
X84382128Y-55894681D01*
X84382128Y-60623405D01*
G37*
G36*
X84382128Y-90076596D02*
G01*
X84382128Y-94805320D01*
X79653404Y-94805320D01*
X74924681Y-94805320D01*
X74924681Y-93454256D01*
X76275745Y-93454256D01*
X79653404Y-93454256D01*
X83031064Y-93454256D01*
X83031064Y-90076596D01*
X83031064Y-86698937D01*
X79653404Y-86698937D01*
X76275745Y-86698937D01*
X76275745Y-90076596D01*
X76275745Y-93454256D01*
X74924681Y-93454256D01*
X74924681Y-90076596D01*
X74924681Y-85347873D01*
X79653404Y-85347873D01*
X84382128Y-85347873D01*
X84382128Y-90076596D01*
G37*
G36*
X113835319Y-60623405D02*
G01*
X113835319Y-65352128D01*
X109106596Y-65352128D01*
X104377872Y-65352128D01*
X104377872Y-64001064D01*
X105728936Y-64001064D01*
X109106596Y-64001064D01*
X112484255Y-64001064D01*
X112484255Y-60623405D01*
X112484255Y-57245745D01*
X109106596Y-57245745D01*
X105728936Y-57245745D01*
X105728936Y-60623405D01*
X105728936Y-64001064D01*
X104377872Y-64001064D01*
X104377872Y-60623405D01*
X104377872Y-55894681D01*
X109106596Y-55894681D01*
X113835319Y-55894681D01*
X113835319Y-60623405D01*
G37*
G36*
X102694881Y-55919938D02*
G01*
X102896293Y-56071598D01*
X102993460Y-56463496D01*
X103024325Y-57209469D01*
X103026809Y-57921277D01*
X103026809Y-59947873D01*
X101675745Y-59947873D01*
X100873902Y-59969775D01*
X100473882Y-60081549D01*
X100337479Y-60352298D01*
X100324681Y-60623405D01*
X100213076Y-61137623D01*
X99773639Y-61296084D01*
X99649149Y-61298937D01*
X99134931Y-61187332D01*
X98976470Y-60747895D01*
X98973617Y-60623405D01*
X99085222Y-60109187D01*
X99524659Y-59950726D01*
X99649149Y-59947873D01*
X100050070Y-59904069D01*
X100250081Y-59680520D01*
X100318282Y-59139023D01*
X100324681Y-58596809D01*
X100346583Y-57794966D01*
X100458357Y-57394946D01*
X100729106Y-57258544D01*
X101000213Y-57245745D01*
X101514431Y-57134141D01*
X101672892Y-56694703D01*
X101675745Y-56570213D01*
X101787349Y-56055995D01*
X102226787Y-55897534D01*
X102351277Y-55894681D01*
X102694881Y-55919938D01*
G37*
G36*
X98424396Y-62671903D02*
G01*
X98824416Y-62783677D01*
X98960819Y-63054426D01*
X98973617Y-63325533D01*
X99085222Y-63839751D01*
X99524659Y-63998212D01*
X99649149Y-64001064D01*
X100163367Y-64112669D01*
X100321828Y-64552106D01*
X100324681Y-64676596D01*
X100436286Y-65190815D01*
X100875723Y-65349275D01*
X101000213Y-65352128D01*
X101401134Y-65308324D01*
X101601144Y-65084775D01*
X101669346Y-64543278D01*
X101675745Y-64001064D01*
X101697647Y-63199222D01*
X101809421Y-62799201D01*
X102080170Y-62662799D01*
X102351277Y-62650001D01*
X102752198Y-62693805D01*
X102952208Y-62917354D01*
X103020409Y-63458851D01*
X103026809Y-64001064D01*
X103004906Y-64802907D01*
X102893132Y-65202928D01*
X102622384Y-65339330D01*
X102351277Y-65352128D01*
X102007673Y-65377385D01*
X101806260Y-65529044D01*
X101709094Y-65920943D01*
X101678228Y-66666915D01*
X101675745Y-67378724D01*
X101667326Y-68409536D01*
X101616773Y-69013773D01*
X101486140Y-69305273D01*
X101237482Y-69397870D01*
X101000213Y-69405320D01*
X100656609Y-69380063D01*
X100455196Y-69228404D01*
X100358030Y-68836505D01*
X100327164Y-68090533D01*
X100324681Y-67378724D01*
X100316262Y-66347912D01*
X100265709Y-65743675D01*
X100135076Y-65452175D01*
X99886419Y-65359578D01*
X99649149Y-65352128D01*
X99134931Y-65240524D01*
X98976470Y-64801086D01*
X98973617Y-64676596D01*
X98862012Y-64162378D01*
X98422575Y-64003917D01*
X98298085Y-64001064D01*
X97783867Y-64112669D01*
X97625406Y-64552106D01*
X97622553Y-64676596D01*
X97510949Y-65190815D01*
X97071511Y-65349275D01*
X96947021Y-65352128D01*
X96432803Y-65463733D01*
X96274342Y-65903170D01*
X96271489Y-66027660D01*
X96227685Y-66428582D01*
X96004136Y-66628592D01*
X95462639Y-66696793D01*
X94920426Y-66703192D01*
X93569362Y-66703192D01*
X93569362Y-65352128D01*
X93591264Y-64550286D01*
X93703038Y-64150265D01*
X93973787Y-64013863D01*
X94244894Y-64001064D01*
X94759112Y-64112669D01*
X94917573Y-64552106D01*
X94920426Y-64676596D01*
X95032030Y-65190815D01*
X95471468Y-65349275D01*
X95595958Y-65352128D01*
X95996879Y-65308324D01*
X96196889Y-65084775D01*
X96265090Y-64543278D01*
X96271489Y-64001064D01*
X96271489Y-62650001D01*
X97622553Y-62650001D01*
X98424396Y-62671903D01*
G37*
G36*
X97073332Y-55916584D02*
G01*
X97473353Y-56028358D01*
X97609755Y-56299107D01*
X97622553Y-56570213D01*
X97734158Y-57084432D01*
X98173595Y-57242892D01*
X98298085Y-57245745D01*
X98812303Y-57357350D01*
X98970764Y-57796787D01*
X98973617Y-57921277D01*
X98929813Y-58322199D01*
X98706264Y-58522209D01*
X98164767Y-58590410D01*
X97622553Y-58596809D01*
X96820711Y-58574907D01*
X96420690Y-58463133D01*
X96284288Y-58192384D01*
X96271489Y-57921277D01*
X96159885Y-57407059D01*
X95720447Y-57248598D01*
X95595958Y-57245745D01*
X95195036Y-57289550D01*
X94995026Y-57513098D01*
X94926825Y-58054595D01*
X94920426Y-58596809D01*
X94942328Y-59398652D01*
X95054102Y-59798672D01*
X95324851Y-59935075D01*
X95595958Y-59947873D01*
X96110176Y-60059478D01*
X96268637Y-60498915D01*
X96271489Y-60623405D01*
X96159885Y-61137623D01*
X95720447Y-61296084D01*
X95595958Y-61298937D01*
X95081739Y-61410541D01*
X94923278Y-61849979D01*
X94920426Y-61974469D01*
X94892611Y-62327397D01*
X94730660Y-62529385D01*
X94316811Y-62622491D01*
X93533305Y-62648771D01*
X93028936Y-62650001D01*
X91137447Y-62650001D01*
X91137447Y-60623405D01*
X91129028Y-59592593D01*
X91102234Y-59272341D01*
X92488511Y-59272341D01*
X92501275Y-60308514D01*
X92559477Y-60916479D01*
X92692983Y-61208229D01*
X92931656Y-61295758D01*
X93028936Y-61298937D01*
X93305249Y-61251071D01*
X93467373Y-61032812D01*
X93545173Y-60532167D01*
X93568514Y-59637142D01*
X93569362Y-59272341D01*
X93556598Y-58236168D01*
X93498395Y-57628203D01*
X93364890Y-57336453D01*
X93126216Y-57248924D01*
X93028936Y-57245745D01*
X92752623Y-57293611D01*
X92590499Y-57511870D01*
X92512699Y-58012515D01*
X92489358Y-58907540D01*
X92488511Y-59272341D01*
X91102234Y-59272341D01*
X91078475Y-58988356D01*
X90947842Y-58696856D01*
X90699185Y-58604259D01*
X90461915Y-58596809D01*
X89947697Y-58485204D01*
X89789236Y-58045767D01*
X89786383Y-57921277D01*
X89830187Y-57520356D01*
X90053736Y-57320346D01*
X90595233Y-57252144D01*
X91137447Y-57245745D01*
X91939290Y-57223843D01*
X92339310Y-57112069D01*
X92475712Y-56841320D01*
X92488511Y-56570213D01*
X92615171Y-56040487D01*
X93028936Y-55894681D01*
X93452718Y-56053007D01*
X93569362Y-56570213D01*
X93680966Y-57084432D01*
X94120404Y-57242892D01*
X94244894Y-57245745D01*
X94759112Y-57134141D01*
X94917573Y-56694703D01*
X94920426Y-56570213D01*
X94964230Y-56169292D01*
X95187779Y-55969282D01*
X95729276Y-55901081D01*
X96271489Y-55894681D01*
X97073332Y-55916584D01*
G37*
G36*
X86809645Y-55938486D02*
G01*
X87009655Y-56162034D01*
X87077856Y-56703532D01*
X87084255Y-57245745D01*
X87106158Y-58047588D01*
X87217932Y-58447608D01*
X87488680Y-58584011D01*
X87759787Y-58596809D01*
X88274006Y-58708414D01*
X88432466Y-59147851D01*
X88435319Y-59272341D01*
X88546924Y-59786559D01*
X88986361Y-59945020D01*
X89110851Y-59947873D01*
X89786383Y-59947873D01*
X89786383Y-62650001D01*
X89786383Y-65352128D01*
X90461915Y-65352128D01*
X90976133Y-65240524D01*
X91134594Y-64801086D01*
X91137447Y-64676596D01*
X91249052Y-64162378D01*
X91688489Y-64003917D01*
X91812979Y-64001064D01*
X92327197Y-64112669D01*
X92485658Y-64552106D01*
X92488511Y-64676596D01*
X92376906Y-65190815D01*
X91937469Y-65349275D01*
X91812979Y-65352128D01*
X91298761Y-65463733D01*
X91140300Y-65903170D01*
X91137447Y-66027660D01*
X91249052Y-66541878D01*
X91688489Y-66700339D01*
X91812979Y-66703192D01*
X92327197Y-66814797D01*
X92485658Y-67254234D01*
X92488511Y-67378724D01*
X92615171Y-67908451D01*
X93028936Y-68054256D01*
X93353086Y-68125388D01*
X93514751Y-68427312D01*
X93567049Y-69092820D01*
X93569362Y-69405320D01*
X93591264Y-70207162D01*
X93703038Y-70607183D01*
X93973787Y-70743585D01*
X94244894Y-70756384D01*
X94759112Y-70644779D01*
X94917573Y-70205342D01*
X94920426Y-70080852D01*
X95032030Y-69566633D01*
X95471468Y-69408173D01*
X95595958Y-69405320D01*
X96110176Y-69293715D01*
X96268637Y-68854278D01*
X96271489Y-68729788D01*
X96383094Y-68215570D01*
X96822531Y-68057109D01*
X96947021Y-68054256D01*
X97347943Y-68098060D01*
X97547953Y-68321609D01*
X97616154Y-68863106D01*
X97622553Y-69405320D01*
X97622553Y-70756384D01*
X96271489Y-70756384D01*
X94920426Y-70756384D01*
X94920426Y-72107447D01*
X94898523Y-72909290D01*
X94786749Y-73309311D01*
X94516001Y-73445713D01*
X94244894Y-73458511D01*
X93715167Y-73585172D01*
X93569362Y-73998937D01*
X93727687Y-74422718D01*
X94244894Y-74539362D01*
X94645815Y-74583167D01*
X94845825Y-74806715D01*
X94914026Y-75348212D01*
X94920426Y-75890426D01*
X94898523Y-76692269D01*
X94786749Y-77092289D01*
X94516001Y-77228692D01*
X94244894Y-77241490D01*
X93843972Y-77197686D01*
X93643962Y-76974137D01*
X93575761Y-76432640D01*
X93569362Y-75890426D01*
X93540909Y-75080052D01*
X93420139Y-74675889D01*
X93153936Y-74545143D01*
X93028936Y-74539362D01*
X92605155Y-74697688D01*
X92488511Y-75214894D01*
X92376906Y-75729113D01*
X91937469Y-75887573D01*
X91812979Y-75890426D01*
X91298761Y-76002031D01*
X91140300Y-76441468D01*
X91137447Y-76565958D01*
X91249052Y-77080176D01*
X91688489Y-77238637D01*
X91812979Y-77241490D01*
X92327197Y-77353095D01*
X92485658Y-77792532D01*
X92488511Y-77917022D01*
X92615171Y-78446749D01*
X93028936Y-78592554D01*
X93452718Y-78750879D01*
X93569362Y-79268086D01*
X93680966Y-79782304D01*
X94120404Y-79940765D01*
X94244894Y-79943618D01*
X94759112Y-79832013D01*
X94917573Y-79392576D01*
X94920426Y-79268086D01*
X94964230Y-78867164D01*
X95187779Y-78667154D01*
X95729276Y-78598953D01*
X96271489Y-78592554D01*
X97073332Y-78570652D01*
X97473353Y-78458877D01*
X97609755Y-78188129D01*
X97622553Y-77917022D01*
X97510949Y-77402804D01*
X97071511Y-77244343D01*
X96947021Y-77241490D01*
X96432803Y-77129885D01*
X96274342Y-76690448D01*
X96271489Y-76565958D01*
X96315294Y-76165037D01*
X96538842Y-75965026D01*
X97080340Y-75896825D01*
X97622553Y-75890426D01*
X98424396Y-75868524D01*
X98824416Y-75756750D01*
X98960819Y-75486001D01*
X98973617Y-75214894D01*
X99085222Y-74700676D01*
X99524659Y-74542215D01*
X99649149Y-74539362D01*
X100163367Y-74650967D01*
X100321828Y-75090404D01*
X100324681Y-75214894D01*
X100368485Y-75615816D01*
X100592034Y-75815826D01*
X101133531Y-75884027D01*
X101675745Y-75890426D01*
X102477587Y-75912328D01*
X102877608Y-76024103D01*
X103014010Y-76294851D01*
X103026809Y-76565958D01*
X102915204Y-77080176D01*
X102475767Y-77238637D01*
X102351277Y-77241490D01*
X101950355Y-77285294D01*
X101750345Y-77508843D01*
X101682144Y-78050340D01*
X101675745Y-78592554D01*
X101697647Y-79394397D01*
X101809421Y-79794417D01*
X102080170Y-79930819D01*
X102351277Y-79943618D01*
X102865495Y-79832013D01*
X103023956Y-79392576D01*
X103026809Y-79268086D01*
X103138413Y-78753867D01*
X103577851Y-78595407D01*
X103702341Y-78592554D01*
X104216559Y-78480949D01*
X104375020Y-78041512D01*
X104377872Y-77917022D01*
X104421677Y-77516101D01*
X104645225Y-77316090D01*
X105186723Y-77247889D01*
X105728936Y-77241490D01*
X106530779Y-77263392D01*
X106930799Y-77375166D01*
X107067202Y-77645915D01*
X107080000Y-77917022D01*
X107191605Y-78431240D01*
X107631042Y-78589701D01*
X107755532Y-78592554D01*
X108269750Y-78480949D01*
X108428211Y-78041512D01*
X108431064Y-77917022D01*
X108474868Y-77516101D01*
X108698417Y-77316090D01*
X109239914Y-77247889D01*
X109782128Y-77241490D01*
X110583970Y-77219588D01*
X110983991Y-77107813D01*
X111120393Y-76837065D01*
X111133192Y-76565958D01*
X111107935Y-76222354D01*
X110956276Y-76020942D01*
X110564377Y-75923775D01*
X109818404Y-75892909D01*
X109106596Y-75890426D01*
X108075784Y-75882007D01*
X107471547Y-75831454D01*
X107180047Y-75700821D01*
X107087450Y-75452164D01*
X107080000Y-75214894D01*
X106968395Y-74700676D01*
X106528958Y-74542215D01*
X106404468Y-74539362D01*
X105890250Y-74650967D01*
X105731789Y-75090404D01*
X105728936Y-75214894D01*
X105617332Y-75729113D01*
X105177894Y-75887573D01*
X105053404Y-75890426D01*
X104636548Y-75840027D01*
X104439045Y-75592298D01*
X104380452Y-75002439D01*
X104377872Y-74674469D01*
X104349873Y-73924127D01*
X104212246Y-73568622D01*
X103884546Y-73463155D01*
X103702341Y-73458511D01*
X103172614Y-73585172D01*
X103026809Y-73998937D01*
X102868483Y-74422718D01*
X102351277Y-74539362D01*
X101821550Y-74412702D01*
X101675745Y-73998937D01*
X101517419Y-73575155D01*
X101000213Y-73458511D01*
X100599291Y-73414707D01*
X100399281Y-73191158D01*
X100331080Y-72649661D01*
X100324681Y-72107447D01*
X100324681Y-71431916D01*
X104377872Y-71431916D01*
X104421677Y-71832837D01*
X104645225Y-72032847D01*
X105186723Y-72101048D01*
X105728936Y-72107447D01*
X106530779Y-72129350D01*
X106930799Y-72241124D01*
X107067202Y-72511872D01*
X107080000Y-72782979D01*
X107191605Y-73297198D01*
X107631042Y-73455658D01*
X107755532Y-73458511D01*
X108285259Y-73585172D01*
X108431064Y-73998937D01*
X108589390Y-74422718D01*
X109106596Y-74539362D01*
X109636323Y-74412702D01*
X109782128Y-73998937D01*
X109623802Y-73575155D01*
X109106596Y-73458511D01*
X108705674Y-73414707D01*
X108505664Y-73191158D01*
X108437463Y-72649661D01*
X108431064Y-72107447D01*
X108409162Y-71305605D01*
X108297387Y-70905584D01*
X108026639Y-70769182D01*
X107755532Y-70756384D01*
X107241314Y-70644779D01*
X107082853Y-70205342D01*
X107080000Y-70080852D01*
X106968395Y-69566633D01*
X106528958Y-69408173D01*
X106404468Y-69405320D01*
X105890250Y-69516924D01*
X105731789Y-69956362D01*
X105728936Y-70080852D01*
X105617332Y-70595070D01*
X105177894Y-70753531D01*
X105053404Y-70756384D01*
X104539186Y-70867988D01*
X104380725Y-71307426D01*
X104377872Y-71431916D01*
X100324681Y-71431916D01*
X100324681Y-70756384D01*
X101675745Y-70756384D01*
X103026809Y-70756384D01*
X103026809Y-69405320D01*
X103026809Y-68729788D01*
X108431064Y-68729788D01*
X108542669Y-69244006D01*
X108982106Y-69402467D01*
X109106596Y-69405320D01*
X109620814Y-69293715D01*
X109779275Y-68854278D01*
X109782128Y-68729788D01*
X109670523Y-68215570D01*
X109231086Y-68057109D01*
X109106596Y-68054256D01*
X108592378Y-68165861D01*
X108433917Y-68605298D01*
X108431064Y-68729788D01*
X103026809Y-68729788D01*
X103026809Y-68054256D01*
X104377872Y-68054256D01*
X105179715Y-68032354D01*
X105579736Y-67920579D01*
X105716138Y-67649831D01*
X105728936Y-67378724D01*
X105840541Y-66864506D01*
X106279978Y-66706045D01*
X106404468Y-66703192D01*
X106918686Y-66814797D01*
X107077147Y-67254234D01*
X107080000Y-67378724D01*
X107191605Y-67892942D01*
X107631042Y-68051403D01*
X107755532Y-68054256D01*
X108269750Y-67942651D01*
X108428211Y-67503214D01*
X108431064Y-67378724D01*
X108431064Y-66703192D01*
X111133192Y-66703192D01*
X113835319Y-66703192D01*
X113835319Y-67378724D01*
X113791515Y-67779645D01*
X113567966Y-67979656D01*
X113026469Y-68047857D01*
X112484255Y-68054256D01*
X111133192Y-68054256D01*
X111133192Y-69405320D01*
X111111289Y-70207162D01*
X110999515Y-70607183D01*
X110728766Y-70743585D01*
X110457660Y-70756384D01*
X109943441Y-70867988D01*
X109784981Y-71307426D01*
X109782128Y-71431916D01*
X109825932Y-71832837D01*
X110049481Y-72032847D01*
X110590978Y-72101048D01*
X111133192Y-72107447D01*
X111935034Y-72129350D01*
X112335055Y-72241124D01*
X112471457Y-72511872D01*
X112484255Y-72782979D01*
X112372651Y-73297198D01*
X111933213Y-73455658D01*
X111808723Y-73458511D01*
X111278997Y-73585172D01*
X111133192Y-73998937D01*
X111291517Y-74422718D01*
X111808723Y-74539362D01*
X112152327Y-74564619D01*
X112353740Y-74716278D01*
X112450906Y-75108177D01*
X112481772Y-75854149D01*
X112484255Y-76565958D01*
X112492674Y-77596770D01*
X112543227Y-78201007D01*
X112673860Y-78492507D01*
X112922518Y-78585104D01*
X113159787Y-78592554D01*
X113674006Y-78704158D01*
X113832466Y-79143596D01*
X113835319Y-79268086D01*
X113723715Y-79782304D01*
X113284277Y-79940765D01*
X113159787Y-79943618D01*
X112758866Y-79987422D01*
X112558856Y-80210971D01*
X112490655Y-80752468D01*
X112484255Y-81294681D01*
X112462353Y-82096524D01*
X112350579Y-82496545D01*
X112079830Y-82632947D01*
X111808723Y-82645745D01*
X111294505Y-82534141D01*
X111136044Y-82094703D01*
X111133192Y-81970213D01*
X111107935Y-81626610D01*
X110956276Y-81425197D01*
X110564377Y-81328030D01*
X109818404Y-81297165D01*
X109106596Y-81294681D01*
X108075784Y-81286263D01*
X107471547Y-81235709D01*
X107180047Y-81105077D01*
X107087450Y-80856419D01*
X107080000Y-80619150D01*
X106968395Y-80104931D01*
X106528958Y-79946470D01*
X106404468Y-79943618D01*
X105890250Y-80055222D01*
X105731789Y-80494660D01*
X105728936Y-80619150D01*
X105617332Y-81133368D01*
X105177894Y-81291829D01*
X105053404Y-81294681D01*
X104539186Y-81406286D01*
X104380725Y-81845723D01*
X104377872Y-81970213D01*
X104403129Y-82313817D01*
X104554788Y-82515230D01*
X104946687Y-82612396D01*
X105692659Y-82643262D01*
X106404468Y-82645745D01*
X107435280Y-82654164D01*
X108039517Y-82704717D01*
X108331017Y-82835350D01*
X108423614Y-83084008D01*
X108431064Y-83321277D01*
X108474868Y-83722199D01*
X108698417Y-83922209D01*
X109239914Y-83990410D01*
X109782128Y-83996809D01*
X111133192Y-83996809D01*
X111133192Y-85347873D01*
X111155094Y-86149716D01*
X111266868Y-86549736D01*
X111537617Y-86686138D01*
X111808723Y-86698937D01*
X112322942Y-86587332D01*
X112481403Y-86147895D01*
X112484255Y-86023405D01*
X112595860Y-85509187D01*
X113035297Y-85350726D01*
X113159787Y-85347873D01*
X113674006Y-85459478D01*
X113832466Y-85898915D01*
X113835319Y-86023405D01*
X113723715Y-86537623D01*
X113284277Y-86696084D01*
X113159787Y-86698937D01*
X112645569Y-86810541D01*
X112487108Y-87249979D01*
X112484255Y-87374469D01*
X112595860Y-87888687D01*
X113035297Y-88047148D01*
X113159787Y-88050001D01*
X113674006Y-88161605D01*
X113832466Y-88601043D01*
X113835319Y-88725533D01*
X113723715Y-89239751D01*
X113284277Y-89398212D01*
X113159787Y-89401064D01*
X112645569Y-89512669D01*
X112487108Y-89952106D01*
X112484255Y-90076596D01*
X112595860Y-90590815D01*
X113035297Y-90749275D01*
X113159787Y-90752128D01*
X113674006Y-90863733D01*
X113832466Y-91303170D01*
X113835319Y-91427660D01*
X113791515Y-91828582D01*
X113567966Y-92028592D01*
X113026469Y-92096793D01*
X112484255Y-92103192D01*
X111682413Y-92125094D01*
X111282392Y-92236869D01*
X111145990Y-92507617D01*
X111133192Y-92778724D01*
X111244796Y-93292942D01*
X111684234Y-93451403D01*
X111808723Y-93454256D01*
X112322942Y-93565861D01*
X112481403Y-94005298D01*
X112484255Y-94129788D01*
X112372651Y-94644006D01*
X111933213Y-94802467D01*
X111808723Y-94805320D01*
X111294505Y-94693715D01*
X111136044Y-94254278D01*
X111133192Y-94129788D01*
X111089387Y-93728866D01*
X110865839Y-93528856D01*
X110324341Y-93460655D01*
X109782128Y-93454256D01*
X108980285Y-93476158D01*
X108580265Y-93587932D01*
X108443862Y-93858681D01*
X108431064Y-94129788D01*
X108319459Y-94644006D01*
X107880022Y-94802467D01*
X107755532Y-94805320D01*
X107241314Y-94693715D01*
X107082853Y-94254278D01*
X107080000Y-94129788D01*
X106968395Y-93615570D01*
X106528958Y-93457109D01*
X106404468Y-93454256D01*
X105890250Y-93565861D01*
X105731789Y-94005298D01*
X105728936Y-94129788D01*
X105703680Y-94473392D01*
X105552020Y-94674804D01*
X105160122Y-94771971D01*
X104414149Y-94802836D01*
X103702341Y-94805320D01*
X102671529Y-94796901D01*
X102067291Y-94746348D01*
X101775792Y-94615715D01*
X101683195Y-94367057D01*
X101675745Y-94129788D01*
X101564140Y-93615570D01*
X101124703Y-93457109D01*
X101000213Y-93454256D01*
X100485995Y-93565861D01*
X100327534Y-94005298D01*
X100324681Y-94129788D01*
X100299425Y-94473392D01*
X100147765Y-94674804D01*
X99755867Y-94771971D01*
X99009894Y-94802836D01*
X98298085Y-94805320D01*
X97267274Y-94796901D01*
X96663036Y-94746348D01*
X96371536Y-94615715D01*
X96278939Y-94367057D01*
X96271489Y-94129788D01*
X96383094Y-93615570D01*
X96822531Y-93457109D01*
X96947021Y-93454256D01*
X97461240Y-93342651D01*
X97619700Y-92903214D01*
X97622553Y-92778724D01*
X98973617Y-92778724D01*
X99085222Y-93292942D01*
X99524659Y-93451403D01*
X99649149Y-93454256D01*
X100163367Y-93342651D01*
X100321828Y-92903214D01*
X100324681Y-92778724D01*
X100213076Y-92264506D01*
X99773639Y-92106045D01*
X99649149Y-92103192D01*
X99134931Y-92214797D01*
X98976470Y-92654234D01*
X98973617Y-92778724D01*
X97622553Y-92778724D01*
X97510949Y-92264506D01*
X97071511Y-92106045D01*
X96947021Y-92103192D01*
X96432803Y-91991587D01*
X96274342Y-91552150D01*
X96271489Y-91427660D01*
X96383094Y-90913442D01*
X96822531Y-90754981D01*
X96947021Y-90752128D01*
X97461240Y-90863733D01*
X97619700Y-91303170D01*
X97622553Y-91427660D01*
X97734158Y-91941878D01*
X98173595Y-92100339D01*
X98298085Y-92103192D01*
X98699007Y-92059388D01*
X98899017Y-91835839D01*
X98967218Y-91294342D01*
X98973617Y-90752128D01*
X98992069Y-90076596D01*
X100324681Y-90076596D01*
X100436286Y-90590815D01*
X100875723Y-90749275D01*
X101000213Y-90752128D01*
X101401134Y-90795933D01*
X101601144Y-91019481D01*
X101669346Y-91560978D01*
X101675745Y-92103192D01*
X101675745Y-93454256D01*
X103026809Y-93454256D01*
X103828651Y-93432354D01*
X104228672Y-93320579D01*
X104365074Y-93049831D01*
X104377872Y-92778724D01*
X104421677Y-92377803D01*
X104645225Y-92177792D01*
X105186723Y-92109591D01*
X105728936Y-92103192D01*
X106530779Y-92081290D01*
X106930799Y-91969516D01*
X107067202Y-91698767D01*
X107080000Y-91427660D01*
X107191605Y-90913442D01*
X107631042Y-90754981D01*
X107755532Y-90752128D01*
X108269750Y-90863733D01*
X108428211Y-91303170D01*
X108431064Y-91427660D01*
X108542669Y-91941878D01*
X108982106Y-92100339D01*
X109106596Y-92103192D01*
X109620814Y-91991587D01*
X109779275Y-91552150D01*
X109782128Y-91427660D01*
X109670523Y-90913442D01*
X109231086Y-90754981D01*
X109106596Y-90752128D01*
X108592378Y-90640524D01*
X108433917Y-90201086D01*
X108431064Y-90076596D01*
X108319459Y-89562378D01*
X107880022Y-89403917D01*
X107755532Y-89401064D01*
X107241314Y-89512669D01*
X107082853Y-89952106D01*
X107080000Y-90076596D01*
X107054744Y-90420200D01*
X106903084Y-90621613D01*
X106511186Y-90718779D01*
X105765213Y-90749645D01*
X105053404Y-90752128D01*
X104022593Y-90743709D01*
X103418355Y-90693156D01*
X103126855Y-90562523D01*
X103034259Y-90313866D01*
X103026809Y-90076596D01*
X102983004Y-89675675D01*
X102759456Y-89475665D01*
X102217958Y-89407464D01*
X101675745Y-89401064D01*
X100873902Y-89422967D01*
X100473882Y-89534741D01*
X100337479Y-89805490D01*
X100324681Y-90076596D01*
X98992069Y-90076596D01*
X98995519Y-89950286D01*
X99107294Y-89550265D01*
X99378042Y-89413863D01*
X99649149Y-89401064D01*
X100163367Y-89289460D01*
X100321828Y-88850022D01*
X100324681Y-88725533D01*
X100299425Y-88381929D01*
X100147765Y-88180516D01*
X99755867Y-88083350D01*
X99009894Y-88052484D01*
X98298085Y-88050001D01*
X103026809Y-88050001D01*
X105053404Y-88050001D01*
X107080000Y-88050001D01*
X107080000Y-87374469D01*
X108431064Y-87374469D01*
X108542669Y-87888687D01*
X108982106Y-88047148D01*
X109106596Y-88050001D01*
X109620814Y-88161605D01*
X109779275Y-88601043D01*
X109782128Y-88725533D01*
X109825932Y-89126454D01*
X110049481Y-89326464D01*
X110590978Y-89394665D01*
X111133192Y-89401064D01*
X111935034Y-89379162D01*
X112335055Y-89267388D01*
X112471457Y-88996639D01*
X112484255Y-88725533D01*
X112440451Y-88324611D01*
X112216902Y-88124601D01*
X111675405Y-88056400D01*
X111133192Y-88050001D01*
X110331349Y-88028098D01*
X109931328Y-87916324D01*
X109794926Y-87645576D01*
X109782128Y-87374469D01*
X109670523Y-86860250D01*
X109231086Y-86701790D01*
X109106596Y-86698937D01*
X108592378Y-86810541D01*
X108433917Y-87249979D01*
X108431064Y-87374469D01*
X107080000Y-87374469D01*
X107080000Y-86023405D01*
X107080000Y-83996809D01*
X105053404Y-83996809D01*
X103026809Y-83996809D01*
X103026809Y-86023405D01*
X103026809Y-88050001D01*
X98298085Y-88050001D01*
X97267274Y-88041582D01*
X96663036Y-87991029D01*
X96371536Y-87860396D01*
X96278939Y-87611738D01*
X96271489Y-87374469D01*
X96315294Y-86973547D01*
X96538842Y-86773537D01*
X97080340Y-86705336D01*
X97622553Y-86698937D01*
X98424396Y-86677035D01*
X98824416Y-86565260D01*
X98960819Y-86294512D01*
X98973617Y-86023405D01*
X100324681Y-86023405D01*
X100436286Y-86537623D01*
X100875723Y-86696084D01*
X101000213Y-86698937D01*
X101514431Y-86587332D01*
X101672892Y-86147895D01*
X101675745Y-86023405D01*
X101564140Y-85509187D01*
X101124703Y-85350726D01*
X101000213Y-85347873D01*
X100485995Y-85459478D01*
X100327534Y-85898915D01*
X100324681Y-86023405D01*
X98973617Y-86023405D01*
X99085222Y-85509187D01*
X99524659Y-85350726D01*
X99649149Y-85347873D01*
X100163367Y-85236268D01*
X100321828Y-84796831D01*
X100324681Y-84672341D01*
X100213076Y-84158123D01*
X99773639Y-83999662D01*
X99649149Y-83996809D01*
X99134931Y-83885204D01*
X98976470Y-83445767D01*
X98973617Y-83321277D01*
X98862012Y-82807059D01*
X98422575Y-82648598D01*
X98298085Y-82645745D01*
X97897164Y-82689550D01*
X97697154Y-82913098D01*
X97628952Y-83454595D01*
X97622553Y-83996809D01*
X97622553Y-85347873D01*
X96271489Y-85347873D01*
X94920426Y-85347873D01*
X94920426Y-88725533D01*
X94920426Y-92103192D01*
X93704468Y-92103192D01*
X92954126Y-92131191D01*
X92598621Y-92268819D01*
X92493155Y-92596518D01*
X92488511Y-92778724D01*
X92444706Y-93179645D01*
X92221158Y-93379656D01*
X91679661Y-93447857D01*
X91137447Y-93454256D01*
X89786383Y-93454256D01*
X89786383Y-92103192D01*
X89808285Y-91301349D01*
X89920060Y-90901329D01*
X90190808Y-90764927D01*
X90461915Y-90752128D01*
X90976133Y-90640524D01*
X91134594Y-90201086D01*
X91137447Y-90076596D01*
X91249052Y-89562378D01*
X91688489Y-89403917D01*
X91812979Y-89401064D01*
X92213900Y-89357260D01*
X92413910Y-89133711D01*
X92482112Y-88592214D01*
X92488511Y-88050001D01*
X92516964Y-87239627D01*
X92637733Y-86835463D01*
X92903936Y-86704718D01*
X93028936Y-86698937D01*
X93452718Y-86540611D01*
X93569362Y-86023405D01*
X93518963Y-85606548D01*
X93271234Y-85409046D01*
X92681374Y-85350453D01*
X92353404Y-85347873D01*
X91137447Y-85347873D01*
X91137447Y-86698937D01*
X91115545Y-87500780D01*
X91003770Y-87900800D01*
X90733022Y-88037202D01*
X90461915Y-88050001D01*
X89947697Y-88161605D01*
X89789236Y-88601043D01*
X89786383Y-88725533D01*
X89674778Y-89239751D01*
X89235341Y-89398212D01*
X89110851Y-89401064D01*
X88709930Y-89444869D01*
X88509920Y-89668417D01*
X88441718Y-90209915D01*
X88435319Y-90752128D01*
X88413417Y-91553971D01*
X88301643Y-91953991D01*
X88030894Y-92090394D01*
X87759787Y-92103192D01*
X87358866Y-92146996D01*
X87158856Y-92370545D01*
X87090655Y-92912042D01*
X87084255Y-93454256D01*
X87062353Y-94256099D01*
X86950579Y-94656119D01*
X86679830Y-94792521D01*
X86408723Y-94805320D01*
X86007802Y-94761516D01*
X85807792Y-94537967D01*
X85739591Y-93996470D01*
X85733192Y-93454256D01*
X85755094Y-92652413D01*
X85866868Y-92252393D01*
X86137617Y-92115991D01*
X86408723Y-92103192D01*
X86809645Y-92059388D01*
X87009655Y-91835839D01*
X87077856Y-91294342D01*
X87084255Y-90752128D01*
X87062353Y-89950286D01*
X86950579Y-89550265D01*
X86679830Y-89413863D01*
X86408723Y-89401064D01*
X86007802Y-89357260D01*
X85807792Y-89133711D01*
X85739591Y-88592214D01*
X85733192Y-88050001D01*
X85733192Y-86698937D01*
X87084255Y-86698937D01*
X87886098Y-86677035D01*
X88286119Y-86565260D01*
X88422521Y-86294512D01*
X88435319Y-86023405D01*
X88479123Y-85622483D01*
X88702672Y-85422473D01*
X89244169Y-85354272D01*
X89786383Y-85347873D01*
X90588226Y-85325971D01*
X90988246Y-85214196D01*
X91124648Y-84943448D01*
X91137447Y-84672341D01*
X91112190Y-84328737D01*
X90960531Y-84127325D01*
X90568632Y-84030158D01*
X89822660Y-83999292D01*
X89110851Y-83996809D01*
X88080040Y-84005228D01*
X87475802Y-84055781D01*
X87184302Y-84186414D01*
X87091705Y-84435071D01*
X87084255Y-84672341D01*
X86972651Y-85186559D01*
X86533213Y-85345020D01*
X86408723Y-85347873D01*
X85894505Y-85236268D01*
X85736044Y-84796831D01*
X85733192Y-84672341D01*
X85689387Y-84271420D01*
X85465839Y-84071409D01*
X84924341Y-84003208D01*
X84382128Y-83996809D01*
X83580285Y-83974907D01*
X83180265Y-83863133D01*
X83043862Y-83592384D01*
X83031064Y-83321277D01*
X83074868Y-82920356D01*
X83298417Y-82720346D01*
X83839914Y-82652144D01*
X84382128Y-82645745D01*
X85183970Y-82667647D01*
X85583991Y-82779422D01*
X85720393Y-83050170D01*
X85733192Y-83321277D01*
X85844796Y-83835495D01*
X86284234Y-83993956D01*
X86408723Y-83996809D01*
X86809645Y-83953005D01*
X87009655Y-83729456D01*
X87077856Y-83187959D01*
X87084255Y-82645745D01*
X87062353Y-81843903D01*
X86950579Y-81443882D01*
X86679830Y-81307480D01*
X86408723Y-81294681D01*
X85894505Y-81183077D01*
X85736044Y-80743639D01*
X85733192Y-80619150D01*
X85621587Y-80104931D01*
X85182150Y-79946470D01*
X85057660Y-79943618D01*
X84543441Y-80055222D01*
X84384981Y-80494660D01*
X84382128Y-80619150D01*
X84270523Y-81133368D01*
X83831086Y-81291829D01*
X83706596Y-81294681D01*
X83192378Y-81183077D01*
X83033917Y-80743639D01*
X83031064Y-80619150D01*
X82919459Y-80104931D01*
X82480022Y-79946470D01*
X82355532Y-79943618D01*
X82011928Y-79968874D01*
X81810516Y-80120534D01*
X81713349Y-80512432D01*
X81682483Y-81258405D01*
X81680000Y-81970213D01*
X81680000Y-83996809D01*
X80328936Y-83996809D01*
X79527094Y-83974907D01*
X79127073Y-83863133D01*
X78990671Y-83592384D01*
X78977872Y-83321277D01*
X78866268Y-82807059D01*
X78426830Y-82648598D01*
X78302341Y-82645745D01*
X77788122Y-82757350D01*
X77629661Y-83196787D01*
X77626809Y-83321277D01*
X77583004Y-83722199D01*
X77359456Y-83922209D01*
X76817958Y-83990410D01*
X76275745Y-83996809D01*
X75473902Y-83974907D01*
X75073882Y-83863133D01*
X74937479Y-83592384D01*
X74924681Y-83321277D01*
X74968485Y-82920356D01*
X75192034Y-82720346D01*
X75733531Y-82652144D01*
X76275745Y-82645745D01*
X77077587Y-82623843D01*
X77477608Y-82512069D01*
X77614010Y-82241320D01*
X77626809Y-81970213D01*
X77738413Y-81455995D01*
X78177851Y-81297534D01*
X78302341Y-81294681D01*
X78816559Y-81406286D01*
X78975020Y-81845723D01*
X78977872Y-81970213D01*
X79089477Y-82484432D01*
X79528914Y-82642892D01*
X79653404Y-82645745D01*
X80054326Y-82601941D01*
X80254336Y-82378392D01*
X80322537Y-81836895D01*
X80328936Y-81294681D01*
X80328936Y-79943618D01*
X78977872Y-79943618D01*
X78176030Y-79921716D01*
X77776009Y-79809941D01*
X77639607Y-79539193D01*
X77626809Y-79268086D01*
X83031064Y-79268086D01*
X83142669Y-79782304D01*
X83582106Y-79940765D01*
X83706596Y-79943618D01*
X84220814Y-79832013D01*
X84379275Y-79392576D01*
X84382128Y-79268086D01*
X84270523Y-78753867D01*
X83831086Y-78595407D01*
X83706596Y-78592554D01*
X83192378Y-78704158D01*
X83033917Y-79143596D01*
X83031064Y-79268086D01*
X77626809Y-79268086D01*
X77626809Y-78592554D01*
X80328936Y-78592554D01*
X83031064Y-78592554D01*
X83031064Y-77917022D01*
X82919459Y-77402804D01*
X82480022Y-77244343D01*
X82355532Y-77241490D01*
X81954611Y-77197686D01*
X81754600Y-76974137D01*
X81703190Y-76565958D01*
X83031064Y-76565958D01*
X83074868Y-76966879D01*
X83298417Y-77166890D01*
X83839914Y-77235091D01*
X84382128Y-77241490D01*
X85183970Y-77263392D01*
X85583991Y-77375166D01*
X85720393Y-77645915D01*
X85733192Y-77917022D01*
X85844796Y-78431240D01*
X86284234Y-78589701D01*
X86408723Y-78592554D01*
X86809645Y-78636358D01*
X87009655Y-78859907D01*
X87077856Y-79401404D01*
X87084255Y-79943618D01*
X87106158Y-80745460D01*
X87217932Y-81145481D01*
X87488680Y-81281883D01*
X87759787Y-81294681D01*
X88274006Y-81406286D01*
X88432466Y-81845723D01*
X88435319Y-81970213D01*
X88479123Y-82371135D01*
X88702672Y-82571145D01*
X89244169Y-82639346D01*
X89786383Y-82645745D01*
X90588226Y-82623843D01*
X90988246Y-82512069D01*
X91124648Y-82241320D01*
X91137447Y-81970213D01*
X91249052Y-81455995D01*
X91688489Y-81297534D01*
X91812979Y-81294681D01*
X92213900Y-81338486D01*
X92413910Y-81562034D01*
X92482112Y-82103532D01*
X92488511Y-82645745D01*
X92516964Y-83456119D01*
X92637733Y-83860283D01*
X92903936Y-83991028D01*
X93028936Y-83996809D01*
X93452718Y-84155135D01*
X93569362Y-84672341D01*
X93680966Y-85186559D01*
X94120404Y-85345020D01*
X94244894Y-85347873D01*
X94759112Y-85236268D01*
X94917573Y-84796831D01*
X94920426Y-84672341D01*
X95032030Y-84158123D01*
X95471468Y-83999662D01*
X95595958Y-83996809D01*
X96110176Y-83885204D01*
X96268637Y-83445767D01*
X96271489Y-83321277D01*
X96383094Y-82807059D01*
X96822531Y-82648598D01*
X96947021Y-82645745D01*
X97461240Y-82534141D01*
X97619700Y-82094703D01*
X97622553Y-81970213D01*
X97734158Y-81455995D01*
X98173595Y-81297534D01*
X98298085Y-81294681D01*
X98812303Y-81406286D01*
X98970764Y-81845723D01*
X98973617Y-81970213D01*
X99085222Y-82484432D01*
X99524659Y-82642892D01*
X99649149Y-82645745D01*
X100163367Y-82534141D01*
X100321828Y-82094703D01*
X100324681Y-81970213D01*
X100436286Y-81455995D01*
X100875723Y-81297534D01*
X101000213Y-81294681D01*
X101514431Y-81183077D01*
X101672892Y-80743639D01*
X101675745Y-80619150D01*
X103026809Y-80619150D01*
X103138413Y-81133368D01*
X103577851Y-81291829D01*
X103702341Y-81294681D01*
X104216559Y-81183077D01*
X104375020Y-80743639D01*
X104377872Y-80619150D01*
X104489477Y-80104931D01*
X104928914Y-79946470D01*
X105053404Y-79943618D01*
X105567623Y-79832013D01*
X105726083Y-79392576D01*
X105728936Y-79268086D01*
X108431064Y-79268086D01*
X108542669Y-79782304D01*
X108982106Y-79940765D01*
X109106596Y-79943618D01*
X109620814Y-79832013D01*
X109779275Y-79392576D01*
X109782128Y-79268086D01*
X109670523Y-78753867D01*
X109231086Y-78595407D01*
X109106596Y-78592554D01*
X108592378Y-78704158D01*
X108433917Y-79143596D01*
X108431064Y-79268086D01*
X105728936Y-79268086D01*
X105617332Y-78753867D01*
X105177894Y-78595407D01*
X105053404Y-78592554D01*
X104539186Y-78704158D01*
X104380725Y-79143596D01*
X104377872Y-79268086D01*
X104266268Y-79782304D01*
X103826830Y-79940765D01*
X103702341Y-79943618D01*
X103188122Y-80055222D01*
X103029661Y-80494660D01*
X103026809Y-80619150D01*
X101675745Y-80619150D01*
X101564140Y-80104931D01*
X101124703Y-79946470D01*
X101000213Y-79943618D01*
X100599291Y-79899813D01*
X100399281Y-79676265D01*
X100331080Y-79134767D01*
X100324681Y-78592554D01*
X100302779Y-77790711D01*
X100191004Y-77390691D01*
X99920256Y-77254288D01*
X99649149Y-77241490D01*
X99134931Y-77353095D01*
X98976470Y-77792532D01*
X98973617Y-77917022D01*
X98862012Y-78431240D01*
X98422575Y-78589701D01*
X98298085Y-78592554D01*
X97783867Y-78704158D01*
X97625406Y-79143596D01*
X97622553Y-79268086D01*
X97510949Y-79782304D01*
X97071511Y-79940765D01*
X96947021Y-79943618D01*
X96432803Y-80055222D01*
X96274342Y-80494660D01*
X96271489Y-80619150D01*
X96243675Y-80972078D01*
X96081724Y-81174066D01*
X95667875Y-81267172D01*
X94884368Y-81293452D01*
X94380000Y-81294681D01*
X92488511Y-81294681D01*
X92488511Y-79943618D01*
X92466609Y-79141775D01*
X92354834Y-78741754D01*
X92084086Y-78605352D01*
X91812979Y-78592554D01*
X91298761Y-78480949D01*
X91140300Y-78041512D01*
X91137447Y-77917022D01*
X91025842Y-77402804D01*
X90586405Y-77244343D01*
X90461915Y-77241490D01*
X89947697Y-77353095D01*
X89789236Y-77792532D01*
X89786383Y-77917022D01*
X89674778Y-78431240D01*
X89235341Y-78589701D01*
X89110851Y-78592554D01*
X88596633Y-78480949D01*
X88438172Y-78041512D01*
X88435319Y-77917022D01*
X88323715Y-77402804D01*
X87884277Y-77244343D01*
X87759787Y-77241490D01*
X87245569Y-77129885D01*
X87087108Y-76690448D01*
X87084255Y-76565958D01*
X87058999Y-76222354D01*
X86907339Y-76020942D01*
X86515441Y-75923775D01*
X85769468Y-75892909D01*
X85057660Y-75890426D01*
X84026848Y-75898845D01*
X83422610Y-75949398D01*
X83131111Y-76080031D01*
X83038514Y-76328688D01*
X83031064Y-76565958D01*
X81703190Y-76565958D01*
X81686399Y-76432640D01*
X81680000Y-75890426D01*
X81658098Y-75088583D01*
X81546324Y-74688563D01*
X81275575Y-74552161D01*
X81004468Y-74539362D01*
X81680000Y-74539362D01*
X83031064Y-74539362D01*
X83841438Y-74510909D01*
X84245601Y-74390140D01*
X84376347Y-74123937D01*
X84382128Y-73998937D01*
X84223802Y-73575155D01*
X83706596Y-73458511D01*
X83192378Y-73346907D01*
X83033917Y-72907469D01*
X83031064Y-72782979D01*
X82919459Y-72268761D01*
X82480022Y-72110300D01*
X82355532Y-72107447D01*
X81938675Y-72157846D01*
X81741173Y-72405576D01*
X81682580Y-72995435D01*
X81680000Y-73323405D01*
X81680000Y-74539362D01*
X81004468Y-74539362D01*
X80490250Y-74650967D01*
X80331789Y-75090404D01*
X80328936Y-75214894D01*
X80217332Y-75729113D01*
X79777894Y-75887573D01*
X79653404Y-75890426D01*
X79139186Y-76002031D01*
X78980725Y-76441468D01*
X78977872Y-76565958D01*
X78866268Y-77080176D01*
X78426830Y-77238637D01*
X78302341Y-77241490D01*
X77901419Y-77197686D01*
X77701409Y-76974137D01*
X77633208Y-76432640D01*
X77626809Y-75890426D01*
X77604906Y-75088583D01*
X77493132Y-74688563D01*
X77222384Y-74552161D01*
X76951277Y-74539362D01*
X76421550Y-74412702D01*
X76275745Y-73998937D01*
X77626809Y-73998937D01*
X77785134Y-74422718D01*
X78302341Y-74539362D01*
X78832067Y-74412702D01*
X78977872Y-73998937D01*
X79136198Y-73575155D01*
X79653404Y-73458511D01*
X80167623Y-73346907D01*
X80176098Y-73323405D01*
X80326083Y-72907469D01*
X80328936Y-72782979D01*
X80217332Y-72268761D01*
X79777894Y-72110300D01*
X79653404Y-72107447D01*
X79139186Y-72219052D01*
X78980725Y-72658489D01*
X78977872Y-72782979D01*
X78866268Y-73297198D01*
X78426830Y-73455658D01*
X78302341Y-73458511D01*
X77772614Y-73585172D01*
X77626809Y-73998937D01*
X76275745Y-73998937D01*
X76434070Y-73575155D01*
X76951277Y-73458511D01*
X77465495Y-73346907D01*
X77623956Y-72907469D01*
X77626809Y-72782979D01*
X77738413Y-72268761D01*
X78177851Y-72110300D01*
X78302341Y-72107447D01*
X78816559Y-71995843D01*
X78975020Y-71556405D01*
X78977872Y-71431916D01*
X78934068Y-71030994D01*
X78710519Y-70830984D01*
X78169022Y-70762783D01*
X77626809Y-70756384D01*
X76824966Y-70778286D01*
X76424945Y-70890060D01*
X76288543Y-71160809D01*
X76275745Y-71431916D01*
X76164140Y-71946134D01*
X75724703Y-72104595D01*
X75600213Y-72107447D01*
X75085995Y-71995843D01*
X74927534Y-71556405D01*
X74924681Y-71431916D01*
X75036286Y-70917697D01*
X75475723Y-70759236D01*
X75600213Y-70756384D01*
X76114431Y-70644779D01*
X76272892Y-70205342D01*
X76275745Y-70080852D01*
X80328936Y-70080852D01*
X80372740Y-70481773D01*
X80596289Y-70681783D01*
X81137786Y-70749984D01*
X81680000Y-70756384D01*
X82481843Y-70734481D01*
X82881863Y-70622707D01*
X83018265Y-70351959D01*
X83031064Y-70080852D01*
X85733192Y-70080852D01*
X85844796Y-70595070D01*
X86284234Y-70753531D01*
X86408723Y-70756384D01*
X86922942Y-70644779D01*
X87081403Y-70205342D01*
X87084255Y-70080852D01*
X86972651Y-69566633D01*
X86533213Y-69408173D01*
X86408723Y-69405320D01*
X85894505Y-69516924D01*
X85736044Y-69956362D01*
X85733192Y-70080852D01*
X83031064Y-70080852D01*
X82987260Y-69679930D01*
X82763711Y-69479920D01*
X82222214Y-69411719D01*
X81680000Y-69405320D01*
X80878157Y-69427222D01*
X80478137Y-69538996D01*
X80341735Y-69809745D01*
X80328936Y-70080852D01*
X76275745Y-70080852D01*
X76164140Y-69566633D01*
X75724703Y-69408173D01*
X75600213Y-69405320D01*
X75199291Y-69361516D01*
X74999281Y-69137967D01*
X74947871Y-68729788D01*
X76275745Y-68729788D01*
X76387349Y-69244006D01*
X76826787Y-69402467D01*
X76951277Y-69405320D01*
X77465495Y-69293715D01*
X77623956Y-68854278D01*
X77626809Y-68729788D01*
X77515204Y-68215570D01*
X77075767Y-68057109D01*
X76951277Y-68054256D01*
X76437058Y-68165861D01*
X76278598Y-68605298D01*
X76275745Y-68729788D01*
X74947871Y-68729788D01*
X74931080Y-68596470D01*
X74924681Y-68054256D01*
X74924681Y-66703192D01*
X76275745Y-66703192D01*
X77077587Y-66725094D01*
X77477608Y-66836869D01*
X77614010Y-67107617D01*
X77626809Y-67378724D01*
X77670613Y-67779645D01*
X77894162Y-67979656D01*
X78435659Y-68047857D01*
X78977872Y-68054256D01*
X79779715Y-68032354D01*
X80179736Y-67920579D01*
X80316138Y-67649831D01*
X80328936Y-67378724D01*
X80354193Y-67035120D01*
X80505852Y-66833708D01*
X80897751Y-66736541D01*
X81643723Y-66705675D01*
X82355532Y-66703192D01*
X83386344Y-66711611D01*
X83990581Y-66762164D01*
X84282081Y-66892797D01*
X84374678Y-67141454D01*
X84382128Y-67378724D01*
X84270523Y-67892942D01*
X83831086Y-68051403D01*
X83706596Y-68054256D01*
X83192378Y-68165861D01*
X83033917Y-68605298D01*
X83031064Y-68729788D01*
X83074868Y-69130709D01*
X83298417Y-69330719D01*
X83839914Y-69398921D01*
X84382128Y-69405320D01*
X85183970Y-69383418D01*
X85583991Y-69271643D01*
X85720393Y-69000895D01*
X85733192Y-68729788D01*
X85844796Y-68215570D01*
X86284234Y-68057109D01*
X86408723Y-68054256D01*
X86922942Y-68165861D01*
X87081403Y-68605298D01*
X87084255Y-68729788D01*
X87128060Y-69130709D01*
X87351608Y-69330719D01*
X87893106Y-69398921D01*
X88435319Y-69405320D01*
X89237162Y-69427222D01*
X89637182Y-69538996D01*
X89773585Y-69809745D01*
X89786383Y-70080852D01*
X89674778Y-70595070D01*
X89235341Y-70753531D01*
X89110851Y-70756384D01*
X88596633Y-70867988D01*
X88438172Y-71307426D01*
X88435319Y-71431916D01*
X88391515Y-71832837D01*
X88167966Y-72032847D01*
X87626469Y-72101048D01*
X87084255Y-72107447D01*
X86282413Y-72085545D01*
X85882392Y-71973771D01*
X85745990Y-71703022D01*
X85733192Y-71431916D01*
X85689387Y-71030994D01*
X85465839Y-70830984D01*
X84924341Y-70762783D01*
X84382128Y-70756384D01*
X83580285Y-70778286D01*
X83180265Y-70890060D01*
X83043862Y-71160809D01*
X83031064Y-71431916D01*
X83142669Y-71946134D01*
X83582106Y-72104595D01*
X83706596Y-72107447D01*
X84220814Y-72219052D01*
X84379275Y-72658489D01*
X84382128Y-72782979D01*
X84493732Y-73297198D01*
X84933170Y-73455658D01*
X85057660Y-73458511D01*
X85587386Y-73585172D01*
X85733192Y-73998937D01*
X85891517Y-74422718D01*
X86408723Y-74539362D01*
X86938450Y-74412702D01*
X87084255Y-73998937D01*
X89786383Y-73998937D01*
X89944709Y-74422718D01*
X90461915Y-74539362D01*
X90991642Y-74412702D01*
X91137447Y-73998937D01*
X91295773Y-73575155D01*
X91812979Y-73458511D01*
X92327197Y-73346907D01*
X92485658Y-72907469D01*
X92488511Y-72782979D01*
X92376906Y-72268761D01*
X91937469Y-72110300D01*
X91812979Y-72107447D01*
X91298761Y-72219052D01*
X91140300Y-72658489D01*
X91137447Y-72782979D01*
X91025842Y-73297198D01*
X90586405Y-73455658D01*
X90461915Y-73458511D01*
X89932188Y-73585172D01*
X89786383Y-73998937D01*
X87084255Y-73998937D01*
X87155388Y-73674787D01*
X87457312Y-73513122D01*
X88122820Y-73460824D01*
X88435319Y-73458511D01*
X89237162Y-73436609D01*
X89637182Y-73324835D01*
X89773585Y-73054086D01*
X89786383Y-72782979D01*
X89897988Y-72268761D01*
X90337425Y-72110300D01*
X90461915Y-72107447D01*
X90976133Y-71995843D01*
X91134594Y-71556405D01*
X91137447Y-71431916D01*
X91249052Y-70917697D01*
X91688489Y-70759236D01*
X91812979Y-70756384D01*
X92213900Y-70712579D01*
X92413910Y-70489031D01*
X92482112Y-69947533D01*
X92488511Y-69405320D01*
X92466609Y-68603477D01*
X92354834Y-68203457D01*
X92084086Y-68067054D01*
X91812979Y-68054256D01*
X91298761Y-67942651D01*
X91140300Y-67503214D01*
X91137447Y-67378724D01*
X91025842Y-66864506D01*
X90586405Y-66706045D01*
X90461915Y-66703192D01*
X89947697Y-66814797D01*
X89789236Y-67254234D01*
X89786383Y-67378724D01*
X89674778Y-67892942D01*
X89235341Y-68051403D01*
X89110851Y-68054256D01*
X88767247Y-68029000D01*
X88565835Y-67877340D01*
X88468668Y-67485442D01*
X88437803Y-66739469D01*
X88435319Y-66027660D01*
X88426900Y-64996849D01*
X88376347Y-64392611D01*
X88245714Y-64101111D01*
X87997057Y-64008514D01*
X87759787Y-64001064D01*
X87245569Y-64112669D01*
X87087108Y-64552106D01*
X87084255Y-64676596D01*
X86972651Y-65190815D01*
X86533213Y-65349275D01*
X86408723Y-65352128D01*
X86007802Y-65308324D01*
X85807792Y-65084775D01*
X85739591Y-64543278D01*
X85733192Y-64001064D01*
X85755094Y-63199222D01*
X85866868Y-62799201D01*
X86137617Y-62662799D01*
X86408723Y-62650001D01*
X86922942Y-62538396D01*
X87081403Y-62098959D01*
X87084255Y-61974469D01*
X86972651Y-61460250D01*
X86533213Y-61301790D01*
X86408723Y-61298937D01*
X85733192Y-61298937D01*
X85733192Y-58596809D01*
X85733192Y-55894681D01*
X86408723Y-55894681D01*
X86809645Y-55938486D01*
G37*
%TD*%
M02*
