%TF.GenerationSoftware,KiCad,Pcbnew,9.0.5*%
%TF.CreationDate,2025-12-07T11:51:17+11:00*%
%TF.ProjectId,inputSwitchboard,696e7075-7453-4776-9974-6368626f6172,rev?*%
%TF.SameCoordinates,Original*%
%TF.FileFunction,Soldermask,Top*%
%TF.FilePolarity,Negative*%
%FSLAX46Y46*%
G04 Gerber Fmt 4.6, Leading zero omitted, Abs format (unit mm)*
G04 Created by KiCad (PCBNEW 9.0.5) date 2025-12-07 11:51:17*
%MOMM*%
%LPD*%
G01*
G04 APERTURE LIST*
G04 Aperture macros list*
%AMRoundRect*
0 Rectangle with rounded corners*
0 $1 Rounding radius*
0 $2 $3 $4 $5 $6 $7 $8 $9 X,Y pos of 4 corners*
0 Add a 4 corners polygon primitive as box body*
4,1,4,$2,$3,$4,$5,$6,$7,$8,$9,$2,$3,0*
0 Add four circle primitives for the rounded corners*
1,1,$1+$1,$2,$3*
1,1,$1+$1,$4,$5*
1,1,$1+$1,$6,$7*
1,1,$1+$1,$8,$9*
0 Add four rect primitives between the rounded corners*
20,1,$1+$1,$2,$3,$4,$5,0*
20,1,$1+$1,$4,$5,$6,$7,0*
20,1,$1+$1,$6,$7,$8,$9,0*
20,1,$1+$1,$8,$9,$2,$3,0*%
G04 Aperture macros list end*
%ADD10C,4.300000*%
%ADD11RoundRect,0.100000X-0.130000X-0.100000X0.130000X-0.100000X0.130000X0.100000X-0.130000X0.100000X0*%
%ADD12RoundRect,0.100000X-0.100000X0.130000X-0.100000X-0.130000X0.100000X-0.130000X0.100000X0.130000X0*%
%ADD13RoundRect,0.100000X0.100000X-0.130000X0.100000X0.130000X-0.100000X0.130000X-0.100000X-0.130000X0*%
%ADD14RoundRect,0.102000X0.650000X-0.525000X0.650000X0.525000X-0.650000X0.525000X-0.650000X-0.525000X0*%
%ADD15C,0.670000*%
%ADD16R,0.290000X1.300000*%
%ADD17R,0.290000X1.350000*%
%ADD18R,0.220000X1.350000*%
%ADD19R,0.250000X1.350000*%
%ADD20R,0.250000X1.300000*%
%ADD21RoundRect,0.500000X-0.000010X-0.600000X0.000010X-0.600000X0.000010X0.600000X-0.000010X0.600000X0*%
%ADD22RoundRect,0.200000X-0.275000X0.200000X-0.275000X-0.200000X0.275000X-0.200000X0.275000X0.200000X0*%
%ADD23RoundRect,0.100000X0.637500X0.100000X-0.637500X0.100000X-0.637500X-0.100000X0.637500X-0.100000X0*%
%ADD24R,1.730000X2.030000*%
%ADD25O,1.730000X2.030000*%
%ADD26RoundRect,0.250001X1.149999X-1.149999X1.149999X1.149999X-1.149999X1.149999X-1.149999X-1.149999X0*%
%ADD27C,2.800000*%
%ADD28RoundRect,0.200000X0.275000X-0.200000X0.275000X0.200000X-0.275000X0.200000X-0.275000X-0.200000X0*%
%ADD29RoundRect,0.250001X-1.149999X1.149999X-1.149999X-1.149999X1.149999X-1.149999X1.149999X1.149999X0*%
%ADD30RoundRect,0.200000X-0.200000X-0.275000X0.200000X-0.275000X0.200000X0.275000X-0.200000X0.275000X0*%
%ADD31RoundRect,0.075000X0.650000X0.075000X-0.650000X0.075000X-0.650000X-0.075000X0.650000X-0.075000X0*%
%ADD32R,1.680000X1.880000*%
%ADD33RoundRect,0.250000X-1.050000X-1.050000X1.050000X-1.050000X1.050000X1.050000X-1.050000X1.050000X0*%
%ADD34C,2.600000*%
%ADD35RoundRect,0.150000X-0.512500X-0.150000X0.512500X-0.150000X0.512500X0.150000X-0.512500X0.150000X0*%
%ADD36RoundRect,0.162500X-0.162500X0.650000X-0.162500X-0.650000X0.162500X-0.650000X0.162500X0.650000X0*%
%ADD37RoundRect,0.200000X0.200000X0.275000X-0.200000X0.275000X-0.200000X-0.275000X0.200000X-0.275000X0*%
%ADD38RoundRect,0.050000X-0.050000X0.387500X-0.050000X-0.387500X0.050000X-0.387500X0.050000X0.387500X0*%
%ADD39RoundRect,0.050000X-0.387500X0.050000X-0.387500X-0.050000X0.387500X-0.050000X0.387500X0.050000X0*%
%ADD40R,3.200000X3.200000*%
%ADD41RoundRect,0.375000X0.375000X-0.625000X0.375000X0.625000X-0.375000X0.625000X-0.375000X-0.625000X0*%
%ADD42RoundRect,0.500000X1.400000X-0.500000X1.400000X0.500000X-1.400000X0.500000X-1.400000X-0.500000X0*%
%ADD43RoundRect,0.100000X0.130000X0.100000X-0.130000X0.100000X-0.130000X-0.100000X0.130000X-0.100000X0*%
G04 APERTURE END LIST*
D10*
%TO.C,*%
X140318448Y-39301712D03*
%TD*%
%TO.C,*%
X74818448Y-39301712D03*
%TD*%
D11*
%TO.C,C5*%
X103865000Y-76240000D03*
X104505000Y-76240000D03*
%TD*%
%TO.C,C11*%
X104500000Y-76980000D03*
X103860000Y-76980000D03*
%TD*%
%TO.C,C15*%
X104510000Y-74000000D03*
X103870000Y-74000000D03*
%TD*%
D12*
%TO.C,C16*%
X114270000Y-102335000D03*
X114270000Y-102975000D03*
%TD*%
D13*
%TO.C,C17*%
X89410000Y-57370000D03*
X89410000Y-58010000D03*
%TD*%
D11*
%TO.C,C13*%
X104505000Y-75500000D03*
X103865000Y-75500000D03*
%TD*%
%TO.C,C12*%
X104510000Y-74750000D03*
X103870000Y-74750000D03*
%TD*%
D14*
%TO.C,Y1*%
X91740000Y-57000000D03*
X94040000Y-57000000D03*
X94040000Y-58750000D03*
X91740000Y-58750000D03*
%TD*%
D15*
%TO.C,J1*%
X96730000Y-109325000D03*
X102530000Y-109325000D03*
D16*
X96330000Y-107875000D03*
D17*
X97130000Y-107875000D03*
D18*
X98380000Y-107875000D03*
X99380000Y-107875000D03*
X99880000Y-107875000D03*
X100880000Y-107875000D03*
D17*
X102130000Y-107875000D03*
X102930000Y-107875000D03*
D19*
X102680000Y-107875000D03*
X101880000Y-107875000D03*
D18*
X101380000Y-107875000D03*
X100380000Y-107875000D03*
X98880000Y-107875000D03*
X97880000Y-107875000D03*
D19*
X97380000Y-107875000D03*
D20*
X96580000Y-107875000D03*
D21*
X95310000Y-108795000D03*
X95310000Y-112975000D03*
X103950000Y-108795000D03*
X103950000Y-112975000D03*
%TD*%
D22*
%TO.C,R6*%
X141775000Y-58300000D03*
X141775000Y-59950000D03*
%TD*%
D23*
%TO.C,U9*%
X96725000Y-90700000D03*
X96725000Y-90050000D03*
X96725000Y-89400000D03*
X96725000Y-88750000D03*
X96725000Y-88100000D03*
X96725000Y-87450000D03*
X96725000Y-86800000D03*
X96725000Y-86150000D03*
X96725000Y-85500000D03*
X96725000Y-84850000D03*
X91000000Y-84850000D03*
X91000000Y-85500000D03*
X91000000Y-86150000D03*
X91000000Y-86800000D03*
X91000000Y-87450000D03*
X91000000Y-88100000D03*
X91000000Y-88750000D03*
X91000000Y-89400000D03*
X91000000Y-90050000D03*
X91000000Y-90700000D03*
%TD*%
D15*
%TO.C,J2*%
X81045000Y-109330000D03*
X86845000Y-109330000D03*
D16*
X80645000Y-107880000D03*
D17*
X81445000Y-107880000D03*
D18*
X82695000Y-107880000D03*
X83695000Y-107880000D03*
X84195000Y-107880000D03*
X85195000Y-107880000D03*
D17*
X86445000Y-107880000D03*
X87245000Y-107880000D03*
D19*
X86995000Y-107880000D03*
X86195000Y-107880000D03*
D18*
X85695000Y-107880000D03*
X84695000Y-107880000D03*
X83195000Y-107880000D03*
X82195000Y-107880000D03*
D19*
X81695000Y-107880000D03*
D20*
X80895000Y-107880000D03*
D21*
X79625000Y-108800000D03*
X79625000Y-112980000D03*
X88265000Y-108800000D03*
X88265000Y-112980000D03*
%TD*%
D11*
%TO.C,C6*%
X102525000Y-69500000D03*
X103165000Y-69500000D03*
%TD*%
%TO.C,C18*%
X95480000Y-51250000D03*
X96120000Y-51250000D03*
%TD*%
%TO.C,C2*%
X75285000Y-101340000D03*
X75925000Y-101340000D03*
%TD*%
D24*
%TO.C,J12*%
X120424839Y-84970805D03*
D25*
X122964839Y-84970805D03*
X125504839Y-84970805D03*
%TD*%
D26*
%TO.C,J6*%
X64500000Y-70500000D03*
D27*
X64500000Y-65500000D03*
X64500000Y-60500000D03*
X64500000Y-55500000D03*
X64500000Y-50500000D03*
X64500000Y-45500000D03*
X64500000Y-40500000D03*
%TD*%
D24*
%TO.C,J11*%
X120414839Y-75620824D03*
D25*
X122954839Y-75620824D03*
X125494839Y-75620824D03*
%TD*%
D12*
%TO.C,C10*%
X101839246Y-78635935D03*
X101839246Y-79275935D03*
%TD*%
D28*
%TO.C,R11*%
X104500000Y-82650000D03*
X104500000Y-81000000D03*
%TD*%
D29*
%TO.C,J7*%
X139872500Y-65750000D03*
D27*
X139872500Y-70750000D03*
X139872500Y-75750000D03*
X139872500Y-80750000D03*
X139872500Y-85750000D03*
X139872500Y-90750000D03*
X139872500Y-95750000D03*
%TD*%
D30*
%TO.C,R17*%
X69457500Y-61415000D03*
X71107500Y-61415000D03*
%TD*%
D11*
%TO.C,D2*%
X106435000Y-106680000D03*
X107075000Y-106680000D03*
%TD*%
D30*
%TO.C,R19*%
X69457500Y-66435000D03*
X71107500Y-66435000D03*
%TD*%
D22*
%TO.C,R7*%
X125725000Y-58475000D03*
X125725000Y-60125000D03*
%TD*%
D31*
%TO.C,U4*%
X85350000Y-86575000D03*
X85350000Y-86075000D03*
X85350000Y-85575000D03*
X85350000Y-85075000D03*
X85350000Y-84575000D03*
X81050000Y-84575000D03*
X81050000Y-85075000D03*
X81050000Y-85575000D03*
X81050000Y-86075000D03*
X81050000Y-86575000D03*
D32*
X83200000Y-85575000D03*
%TD*%
D28*
%TO.C,R9*%
X106790000Y-104000000D03*
X106790000Y-102350000D03*
%TD*%
%TO.C,R12*%
X117700000Y-94525000D03*
X117700000Y-92875000D03*
%TD*%
D10*
%TO.C,H1*%
X74930000Y-106680000D03*
%TD*%
D30*
%TO.C,R3*%
X92171070Y-98491977D03*
X93821070Y-98491977D03*
%TD*%
D33*
%TO.C,J3*%
X113255000Y-52672500D03*
D34*
X118335000Y-52672500D03*
X123415000Y-52672500D03*
%TD*%
D22*
%TO.C,R5*%
X143300000Y-58300000D03*
X143300000Y-59950000D03*
%TD*%
D30*
%TO.C,R1*%
X92175000Y-104500000D03*
X93825000Y-104500000D03*
%TD*%
D31*
%TO.C,U8*%
X85350000Y-68275000D03*
X85350000Y-67775000D03*
X85350000Y-67275000D03*
X85350000Y-66775000D03*
X85350000Y-66275000D03*
X81050000Y-66275000D03*
X81050000Y-66775000D03*
X81050000Y-67275000D03*
X81050000Y-67775000D03*
X81050000Y-68275000D03*
D32*
X83200000Y-67275000D03*
%TD*%
D35*
%TO.C,U12*%
X73725000Y-63725000D03*
X73725000Y-64675000D03*
X73725000Y-65625000D03*
X76000000Y-65625000D03*
X76000000Y-63725000D03*
%TD*%
D31*
%TO.C,U3*%
X85350000Y-91150000D03*
X85350000Y-90650000D03*
X85350000Y-90150000D03*
X85350000Y-89650000D03*
X85350000Y-89150000D03*
X81050000Y-89150000D03*
X81050000Y-89650000D03*
X81050000Y-90150000D03*
X81050000Y-90650000D03*
X81050000Y-91150000D03*
D32*
X83200000Y-90150000D03*
%TD*%
D22*
%TO.C,R8*%
X124200000Y-58475000D03*
X124200000Y-60125000D03*
%TD*%
D31*
%TO.C,U7*%
X85350000Y-72850000D03*
X85350000Y-72350000D03*
X85350000Y-71850000D03*
X85350000Y-71350000D03*
X85350000Y-70850000D03*
X81050000Y-70850000D03*
X81050000Y-71350000D03*
X81050000Y-71850000D03*
X81050000Y-72350000D03*
X81050000Y-72850000D03*
D32*
X83200000Y-71850000D03*
%TD*%
D36*
%TO.C,U10*%
X114277500Y-93362500D03*
X113007500Y-93362500D03*
X111737500Y-93362500D03*
X110467500Y-93362500D03*
X110467500Y-100537500D03*
X111737500Y-100537500D03*
X113007500Y-100537500D03*
X114277500Y-100537500D03*
%TD*%
D31*
%TO.C,U5*%
X85350000Y-82000000D03*
X85350000Y-81500000D03*
X85350000Y-81000000D03*
X85350000Y-80500000D03*
X85350000Y-80000000D03*
X81050000Y-80000000D03*
X81050000Y-80500000D03*
X81050000Y-81000000D03*
X81050000Y-81500000D03*
X81050000Y-82000000D03*
D32*
X83200000Y-81000000D03*
%TD*%
D37*
%TO.C,R15*%
X117400000Y-79075000D03*
X115750000Y-79075000D03*
%TD*%
D28*
%TO.C,R10*%
X102000000Y-82650000D03*
X102000000Y-81000000D03*
%TD*%
D38*
%TO.C,U2*%
X101835000Y-70537500D03*
X101435000Y-70537500D03*
X101035000Y-70537500D03*
X100635000Y-70537500D03*
X100235000Y-70537500D03*
X99835000Y-70537500D03*
X99435000Y-70537500D03*
X99035000Y-70537500D03*
X98635000Y-70537500D03*
X98235000Y-70537500D03*
X97835000Y-70537500D03*
X97435000Y-70537500D03*
X97035000Y-70537500D03*
X96635000Y-70537500D03*
D39*
X95797500Y-71375000D03*
X95797500Y-71775000D03*
X95797500Y-72175000D03*
X95797500Y-72575000D03*
X95797500Y-72975000D03*
X95797500Y-73375000D03*
X95797500Y-73775000D03*
X95797500Y-74175000D03*
X95797500Y-74575000D03*
X95797500Y-74975000D03*
X95797500Y-75375000D03*
X95797500Y-75775000D03*
X95797500Y-76175000D03*
X95797500Y-76575000D03*
D38*
X96635000Y-77412500D03*
X97035000Y-77412500D03*
X97435000Y-77412500D03*
X97835000Y-77412500D03*
X98235000Y-77412500D03*
X98635000Y-77412500D03*
X99035000Y-77412500D03*
X99435000Y-77412500D03*
X99835000Y-77412500D03*
X100235000Y-77412500D03*
X100635000Y-77412500D03*
X101035000Y-77412500D03*
X101435000Y-77412500D03*
X101835000Y-77412500D03*
D39*
X102672500Y-76575000D03*
X102672500Y-76175000D03*
X102672500Y-75775000D03*
X102672500Y-75375000D03*
X102672500Y-74975000D03*
X102672500Y-74575000D03*
X102672500Y-74175000D03*
X102672500Y-73775000D03*
X102672500Y-73375000D03*
X102672500Y-72975000D03*
X102672500Y-72575000D03*
X102672500Y-72175000D03*
X102672500Y-71775000D03*
X102672500Y-71375000D03*
D40*
X99235000Y-73975000D03*
%TD*%
D10*
%TO.C,H2*%
X140430000Y-106680000D03*
%TD*%
D30*
%TO.C,R18*%
X69457500Y-63925000D03*
X71107500Y-63925000D03*
%TD*%
D11*
%TO.C,D1*%
X111760000Y-106680000D03*
X112400000Y-106680000D03*
%TD*%
D28*
%TO.C,R4*%
X110060000Y-104000000D03*
X110060000Y-102350000D03*
%TD*%
D22*
%TO.C,R13*%
X116175000Y-92875000D03*
X116175000Y-94525000D03*
%TD*%
D11*
%TO.C,C1*%
X75285000Y-99590000D03*
X75925000Y-99590000D03*
%TD*%
%TO.C,C4*%
X90915000Y-94490000D03*
X91555000Y-94490000D03*
%TD*%
D30*
%TO.C,R2*%
X92175000Y-101500000D03*
X93825000Y-101500000D03*
%TD*%
D12*
%TO.C,C8*%
X98040000Y-79455000D03*
X98040000Y-80095000D03*
%TD*%
D35*
%TO.C,U11*%
X73725000Y-59100000D03*
X73725000Y-60050000D03*
X73725000Y-61000000D03*
X76000000Y-61000000D03*
X76000000Y-59100000D03*
%TD*%
D26*
%TO.C,J5*%
X64500000Y-108000000D03*
D27*
X64500000Y-103000000D03*
X64500000Y-98000000D03*
X64500000Y-93000000D03*
X64500000Y-88000000D03*
X64500000Y-83000000D03*
X64500000Y-78000000D03*
%TD*%
D30*
%TO.C,R14*%
X94630000Y-54060000D03*
X96280000Y-54060000D03*
%TD*%
D41*
%TO.C,U1*%
X80350000Y-101950000D03*
X82650000Y-101950000D03*
D42*
X82650000Y-95650000D03*
D41*
X84950000Y-101950000D03*
%TD*%
D43*
%TO.C,C14*%
X94000000Y-75000000D03*
X93360000Y-75000000D03*
%TD*%
D30*
%TO.C,R16*%
X69457500Y-58905000D03*
X71107500Y-58905000D03*
%TD*%
D33*
%TO.C,J4*%
X130840000Y-52500000D03*
D34*
X135920000Y-52500000D03*
X141000000Y-52500000D03*
%TD*%
D31*
%TO.C,U6*%
X85350000Y-77425000D03*
X85350000Y-76925000D03*
X85350000Y-76425000D03*
X85350000Y-75925000D03*
X85350000Y-75425000D03*
X81050000Y-75425000D03*
X81050000Y-75925000D03*
X81050000Y-76425000D03*
X81050000Y-76925000D03*
X81050000Y-77425000D03*
D32*
X83200000Y-76425000D03*
%TD*%
D43*
%TO.C,C9*%
X94140000Y-74000000D03*
X93500000Y-74000000D03*
%TD*%
D13*
%TO.C,C7*%
X98000000Y-68475000D03*
X98000000Y-67835000D03*
%TD*%
D11*
%TO.C,C3*%
X90915000Y-92740000D03*
X91555000Y-92740000D03*
%TD*%
D24*
%TO.C,J10*%
X120450000Y-66225000D03*
D25*
X122990000Y-66225000D03*
X125530000Y-66225000D03*
%TD*%
M02*
