%TF.GenerationSoftware,KiCad,Pcbnew,9.0.5*%
%TF.CreationDate,2025-12-14T22:24:26+11:00*%
%TF.ProjectId,inputSwitchboard,696e7075-7453-4776-9974-6368626f6172,rev?*%
%TF.SameCoordinates,Original*%
%TF.FileFunction,Paste,Top*%
%TF.FilePolarity,Positive*%
%FSLAX46Y46*%
G04 Gerber Fmt 4.6, Leading zero omitted, Abs format (unit mm)*
G04 Created by KiCad (PCBNEW 9.0.5) date 2025-12-14 22:24:26*
%MOMM*%
%LPD*%
G01*
G04 APERTURE LIST*
G04 Aperture macros list*
%AMRoundRect*
0 Rectangle with rounded corners*
0 $1 Rounding radius*
0 $2 $3 $4 $5 $6 $7 $8 $9 X,Y pos of 4 corners*
0 Add a 4 corners polygon primitive as box body*
4,1,4,$2,$3,$4,$5,$6,$7,$8,$9,$2,$3,0*
0 Add four circle primitives for the rounded corners*
1,1,$1+$1,$2,$3*
1,1,$1+$1,$4,$5*
1,1,$1+$1,$6,$7*
1,1,$1+$1,$8,$9*
0 Add four rect primitives between the rounded corners*
20,1,$1+$1,$2,$3,$4,$5,0*
20,1,$1+$1,$4,$5,$6,$7,0*
20,1,$1+$1,$6,$7,$8,$9,0*
20,1,$1+$1,$8,$9,$2,$3,0*%
G04 Aperture macros list end*
%ADD10RoundRect,0.200000X-0.275000X0.200000X-0.275000X-0.200000X0.275000X-0.200000X0.275000X0.200000X0*%
%ADD11R,1.050000X1.300000*%
%ADD12RoundRect,0.100000X0.637500X0.100000X-0.637500X0.100000X-0.637500X-0.100000X0.637500X-0.100000X0*%
%ADD13R,0.290000X1.300000*%
%ADD14R,0.290000X1.350000*%
%ADD15R,0.220000X1.350000*%
%ADD16R,0.250000X1.350000*%
%ADD17R,0.250000X1.300000*%
%ADD18RoundRect,0.079500X-0.079500X-0.100500X0.079500X-0.100500X0.079500X0.100500X-0.079500X0.100500X0*%
%ADD19RoundRect,0.079500X-0.100500X0.079500X-0.100500X-0.079500X0.100500X-0.079500X0.100500X0.079500X0*%
%ADD20RoundRect,0.200000X0.275000X-0.200000X0.275000X0.200000X-0.275000X0.200000X-0.275000X-0.200000X0*%
%ADD21RoundRect,0.200000X-0.200000X-0.275000X0.200000X-0.275000X0.200000X0.275000X-0.200000X0.275000X0*%
%ADD22RoundRect,0.218750X-0.218750X-0.256250X0.218750X-0.256250X0.218750X0.256250X-0.218750X0.256250X0*%
%ADD23RoundRect,0.079500X0.100500X-0.079500X0.100500X0.079500X-0.100500X0.079500X-0.100500X-0.079500X0*%
%ADD24RoundRect,0.075000X0.650000X0.075000X-0.650000X0.075000X-0.650000X-0.075000X0.650000X-0.075000X0*%
%ADD25RoundRect,0.150000X-0.512500X-0.150000X0.512500X-0.150000X0.512500X0.150000X-0.512500X0.150000X0*%
%ADD26RoundRect,0.162500X-0.162500X0.650000X-0.162500X-0.650000X0.162500X-0.650000X0.162500X0.650000X0*%
%ADD27RoundRect,0.249999X-0.395001X0.395001X-0.395001X-0.395001X0.395001X-0.395001X0.395001X0.395001X0*%
%ADD28RoundRect,0.050000X-0.050000X0.387500X-0.050000X-0.387500X0.050000X-0.387500X0.050000X0.387500X0*%
%ADD29RoundRect,0.050000X-0.387500X0.050000X-0.387500X-0.050000X0.387500X-0.050000X0.387500X0.050000X0*%
%ADD30RoundRect,0.375000X0.375000X-0.625000X0.375000X0.625000X-0.375000X0.625000X-0.375000X-0.625000X0*%
%ADD31RoundRect,0.500000X1.400000X-0.500000X1.400000X0.500000X-1.400000X0.500000X-1.400000X-0.500000X0*%
%ADD32RoundRect,0.079500X0.079500X0.100500X-0.079500X0.100500X-0.079500X-0.100500X0.079500X-0.100500X0*%
G04 APERTURE END LIST*
D10*
%TO.C,R6*%
X141775000Y-58300000D03*
X141775000Y-59950000D03*
%TD*%
D11*
%TO.C,Y1*%
X93317026Y-72365388D03*
X93317026Y-70065388D03*
X91567026Y-70065388D03*
X91567026Y-72365388D03*
%TD*%
D12*
%TO.C,U9*%
X96725000Y-90700000D03*
X96725000Y-90050000D03*
X96725000Y-89400000D03*
X96725000Y-88750000D03*
X96725000Y-88100000D03*
X96725000Y-87450000D03*
X96725000Y-86800000D03*
X96725000Y-86150000D03*
X96725000Y-85500000D03*
X96725000Y-84850000D03*
X91000000Y-84850000D03*
X91000000Y-85500000D03*
X91000000Y-86150000D03*
X91000000Y-86800000D03*
X91000000Y-87450000D03*
X91000000Y-88100000D03*
X91000000Y-88750000D03*
X91000000Y-89400000D03*
X91000000Y-90050000D03*
X91000000Y-90700000D03*
%TD*%
D13*
%TO.C,J2*%
X80645000Y-107880000D03*
D14*
X81445000Y-107880000D03*
D15*
X82695000Y-107880000D03*
X83695000Y-107880000D03*
X84195000Y-107880000D03*
X85195000Y-107880000D03*
D14*
X86445000Y-107880000D03*
X87245000Y-107880000D03*
D16*
X86995000Y-107880000D03*
X86195000Y-107880000D03*
D15*
X85695000Y-107880000D03*
X84695000Y-107880000D03*
X83195000Y-107880000D03*
X82195000Y-107880000D03*
D16*
X81695000Y-107880000D03*
D17*
X80895000Y-107880000D03*
%TD*%
D18*
%TO.C,C15*%
X104283241Y-73846895D03*
X104973241Y-73846895D03*
%TD*%
%TO.C,C6*%
X102500000Y-69500000D03*
X103190000Y-69500000D03*
%TD*%
%TO.C,C18*%
X92100000Y-68700000D03*
X92790000Y-68700000D03*
%TD*%
D19*
%TO.C,C2*%
X88250000Y-94450000D03*
X88250000Y-95140000D03*
%TD*%
%TO.C,C10*%
X101839246Y-78610935D03*
X101839246Y-79300935D03*
%TD*%
D20*
%TO.C,R11*%
X103575000Y-82175000D03*
X103575000Y-80525000D03*
%TD*%
D19*
%TO.C,C16*%
X117625000Y-74000000D03*
X117625000Y-74690000D03*
%TD*%
%TO.C,C11*%
X103450000Y-77375000D03*
X103450000Y-78065000D03*
%TD*%
D21*
%TO.C,R17*%
X69457500Y-61415000D03*
X71107500Y-61415000D03*
%TD*%
D22*
%TO.C,D2*%
X106425000Y-106170000D03*
X108000000Y-106170000D03*
%TD*%
D21*
%TO.C,R19*%
X69457500Y-66435000D03*
X71107500Y-66435000D03*
%TD*%
D10*
%TO.C,R7*%
X125725000Y-58475000D03*
X125725000Y-60125000D03*
%TD*%
D23*
%TO.C,C17*%
X94575000Y-71525000D03*
X94575000Y-70835000D03*
%TD*%
D24*
%TO.C,U4*%
X85400000Y-86575000D03*
X85400000Y-86075000D03*
X85400000Y-85575000D03*
X85400000Y-85075000D03*
X85400000Y-84575000D03*
X81000000Y-84575000D03*
X81000000Y-85075000D03*
X81000000Y-85575000D03*
X81000000Y-86075000D03*
X81000000Y-86575000D03*
%TD*%
D20*
%TO.C,R9*%
X106790000Y-104000000D03*
X106790000Y-102350000D03*
%TD*%
%TO.C,R12*%
X117375000Y-62000000D03*
X117375000Y-60350000D03*
%TD*%
D21*
%TO.C,R3*%
X92171070Y-98491977D03*
X93821070Y-98491977D03*
%TD*%
D10*
%TO.C,R5*%
X143300000Y-58300000D03*
X143300000Y-59950000D03*
%TD*%
D21*
%TO.C,R1*%
X92175000Y-104500000D03*
X93825000Y-104500000D03*
%TD*%
D24*
%TO.C,U8*%
X85400000Y-68275000D03*
X85400000Y-67775000D03*
X85400000Y-67275000D03*
X85400000Y-66775000D03*
X85400000Y-66275000D03*
X81000000Y-66275000D03*
X81000000Y-66775000D03*
X81000000Y-67275000D03*
X81000000Y-67775000D03*
X81000000Y-68275000D03*
%TD*%
D25*
%TO.C,U12*%
X73725000Y-63725000D03*
X73725000Y-64675000D03*
X73725000Y-65625000D03*
X76000000Y-65625000D03*
X76000000Y-63725000D03*
%TD*%
D24*
%TO.C,U3*%
X85400000Y-91150000D03*
X85400000Y-90650000D03*
X85400000Y-90150000D03*
X85400000Y-89650000D03*
X85400000Y-89150000D03*
X81000000Y-89150000D03*
X81000000Y-89650000D03*
X81000000Y-90150000D03*
X81000000Y-90650000D03*
X81000000Y-91150000D03*
%TD*%
D10*
%TO.C,R8*%
X124200000Y-58475000D03*
X124200000Y-60125000D03*
%TD*%
D13*
%TO.C,J1*%
X96330000Y-107875000D03*
D14*
X97130000Y-107875000D03*
D15*
X98380000Y-107875000D03*
X99380000Y-107875000D03*
X99880000Y-107875000D03*
X100880000Y-107875000D03*
D14*
X102130000Y-107875000D03*
X102930000Y-107875000D03*
D16*
X102680000Y-107875000D03*
X101880000Y-107875000D03*
D15*
X101380000Y-107875000D03*
X100380000Y-107875000D03*
X98880000Y-107875000D03*
X97880000Y-107875000D03*
D16*
X97380000Y-107875000D03*
D17*
X96580000Y-107875000D03*
%TD*%
D24*
%TO.C,U7*%
X85400000Y-72850000D03*
X85400000Y-72350000D03*
X85400000Y-71850000D03*
X85400000Y-71350000D03*
X85400000Y-70850000D03*
X81000000Y-70850000D03*
X81000000Y-71350000D03*
X81000000Y-71850000D03*
X81000000Y-72350000D03*
X81000000Y-72850000D03*
%TD*%
D26*
%TO.C,U10*%
X116220000Y-66675000D03*
X114950000Y-66675000D03*
X113680000Y-66675000D03*
X112410000Y-66675000D03*
X112410000Y-73850000D03*
X113680000Y-73850000D03*
X114950000Y-73850000D03*
X116220000Y-73850000D03*
%TD*%
D24*
%TO.C,U5*%
X85400000Y-82000000D03*
X85400000Y-81500000D03*
X85400000Y-81000000D03*
X85400000Y-80500000D03*
X85400000Y-80000000D03*
X81000000Y-80000000D03*
X81000000Y-80500000D03*
X81000000Y-81000000D03*
X81000000Y-81500000D03*
X81000000Y-82000000D03*
%TD*%
D20*
%TO.C,R15*%
X112375000Y-80075000D03*
X112375000Y-78425000D03*
%TD*%
%TO.C,R10*%
X105450000Y-82175000D03*
X105450000Y-80525000D03*
%TD*%
D27*
%TO.C,U2*%
X100035000Y-73175000D03*
X98435000Y-73175000D03*
X100035000Y-74775000D03*
X98435000Y-74775000D03*
D28*
X101835000Y-70537500D03*
X101435000Y-70537500D03*
X101035000Y-70537500D03*
X100635000Y-70537500D03*
X100235000Y-70537500D03*
X99835000Y-70537500D03*
X99435000Y-70537500D03*
X99035000Y-70537500D03*
X98635000Y-70537500D03*
X98235000Y-70537500D03*
X97835000Y-70537500D03*
X97435000Y-70537500D03*
X97035000Y-70537500D03*
X96635000Y-70537500D03*
D29*
X95797500Y-71375000D03*
X95797500Y-71775000D03*
X95797500Y-72175000D03*
X95797500Y-72575000D03*
X95797500Y-72975000D03*
X95797500Y-73375000D03*
X95797500Y-73775000D03*
X95797500Y-74175000D03*
X95797500Y-74575000D03*
X95797500Y-74975000D03*
X95797500Y-75375000D03*
X95797500Y-75775000D03*
X95797500Y-76175000D03*
X95797500Y-76575000D03*
D28*
X96635000Y-77412500D03*
X97035000Y-77412500D03*
X97435000Y-77412500D03*
X97835000Y-77412500D03*
X98235000Y-77412500D03*
X98635000Y-77412500D03*
X99035000Y-77412500D03*
X99435000Y-77412500D03*
X99835000Y-77412500D03*
X100235000Y-77412500D03*
X100635000Y-77412500D03*
X101035000Y-77412500D03*
X101435000Y-77412500D03*
X101835000Y-77412500D03*
D29*
X102672500Y-76575000D03*
X102672500Y-76175000D03*
X102672500Y-75775000D03*
X102672500Y-75375000D03*
X102672500Y-74975000D03*
X102672500Y-74575000D03*
X102672500Y-74175000D03*
X102672500Y-73775000D03*
X102672500Y-73375000D03*
X102672500Y-72975000D03*
X102672500Y-72575000D03*
X102672500Y-72175000D03*
X102672500Y-71775000D03*
X102672500Y-71375000D03*
%TD*%
D21*
%TO.C,R18*%
X69457500Y-63925000D03*
X71107500Y-63925000D03*
%TD*%
D22*
%TO.C,D1*%
X111175000Y-106170000D03*
X112750000Y-106170000D03*
%TD*%
D20*
%TO.C,R4*%
X110060000Y-104000000D03*
X110060000Y-102350000D03*
%TD*%
D10*
%TO.C,R13*%
X115850000Y-60350000D03*
X115850000Y-62000000D03*
%TD*%
D23*
%TO.C,C1*%
X86750000Y-101970000D03*
X86750000Y-101280000D03*
%TD*%
D18*
%TO.C,C4*%
X98205000Y-90025000D03*
X98895000Y-90025000D03*
%TD*%
D21*
%TO.C,R2*%
X92175000Y-101500000D03*
X93825000Y-101500000D03*
%TD*%
D19*
%TO.C,C8*%
X98040000Y-79430000D03*
X98040000Y-80120000D03*
%TD*%
%TO.C,C5*%
X104250000Y-77375000D03*
X104250000Y-78065000D03*
%TD*%
D25*
%TO.C,U11*%
X73725000Y-59100000D03*
X73725000Y-60050000D03*
X73725000Y-61000000D03*
X76000000Y-61000000D03*
X76000000Y-59100000D03*
%TD*%
D21*
%TO.C,R14*%
X91767026Y-74015388D03*
X93417026Y-74015388D03*
%TD*%
D18*
%TO.C,C13*%
X104600000Y-76075000D03*
X105290000Y-76075000D03*
%TD*%
D30*
%TO.C,U1*%
X80350000Y-101950000D03*
X82650000Y-101950000D03*
D31*
X82650000Y-95650000D03*
D30*
X84950000Y-101950000D03*
%TD*%
D19*
%TO.C,C14*%
X92900000Y-76275000D03*
X92900000Y-76965000D03*
%TD*%
D21*
%TO.C,R16*%
X69457500Y-58905000D03*
X71107500Y-58905000D03*
%TD*%
D24*
%TO.C,U6*%
X85400000Y-77425000D03*
X85400000Y-76925000D03*
X85400000Y-76425000D03*
X85400000Y-75925000D03*
X85400000Y-75425000D03*
X81000000Y-75425000D03*
X81000000Y-75925000D03*
X81000000Y-76425000D03*
X81000000Y-76925000D03*
X81000000Y-77425000D03*
%TD*%
D18*
%TO.C,C12*%
X104283241Y-74595640D03*
X104973241Y-74595640D03*
%TD*%
D19*
%TO.C,C9*%
X92150000Y-76280000D03*
X92150000Y-76970000D03*
%TD*%
D23*
%TO.C,C7*%
X98000000Y-68500000D03*
X98000000Y-67810000D03*
%TD*%
D32*
%TO.C,C3*%
X95595000Y-91650000D03*
X94905000Y-91650000D03*
%TD*%
M02*
