%TF.GenerationSoftware,KiCad,Pcbnew,9.0.5*%
%TF.CreationDate,2025-12-07T11:51:17+11:00*%
%TF.ProjectId,inputSwitchboard,696e7075-7453-4776-9974-6368626f6172,rev?*%
%TF.SameCoordinates,Original*%
%TF.FileFunction,Paste,Top*%
%TF.FilePolarity,Positive*%
%FSLAX46Y46*%
G04 Gerber Fmt 4.6, Leading zero omitted, Abs format (unit mm)*
G04 Created by KiCad (PCBNEW 9.0.5) date 2025-12-07 11:51:17*
%MOMM*%
%LPD*%
G01*
G04 APERTURE LIST*
G04 Aperture macros list*
%AMRoundRect*
0 Rectangle with rounded corners*
0 $1 Rounding radius*
0 $2 $3 $4 $5 $6 $7 $8 $9 X,Y pos of 4 corners*
0 Add a 4 corners polygon primitive as box body*
4,1,4,$2,$3,$4,$5,$6,$7,$8,$9,$2,$3,0*
0 Add four circle primitives for the rounded corners*
1,1,$1+$1,$2,$3*
1,1,$1+$1,$4,$5*
1,1,$1+$1,$6,$7*
1,1,$1+$1,$8,$9*
0 Add four rect primitives between the rounded corners*
20,1,$1+$1,$2,$3,$4,$5,0*
20,1,$1+$1,$4,$5,$6,$7,0*
20,1,$1+$1,$6,$7,$8,$9,0*
20,1,$1+$1,$8,$9,$2,$3,0*%
G04 Aperture macros list end*
%ADD10RoundRect,0.079500X-0.079500X-0.100500X0.079500X-0.100500X0.079500X0.100500X-0.079500X0.100500X0*%
%ADD11RoundRect,0.079500X-0.100500X0.079500X-0.100500X-0.079500X0.100500X-0.079500X0.100500X0.079500X0*%
%ADD12RoundRect,0.079500X0.100500X-0.079500X0.100500X0.079500X-0.100500X0.079500X-0.100500X-0.079500X0*%
%ADD13R,1.300000X1.050000*%
%ADD14R,0.290000X1.300000*%
%ADD15R,0.290000X1.350000*%
%ADD16R,0.220000X1.350000*%
%ADD17R,0.250000X1.350000*%
%ADD18R,0.250000X1.300000*%
%ADD19RoundRect,0.200000X-0.275000X0.200000X-0.275000X-0.200000X0.275000X-0.200000X0.275000X0.200000X0*%
%ADD20RoundRect,0.100000X0.637500X0.100000X-0.637500X0.100000X-0.637500X-0.100000X0.637500X-0.100000X0*%
%ADD21RoundRect,0.200000X0.275000X-0.200000X0.275000X0.200000X-0.275000X0.200000X-0.275000X-0.200000X0*%
%ADD22RoundRect,0.200000X-0.200000X-0.275000X0.200000X-0.275000X0.200000X0.275000X-0.200000X0.275000X0*%
%ADD23RoundRect,0.170000X0.170000X0.210000X-0.170000X0.210000X-0.170000X-0.210000X0.170000X-0.210000X0*%
%ADD24RoundRect,0.075000X0.650000X0.075000X-0.650000X0.075000X-0.650000X-0.075000X0.650000X-0.075000X0*%
%ADD25RoundRect,0.150000X-0.512500X-0.150000X0.512500X-0.150000X0.512500X0.150000X-0.512500X0.150000X0*%
%ADD26RoundRect,0.162500X-0.162500X0.650000X-0.162500X-0.650000X0.162500X-0.650000X0.162500X0.650000X0*%
%ADD27RoundRect,0.200000X0.200000X0.275000X-0.200000X0.275000X-0.200000X-0.275000X0.200000X-0.275000X0*%
%ADD28RoundRect,0.249999X-0.395001X0.395001X-0.395001X-0.395001X0.395001X-0.395001X0.395001X0.395001X0*%
%ADD29RoundRect,0.050000X-0.050000X0.387500X-0.050000X-0.387500X0.050000X-0.387500X0.050000X0.387500X0*%
%ADD30RoundRect,0.050000X-0.387500X0.050000X-0.387500X-0.050000X0.387500X-0.050000X0.387500X0.050000X0*%
%ADD31RoundRect,0.375000X0.375000X-0.625000X0.375000X0.625000X-0.375000X0.625000X-0.375000X-0.625000X0*%
%ADD32RoundRect,0.500000X1.400000X-0.500000X1.400000X0.500000X-1.400000X0.500000X-1.400000X-0.500000X0*%
%ADD33RoundRect,0.079500X0.079500X0.100500X-0.079500X0.100500X-0.079500X-0.100500X0.079500X-0.100500X0*%
G04 APERTURE END LIST*
D10*
%TO.C,C5*%
X103840000Y-76240000D03*
X104530000Y-76240000D03*
%TD*%
%TO.C,C11*%
X104525000Y-76980000D03*
X103835000Y-76980000D03*
%TD*%
%TO.C,C15*%
X104535000Y-74000000D03*
X103845000Y-74000000D03*
%TD*%
D11*
%TO.C,C16*%
X114270000Y-102310000D03*
X114270000Y-103000000D03*
%TD*%
D12*
%TO.C,C17*%
X89410000Y-57345000D03*
X89410000Y-58035000D03*
%TD*%
D10*
%TO.C,C13*%
X104530000Y-75500000D03*
X103840000Y-75500000D03*
%TD*%
%TO.C,C12*%
X104535000Y-74750000D03*
X103845000Y-74750000D03*
%TD*%
D13*
%TO.C,Y1*%
X91740000Y-57000000D03*
X94040000Y-57000000D03*
X94040000Y-58750000D03*
X91740000Y-58750000D03*
%TD*%
D14*
%TO.C,J1*%
X96330000Y-107875000D03*
D15*
X97130000Y-107875000D03*
D16*
X98380000Y-107875000D03*
X99380000Y-107875000D03*
X99880000Y-107875000D03*
X100880000Y-107875000D03*
D15*
X102130000Y-107875000D03*
X102930000Y-107875000D03*
D17*
X102680000Y-107875000D03*
X101880000Y-107875000D03*
D16*
X101380000Y-107875000D03*
X100380000Y-107875000D03*
X98880000Y-107875000D03*
X97880000Y-107875000D03*
D17*
X97380000Y-107875000D03*
D18*
X96580000Y-107875000D03*
%TD*%
D19*
%TO.C,R6*%
X141775000Y-58300000D03*
X141775000Y-59950000D03*
%TD*%
D20*
%TO.C,U9*%
X96725000Y-90700000D03*
X96725000Y-90050000D03*
X96725000Y-89400000D03*
X96725000Y-88750000D03*
X96725000Y-88100000D03*
X96725000Y-87450000D03*
X96725000Y-86800000D03*
X96725000Y-86150000D03*
X96725000Y-85500000D03*
X96725000Y-84850000D03*
X91000000Y-84850000D03*
X91000000Y-85500000D03*
X91000000Y-86150000D03*
X91000000Y-86800000D03*
X91000000Y-87450000D03*
X91000000Y-88100000D03*
X91000000Y-88750000D03*
X91000000Y-89400000D03*
X91000000Y-90050000D03*
X91000000Y-90700000D03*
%TD*%
D14*
%TO.C,J2*%
X80645000Y-107880000D03*
D15*
X81445000Y-107880000D03*
D16*
X82695000Y-107880000D03*
X83695000Y-107880000D03*
X84195000Y-107880000D03*
X85195000Y-107880000D03*
D15*
X86445000Y-107880000D03*
X87245000Y-107880000D03*
D17*
X86995000Y-107880000D03*
X86195000Y-107880000D03*
D16*
X85695000Y-107880000D03*
X84695000Y-107880000D03*
X83195000Y-107880000D03*
X82195000Y-107880000D03*
D17*
X81695000Y-107880000D03*
D18*
X80895000Y-107880000D03*
%TD*%
D10*
%TO.C,C6*%
X102500000Y-69500000D03*
X103190000Y-69500000D03*
%TD*%
%TO.C,C18*%
X95455000Y-51250000D03*
X96145000Y-51250000D03*
%TD*%
%TO.C,C2*%
X75260000Y-101340000D03*
X75950000Y-101340000D03*
%TD*%
D11*
%TO.C,C10*%
X101839246Y-78610935D03*
X101839246Y-79300935D03*
%TD*%
D21*
%TO.C,R11*%
X104500000Y-82650000D03*
X104500000Y-81000000D03*
%TD*%
D22*
%TO.C,R17*%
X69457500Y-61415000D03*
X71107500Y-61415000D03*
%TD*%
D10*
%TO.C,D2*%
X106410000Y-106680000D03*
X107100000Y-106680000D03*
%TD*%
D22*
%TO.C,R19*%
X69457500Y-66435000D03*
X71107500Y-66435000D03*
%TD*%
D19*
%TO.C,R7*%
X125725000Y-58475000D03*
X125725000Y-60125000D03*
%TD*%
D23*
%TO.C,U4*%
X83620000Y-86045000D03*
X83620000Y-85105000D03*
X82780000Y-86045000D03*
X82780000Y-85105000D03*
D24*
X85350000Y-86575000D03*
X85350000Y-86075000D03*
X85350000Y-85575000D03*
X85350000Y-85075000D03*
X85350000Y-84575000D03*
X81050000Y-84575000D03*
X81050000Y-85075000D03*
X81050000Y-85575000D03*
X81050000Y-86075000D03*
X81050000Y-86575000D03*
%TD*%
D21*
%TO.C,R9*%
X106790000Y-104000000D03*
X106790000Y-102350000D03*
%TD*%
%TO.C,R12*%
X117700000Y-94525000D03*
X117700000Y-92875000D03*
%TD*%
D22*
%TO.C,R3*%
X92171070Y-98491977D03*
X93821070Y-98491977D03*
%TD*%
D19*
%TO.C,R5*%
X143300000Y-58300000D03*
X143300000Y-59950000D03*
%TD*%
D22*
%TO.C,R1*%
X92175000Y-104500000D03*
X93825000Y-104500000D03*
%TD*%
D23*
%TO.C,U8*%
X83620000Y-67745000D03*
X83620000Y-66805000D03*
X82780000Y-67745000D03*
X82780000Y-66805000D03*
D24*
X85350000Y-68275000D03*
X85350000Y-67775000D03*
X85350000Y-67275000D03*
X85350000Y-66775000D03*
X85350000Y-66275000D03*
X81050000Y-66275000D03*
X81050000Y-66775000D03*
X81050000Y-67275000D03*
X81050000Y-67775000D03*
X81050000Y-68275000D03*
%TD*%
D25*
%TO.C,U12*%
X73725000Y-63725000D03*
X73725000Y-64675000D03*
X73725000Y-65625000D03*
X76000000Y-65625000D03*
X76000000Y-63725000D03*
%TD*%
D23*
%TO.C,U3*%
X83620000Y-90620000D03*
X83620000Y-89680000D03*
X82780000Y-90620000D03*
X82780000Y-89680000D03*
D24*
X85350000Y-91150000D03*
X85350000Y-90650000D03*
X85350000Y-90150000D03*
X85350000Y-89650000D03*
X85350000Y-89150000D03*
X81050000Y-89150000D03*
X81050000Y-89650000D03*
X81050000Y-90150000D03*
X81050000Y-90650000D03*
X81050000Y-91150000D03*
%TD*%
D19*
%TO.C,R8*%
X124200000Y-58475000D03*
X124200000Y-60125000D03*
%TD*%
D23*
%TO.C,U7*%
X83620000Y-72320000D03*
X83620000Y-71380000D03*
X82780000Y-72320000D03*
X82780000Y-71380000D03*
D24*
X85350000Y-72850000D03*
X85350000Y-72350000D03*
X85350000Y-71850000D03*
X85350000Y-71350000D03*
X85350000Y-70850000D03*
X81050000Y-70850000D03*
X81050000Y-71350000D03*
X81050000Y-71850000D03*
X81050000Y-72350000D03*
X81050000Y-72850000D03*
%TD*%
D26*
%TO.C,U10*%
X114277500Y-93362500D03*
X113007500Y-93362500D03*
X111737500Y-93362500D03*
X110467500Y-93362500D03*
X110467500Y-100537500D03*
X111737500Y-100537500D03*
X113007500Y-100537500D03*
X114277500Y-100537500D03*
%TD*%
D23*
%TO.C,U5*%
X83620000Y-81470000D03*
X83620000Y-80530000D03*
X82780000Y-81470000D03*
X82780000Y-80530000D03*
D24*
X85350000Y-82000000D03*
X85350000Y-81500000D03*
X85350000Y-81000000D03*
X85350000Y-80500000D03*
X85350000Y-80000000D03*
X81050000Y-80000000D03*
X81050000Y-80500000D03*
X81050000Y-81000000D03*
X81050000Y-81500000D03*
X81050000Y-82000000D03*
%TD*%
D27*
%TO.C,R15*%
X117400000Y-79075000D03*
X115750000Y-79075000D03*
%TD*%
D21*
%TO.C,R10*%
X102000000Y-82650000D03*
X102000000Y-81000000D03*
%TD*%
D28*
%TO.C,U2*%
X100035000Y-73175000D03*
X98435000Y-73175000D03*
X100035000Y-74775000D03*
X98435000Y-74775000D03*
D29*
X101835000Y-70537500D03*
X101435000Y-70537500D03*
X101035000Y-70537500D03*
X100635000Y-70537500D03*
X100235000Y-70537500D03*
X99835000Y-70537500D03*
X99435000Y-70537500D03*
X99035000Y-70537500D03*
X98635000Y-70537500D03*
X98235000Y-70537500D03*
X97835000Y-70537500D03*
X97435000Y-70537500D03*
X97035000Y-70537500D03*
X96635000Y-70537500D03*
D30*
X95797500Y-71375000D03*
X95797500Y-71775000D03*
X95797500Y-72175000D03*
X95797500Y-72575000D03*
X95797500Y-72975000D03*
X95797500Y-73375000D03*
X95797500Y-73775000D03*
X95797500Y-74175000D03*
X95797500Y-74575000D03*
X95797500Y-74975000D03*
X95797500Y-75375000D03*
X95797500Y-75775000D03*
X95797500Y-76175000D03*
X95797500Y-76575000D03*
D29*
X96635000Y-77412500D03*
X97035000Y-77412500D03*
X97435000Y-77412500D03*
X97835000Y-77412500D03*
X98235000Y-77412500D03*
X98635000Y-77412500D03*
X99035000Y-77412500D03*
X99435000Y-77412500D03*
X99835000Y-77412500D03*
X100235000Y-77412500D03*
X100635000Y-77412500D03*
X101035000Y-77412500D03*
X101435000Y-77412500D03*
X101835000Y-77412500D03*
D30*
X102672500Y-76575000D03*
X102672500Y-76175000D03*
X102672500Y-75775000D03*
X102672500Y-75375000D03*
X102672500Y-74975000D03*
X102672500Y-74575000D03*
X102672500Y-74175000D03*
X102672500Y-73775000D03*
X102672500Y-73375000D03*
X102672500Y-72975000D03*
X102672500Y-72575000D03*
X102672500Y-72175000D03*
X102672500Y-71775000D03*
X102672500Y-71375000D03*
%TD*%
D22*
%TO.C,R18*%
X69457500Y-63925000D03*
X71107500Y-63925000D03*
%TD*%
D10*
%TO.C,D1*%
X111735000Y-106680000D03*
X112425000Y-106680000D03*
%TD*%
D21*
%TO.C,R4*%
X110060000Y-104000000D03*
X110060000Y-102350000D03*
%TD*%
D19*
%TO.C,R13*%
X116175000Y-92875000D03*
X116175000Y-94525000D03*
%TD*%
D10*
%TO.C,C1*%
X75260000Y-99590000D03*
X75950000Y-99590000D03*
%TD*%
%TO.C,C4*%
X90890000Y-94490000D03*
X91580000Y-94490000D03*
%TD*%
D22*
%TO.C,R2*%
X92175000Y-101500000D03*
X93825000Y-101500000D03*
%TD*%
D11*
%TO.C,C8*%
X98040000Y-79430000D03*
X98040000Y-80120000D03*
%TD*%
D25*
%TO.C,U11*%
X73725000Y-59100000D03*
X73725000Y-60050000D03*
X73725000Y-61000000D03*
X76000000Y-61000000D03*
X76000000Y-59100000D03*
%TD*%
D22*
%TO.C,R14*%
X94630000Y-54060000D03*
X96280000Y-54060000D03*
%TD*%
D31*
%TO.C,U1*%
X80350000Y-101950000D03*
X82650000Y-101950000D03*
D32*
X82650000Y-95650000D03*
D31*
X84950000Y-101950000D03*
%TD*%
D33*
%TO.C,C14*%
X94025000Y-75000000D03*
X93335000Y-75000000D03*
%TD*%
D22*
%TO.C,R16*%
X69457500Y-58905000D03*
X71107500Y-58905000D03*
%TD*%
D23*
%TO.C,U6*%
X83620000Y-76895000D03*
X83620000Y-75955000D03*
X82780000Y-76895000D03*
X82780000Y-75955000D03*
D24*
X85350000Y-77425000D03*
X85350000Y-76925000D03*
X85350000Y-76425000D03*
X85350000Y-75925000D03*
X85350000Y-75425000D03*
X81050000Y-75425000D03*
X81050000Y-75925000D03*
X81050000Y-76425000D03*
X81050000Y-76925000D03*
X81050000Y-77425000D03*
%TD*%
D33*
%TO.C,C9*%
X94165000Y-74000000D03*
X93475000Y-74000000D03*
%TD*%
D12*
%TO.C,C7*%
X98000000Y-68500000D03*
X98000000Y-67810000D03*
%TD*%
D10*
%TO.C,C3*%
X90890000Y-92740000D03*
X91580000Y-92740000D03*
%TD*%
M02*
