M48
; DRILL file {KiCad 9.0.5} date 2025-12-07T11:51:46+1100
; FORMAT={-:-/ absolute / metric / decimal}
; #@! TF.CreationDate,2025-12-07T11:51:46+11:00
; #@! TF.GenerationSoftware,Kicad,Pcbnew,9.0.5
; #@! TF.FileFunction,Plated,1,2,PTH
FMAT,2
METRIC
; #@! TA.AperFunction,Plated,PTH,ViaDrill
T1C0.300
; #@! TA.AperFunction,Plated,PTH,ComponentDrill
T2C0.600
; #@! TA.AperFunction,Plated,PTH,ComponentDrill
T3C1.020
; #@! TA.AperFunction,Plated,PTH,ComponentDrill
T4C1.300
%
G90
G05
T1
X58.799Y-81.0
X59.5Y-96.0
X60.0Y-90.5
X61.326Y-86.826
X67.5Y-82.5
X70.0Y-62.0
X70.0Y-63.0
X71.108Y-60.0
X71.108Y-62.5
X71.108Y-65.0
X71.67Y-94.16
X72.0Y-57.0
X72.38Y-84.1
X72.39Y-88.08
X73.0Y-93.0
X73.5Y-62.0
X74.0Y-67.0
X74.71Y-94.56
X76.0Y-74.0
X76.45Y-76.825
X76.5Y-72.0
X76.5Y-84.5
X77.5Y-74.0
X77.5Y-81.1
X77.59Y-58.5
X78.0Y-91.5
X78.5Y-67.5
X78.5Y-75.5
X78.5Y-79.5
X78.5Y-82.0
X79.0Y-70.5
X79.0Y-74.6
X79.0Y-85.0
X79.0Y-88.0
X79.102Y-76.027
X79.33Y-62.69
X79.68Y-103.65
X79.8Y-85.175
X80.4Y-65.6
X81.0Y-65.0
X81.0Y-68.9
X81.0Y-87.5
X81.8Y-100.075
X82.0Y-78.5
X82.25Y-91.75
X82.25Y-105.25
X82.35Y-85.075
X82.35Y-90.65
X82.486Y-81.988
X82.5Y-68.0
X82.5Y-72.5
X82.5Y-77.0
X83.0Y-63.0
X83.101Y-73.4
X83.101Y-82.5
X83.57Y-97.8
X84.0Y-64.0
X84.0Y-77.9
X84.063Y-68.714
X84.31Y-86.95
X84.67Y-60.26
X84.95Y-105.5
X85.5Y-78.5
X85.5Y-93.5
X85.98Y-95.84
X86.5Y-79.4
X86.5Y-91.5
X86.71Y-68.375
X87.0Y-66.0
X87.0Y-70.5
X87.021Y-59.869
X87.11Y-85.701
X87.13Y-86.95
X87.5Y-75.5
X87.5Y-76.5
X87.5Y-84.5
X87.5Y-89.0
X87.9Y-91.0
X88.0Y-72.5
X88.5Y-61.5
X88.5Y-67.5
X88.5Y-81.5
X88.5Y-89.5
X88.501Y-69.075
X88.814Y-86.1
X89.225Y-65.25
X90.0Y-62.0
X90.0Y-105.5
X91.555Y-93.57
X91.74Y-61.61
X91.752Y-54.3
X91.89Y-75.58
X92.49Y-76.3
X92.5Y-74.0
X92.64Y-61.02
X92.852Y-86.802
X92.852Y-87.602
X92.852Y-88.402
X92.94Y-57.79
X93.0Y-85.996
X93.821Y-97.0
X94.0Y-61.57
X94.0Y-67.0
X94.01Y-69.88
X94.125Y-79.225
X94.14Y-68.46
X94.81Y-76.64
X94.83Y-71.82
X96.05Y-62.275
X96.138Y-61.338
X96.301Y-64.65
X96.95Y-74.55
X96.975Y-83.75
X97.155Y-72.975
X97.32Y-95.07
X97.425Y-66.35
X98.032Y-78.83
X98.235Y-76.36
X98.5Y-67.5
X98.5Y-94.5
X98.61Y-80.13
X98.725Y-110.15
X99.15Y-71.85
X99.235Y-73.975
X99.95Y-100.55
X99.974Y-71.875
X100.3Y-83.95
X100.3Y-90.15
X100.355Y-72.855
X100.95Y-110.15
X101.425Y-75.6
X101.721Y-74.775
X101.75Y-73.575
X102.65Y-79.24
X102.71Y-51.88
X103.58Y-95.354
X103.738Y-78.762
X103.76Y-98.66
X104.0Y-69.5
X104.5Y-79.8
X104.6Y-104.5
X105.418Y-75.192
X105.876Y-97.65
X106.0Y-91.625
X106.111Y-109.062
X106.41Y-108.32
X106.45Y-85.65
X107.11Y-85.05
X107.26Y-60.26
X107.886Y-84.856
X108.625Y-84.55
X108.625Y-86.25
X109.12Y-105.7
X109.12Y-107.181
X109.225Y-87.675
X109.423Y-84.602
X109.424Y-86.285
X109.985Y-87.924
X110.223Y-84.599
X110.238Y-86.25
X110.35Y-91.825
X111.146Y-86.31
X111.15Y-84.625
X113.42Y-65.31
X115.31Y-89.43
X116.667Y-89.577
X127.09Y-53.39
X127.18Y-47.47
X127.325Y-60.375
X132.58Y-106.93
X133.62Y-110.09
X139.625Y-60.225
X143.09Y-83.119
X144.691Y-85.8
X144.77Y-82.48
T3
X120.415Y-75.621
X120.425Y-84.971
X120.45Y-66.225
X122.955Y-75.621
X122.965Y-84.971
X122.99Y-66.225
X125.495Y-75.621
X125.505Y-84.971
X125.53Y-66.225
T4
X64.5Y-40.5
X64.5Y-45.5
X64.5Y-50.5
X64.5Y-55.5
X64.5Y-60.5
X64.5Y-65.5
X64.5Y-70.5
X64.5Y-78.0
X64.5Y-83.0
X64.5Y-88.0
X64.5Y-93.0
X64.5Y-98.0
X64.5Y-103.0
X64.5Y-108.0
X113.255Y-52.672
X118.335Y-52.672
X123.415Y-52.672
X130.84Y-52.5
X135.92Y-52.5
X139.873Y-65.75
X139.873Y-70.75
X139.873Y-75.75
X139.873Y-80.75
X139.873Y-85.75
X139.873Y-90.75
X139.873Y-95.75
X141.0Y-52.5
T2
G00X79.625Y-108.25
M15
G01X79.625Y-109.35
M16
G05
G00X79.625Y-112.68
M15
G01X79.625Y-113.28
M16
G05
G00X88.265Y-108.25
M15
G01X88.265Y-109.35
M16
G05
G00X88.265Y-112.68
M15
G01X88.265Y-113.28
M16
G05
G00X95.31Y-108.245
M15
G01X95.31Y-109.345
M16
G05
G00X95.31Y-112.675
M15
G01X95.31Y-113.275
M16
G05
G00X103.95Y-108.245
M15
G01X103.95Y-109.345
M16
G05
G00X103.95Y-112.675
M15
G01X103.95Y-113.275
M16
G05
M30
