M48
; DRILL file {KiCad 9.0.5} date 2025-12-14T22:24:37+1100
; FORMAT={-:-/ absolute / metric / decimal}
; #@! TF.CreationDate,2025-12-14T22:24:37+11:00
; #@! TF.GenerationSoftware,Kicad,Pcbnew,9.0.5
; #@! TF.FileFunction,Plated,1,2,PTH
FMAT,2
METRIC
; #@! TA.AperFunction,Plated,PTH,ViaDrill
T1C0.300
; #@! TA.AperFunction,Plated,PTH,ComponentDrill
T2C0.600
; #@! TA.AperFunction,Plated,PTH,ComponentDrill
T3C1.020
; #@! TA.AperFunction,Plated,PTH,ComponentDrill
T4C1.300
%
G90
G05
T1
X57.725Y-74.375
X57.725Y-75.65
X57.75Y-76.875
X58.325Y-86.2
X58.325Y-87.375
X58.5Y-84.75
X58.799Y-81.0
X59.5Y-96.0
X60.0Y-90.5
X61.225Y-75.375
X61.3Y-74.0
X61.475Y-94.575
X61.975Y-74.35
X63.075Y-94.775
X66.85Y-110.999
X67.55Y-70.25
X68.825Y-69.275
X69.025Y-84.9
X69.175Y-83.25
X69.421Y-62.448
X69.875Y-68.4
X70.0Y-63.0
X70.2Y-81.6
X71.05Y-101.55
X71.075Y-73.425
X71.108Y-60.0
X71.108Y-62.5
X71.108Y-65.0
X71.15Y-85.1
X71.475Y-89.475
X71.525Y-102.85
X71.67Y-94.16
X71.75Y-91.5
X71.825Y-56.6
X71.875Y-83.75
X72.075Y-76.625
X72.4Y-104.025
X72.975Y-83.7
X73.0Y-93.0
X73.05Y-71.475
X73.5Y-62.0
X73.775Y-89.425
X74.7Y-101.475
X74.71Y-94.56
X74.9Y-73.8
X74.975Y-110.05
X75.275Y-102.2
X75.65Y-67.0
X76.0Y-74.0
X76.175Y-109.8
X76.5Y-72.0
X76.5Y-84.5
X76.8Y-78.05
X76.9Y-92.075
X77.45Y-76.025
X77.5Y-74.0
X77.5Y-81.1
X77.5Y-99.775
X77.65Y-86.8
X77.937Y-85.088
X78.15Y-110.05
X78.175Y-106.225
X78.325Y-90.375
X78.475Y-100.8
X78.5Y-67.5
X78.5Y-79.5
X78.5Y-82.0
X78.525Y-76.575
X79.0Y-70.5
X79.0Y-74.6
X79.0Y-85.0
X79.0Y-88.0
X79.371Y-92.019
X79.425Y-56.0
X79.7Y-105.325
X79.725Y-67.9
X79.8Y-85.175
X79.95Y-83.4
X80.575Y-56.05
X81.0Y-65.0
X81.0Y-68.9
X81.0Y-87.5
X81.05Y-83.425
X81.5Y-60.5
X81.825Y-69.775
X82.0Y-78.5
X82.25Y-91.75
X82.35Y-85.075
X82.35Y-90.65
X82.5Y-71.2
X82.501Y-75.775
X82.501Y-79.975
X82.675Y-56.25
X82.725Y-103.875
X82.8Y-109.675
X83.0Y-63.0
X83.101Y-72.875
X83.101Y-81.95
X83.15Y-91.15
X83.75Y-103.925
X84.0Y-64.0
X84.0Y-68.275
X84.0Y-77.425
X84.0Y-86.525
X84.95Y-105.5
X85.475Y-65.45
X85.5Y-78.5
X85.5Y-93.5
X86.5Y-79.4
X86.71Y-68.375
X87.0Y-66.0
X87.0Y-70.5
X87.11Y-85.701
X87.13Y-86.95
X87.5Y-76.5
X87.5Y-84.5
X87.5Y-89.0
X87.75Y-83.475
X87.85Y-74.95
X87.9Y-91.0
X88.0Y-72.5
X88.5Y-61.5
X88.5Y-67.5
X88.5Y-81.5
X88.5Y-89.5
X88.501Y-69.075
X88.814Y-86.1
X88.925Y-73.725
X89.225Y-65.25
X89.4Y-88.05
X89.45Y-72.975
X89.5Y-72.325
X89.625Y-83.425
X90.0Y-62.0
X90.0Y-91.95
X90.0Y-105.5
X91.025Y-109.2
X91.25Y-105.525
X91.575Y-91.925
X92.2Y-87.45
X92.3Y-80.1
X92.3Y-86.15
X92.325Y-78.125
X92.35Y-67.6
X92.425Y-75.125
X92.575Y-66.375
X92.675Y-109.2
X92.782Y-88.196
X92.852Y-86.802
X93.4Y-95.05
X93.425Y-78.875
X93.725Y-67.975
X93.821Y-97.0
X94.025Y-66.475
X94.05Y-79.825
X94.325Y-68.6
X94.5Y-89.0
X94.675Y-72.725
X94.725Y-78.825
X94.825Y-69.55
X95.225Y-89.475
X95.525Y-70.15
X95.625Y-104.875
X95.775Y-96.0
X95.825Y-81.6
X96.175Y-58.225
X96.6Y-91.65
X96.9Y-67.775
X96.975Y-65.6
X97.008Y-79.833
X97.32Y-95.07
X97.35Y-104.8
X97.825Y-66.325
X97.9Y-83.8
X98.25Y-74.9
X98.275Y-81.425
X98.312Y-73.069
X98.325Y-100.0
X98.325Y-110.3
X98.425Y-63.6
X98.61Y-80.13
X99.15Y-91.1
X99.235Y-73.975
X99.45Y-64.675
X99.625Y-62.325
X99.942Y-61.159
X100.2Y-75.0
X100.3Y-72.95
X100.7Y-94.475
X100.75Y-110.3
X101.0Y-78.625
X101.25Y-90.9
X101.525Y-62.1
X101.619Y-76.241
X101.65Y-73.025
X101.75Y-85.05
X101.9Y-74.531
X102.1Y-100.375
X102.525Y-92.425
X102.65Y-79.24
X102.725Y-97.275
X102.875Y-51.675
X103.025Y-104.55
X103.15Y-63.475
X103.58Y-95.354
X103.76Y-98.66
X104.0Y-69.5
X104.6Y-104.5
X104.825Y-103.075
X105.25Y-77.3
X105.553Y-74.527
X105.876Y-97.65
X106.111Y-109.062
X106.275Y-71.25
X106.41Y-108.32
X106.45Y-85.65
X106.525Y-93.175
X106.7Y-57.525
X107.65Y-70.075
X107.65Y-96.7
X107.7Y-95.375
X107.825Y-59.175
X108.95Y-68.925
X109.425Y-81.65
X109.65Y-106.65
X109.7Y-105.725
X109.975Y-82.125
X110.725Y-90.575
X110.875Y-110.375
X111.125Y-66.1
X111.9Y-82.25
X111.95Y-55.425
X112.4Y-81.725
X113.8Y-86.8
X113.8Y-92.425
X114.55Y-77.55
X114.6Y-110.325
X114.671Y-76.694
X115.31Y-89.43
X115.725Y-81.0
X115.8Y-106.775
X116.35Y-55.775
X116.4Y-59.1
X116.425Y-86.15
X116.667Y-89.577
X116.825Y-70.975
X116.85Y-90.825
X117.0Y-76.675
X117.3Y-77.6
X118.025Y-84.175
X118.125Y-110.275
X119.55Y-66.475
X119.95Y-106.725
X120.3Y-70.95
X121.0Y-89.45
X121.75Y-110.3
X122.025Y-55.2
X123.0Y-106.7
X124.025Y-66.8
X124.4Y-71.125
X127.27Y-52.312
X127.325Y-60.375
X127.35Y-55.95
X127.375Y-48.675
X127.95Y-68.8
X128.8Y-76.25
X129.95Y-77.325
X130.2Y-79.55
X131.525Y-73.075
X133.45Y-52.225
X133.475Y-48.075
X134.05Y-75.5
X135.025Y-77.9
X144.691Y-85.8
T3
X107.925Y-83.825
X110.465Y-83.825
X113.005Y-83.825
X120.27Y-64.225
X120.425Y-84.735
X122.81Y-64.225
X122.965Y-84.735
X125.35Y-64.225
X125.505Y-84.735
T4
X64.5Y-40.5
X64.5Y-45.5
X64.5Y-50.5
X64.5Y-55.5
X64.5Y-60.5
X64.5Y-65.5
X64.5Y-70.5
X64.5Y-78.0
X64.5Y-83.0
X64.5Y-88.0
X64.5Y-93.0
X64.5Y-98.0
X64.5Y-103.0
X64.5Y-108.0
X113.255Y-52.672
X118.335Y-52.672
X123.415Y-52.672
X130.84Y-52.5
X135.92Y-52.5
X139.873Y-65.75
X139.873Y-70.75
X139.873Y-75.75
X139.873Y-80.75
X139.873Y-85.75
X139.873Y-90.75
X139.873Y-95.75
X141.0Y-52.5
T2
G00X79.625Y-108.25
M15
G01X79.625Y-109.35
M16
G05
G00X79.625Y-112.68
M15
G01X79.625Y-113.28
M16
G05
G00X88.265Y-108.25
M15
G01X88.265Y-109.35
M16
G05
G00X88.265Y-112.68
M15
G01X88.265Y-113.28
M16
G05
G00X95.31Y-108.245
M15
G01X95.31Y-109.345
M16
G05
G00X95.31Y-112.675
M15
G01X95.31Y-113.275
M16
G05
G00X103.95Y-108.245
M15
G01X103.95Y-109.345
M16
G05
G00X103.95Y-112.675
M15
G01X103.95Y-113.275
M16
G05
M30
