%TF.GenerationSoftware,KiCad,Pcbnew,9.0.5*%
%TF.CreationDate,2025-12-14T22:24:26+11:00*%
%TF.ProjectId,inputSwitchboard,696e7075-7453-4776-9974-6368626f6172,rev?*%
%TF.SameCoordinates,Original*%
%TF.FileFunction,Copper,L2,Bot*%
%TF.FilePolarity,Positive*%
%FSLAX46Y46*%
G04 Gerber Fmt 4.6, Leading zero omitted, Abs format (unit mm)*
G04 Created by KiCad (PCBNEW 9.0.5) date 2025-12-14 22:24:26*
%MOMM*%
%LPD*%
G01*
G04 APERTURE LIST*
G04 Aperture macros list*
%AMRoundRect*
0 Rectangle with rounded corners*
0 $1 Rounding radius*
0 $2 $3 $4 $5 $6 $7 $8 $9 X,Y pos of 4 corners*
0 Add a 4 corners polygon primitive as box body*
4,1,4,$2,$3,$4,$5,$6,$7,$8,$9,$2,$3,0*
0 Add four circle primitives for the rounded corners*
1,1,$1+$1,$2,$3*
1,1,$1+$1,$4,$5*
1,1,$1+$1,$6,$7*
1,1,$1+$1,$8,$9*
0 Add four rect primitives between the rounded corners*
20,1,$1+$1,$2,$3,$4,$5,0*
20,1,$1+$1,$4,$5,$6,$7,0*
20,1,$1+$1,$6,$7,$8,$9,0*
20,1,$1+$1,$8,$9,$2,$3,0*%
G04 Aperture macros list end*
%TA.AperFunction,ComponentPad*%
%ADD10RoundRect,0.500000X-0.000010X-0.600000X0.000010X-0.600000X0.000010X0.600000X-0.000010X0.600000X0*%
%TD*%
%TA.AperFunction,ComponentPad*%
%ADD11R,1.730000X2.030000*%
%TD*%
%TA.AperFunction,ComponentPad*%
%ADD12O,1.730000X2.030000*%
%TD*%
%TA.AperFunction,ComponentPad*%
%ADD13RoundRect,0.250001X1.149999X-1.149999X1.149999X1.149999X-1.149999X1.149999X-1.149999X-1.149999X0*%
%TD*%
%TA.AperFunction,ComponentPad*%
%ADD14C,2.800000*%
%TD*%
%TA.AperFunction,ComponentPad*%
%ADD15RoundRect,0.250001X-1.149999X1.149999X-1.149999X-1.149999X1.149999X-1.149999X1.149999X1.149999X0*%
%TD*%
%TA.AperFunction,ComponentPad*%
%ADD16RoundRect,0.250000X-1.050000X-1.050000X1.050000X-1.050000X1.050000X1.050000X-1.050000X1.050000X0*%
%TD*%
%TA.AperFunction,ComponentPad*%
%ADD17C,2.600000*%
%TD*%
%TA.AperFunction,ViaPad*%
%ADD18C,0.600000*%
%TD*%
%TA.AperFunction,Conductor*%
%ADD19C,0.200000*%
%TD*%
%TA.AperFunction,Conductor*%
%ADD20C,0.500000*%
%TD*%
%TA.AperFunction,Conductor*%
%ADD21C,0.600000*%
%TD*%
G04 APERTURE END LIST*
D10*
%TO.P,J2,Sh1,SHIELD*%
%TO.N,GND*%
X79625000Y-108800000D03*
X79625000Y-112980000D03*
X88265000Y-108800000D03*
X88265000Y-112980000D03*
%TD*%
D11*
%TO.P,J12,1,Pin_1*%
%TO.N,Net-(J12-Pin_1)*%
X120424839Y-84735412D03*
D12*
%TO.P,J12,2,Pin_2*%
%TO.N,Net-(J12-Pin_2)*%
X122964839Y-84735412D03*
%TO.P,J12,3,Pin_3*%
%TO.N,GND*%
X125504839Y-84735412D03*
%TD*%
D13*
%TO.P,J6,1,Pin_1*%
%TO.N,GND*%
X64500000Y-70500000D03*
D14*
%TO.P,J6,2,Pin_2*%
%TO.N,CTRL-EXT-1-CLK*%
X64500000Y-65500000D03*
%TO.P,J6,3,Pin_3*%
%TO.N,CTRL-EXT-2-LATCH*%
X64500000Y-60500000D03*
%TO.P,J6,4,Pin_4*%
%TO.N,CTRL-EXT-3-D1*%
X64500000Y-55500000D03*
%TO.P,J6,5,Pin_5*%
%TO.N,CTRL-EXT-4-VCC*%
X64500000Y-50500000D03*
%TO.P,J6,6,Pin_6*%
%TO.N,CTRL-EXT-5-D3*%
X64500000Y-45500000D03*
%TO.P,J6,7,Pin_7*%
%TO.N,CTRL-EXT-6-D4*%
X64500000Y-40500000D03*
%TD*%
D11*
%TO.P,J11,1,Pin_1*%
%TO.N,unconnected-(J11-Pin_1-Pad1)*%
X107925000Y-83825000D03*
D12*
%TO.P,J11,2,Pin_2*%
%TO.N,RUN*%
X110465000Y-83825000D03*
%TO.P,J11,3,Pin_3*%
%TO.N,GND*%
X113005000Y-83825000D03*
%TD*%
D15*
%TO.P,J7,1,Pin_1*%
%TO.N,GND*%
X139872500Y-65750000D03*
D14*
%TO.P,J7,2,Pin_2*%
%TO.N,PROC-NES-1-CLK*%
X139872500Y-70750000D03*
%TO.P,J7,3,Pin_3*%
%TO.N,PROC-NES-2-LATCH*%
X139872500Y-75750000D03*
%TO.P,J7,4,Pin_4*%
%TO.N,PROC-NES-3-D1*%
X139872500Y-80750000D03*
%TO.P,J7,5,Pin_5*%
%TO.N,PROC-NES-4-VCC*%
X139872500Y-85750000D03*
%TO.P,J7,6,Pin_6*%
%TO.N,PROC-NES-5-D3*%
X139872500Y-90750000D03*
%TO.P,J7,7,Pin_7*%
%TO.N,PROC-NES-6-D4*%
X139872500Y-95750000D03*
%TD*%
D16*
%TO.P,J3,1,Pin_1*%
%TO.N,+3V3*%
X113255000Y-52672500D03*
D17*
%TO.P,J3,2,Pin_2*%
%TO.N,INPUT-SEL-NO*%
X118335000Y-52672500D03*
%TO.P,J3,3,Pin_3*%
%TO.N,INPUT-SEL-NC*%
X123415000Y-52672500D03*
%TD*%
D10*
%TO.P,J1,Sh1,SHIELD*%
%TO.N,GND*%
X95310000Y-108795000D03*
X95310000Y-112975000D03*
X103950000Y-108795000D03*
X103950000Y-112975000D03*
%TD*%
D13*
%TO.P,J5,1,Pin_1*%
%TO.N,GND*%
X64500000Y-108000000D03*
D14*
%TO.P,J5,2,Pin_2*%
%TO.N,CTRL-INT-1-CLK*%
X64500000Y-103000000D03*
%TO.P,J5,3,Pin_3*%
%TO.N,CTRL-INT-2-LATCH*%
X64500000Y-98000000D03*
%TO.P,J5,4,Pin_4*%
%TO.N,CTRL-INT-3-D1*%
X64500000Y-93000000D03*
%TO.P,J5,5,Pin_5*%
%TO.N,CTRL-INT-4-VCC*%
X64500000Y-88000000D03*
%TO.P,J5,6,Pin_6*%
%TO.N,CTRL-INT-5-D3*%
X64500000Y-83000000D03*
%TO.P,J5,7,Pin_7*%
%TO.N,CTRL-INT-6-D4*%
X64500000Y-78000000D03*
%TD*%
D16*
%TO.P,J4,1,Pin_1*%
%TO.N,+3V3*%
X130840000Y-52500000D03*
D17*
%TO.P,J4,2,Pin_2*%
%TO.N,OUTPUT-SEL-NO*%
X135920000Y-52500000D03*
%TO.P,J4,3,Pin_3*%
%TO.N,OUTPUT-SEL-NC*%
X141000000Y-52500000D03*
%TD*%
D11*
%TO.P,J10,1,Pin_1*%
%TO.N,unconnected-(J10-Pin_1-Pad1)*%
X120270000Y-64225000D03*
D12*
%TO.P,J10,2,Pin_2*%
%TO.N,Net-(J10-Pin_2)*%
X122810000Y-64225000D03*
%TO.P,J10,3,Pin_3*%
%TO.N,GND*%
X125350000Y-64225000D03*
%TD*%
D18*
%TO.N,GND*%
X92350000Y-67600000D03*
X87750000Y-83475000D03*
X127269644Y-52311645D03*
X101525000Y-62100000D03*
X92675000Y-109200000D03*
X116825000Y-70975000D03*
X129950000Y-77325000D03*
X78175000Y-106225000D03*
X124400000Y-71125000D03*
X76900000Y-92075000D03*
X94325000Y-68600000D03*
X79700000Y-105325000D03*
X57725000Y-75650000D03*
X89500000Y-72325000D03*
X89625000Y-83425000D03*
X109425000Y-81650000D03*
X90000000Y-91950000D03*
X134050000Y-75500000D03*
X82725000Y-103875000D03*
X71107500Y-62500000D03*
X71107500Y-65000000D03*
X109975000Y-82125000D03*
X71750000Y-91500000D03*
X127950000Y-68800000D03*
X118125000Y-110275000D03*
X98325000Y-110300000D03*
X74975000Y-110050000D03*
X73050000Y-71475000D03*
X112400000Y-81725000D03*
X98325000Y-100000000D03*
X105250000Y-77300000D03*
X114550000Y-77550000D03*
X67550000Y-70250000D03*
X95225000Y-89475000D03*
X110725000Y-90575000D03*
X104825000Y-103075000D03*
X61475000Y-94575000D03*
X79725000Y-67900000D03*
X95625000Y-104875000D03*
X94825000Y-69550000D03*
X103150000Y-63475000D03*
X119950000Y-106725000D03*
X71050000Y-101550000D03*
X81050000Y-83425000D03*
X73775000Y-89425000D03*
X57725000Y-74375000D03*
X127350000Y-55950000D03*
X128800000Y-76250000D03*
X69875000Y-68400000D03*
X79371264Y-92018549D03*
X87850000Y-74950000D03*
X82350000Y-85075000D03*
X79950000Y-83400000D03*
X114671494Y-76693870D03*
X92425000Y-75125000D03*
X109650000Y-106650000D03*
X119550000Y-66475000D03*
X130200000Y-79550000D03*
X94675000Y-72725000D03*
X71075000Y-73425000D03*
X104000000Y-69500000D03*
X74900000Y-73800000D03*
X72400000Y-104025000D03*
X82800000Y-109675000D03*
X121000000Y-89450000D03*
X71150000Y-85100000D03*
X106275000Y-71250000D03*
X118025000Y-84175000D03*
X133450000Y-52225000D03*
X63075000Y-94775000D03*
X72075000Y-76625000D03*
X86710000Y-68375000D03*
X61300000Y-74000000D03*
X98250000Y-74900000D03*
X58325000Y-87375000D03*
X93821070Y-97000000D03*
X87500000Y-89000000D03*
X72975000Y-83700000D03*
X127375000Y-48675000D03*
X97350000Y-104800000D03*
X68825000Y-69275000D03*
X83750000Y-103925000D03*
X92300000Y-80100000D03*
X58325000Y-86200000D03*
X101250000Y-90900000D03*
X88925000Y-73725000D03*
X96900000Y-67775000D03*
X87000000Y-70500000D03*
X99235000Y-73975000D03*
X116850000Y-90825000D03*
X95825000Y-81600000D03*
X107650000Y-96700000D03*
X81825000Y-69775000D03*
X74700000Y-101475000D03*
X100700000Y-94475000D03*
X91025000Y-109200000D03*
X92575000Y-66375000D03*
X100300000Y-72950000D03*
X80575000Y-56050000D03*
X71875000Y-83750000D03*
X117000000Y-76675000D03*
X116350000Y-55775000D03*
X78475000Y-100800000D03*
X82350000Y-90650000D03*
X111125000Y-66100000D03*
X58500000Y-84750000D03*
X75275000Y-102200000D03*
X61225000Y-75375000D03*
X120300000Y-70950000D03*
X71475000Y-89475000D03*
X108950000Y-68925000D03*
X96175000Y-58225000D03*
X82500000Y-71200000D03*
X105553423Y-74526950D03*
X131525000Y-73075000D03*
X107825000Y-59175000D03*
X87500000Y-84500000D03*
X98275000Y-81425000D03*
X107700000Y-95375000D03*
X116425000Y-86150000D03*
X110875000Y-110375000D03*
X121750000Y-110300000D03*
X82675000Y-56250000D03*
X102875000Y-51675000D03*
X79425000Y-56000000D03*
X82501000Y-79975000D03*
X100200000Y-75000000D03*
X61975000Y-74350000D03*
X91575000Y-91925000D03*
X102650000Y-79240000D03*
X76175000Y-109800000D03*
X111900000Y-82250000D03*
X111950000Y-55425000D03*
X106700000Y-57525000D03*
X69175000Y-83250000D03*
X89450000Y-72975000D03*
X95775000Y-96000000D03*
X77500000Y-99775000D03*
X135025000Y-77900000D03*
X117300000Y-77600000D03*
X100750000Y-110300000D03*
X124025000Y-66800000D03*
X91250000Y-105525000D03*
X82501000Y-75775000D03*
X102100000Y-100375000D03*
X102725000Y-97275000D03*
X123000000Y-106700000D03*
X98610000Y-80130000D03*
X93400000Y-95050000D03*
X71107500Y-60000000D03*
X103025000Y-104550000D03*
X94025000Y-66475000D03*
X127325000Y-60375000D03*
X115800000Y-106775000D03*
X87000000Y-66000000D03*
X93725000Y-67975000D03*
X89400000Y-88050000D03*
X116400000Y-59100000D03*
X99150000Y-91100000D03*
X133475000Y-48075000D03*
X78150000Y-110050000D03*
X114600000Y-110325000D03*
X95525000Y-70150000D03*
X98312219Y-73068916D03*
X92325000Y-78125000D03*
X109700000Y-105725000D03*
X71525000Y-102850000D03*
X69025000Y-84900000D03*
X107650000Y-70075000D03*
X57750000Y-76875000D03*
X94500000Y-89000000D03*
%TO.N,+5V*%
X106525000Y-93175000D03*
X78500000Y-82000000D03*
X76000000Y-74000000D03*
X96600000Y-91650000D03*
X73000000Y-93000000D03*
X70200000Y-81600000D03*
X81000000Y-68900000D03*
X90000000Y-62000000D03*
X76500000Y-84500000D03*
X84950000Y-105500000D03*
X82250000Y-91750000D03*
X90000000Y-105500000D03*
%TO.N,+3V3*%
X97900000Y-83800000D03*
X97007815Y-79832815D03*
X113800000Y-86800000D03*
X102525000Y-92425000D03*
X101899999Y-74530857D03*
X113800000Y-92425000D03*
X101619087Y-76241443D03*
X122025000Y-55200000D03*
X101650000Y-73025000D03*
X115725000Y-81000000D03*
X101750000Y-85050000D03*
X101000000Y-78625000D03*
%TO.N,OUTPUT-SEL-NC*%
X99450000Y-64675000D03*
X99942185Y-61159285D03*
%TO.N,OUTPUT-SEL-NO*%
X98425000Y-63600000D03*
X99625000Y-62325000D03*
%TO.N,CTRL-INT-6-D4*%
X77500000Y-74000000D03*
%TO.N,CTRL-INT-2-LATCH*%
X85500000Y-93500000D03*
%TO.N,CTRL-EXT-5-D3*%
X76500000Y-72000000D03*
%TO.N,CTRL-EXT-6-D4*%
X88000000Y-72500000D03*
%TO.N,CTRL-EXT-4-VCC*%
X71825000Y-56600000D03*
%TO.N,CTRL-EXT-1-CLK*%
X60000000Y-90500000D03*
X78325000Y-90375000D03*
%TO.N,CTRL-EXT-3-D1*%
X58799000Y-81000000D03*
X77500000Y-81100000D03*
%TO.N,CTRL-EXT-2-LATCH*%
X87900000Y-91000000D03*
X59500000Y-96000000D03*
%TO.N,PROC-NES-3-D1*%
X76800000Y-78050000D03*
X144691000Y-85800000D03*
X106110978Y-109062017D03*
%TO.N,PROC-NES-1-CLK*%
X66850000Y-110999000D03*
X71670000Y-94160000D03*
X106410000Y-108320000D03*
X77937472Y-85087528D03*
X77650000Y-86800000D03*
X74710000Y-94560000D03*
%TO.N,PROC-NES-5-D3*%
X96975000Y-65600000D03*
%TO.N,PROC-NES-6-D4*%
X89225000Y-65250000D03*
X97825000Y-66325000D03*
X88501000Y-69075000D03*
%TO.N,PROC-NES-4-VCC*%
X81500000Y-60500000D03*
%TO.N,PROC-NES-2-LATCH*%
X104600000Y-104500000D03*
X97320000Y-95070000D03*
X87130000Y-86950000D03*
X103760000Y-98660000D03*
%TO.N,RUN*%
X106450000Y-85650000D03*
X94725000Y-78825000D03*
%TO.N,Net-(J12-Pin_1)*%
X93425000Y-78875000D03*
X115310000Y-89430000D03*
%TO.N,Net-(J12-Pin_2)*%
X116667087Y-89577087D03*
X94050000Y-79825000D03*
%TO.N,Net-(U2-GPIO25)*%
X105876000Y-97650000D03*
X103580000Y-95354000D03*
%TO.N,IN-SEL*%
X83101000Y-72875000D03*
X83101000Y-81950000D03*
X83000000Y-63000000D03*
X83150000Y-91150000D03*
%TO.N,OUT-SEL*%
X84000000Y-86525000D03*
X84000000Y-77425000D03*
X84000000Y-68275000D03*
X84000000Y-64000000D03*
%TO.N,Net-(U3-D+)*%
X88813974Y-86100000D03*
X88500000Y-89500000D03*
%TO.N,Net-(U3-D-)*%
X79000000Y-85000000D03*
X79000000Y-88000000D03*
%TO.N,PROC-RP-1-CLK*%
X81000000Y-87500000D03*
X79800003Y-85175000D03*
%TO.N,PROC-RP-2-LATCH*%
X92300000Y-86150000D03*
X87110000Y-85701000D03*
%TO.N,Net-(U5-D-)*%
X78500000Y-79500000D03*
X77450000Y-76025000D03*
%TO.N,PROC-RP-3-D1*%
X85500000Y-78500000D03*
X92852206Y-86802458D03*
X78525000Y-76575000D03*
X82000000Y-78500000D03*
%TO.N,Net-(U7-D-)*%
X81000000Y-65000000D03*
X78500000Y-67500000D03*
%TO.N,PROC-RP-6-D4*%
X92782035Y-88195595D03*
X88500000Y-67500000D03*
%TO.N,PROC-RP-5-D3*%
X92200000Y-87450000D03*
X85475000Y-65450000D03*
%TO.N,RP-VCC-TOGGLE*%
X87500000Y-76500000D03*
X88500000Y-61500000D03*
%TO.N,NES-VCC-TOGGLE*%
X79000000Y-70500000D03*
X86500000Y-79400000D03*
X75650000Y-67000000D03*
X88500000Y-81500000D03*
X69421314Y-62447618D03*
X79000000Y-74600000D03*
%TO.N,Net-(U11-ISET)*%
X73500000Y-62000000D03*
X70000000Y-63000000D03*
%TD*%
D19*
%TO.N,GND*%
X97525000Y-89475000D02*
X95225000Y-89475000D01*
X99150000Y-91100000D02*
X97525000Y-89475000D01*
%TO.N,+5V*%
X81000000Y-68900000D02*
X79100000Y-68900000D01*
X98500000Y-94500000D02*
X96600000Y-92600000D01*
X78500000Y-82000000D02*
X76500000Y-84000000D01*
X96600000Y-92600000D02*
X96600000Y-91650000D01*
D20*
X98500000Y-94500000D02*
X98500000Y-97000000D01*
D19*
X77500000Y-72500000D02*
X77500000Y-70500000D01*
D20*
X90000000Y-105500000D02*
X84950000Y-105500000D01*
X91425000Y-80850000D02*
X99825000Y-89250000D01*
D19*
X106525000Y-93175000D02*
X99825000Y-93175000D01*
X76000000Y-74000000D02*
X77500000Y-72500000D01*
D20*
X91167771Y-80592771D02*
X91167771Y-63167771D01*
D19*
X81000000Y-93000000D02*
X82250000Y-91750000D01*
X77500000Y-70500000D02*
X79100000Y-68900000D01*
D20*
X99825000Y-89250000D02*
X99825000Y-93175000D01*
X91167771Y-63167771D02*
X90000000Y-62000000D01*
X99825000Y-93175000D02*
X98500000Y-94500000D01*
X90000000Y-105500000D02*
X98500000Y-97000000D01*
D19*
X73000000Y-93000000D02*
X81000000Y-93000000D01*
X70200000Y-81600000D02*
X71100000Y-82500000D01*
X71100000Y-82500000D02*
X74500000Y-82500000D01*
X74500000Y-82500000D02*
X76500000Y-84500000D01*
D20*
X91167771Y-80592771D02*
X91425000Y-80850000D01*
D19*
X76500000Y-84000000D02*
X76500000Y-84500000D01*
D20*
%TO.N,+3V3*%
X100548943Y-83349000D02*
X101750000Y-84550057D01*
X97007815Y-82907815D02*
X97900000Y-83800000D01*
X115725000Y-84875000D02*
X113800000Y-86800000D01*
D19*
X122025000Y-55200000D02*
X122950000Y-54275000D01*
X101650000Y-73025000D02*
X101650000Y-76210530D01*
X129065000Y-54275000D02*
X130840000Y-52500000D01*
X114857500Y-54275000D02*
X122950000Y-54275000D01*
D20*
X97900000Y-83800000D02*
X98351000Y-83349000D01*
D19*
X101650000Y-76210530D02*
X101619087Y-76241443D01*
D20*
X115725000Y-81000000D02*
X115725000Y-84875000D01*
X101000000Y-78625000D02*
X98215630Y-78625000D01*
X98215630Y-78625000D02*
X97007815Y-79832815D01*
X101750000Y-84550057D02*
X101750000Y-85050000D01*
X102525000Y-92425000D02*
X113800000Y-92425000D01*
X98351000Y-83349000D02*
X100548943Y-83349000D01*
D19*
X122950000Y-54275000D02*
X129065000Y-54275000D01*
X113255000Y-52672500D02*
X114857500Y-54275000D01*
D20*
X97007815Y-79832815D02*
X97007815Y-82907815D01*
D19*
%TO.N,OUTPUT-SEL-NC*%
X99942185Y-61159285D02*
X100226000Y-61443100D01*
X100226000Y-63899000D02*
X99450000Y-64675000D01*
X100226000Y-61443100D02*
X100226000Y-63899000D01*
%TO.N,OUTPUT-SEL-NO*%
X98425000Y-63525000D02*
X99625000Y-62325000D01*
X98425000Y-63600000D02*
X98425000Y-63525000D01*
%TO.N,CTRL-INT-6-D4*%
X73500000Y-78000000D02*
X64500000Y-78000000D01*
X77500000Y-74000000D02*
X73500000Y-78000000D01*
%TO.N,CTRL-INT-2-LATCH*%
X64500000Y-98000000D02*
X81000000Y-98000000D01*
X81000000Y-98000000D02*
X85500000Y-93500000D01*
%TO.N,CTRL-EXT-5-D3*%
X76500000Y-57500000D02*
X64500000Y-45500000D01*
X76500000Y-72000000D02*
X76500000Y-57500000D01*
%TO.N,CTRL-EXT-6-D4*%
X87100000Y-61100000D02*
X80650000Y-61100000D01*
X90000000Y-64000000D02*
X87100000Y-61100000D01*
X80650000Y-61100000D02*
X76901000Y-57351000D01*
X76901000Y-57351000D02*
X76901000Y-57333900D01*
X88000000Y-72500000D02*
X90000000Y-70500000D01*
X72500000Y-52932900D02*
X72500000Y-48500000D01*
X72500000Y-48500000D02*
X64500000Y-40500000D01*
X76901000Y-57333900D02*
X72500000Y-52932900D01*
X90000000Y-70500000D02*
X90000000Y-64000000D01*
D21*
%TO.N,CTRL-EXT-4-VCC*%
X71825000Y-56600000D02*
X70600000Y-56600000D01*
D20*
X70600000Y-56600000D02*
X64500000Y-50500000D01*
D19*
%TO.N,CTRL-EXT-1-CLK*%
X77000000Y-90500000D02*
X60000000Y-90500000D01*
X78325000Y-90375000D02*
X77125000Y-90375000D01*
X77125000Y-90375000D02*
X77000000Y-90500000D01*
%TO.N,CTRL-EXT-3-D1*%
X58799000Y-81000000D02*
X77400000Y-81000000D01*
X77400000Y-81000000D02*
X77500000Y-81100000D01*
%TO.N,CTRL-EXT-2-LATCH*%
X79000000Y-96000000D02*
X82750000Y-92250000D01*
X59500000Y-96000000D02*
X79000000Y-96000000D01*
X86650000Y-92250000D02*
X82750000Y-92250000D01*
X87900000Y-91000000D02*
X86650000Y-92250000D01*
%TO.N,PROC-NES-3-D1*%
X144691000Y-85568500D02*
X139872500Y-80750000D01*
X57399000Y-109398000D02*
X59600000Y-111599000D01*
X79964058Y-111579000D02*
X79984058Y-111599000D01*
X58550057Y-80399000D02*
X57399000Y-81550057D01*
X94970942Y-111574000D02*
X95649058Y-111574000D01*
X87905942Y-111599000D02*
X87925942Y-111579000D01*
X95649058Y-111574000D02*
X95674058Y-111599000D01*
X95674058Y-111599000D02*
X103573995Y-111599000D01*
X57399000Y-81550057D02*
X57399000Y-109398000D01*
X88604058Y-111579000D02*
X88624058Y-111599000D01*
X75225000Y-78050000D02*
X72876000Y-80399000D01*
X76800000Y-78050000D02*
X75225000Y-78050000D01*
X94945942Y-111599000D02*
X94970942Y-111574000D01*
X59600000Y-111599000D02*
X79265942Y-111599000D01*
X88624058Y-111599000D02*
X94945942Y-111599000D01*
X79285942Y-111579000D02*
X79964058Y-111579000D01*
X87925942Y-111579000D02*
X88604058Y-111579000D01*
X79984058Y-111599000D02*
X87905942Y-111599000D01*
X72876000Y-80399000D02*
X58550057Y-80399000D01*
X103573995Y-111599000D02*
X106110978Y-109062017D01*
X79265942Y-111599000D02*
X79285942Y-111579000D01*
X144691000Y-85800000D02*
X144691000Y-85568500D01*
%TO.N,PROC-NES-1-CLK*%
X105509978Y-108813074D02*
X105862035Y-108461017D01*
X71670000Y-94160000D02*
X74310000Y-94160000D01*
X82525000Y-111198000D02*
X82505000Y-111178000D01*
X82505000Y-111178000D02*
X67029000Y-111178000D01*
X94779842Y-111198000D02*
X94804842Y-111173000D01*
X103407895Y-111198000D02*
X105509978Y-109095917D01*
X94804842Y-111173000D02*
X95815158Y-111173000D01*
X105862035Y-108461017D02*
X106268983Y-108461017D01*
X77650000Y-85375000D02*
X77937472Y-85087528D01*
X88790158Y-111198000D02*
X94779842Y-111198000D01*
X88770158Y-111178000D02*
X88790158Y-111198000D01*
X106268983Y-108461017D02*
X106410000Y-108320000D01*
X95815158Y-111173000D02*
X95840158Y-111198000D01*
X87739842Y-111198000D02*
X87759842Y-111178000D01*
X67029000Y-111178000D02*
X66850000Y-110999000D01*
X82525000Y-111198000D02*
X87739842Y-111198000D01*
X87759842Y-111178000D02*
X88770158Y-111178000D01*
X77650000Y-86800000D02*
X77650000Y-85375000D01*
X95840158Y-111198000D02*
X103407895Y-111198000D01*
X105509978Y-109095917D02*
X105509978Y-108813074D01*
X74310000Y-94160000D02*
X74710000Y-94560000D01*
%TO.N,PROC-NES-5-D3*%
X96975000Y-65600000D02*
X108192100Y-65600000D01*
X124725000Y-68775000D02*
X111367100Y-68775000D01*
X139872500Y-90750000D02*
X132075000Y-82952500D01*
X111367100Y-68775000D02*
X108192100Y-65600000D01*
X132075000Y-82952500D02*
X132075000Y-76125000D01*
X132075000Y-76125000D02*
X124725000Y-68775000D01*
%TO.N,PROC-NES-6-D4*%
X131641450Y-87518950D02*
X139872500Y-95750000D01*
X97825000Y-66325000D02*
X108350000Y-66325000D01*
X131641450Y-76258550D02*
X131641450Y-87518950D01*
X108350000Y-66325000D02*
X111350000Y-69325000D01*
X89225000Y-68351000D02*
X89225000Y-65250000D01*
X124707900Y-69325000D02*
X131641450Y-76258550D01*
X111350000Y-69325000D02*
X124707900Y-69325000D01*
X88501000Y-69075000D02*
X89225000Y-68351000D01*
D20*
%TO.N,PROC-NES-4-VCC*%
X124750000Y-67975000D02*
X111346332Y-67975000D01*
X132675000Y-75900000D02*
X124750000Y-67975000D01*
X132675000Y-78552500D02*
X132675000Y-75900000D01*
X108224000Y-65049000D02*
X100150000Y-56975000D01*
X111346332Y-67975000D02*
X108420332Y-65049000D01*
X108420332Y-65049000D02*
X108224000Y-65049000D01*
X139872500Y-85750000D02*
X132675000Y-78552500D01*
X100150000Y-56975000D02*
X85025000Y-56975000D01*
X85025000Y-56975000D02*
X81500000Y-60500000D01*
D19*
%TO.N,PROC-NES-2-LATCH*%
X86899000Y-89248943D02*
X88049057Y-90399000D01*
X103760000Y-98660000D02*
X103760000Y-103660000D01*
X103760000Y-103660000D02*
X104600000Y-104500000D01*
X88049057Y-90399000D02*
X92649000Y-90399000D01*
X86899000Y-87181000D02*
X86899000Y-89248943D01*
X87130000Y-86950000D02*
X86899000Y-87181000D01*
X92649000Y-90399000D02*
X97320000Y-95070000D01*
%TO.N,RUN*%
X98184200Y-85650000D02*
X94725000Y-82190800D01*
X106450000Y-85650000D02*
X98184200Y-85650000D01*
X94725000Y-82190800D02*
X94725000Y-78825000D01*
%TO.N,Net-(J12-Pin_1)*%
X93425000Y-82025000D02*
X100830000Y-89430000D01*
X100830000Y-89430000D02*
X115310000Y-89430000D01*
X93425000Y-78875000D02*
X93425000Y-82025000D01*
%TO.N,Net-(J12-Pin_2)*%
X94050000Y-79825000D02*
X94050000Y-82082900D01*
X114861057Y-89029000D02*
X115061057Y-88829000D01*
X115061057Y-88829000D02*
X115919000Y-88829000D01*
X94050000Y-82082900D02*
X100996100Y-89029000D01*
X100996100Y-89029000D02*
X114861057Y-89029000D01*
X115919000Y-88829000D02*
X116667087Y-89577087D01*
%TO.N,Net-(U2-GPIO25)*%
X105876000Y-97650000D02*
X103580000Y-95354000D01*
%TO.N,IN-SEL*%
X83101000Y-72875000D02*
X83101000Y-81950000D01*
X83101000Y-63101000D02*
X83101000Y-72875000D01*
X83000000Y-63000000D02*
X83101000Y-63101000D01*
X83101000Y-81950000D02*
X83101000Y-91101000D01*
X83101000Y-91101000D02*
X83150000Y-91150000D01*
%TO.N,OUT-SEL*%
X84000000Y-86525000D02*
X84000000Y-64000000D01*
%TO.N,Net-(U3-D+)*%
X88456986Y-89456986D02*
X88500000Y-89500000D01*
X88456986Y-86456988D02*
X88456986Y-89456986D01*
X88813974Y-86100000D02*
X88456986Y-86456988D01*
%TO.N,Net-(U3-D-)*%
X79000000Y-85000000D02*
X79000000Y-88000000D01*
%TO.N,PROC-RP-1-CLK*%
X79800003Y-86300003D02*
X81000000Y-87500000D01*
X79800003Y-85175000D02*
X79800003Y-86300003D01*
%TO.N,PROC-RP-2-LATCH*%
X92300000Y-86150000D02*
X91650000Y-85500000D01*
X88120000Y-85500000D02*
X87919000Y-85701000D01*
X91650000Y-85500000D02*
X88120000Y-85500000D01*
X87919000Y-85701000D02*
X87110000Y-85701000D01*
%TO.N,Net-(U5-D-)*%
X77450000Y-76025000D02*
X77450000Y-77425000D01*
X78500000Y-78475000D02*
X78500000Y-79500000D01*
X77450000Y-77425000D02*
X78500000Y-78475000D01*
%TO.N,PROC-RP-3-D1*%
X94101000Y-86248943D02*
X94101000Y-85751057D01*
X78525000Y-77525000D02*
X79500000Y-78500000D01*
X93549940Y-86800003D02*
X94101000Y-86248943D01*
X78525000Y-76575000D02*
X78525000Y-77525000D01*
X94101000Y-85751057D02*
X86849943Y-78500000D01*
X92854661Y-86800003D02*
X93549940Y-86800003D01*
X92852206Y-86802458D02*
X92854661Y-86800003D01*
X79500000Y-78500000D02*
X82000000Y-78500000D01*
X86849943Y-78500000D02*
X85500000Y-78500000D01*
%TO.N,Net-(U7-D-)*%
X78500000Y-67500000D02*
X78500000Y-65500000D01*
X78500000Y-65500000D02*
X79000000Y-65000000D01*
X79000000Y-65000000D02*
X81000000Y-65000000D01*
%TO.N,PROC-RP-6-D4*%
X94683523Y-87033523D02*
X94903000Y-86814046D01*
X86899000Y-77256870D02*
X86899000Y-71951000D01*
X92782035Y-88195595D02*
X92782035Y-88327383D01*
X92782035Y-88195595D02*
X93521451Y-88195595D01*
X94903000Y-86814046D02*
X94903000Y-85260871D01*
X93521451Y-88195595D02*
X94683523Y-87033523D01*
X94903000Y-85260871D02*
X86899000Y-77256870D01*
X94903000Y-85260871D02*
X94758565Y-85116435D01*
X87675000Y-71175000D02*
X87675000Y-68325000D01*
X86899000Y-71951000D02*
X87675000Y-71175000D01*
X87675000Y-68325000D02*
X88500000Y-67500000D01*
%TO.N,PROC-RP-5-D3*%
X85475000Y-65450000D02*
X85475000Y-76399971D01*
X93699946Y-87450000D02*
X92200000Y-87450000D01*
X94502000Y-85426971D02*
X94502000Y-86647946D01*
X85475000Y-76399971D02*
X94502000Y-85426971D01*
X94502000Y-86647946D02*
X93699946Y-87450000D01*
%TO.N,RP-VCC-TOGGLE*%
X87500000Y-76500000D02*
X90401000Y-73599000D01*
X90401000Y-73599000D02*
X90401000Y-63401000D01*
X90401000Y-63401000D02*
X88500000Y-61500000D01*
%TO.N,NES-VCC-TOGGLE*%
X69399000Y-62601000D02*
X69421314Y-62578686D01*
X75650000Y-67000000D02*
X72257557Y-67000000D01*
X88150057Y-81500000D02*
X88500000Y-81500000D01*
X86500000Y-79849943D02*
X88150057Y-81500000D01*
X79000000Y-74600000D02*
X79000000Y-70500000D01*
X86500000Y-79400000D02*
X86500000Y-79849943D01*
X69421314Y-62578686D02*
X69421314Y-62447618D01*
X72257557Y-67000000D02*
X69399000Y-64141443D01*
X69399000Y-64141443D02*
X69399000Y-62601000D01*
%TO.N,Net-(U11-ISET)*%
X72399000Y-63101000D02*
X73500000Y-62000000D01*
X70000000Y-63000000D02*
X70101000Y-63101000D01*
X70101000Y-63101000D02*
X72399000Y-63101000D01*
%TD*%
%TA.AperFunction,Conductor*%
%TO.N,GND*%
G36*
X145892539Y-32820185D02*
G01*
X145938294Y-32872989D01*
X145949500Y-32924500D01*
X145949500Y-111575500D01*
X145929815Y-111642539D01*
X145877011Y-111688294D01*
X145825500Y-111699500D01*
X104747369Y-111699500D01*
X104723421Y-111692468D01*
X104698636Y-111689522D01*
X104687316Y-111681866D01*
X104680330Y-111679815D01*
X104668486Y-111671174D01*
X104599821Y-111614560D01*
X104580365Y-111585857D01*
X104560826Y-111557366D01*
X104560815Y-111557016D01*
X104560618Y-111556725D01*
X104559768Y-111522049D01*
X104558735Y-111487528D01*
X104558915Y-111487213D01*
X104558907Y-111486876D01*
X104562385Y-111481160D01*
X104591020Y-111431210D01*
X106125642Y-109896588D01*
X106186963Y-109863105D01*
X106189130Y-109862654D01*
X106189819Y-109862517D01*
X106189820Y-109862517D01*
X106344475Y-109831754D01*
X106457144Y-109785084D01*
X106490150Y-109771414D01*
X106490150Y-109771413D01*
X106490157Y-109771411D01*
X106621267Y-109683806D01*
X106732767Y-109572306D01*
X106820372Y-109441196D01*
X106880715Y-109295514D01*
X106911478Y-109140859D01*
X106911478Y-109001963D01*
X106931163Y-108934924D01*
X106947797Y-108914282D01*
X107031786Y-108830292D01*
X107031789Y-108830289D01*
X107119394Y-108699179D01*
X107179737Y-108553497D01*
X107210500Y-108398842D01*
X107210500Y-108241158D01*
X107210500Y-108241155D01*
X107210499Y-108241153D01*
X107200244Y-108189598D01*
X107179737Y-108086503D01*
X107170424Y-108064019D01*
X107119397Y-107940827D01*
X107119390Y-107940814D01*
X107031789Y-107809711D01*
X107031786Y-107809707D01*
X106920292Y-107698213D01*
X106920288Y-107698210D01*
X106789185Y-107610609D01*
X106789172Y-107610602D01*
X106643501Y-107550264D01*
X106643489Y-107550261D01*
X106488845Y-107519500D01*
X106488842Y-107519500D01*
X106331158Y-107519500D01*
X106331155Y-107519500D01*
X106176510Y-107550261D01*
X106176498Y-107550264D01*
X106030827Y-107610602D01*
X106030814Y-107610609D01*
X105899711Y-107698210D01*
X105899707Y-107698213D01*
X105788217Y-107809704D01*
X105788212Y-107809709D01*
X105773928Y-107831086D01*
X105720314Y-107875890D01*
X105702923Y-107881966D01*
X105630253Y-107901438D01*
X105630246Y-107901441D01*
X105493322Y-107980494D01*
X105493317Y-107980498D01*
X105161681Y-108312134D01*
X105100358Y-108345619D01*
X105030666Y-108340635D01*
X104974733Y-108298763D01*
X104950316Y-108233299D01*
X104950000Y-108224453D01*
X104950000Y-108137002D01*
X104949999Y-108136999D01*
X104939391Y-108017674D01*
X104939390Y-108017671D01*
X104883442Y-107822138D01*
X104789278Y-107641870D01*
X104660753Y-107484246D01*
X104503129Y-107355721D01*
X104322862Y-107261557D01*
X104200000Y-107226402D01*
X104200000Y-108078011D01*
X104190060Y-108060795D01*
X104134205Y-108004940D01*
X104065796Y-107965444D01*
X103989496Y-107945000D01*
X103910504Y-107945000D01*
X103834204Y-107965444D01*
X103765795Y-108004940D01*
X103709940Y-108060795D01*
X103700000Y-108078011D01*
X103700000Y-107226402D01*
X103577137Y-107261557D01*
X103396870Y-107355721D01*
X103239246Y-107484246D01*
X103110721Y-107641870D01*
X103016557Y-107822138D01*
X102960609Y-108017671D01*
X102960608Y-108017674D01*
X102950000Y-108136999D01*
X102950000Y-108545000D01*
X103650000Y-108545000D01*
X103650000Y-109045000D01*
X103104464Y-109045000D01*
X103037425Y-109025315D01*
X102997077Y-108983000D01*
X102990517Y-108971638D01*
X102990513Y-108971633D01*
X102883367Y-108864487D01*
X102883365Y-108864485D01*
X102817750Y-108826602D01*
X102752136Y-108788719D01*
X102624426Y-108754500D01*
X102605766Y-108749500D01*
X102454234Y-108749500D01*
X102307863Y-108788719D01*
X102176635Y-108864485D01*
X102176632Y-108864487D01*
X102069487Y-108971632D01*
X102069485Y-108971635D01*
X101993719Y-109102863D01*
X101967696Y-109199985D01*
X101954500Y-109249234D01*
X101954500Y-109400766D01*
X101955840Y-109405766D01*
X101993719Y-109547136D01*
X102008264Y-109572328D01*
X102069485Y-109678365D01*
X102176635Y-109785515D01*
X102265799Y-109836994D01*
X102307861Y-109861279D01*
X102307865Y-109861281D01*
X102454234Y-109900500D01*
X102454236Y-109900500D01*
X102605764Y-109900500D01*
X102605766Y-109900500D01*
X102752135Y-109861281D01*
X102880760Y-109787018D01*
X102948659Y-109770545D01*
X103014686Y-109793397D01*
X103052669Y-109836994D01*
X103110721Y-109948129D01*
X103239246Y-110105753D01*
X103359637Y-110203919D01*
X103368292Y-110216539D01*
X103380543Y-110225710D01*
X103387650Y-110244766D01*
X103399154Y-110261540D01*
X103399612Y-110276836D01*
X103404960Y-110291175D01*
X103400636Y-110311047D01*
X103401246Y-110331379D01*
X103393137Y-110345523D01*
X103390108Y-110359448D01*
X103368957Y-110387702D01*
X103195479Y-110561181D01*
X103134156Y-110594666D01*
X103107798Y-110597500D01*
X96003845Y-110597500D01*
X95971752Y-110593275D01*
X95935133Y-110583463D01*
X95894215Y-110572499D01*
X95736101Y-110572499D01*
X95728505Y-110572499D01*
X95728489Y-110572500D01*
X95714032Y-110572500D01*
X95646993Y-110552815D01*
X95601238Y-110500011D01*
X95591294Y-110430853D01*
X95620319Y-110367297D01*
X95677045Y-110330841D01*
X95677020Y-110330777D01*
X95677352Y-110330644D01*
X95679097Y-110329523D01*
X95679921Y-110329284D01*
X95682861Y-110328442D01*
X95863129Y-110234278D01*
X96020753Y-110105753D01*
X96149278Y-109948129D01*
X96207330Y-109836994D01*
X96255816Y-109786687D01*
X96323804Y-109770579D01*
X96379236Y-109787016D01*
X96465799Y-109836994D01*
X96507861Y-109861279D01*
X96507865Y-109861281D01*
X96654234Y-109900500D01*
X96654236Y-109900500D01*
X96805764Y-109900500D01*
X96805766Y-109900500D01*
X96952135Y-109861281D01*
X97083365Y-109785515D01*
X97190515Y-109678365D01*
X97266281Y-109547135D01*
X97305500Y-109400766D01*
X97305500Y-109249234D01*
X97266281Y-109102865D01*
X97190515Y-108971635D01*
X97083365Y-108864485D01*
X97017750Y-108826602D01*
X96952136Y-108788719D01*
X96824426Y-108754500D01*
X96805766Y-108749500D01*
X96654234Y-108749500D01*
X96507863Y-108788719D01*
X96376635Y-108864485D01*
X96376632Y-108864487D01*
X96269486Y-108971633D01*
X96269482Y-108971638D01*
X96262923Y-108983000D01*
X96212356Y-109031216D01*
X96155536Y-109045000D01*
X95610000Y-109045000D01*
X95610000Y-108545000D01*
X96310000Y-108545000D01*
X96310000Y-108137002D01*
X96309999Y-108136999D01*
X96299391Y-108017674D01*
X96299390Y-108017671D01*
X96243442Y-107822138D01*
X96149278Y-107641870D01*
X96020753Y-107484246D01*
X95863129Y-107355721D01*
X95682862Y-107261557D01*
X95560000Y-107226402D01*
X95560000Y-108078011D01*
X95550060Y-108060795D01*
X95494205Y-108004940D01*
X95425796Y-107965444D01*
X95349496Y-107945000D01*
X95270504Y-107945000D01*
X95194204Y-107965444D01*
X95125795Y-108004940D01*
X95069940Y-108060795D01*
X95060000Y-108078011D01*
X95060000Y-107226402D01*
X94937137Y-107261557D01*
X94756870Y-107355721D01*
X94599246Y-107484246D01*
X94470721Y-107641870D01*
X94376557Y-107822138D01*
X94320609Y-108017671D01*
X94320608Y-108017674D01*
X94310000Y-108136999D01*
X94310000Y-108545000D01*
X95010000Y-108545000D01*
X95010000Y-109045000D01*
X94310000Y-109045000D01*
X94310000Y-109453000D01*
X94320608Y-109572325D01*
X94320609Y-109572328D01*
X94376557Y-109767861D01*
X94470721Y-109948129D01*
X94599246Y-110105753D01*
X94756870Y-110234278D01*
X94937138Y-110328442D01*
X94940079Y-110329284D01*
X94941510Y-110330189D01*
X94942980Y-110330777D01*
X94942870Y-110331050D01*
X94999117Y-110366651D01*
X95028581Y-110430004D01*
X95019116Y-110499230D01*
X94973727Y-110552349D01*
X94906826Y-110572497D01*
X94905968Y-110572500D01*
X94725779Y-110572500D01*
X94684862Y-110583463D01*
X94684863Y-110583464D01*
X94648255Y-110593274D01*
X94616159Y-110597500D01*
X88940185Y-110597500D01*
X88908092Y-110593275D01*
X88871476Y-110583464D01*
X88849215Y-110577499D01*
X88691101Y-110577499D01*
X88683505Y-110577499D01*
X88683489Y-110577500D01*
X88669032Y-110577500D01*
X88601993Y-110557815D01*
X88556238Y-110505011D01*
X88546294Y-110435853D01*
X88575319Y-110372297D01*
X88632045Y-110335841D01*
X88632020Y-110335777D01*
X88632352Y-110335644D01*
X88634097Y-110334523D01*
X88634921Y-110334284D01*
X88637861Y-110333442D01*
X88818129Y-110239278D01*
X88975753Y-110110753D01*
X89104278Y-109953129D01*
X89198442Y-109772861D01*
X89254390Y-109577328D01*
X89254391Y-109577325D01*
X89264999Y-109458000D01*
X89265000Y-109457998D01*
X89265000Y-109050000D01*
X88565000Y-109050000D01*
X88565000Y-108550000D01*
X89265000Y-108550000D01*
X89265000Y-108142000D01*
X89254391Y-108022674D01*
X89254390Y-108022671D01*
X89198442Y-107827138D01*
X89104278Y-107646870D01*
X88975753Y-107489246D01*
X88818129Y-107360721D01*
X88637862Y-107266557D01*
X88515000Y-107231402D01*
X88515000Y-108083011D01*
X88505060Y-108065795D01*
X88449205Y-108009940D01*
X88380796Y-107970444D01*
X88304496Y-107950000D01*
X88225504Y-107950000D01*
X88149204Y-107970444D01*
X88080795Y-108009940D01*
X88024940Y-108065795D01*
X88015000Y-108083011D01*
X88015000Y-107231402D01*
X87892137Y-107266557D01*
X87711870Y-107360721D01*
X87554246Y-107489246D01*
X87425721Y-107646870D01*
X87331557Y-107827138D01*
X87275609Y-108022671D01*
X87275608Y-108022674D01*
X87265000Y-108141999D01*
X87265000Y-108550000D01*
X87965000Y-108550000D01*
X87965000Y-109050000D01*
X87419464Y-109050000D01*
X87352425Y-109030315D01*
X87312077Y-108988000D01*
X87305517Y-108976638D01*
X87305513Y-108976633D01*
X87198367Y-108869487D01*
X87198365Y-108869485D01*
X87130474Y-108830288D01*
X87067136Y-108793719D01*
X86993950Y-108774109D01*
X86920766Y-108754500D01*
X86769234Y-108754500D01*
X86622863Y-108793719D01*
X86491635Y-108869485D01*
X86491632Y-108869487D01*
X86384487Y-108976632D01*
X86384485Y-108976635D01*
X86308719Y-109107863D01*
X86299877Y-109140863D01*
X86269500Y-109254234D01*
X86269500Y-109405766D01*
X86278993Y-109441196D01*
X86308719Y-109552136D01*
X86323264Y-109577328D01*
X86384485Y-109683365D01*
X86491635Y-109790515D01*
X86572139Y-109836994D01*
X86622861Y-109866279D01*
X86622865Y-109866281D01*
X86769234Y-109905500D01*
X86769236Y-109905500D01*
X86920764Y-109905500D01*
X86920766Y-109905500D01*
X87067135Y-109866281D01*
X87195760Y-109792018D01*
X87263659Y-109775545D01*
X87329686Y-109798397D01*
X87367669Y-109841994D01*
X87425721Y-109953129D01*
X87554246Y-110110753D01*
X87711870Y-110239278D01*
X87892138Y-110333442D01*
X87895079Y-110334284D01*
X87896510Y-110335189D01*
X87897980Y-110335777D01*
X87897870Y-110336050D01*
X87954117Y-110371651D01*
X87983581Y-110435004D01*
X87974116Y-110504230D01*
X87928727Y-110557349D01*
X87861826Y-110577497D01*
X87860968Y-110577500D01*
X87680782Y-110577500D01*
X87621909Y-110593275D01*
X87589817Y-110597500D01*
X82675027Y-110597500D01*
X82642934Y-110593275D01*
X82606318Y-110583464D01*
X82584057Y-110577499D01*
X82425943Y-110577499D01*
X82418347Y-110577499D01*
X82418331Y-110577500D01*
X80029032Y-110577500D01*
X79961993Y-110557815D01*
X79916238Y-110505011D01*
X79906294Y-110435853D01*
X79935319Y-110372297D01*
X79992045Y-110335841D01*
X79992020Y-110335777D01*
X79992352Y-110335644D01*
X79994097Y-110334523D01*
X79994921Y-110334284D01*
X79997861Y-110333442D01*
X80178129Y-110239278D01*
X80335753Y-110110753D01*
X80464278Y-109953129D01*
X80522330Y-109841994D01*
X80570816Y-109791687D01*
X80638804Y-109775579D01*
X80694236Y-109792016D01*
X80772139Y-109836994D01*
X80822861Y-109866279D01*
X80822865Y-109866281D01*
X80969234Y-109905500D01*
X80969236Y-109905500D01*
X81120764Y-109905500D01*
X81120766Y-109905500D01*
X81267135Y-109866281D01*
X81398365Y-109790515D01*
X81505515Y-109683365D01*
X81581281Y-109552135D01*
X81620500Y-109405766D01*
X81620500Y-109254234D01*
X81581281Y-109107865D01*
X81505515Y-108976635D01*
X81398365Y-108869485D01*
X81330474Y-108830288D01*
X81267136Y-108793719D01*
X81193950Y-108774109D01*
X81120766Y-108754500D01*
X80969234Y-108754500D01*
X80822863Y-108793719D01*
X80691635Y-108869485D01*
X80691632Y-108869487D01*
X80584486Y-108976633D01*
X80584482Y-108976638D01*
X80577923Y-108988000D01*
X80527356Y-109036216D01*
X80470536Y-109050000D01*
X79925000Y-109050000D01*
X79925000Y-108550000D01*
X80625000Y-108550000D01*
X80625000Y-108142002D01*
X80624999Y-108141999D01*
X80614391Y-108022674D01*
X80614390Y-108022671D01*
X80558442Y-107827138D01*
X80464278Y-107646870D01*
X80335753Y-107489246D01*
X80178129Y-107360721D01*
X79997862Y-107266557D01*
X79875000Y-107231402D01*
X79875000Y-108083011D01*
X79865060Y-108065795D01*
X79809205Y-108009940D01*
X79740796Y-107970444D01*
X79664496Y-107950000D01*
X79585504Y-107950000D01*
X79509204Y-107970444D01*
X79440795Y-108009940D01*
X79384940Y-108065795D01*
X79375000Y-108083011D01*
X79375000Y-107231402D01*
X79252137Y-107266557D01*
X79071870Y-107360721D01*
X78914246Y-107489246D01*
X78785721Y-107646870D01*
X78691557Y-107827138D01*
X78635609Y-108022671D01*
X78635608Y-108022674D01*
X78625000Y-108141999D01*
X78625000Y-108550000D01*
X79325000Y-108550000D01*
X79325000Y-109050000D01*
X78625000Y-109050000D01*
X78625000Y-109458000D01*
X78635608Y-109577325D01*
X78635609Y-109577328D01*
X78691557Y-109772861D01*
X78785721Y-109953129D01*
X78914246Y-110110753D01*
X79071870Y-110239278D01*
X79252138Y-110333442D01*
X79255079Y-110334284D01*
X79256510Y-110335189D01*
X79257980Y-110335777D01*
X79257870Y-110336050D01*
X79314117Y-110371651D01*
X79343581Y-110435004D01*
X79334116Y-110504230D01*
X79288727Y-110557349D01*
X79221826Y-110577497D01*
X79220968Y-110577500D01*
X67597395Y-110577500D01*
X67530356Y-110557815D01*
X67494293Y-110522391D01*
X67471789Y-110488711D01*
X67471787Y-110488708D01*
X67360292Y-110377213D01*
X67360288Y-110377210D01*
X67229185Y-110289609D01*
X67229172Y-110289602D01*
X67083501Y-110229264D01*
X67083489Y-110229261D01*
X66928845Y-110198500D01*
X66928842Y-110198500D01*
X66771158Y-110198500D01*
X66771155Y-110198500D01*
X66616510Y-110229261D01*
X66616498Y-110229264D01*
X66470827Y-110289602D01*
X66470814Y-110289609D01*
X66339711Y-110377210D01*
X66339707Y-110377213D01*
X66228213Y-110488707D01*
X66228210Y-110488711D01*
X66140609Y-110619814D01*
X66140602Y-110619827D01*
X66080264Y-110765498D01*
X66080261Y-110765508D01*
X66053769Y-110898692D01*
X66021384Y-110960603D01*
X65960668Y-110995177D01*
X65932152Y-110998500D01*
X59900097Y-110998500D01*
X59833058Y-110978815D01*
X59812416Y-110962181D01*
X58035819Y-109185584D01*
X58002334Y-109124261D01*
X57999500Y-109097903D01*
X57999500Y-106800014D01*
X62600000Y-106800014D01*
X62600000Y-107750000D01*
X63899999Y-107750000D01*
X63874979Y-107810402D01*
X63850000Y-107935981D01*
X63850000Y-108064019D01*
X63874979Y-108189598D01*
X63899999Y-108250000D01*
X62600000Y-108250000D01*
X62600000Y-109199985D01*
X62610493Y-109302689D01*
X62610494Y-109302696D01*
X62665641Y-109469118D01*
X62665643Y-109469123D01*
X62757684Y-109618344D01*
X62881655Y-109742315D01*
X63030876Y-109834356D01*
X63030881Y-109834358D01*
X63197303Y-109889505D01*
X63197310Y-109889506D01*
X63300014Y-109899999D01*
X63300027Y-109900000D01*
X64250000Y-109900000D01*
X64250000Y-108600001D01*
X64310402Y-108625021D01*
X64435981Y-108650000D01*
X64564019Y-108650000D01*
X64689598Y-108625021D01*
X64750000Y-108600001D01*
X64750000Y-109900000D01*
X65699973Y-109900000D01*
X65699985Y-109899999D01*
X65802689Y-109889506D01*
X65802696Y-109889505D01*
X65969118Y-109834358D01*
X65969123Y-109834356D01*
X66118344Y-109742315D01*
X66242315Y-109618344D01*
X66334356Y-109469123D01*
X66334358Y-109469118D01*
X66389505Y-109302696D01*
X66389506Y-109302689D01*
X66399999Y-109199985D01*
X66400000Y-109199972D01*
X66400000Y-108250000D01*
X65100001Y-108250000D01*
X65125021Y-108189598D01*
X65150000Y-108064019D01*
X65150000Y-107935981D01*
X65125021Y-107810402D01*
X65100001Y-107750000D01*
X66400000Y-107750000D01*
X66400000Y-106800027D01*
X66399999Y-106800014D01*
X66389506Y-106697310D01*
X66389505Y-106697303D01*
X66350872Y-106580716D01*
X66339098Y-106545186D01*
X72529500Y-106545186D01*
X72529500Y-106814813D01*
X72559686Y-107082719D01*
X72559688Y-107082731D01*
X72619684Y-107345594D01*
X72619687Y-107345602D01*
X72708734Y-107600082D01*
X72825714Y-107842994D01*
X72825716Y-107842997D01*
X72969162Y-108071289D01*
X73025552Y-108142000D01*
X73098360Y-108233299D01*
X73137266Y-108282085D01*
X73327915Y-108472734D01*
X73538711Y-108640838D01*
X73767003Y-108784284D01*
X74009921Y-108901267D01*
X74154451Y-108951840D01*
X74264397Y-108990312D01*
X74264405Y-108990315D01*
X74264408Y-108990315D01*
X74264409Y-108990316D01*
X74527268Y-109050312D01*
X74795187Y-109080499D01*
X74795188Y-109080500D01*
X74795191Y-109080500D01*
X75064812Y-109080500D01*
X75064812Y-109080499D01*
X75332732Y-109050312D01*
X75595591Y-108990316D01*
X75850079Y-108901267D01*
X76092997Y-108784284D01*
X76321289Y-108640838D01*
X76532085Y-108472734D01*
X76722734Y-108282085D01*
X76890838Y-108071289D01*
X77034284Y-107842997D01*
X77151267Y-107600079D01*
X77240316Y-107345591D01*
X77300312Y-107082732D01*
X77330500Y-106814809D01*
X77330500Y-106545191D01*
X77330499Y-106545186D01*
X138029500Y-106545186D01*
X138029500Y-106814813D01*
X138059686Y-107082719D01*
X138059688Y-107082731D01*
X138119684Y-107345594D01*
X138119687Y-107345602D01*
X138208734Y-107600082D01*
X138325714Y-107842994D01*
X138325716Y-107842997D01*
X138469162Y-108071289D01*
X138525552Y-108142000D01*
X138598360Y-108233299D01*
X138637266Y-108282085D01*
X138827915Y-108472734D01*
X139038711Y-108640838D01*
X139267003Y-108784284D01*
X139509921Y-108901267D01*
X139654451Y-108951840D01*
X139764397Y-108990312D01*
X139764405Y-108990315D01*
X139764408Y-108990315D01*
X139764409Y-108990316D01*
X140027268Y-109050312D01*
X140295187Y-109080499D01*
X140295188Y-109080500D01*
X140295191Y-109080500D01*
X140564812Y-109080500D01*
X140564812Y-109080499D01*
X140832732Y-109050312D01*
X141095591Y-108990316D01*
X141350079Y-108901267D01*
X141592997Y-108784284D01*
X141821289Y-108640838D01*
X142032085Y-108472734D01*
X142222734Y-108282085D01*
X142390838Y-108071289D01*
X142534284Y-107842997D01*
X142651267Y-107600079D01*
X142740316Y-107345591D01*
X142800312Y-107082732D01*
X142830500Y-106814809D01*
X142830500Y-106545191D01*
X142800312Y-106277268D01*
X142740316Y-106014409D01*
X142738875Y-106010292D01*
X142692996Y-105879177D01*
X142651267Y-105759921D01*
X142534284Y-105517003D01*
X142390838Y-105288711D01*
X142222734Y-105077915D01*
X142032085Y-104887266D01*
X142021935Y-104879172D01*
X141927047Y-104803501D01*
X141821289Y-104719162D01*
X141605543Y-104583599D01*
X141592994Y-104575714D01*
X141350082Y-104458734D01*
X141095602Y-104369687D01*
X141095594Y-104369684D01*
X140898446Y-104324687D01*
X140832732Y-104309688D01*
X140832728Y-104309687D01*
X140832719Y-104309686D01*
X140564813Y-104279500D01*
X140564809Y-104279500D01*
X140295191Y-104279500D01*
X140295186Y-104279500D01*
X140027280Y-104309686D01*
X140027268Y-104309688D01*
X139764405Y-104369684D01*
X139764397Y-104369687D01*
X139509917Y-104458734D01*
X139267005Y-104575714D01*
X139038712Y-104719161D01*
X138827915Y-104887265D01*
X138637265Y-105077915D01*
X138469161Y-105288712D01*
X138325714Y-105517005D01*
X138208734Y-105759917D01*
X138119687Y-106014397D01*
X138119684Y-106014405D01*
X138059688Y-106277268D01*
X138059686Y-106277280D01*
X138029500Y-106545186D01*
X77330499Y-106545186D01*
X77300312Y-106277268D01*
X77240316Y-106014409D01*
X77238875Y-106010292D01*
X77192996Y-105879177D01*
X77151267Y-105759921D01*
X77034284Y-105517003D01*
X76890838Y-105288711D01*
X76722734Y-105077915D01*
X76532085Y-104887266D01*
X76521935Y-104879172D01*
X76427047Y-104803501D01*
X76321289Y-104719162D01*
X76105543Y-104583599D01*
X76092994Y-104575714D01*
X75850082Y-104458734D01*
X75595602Y-104369687D01*
X75595594Y-104369684D01*
X75398446Y-104324687D01*
X75332732Y-104309688D01*
X75332728Y-104309687D01*
X75332719Y-104309686D01*
X75064813Y-104279500D01*
X75064809Y-104279500D01*
X74795191Y-104279500D01*
X74795186Y-104279500D01*
X74527280Y-104309686D01*
X74527268Y-104309688D01*
X74264405Y-104369684D01*
X74264397Y-104369687D01*
X74009917Y-104458734D01*
X73767005Y-104575714D01*
X73538712Y-104719161D01*
X73327915Y-104887265D01*
X73137265Y-105077915D01*
X72969161Y-105288712D01*
X72825714Y-105517005D01*
X72708734Y-105759917D01*
X72619687Y-106014397D01*
X72619684Y-106014405D01*
X72559688Y-106277268D01*
X72559686Y-106277280D01*
X72529500Y-106545186D01*
X66339098Y-106545186D01*
X66334358Y-106530881D01*
X66334356Y-106530876D01*
X66242315Y-106381655D01*
X66118344Y-106257684D01*
X65969123Y-106165643D01*
X65969118Y-106165641D01*
X65802696Y-106110494D01*
X65802689Y-106110493D01*
X65699985Y-106100000D01*
X64750000Y-106100000D01*
X64750000Y-107399998D01*
X64689598Y-107374979D01*
X64564019Y-107350000D01*
X64435981Y-107350000D01*
X64310402Y-107374979D01*
X64250000Y-107399998D01*
X64250000Y-106100000D01*
X63300014Y-106100000D01*
X63197310Y-106110493D01*
X63197303Y-106110494D01*
X63030881Y-106165641D01*
X63030876Y-106165643D01*
X62881655Y-106257684D01*
X62757684Y-106381655D01*
X62665643Y-106530876D01*
X62665641Y-106530881D01*
X62610494Y-106697303D01*
X62610493Y-106697310D01*
X62600000Y-106800014D01*
X57999500Y-106800014D01*
X57999500Y-102875441D01*
X62599500Y-102875441D01*
X62599500Y-103124558D01*
X62599501Y-103124575D01*
X62632017Y-103371561D01*
X62696498Y-103612207D01*
X62791830Y-103842361D01*
X62791837Y-103842376D01*
X62916400Y-104058126D01*
X63068060Y-104255774D01*
X63068066Y-104255781D01*
X63244218Y-104431933D01*
X63244225Y-104431939D01*
X63441873Y-104583599D01*
X63657623Y-104708162D01*
X63657638Y-104708169D01*
X63734635Y-104740062D01*
X63887793Y-104803502D01*
X64128435Y-104867982D01*
X64375435Y-104900500D01*
X64375442Y-104900500D01*
X64624558Y-104900500D01*
X64624565Y-104900500D01*
X64871565Y-104867982D01*
X65112207Y-104803502D01*
X65342373Y-104708164D01*
X65558127Y-104583599D01*
X65755776Y-104431938D01*
X65931938Y-104255776D01*
X66083599Y-104058127D01*
X66208164Y-103842373D01*
X66303502Y-103612207D01*
X66367982Y-103371565D01*
X66400500Y-103124565D01*
X66400500Y-102875435D01*
X66367982Y-102628435D01*
X66303502Y-102387793D01*
X66208164Y-102157627D01*
X66083599Y-101941873D01*
X65931938Y-101744224D01*
X65931933Y-101744218D01*
X65755781Y-101568066D01*
X65755774Y-101568060D01*
X65558126Y-101416400D01*
X65342376Y-101291837D01*
X65342361Y-101291830D01*
X65112207Y-101196498D01*
X64871561Y-101132017D01*
X64624575Y-101099501D01*
X64624570Y-101099500D01*
X64624565Y-101099500D01*
X64375435Y-101099500D01*
X64375429Y-101099500D01*
X64375424Y-101099501D01*
X64128438Y-101132017D01*
X63887792Y-101196498D01*
X63657638Y-101291830D01*
X63657623Y-101291837D01*
X63441873Y-101416400D01*
X63244225Y-101568060D01*
X63244218Y-101568066D01*
X63068066Y-101744218D01*
X63068060Y-101744225D01*
X62916400Y-101941873D01*
X62791837Y-102157623D01*
X62791830Y-102157638D01*
X62696498Y-102387792D01*
X62632017Y-102628438D01*
X62599501Y-102875424D01*
X62599500Y-102875441D01*
X57999500Y-102875441D01*
X57999500Y-90421153D01*
X59199500Y-90421153D01*
X59199500Y-90578846D01*
X59230261Y-90733489D01*
X59230264Y-90733501D01*
X59290602Y-90879172D01*
X59290609Y-90879185D01*
X59378210Y-91010288D01*
X59378213Y-91010292D01*
X59489707Y-91121786D01*
X59489711Y-91121789D01*
X59620814Y-91209390D01*
X59620827Y-91209397D01*
X59694013Y-91239711D01*
X59766503Y-91269737D01*
X59921153Y-91300499D01*
X59921156Y-91300500D01*
X59921158Y-91300500D01*
X60078844Y-91300500D01*
X60078845Y-91300499D01*
X60233497Y-91269737D01*
X60379179Y-91209394D01*
X60429905Y-91175500D01*
X60510875Y-91121398D01*
X60577553Y-91100520D01*
X60579766Y-91100500D01*
X63526256Y-91100500D01*
X63593295Y-91120185D01*
X63639050Y-91172989D01*
X63648994Y-91242147D01*
X63619969Y-91305703D01*
X63588256Y-91331887D01*
X63441873Y-91416400D01*
X63244225Y-91568060D01*
X63244218Y-91568066D01*
X63068066Y-91744218D01*
X63068060Y-91744225D01*
X62916400Y-91941873D01*
X62791837Y-92157623D01*
X62791830Y-92157638D01*
X62696498Y-92387792D01*
X62632017Y-92628438D01*
X62599501Y-92875424D01*
X62599500Y-92875441D01*
X62599500Y-93124558D01*
X62599501Y-93124575D01*
X62632017Y-93371561D01*
X62696498Y-93612207D01*
X62791830Y-93842361D01*
X62791837Y-93842376D01*
X62916400Y-94058126D01*
X63068060Y-94255774D01*
X63068066Y-94255781D01*
X63244218Y-94431933D01*
X63244225Y-94431939D01*
X63441873Y-94583599D01*
X63657623Y-94708162D01*
X63657638Y-94708169D01*
X63715686Y-94732213D01*
X63887793Y-94803502D01*
X64128435Y-94867982D01*
X64375435Y-94900500D01*
X64375442Y-94900500D01*
X64624558Y-94900500D01*
X64624565Y-94900500D01*
X64871565Y-94867982D01*
X65112207Y-94803502D01*
X65342373Y-94708164D01*
X65558127Y-94583599D01*
X65755776Y-94431938D01*
X65931938Y-94255776D01*
X66083599Y-94058127D01*
X66208164Y-93842373D01*
X66303502Y-93612207D01*
X66367982Y-93371565D01*
X66400500Y-93124565D01*
X66400500Y-92875435D01*
X66367982Y-92628435D01*
X66303502Y-92387793D01*
X66237128Y-92227551D01*
X66208169Y-92157638D01*
X66208162Y-92157623D01*
X66083599Y-91941873D01*
X65931939Y-91744225D01*
X65931933Y-91744218D01*
X65755781Y-91568066D01*
X65755774Y-91568060D01*
X65558126Y-91416400D01*
X65411744Y-91331887D01*
X65363529Y-91281320D01*
X65350305Y-91212713D01*
X65376273Y-91147849D01*
X65433187Y-91107320D01*
X65473744Y-91100500D01*
X76913331Y-91100500D01*
X76913347Y-91100501D01*
X76920943Y-91100501D01*
X77079054Y-91100501D01*
X77079057Y-91100501D01*
X77231785Y-91059577D01*
X77231787Y-91059575D01*
X77231789Y-91059575D01*
X77231790Y-91059574D01*
X77264650Y-91040602D01*
X77286112Y-91028211D01*
X77348638Y-90992112D01*
X77410637Y-90975500D01*
X77745234Y-90975500D01*
X77812273Y-90995185D01*
X77814125Y-90996398D01*
X77945814Y-91084390D01*
X77945827Y-91084397D01*
X78036101Y-91121789D01*
X78091503Y-91144737D01*
X78246153Y-91175499D01*
X78246156Y-91175500D01*
X78246158Y-91175500D01*
X78403844Y-91175500D01*
X78403845Y-91175499D01*
X78558497Y-91144737D01*
X78704179Y-91084394D01*
X78835289Y-90996789D01*
X78946789Y-90885289D01*
X79034394Y-90754179D01*
X79094737Y-90608497D01*
X79125500Y-90453842D01*
X79125500Y-90296158D01*
X79125500Y-90296155D01*
X79125499Y-90296153D01*
X79112440Y-90230500D01*
X79094737Y-90141503D01*
X79093865Y-90139397D01*
X79034397Y-89995827D01*
X79034390Y-89995814D01*
X78946789Y-89864711D01*
X78946786Y-89864707D01*
X78835292Y-89753213D01*
X78835288Y-89753210D01*
X78704185Y-89665609D01*
X78704172Y-89665602D01*
X78558501Y-89605264D01*
X78558489Y-89605261D01*
X78403845Y-89574500D01*
X78403842Y-89574500D01*
X78246158Y-89574500D01*
X78246155Y-89574500D01*
X78091510Y-89605261D01*
X78091498Y-89605264D01*
X77945827Y-89665602D01*
X77945814Y-89665609D01*
X77814125Y-89753602D01*
X77747447Y-89774480D01*
X77745234Y-89774500D01*
X77211670Y-89774500D01*
X77211654Y-89774499D01*
X77204058Y-89774499D01*
X77045943Y-89774499D01*
X76956376Y-89798499D01*
X76893215Y-89815423D01*
X76776362Y-89882888D01*
X76714363Y-89899500D01*
X65473744Y-89899500D01*
X65406705Y-89879815D01*
X65360950Y-89827011D01*
X65351006Y-89757853D01*
X65380031Y-89694297D01*
X65411744Y-89668113D01*
X65508536Y-89612230D01*
X65558127Y-89583599D01*
X65755776Y-89431938D01*
X65931938Y-89255776D01*
X66083599Y-89058127D01*
X66208164Y-88842373D01*
X66303502Y-88612207D01*
X66367982Y-88371565D01*
X66400500Y-88124565D01*
X66400500Y-87875435D01*
X66367982Y-87628435D01*
X66303502Y-87387793D01*
X66218576Y-87182763D01*
X66208169Y-87157638D01*
X66208162Y-87157623D01*
X66083599Y-86941873D01*
X65931939Y-86744225D01*
X65931933Y-86744218D01*
X65755781Y-86568066D01*
X65755774Y-86568060D01*
X65558126Y-86416400D01*
X65342376Y-86291837D01*
X65342361Y-86291830D01*
X65112207Y-86196498D01*
X64977085Y-86160292D01*
X64871565Y-86132018D01*
X64871564Y-86132017D01*
X64871561Y-86132017D01*
X64624575Y-86099501D01*
X64624570Y-86099500D01*
X64624565Y-86099500D01*
X64375435Y-86099500D01*
X64375429Y-86099500D01*
X64375424Y-86099501D01*
X64128438Y-86132017D01*
X63887792Y-86196498D01*
X63657638Y-86291830D01*
X63657623Y-86291837D01*
X63441873Y-86416400D01*
X63244225Y-86568060D01*
X63244218Y-86568066D01*
X63068066Y-86744218D01*
X63068060Y-86744225D01*
X62916400Y-86941873D01*
X62791837Y-87157623D01*
X62791830Y-87157638D01*
X62696498Y-87387792D01*
X62632017Y-87628438D01*
X62599501Y-87875424D01*
X62599500Y-87875441D01*
X62599500Y-88124558D01*
X62599501Y-88124575D01*
X62632017Y-88371561D01*
X62696498Y-88612207D01*
X62791830Y-88842361D01*
X62791837Y-88842376D01*
X62916400Y-89058126D01*
X63068060Y-89255774D01*
X63068066Y-89255781D01*
X63244218Y-89431933D01*
X63244225Y-89431939D01*
X63441873Y-89583599D01*
X63588256Y-89668113D01*
X63636471Y-89718680D01*
X63649695Y-89787287D01*
X63623727Y-89852151D01*
X63566813Y-89892680D01*
X63526256Y-89899500D01*
X60579766Y-89899500D01*
X60512727Y-89879815D01*
X60510875Y-89878602D01*
X60379185Y-89790609D01*
X60379172Y-89790602D01*
X60233501Y-89730264D01*
X60233489Y-89730261D01*
X60078845Y-89699500D01*
X60078842Y-89699500D01*
X59921158Y-89699500D01*
X59921155Y-89699500D01*
X59766510Y-89730261D01*
X59766498Y-89730264D01*
X59620827Y-89790602D01*
X59620814Y-89790609D01*
X59489711Y-89878210D01*
X59489707Y-89878213D01*
X59378213Y-89989707D01*
X59378210Y-89989711D01*
X59290609Y-90120814D01*
X59290602Y-90120827D01*
X59230264Y-90266498D01*
X59230261Y-90266510D01*
X59199500Y-90421153D01*
X57999500Y-90421153D01*
X57999500Y-81850154D01*
X58008145Y-81820710D01*
X58014668Y-81790728D01*
X58018422Y-81785712D01*
X58019185Y-81783115D01*
X58035813Y-81762478D01*
X58149491Y-81648800D01*
X58210810Y-81615318D01*
X58280502Y-81620302D01*
X58306060Y-81633382D01*
X58419814Y-81709390D01*
X58419827Y-81709397D01*
X58538666Y-81758621D01*
X58565503Y-81769737D01*
X58711571Y-81798792D01*
X58720153Y-81800499D01*
X58720156Y-81800500D01*
X58720158Y-81800500D01*
X58877844Y-81800500D01*
X58877845Y-81800499D01*
X59032497Y-81769737D01*
X59178179Y-81709394D01*
X59220425Y-81681166D01*
X59309875Y-81621398D01*
X59376553Y-81600520D01*
X59378766Y-81600500D01*
X62926898Y-81600500D01*
X62993937Y-81620185D01*
X63039692Y-81672989D01*
X63049636Y-81742147D01*
X63025274Y-81799986D01*
X62916400Y-81941873D01*
X62791837Y-82157623D01*
X62791830Y-82157638D01*
X62696498Y-82387792D01*
X62632017Y-82628438D01*
X62599501Y-82875424D01*
X62599500Y-82875441D01*
X62599500Y-83124558D01*
X62599501Y-83124575D01*
X62630872Y-83362867D01*
X62632018Y-83371565D01*
X62660560Y-83478085D01*
X62696498Y-83612207D01*
X62791830Y-83842361D01*
X62791837Y-83842376D01*
X62916400Y-84058126D01*
X63068060Y-84255774D01*
X63068066Y-84255781D01*
X63244218Y-84431933D01*
X63244225Y-84431939D01*
X63441873Y-84583599D01*
X63657623Y-84708162D01*
X63657638Y-84708169D01*
X63747513Y-84745396D01*
X63887793Y-84803502D01*
X64128435Y-84867982D01*
X64375435Y-84900500D01*
X64375442Y-84900500D01*
X64624558Y-84900500D01*
X64624565Y-84900500D01*
X64871565Y-84867982D01*
X65112207Y-84803502D01*
X65342373Y-84708164D01*
X65558127Y-84583599D01*
X65755776Y-84431938D01*
X65931938Y-84255776D01*
X66083599Y-84058127D01*
X66208164Y-83842373D01*
X66303502Y-83612207D01*
X66367982Y-83371565D01*
X66400500Y-83124565D01*
X66400500Y-82875435D01*
X66367982Y-82628435D01*
X66303502Y-82387793D01*
X66239592Y-82233501D01*
X66208169Y-82157638D01*
X66208162Y-82157623D01*
X66083599Y-81941873D01*
X65974726Y-81799986D01*
X65949532Y-81734817D01*
X65963570Y-81666372D01*
X66012385Y-81616383D01*
X66073102Y-81600500D01*
X69282152Y-81600500D01*
X69349191Y-81620185D01*
X69394946Y-81672989D01*
X69403769Y-81700308D01*
X69430261Y-81833491D01*
X69430264Y-81833501D01*
X69490602Y-81979172D01*
X69490609Y-81979185D01*
X69578210Y-82110288D01*
X69578213Y-82110292D01*
X69689707Y-82221786D01*
X69689711Y-82221789D01*
X69820814Y-82309390D01*
X69820827Y-82309397D01*
X69957978Y-82366206D01*
X69966503Y-82369737D01*
X70031147Y-82382595D01*
X70121849Y-82400638D01*
X70183760Y-82433023D01*
X70185339Y-82434574D01*
X70615139Y-82864374D01*
X70615149Y-82864385D01*
X70619479Y-82868715D01*
X70619480Y-82868716D01*
X70731284Y-82980520D01*
X70817442Y-83030263D01*
X70868215Y-83059577D01*
X71020942Y-83100500D01*
X71020943Y-83100500D01*
X74199903Y-83100500D01*
X74266942Y-83120185D01*
X74287584Y-83136819D01*
X75665425Y-84514660D01*
X75698910Y-84575983D01*
X75699361Y-84578149D01*
X75730261Y-84733491D01*
X75730264Y-84733501D01*
X75790602Y-84879172D01*
X75790609Y-84879185D01*
X75878210Y-85010288D01*
X75878213Y-85010292D01*
X75989707Y-85121786D01*
X75989711Y-85121789D01*
X76120814Y-85209390D01*
X76120827Y-85209397D01*
X76228138Y-85253846D01*
X76266503Y-85269737D01*
X76387264Y-85293758D01*
X76421153Y-85300499D01*
X76421156Y-85300500D01*
X76421158Y-85300500D01*
X76578844Y-85300500D01*
X76578845Y-85300499D01*
X76733497Y-85269737D01*
X76878046Y-85209862D01*
X76910670Y-85206355D01*
X76943145Y-85201686D01*
X76945232Y-85202639D01*
X76947516Y-85202394D01*
X76976857Y-85217081D01*
X77006701Y-85230710D01*
X77007942Y-85232641D01*
X77009995Y-85233669D01*
X77026733Y-85261880D01*
X77044476Y-85289488D01*
X77044911Y-85292518D01*
X77045647Y-85293758D01*
X77049499Y-85324423D01*
X77049499Y-85454057D01*
X77049499Y-85454059D01*
X77049500Y-85464053D01*
X77049500Y-86220234D01*
X77029815Y-86287273D01*
X77028602Y-86289125D01*
X76940609Y-86420814D01*
X76940602Y-86420827D01*
X76880264Y-86566498D01*
X76880261Y-86566510D01*
X76849500Y-86721153D01*
X76849500Y-86878846D01*
X76880261Y-87033489D01*
X76880264Y-87033501D01*
X76940602Y-87179172D01*
X76940609Y-87179185D01*
X77028210Y-87310288D01*
X77028213Y-87310292D01*
X77139707Y-87421786D01*
X77139711Y-87421789D01*
X77270814Y-87509390D01*
X77270827Y-87509397D01*
X77416498Y-87569735D01*
X77416503Y-87569737D01*
X77558610Y-87598004D01*
X77571153Y-87600499D01*
X77571156Y-87600500D01*
X77571158Y-87600500D01*
X77728844Y-87600500D01*
X77728845Y-87600499D01*
X77883497Y-87569737D01*
X78029179Y-87509394D01*
X78117637Y-87450287D01*
X78184312Y-87429411D01*
X78251692Y-87447895D01*
X78298382Y-87499873D01*
X78309559Y-87568843D01*
X78292398Y-87614868D01*
X78293479Y-87615446D01*
X78290602Y-87620827D01*
X78230264Y-87766498D01*
X78230261Y-87766510D01*
X78199500Y-87921153D01*
X78199500Y-88078846D01*
X78230261Y-88233489D01*
X78230264Y-88233501D01*
X78290602Y-88379172D01*
X78290609Y-88379185D01*
X78378210Y-88510288D01*
X78378213Y-88510292D01*
X78489707Y-88621786D01*
X78489711Y-88621789D01*
X78620814Y-88709390D01*
X78620827Y-88709397D01*
X78766498Y-88769735D01*
X78766503Y-88769737D01*
X78921153Y-88800499D01*
X78921156Y-88800500D01*
X78921158Y-88800500D01*
X79078844Y-88800500D01*
X79078845Y-88800499D01*
X79233497Y-88769737D01*
X79379179Y-88709394D01*
X79510289Y-88621789D01*
X79621789Y-88510289D01*
X79709394Y-88379179D01*
X79712550Y-88371561D01*
X79742871Y-88298358D01*
X79769737Y-88233497D01*
X79800500Y-88078842D01*
X79800500Y-87921158D01*
X79800500Y-87921155D01*
X79800499Y-87921153D01*
X79782204Y-87829179D01*
X79769737Y-87766503D01*
X79756062Y-87733489D01*
X79709397Y-87620827D01*
X79709390Y-87620814D01*
X79621398Y-87489125D01*
X79615747Y-87471078D01*
X79605523Y-87455169D01*
X79601071Y-87424207D01*
X79600520Y-87422447D01*
X79600500Y-87420234D01*
X79600500Y-87249097D01*
X79620185Y-87182058D01*
X79672989Y-87136303D01*
X79742147Y-87126359D01*
X79805703Y-87155384D01*
X79812181Y-87161416D01*
X80165425Y-87514660D01*
X80198910Y-87575983D01*
X80199361Y-87578149D01*
X80230261Y-87733491D01*
X80230264Y-87733501D01*
X80290602Y-87879172D01*
X80290609Y-87879185D01*
X80378210Y-88010288D01*
X80378213Y-88010292D01*
X80489707Y-88121786D01*
X80489711Y-88121789D01*
X80620814Y-88209390D01*
X80620827Y-88209397D01*
X80765745Y-88269423D01*
X80766503Y-88269737D01*
X80910390Y-88298358D01*
X80921153Y-88300499D01*
X80921156Y-88300500D01*
X80921158Y-88300500D01*
X81078844Y-88300500D01*
X81078845Y-88300499D01*
X81233497Y-88269737D01*
X81379179Y-88209394D01*
X81510289Y-88121789D01*
X81621789Y-88010289D01*
X81709394Y-87879179D01*
X81769737Y-87733497D01*
X81800500Y-87578842D01*
X81800500Y-87421158D01*
X81800500Y-87421155D01*
X81800499Y-87421153D01*
X81781472Y-87325499D01*
X81769737Y-87266503D01*
X81760917Y-87245210D01*
X81709397Y-87120827D01*
X81709390Y-87120814D01*
X81621789Y-86989711D01*
X81621786Y-86989707D01*
X81510292Y-86878213D01*
X81510288Y-86878210D01*
X81379185Y-86790609D01*
X81379172Y-86790602D01*
X81233501Y-86730264D01*
X81233491Y-86730261D01*
X81078149Y-86699361D01*
X81016238Y-86666976D01*
X81014660Y-86665425D01*
X80436822Y-86087587D01*
X80422118Y-86060659D01*
X80405526Y-86034841D01*
X80404634Y-86028640D01*
X80403337Y-86026264D01*
X80400503Y-85999906D01*
X80400503Y-85754765D01*
X80420188Y-85687726D01*
X80421401Y-85685874D01*
X80455744Y-85634477D01*
X80509397Y-85554179D01*
X80569740Y-85408497D01*
X80600503Y-85253842D01*
X80600503Y-85096158D01*
X80600503Y-85096155D01*
X80600502Y-85096153D01*
X80599162Y-85089416D01*
X80569740Y-84941503D01*
X80569370Y-84940609D01*
X80509400Y-84795827D01*
X80509393Y-84795814D01*
X80421792Y-84664711D01*
X80421789Y-84664707D01*
X80310295Y-84553213D01*
X80310291Y-84553210D01*
X80179188Y-84465609D01*
X80179175Y-84465602D01*
X80033504Y-84405264D01*
X80033492Y-84405261D01*
X79878848Y-84374500D01*
X79878845Y-84374500D01*
X79721161Y-84374500D01*
X79721156Y-84374500D01*
X79604759Y-84397653D01*
X79535168Y-84391426D01*
X79511677Y-84379138D01*
X79379185Y-84290609D01*
X79379172Y-84290602D01*
X79233501Y-84230264D01*
X79233489Y-84230261D01*
X79078845Y-84199500D01*
X79078842Y-84199500D01*
X78921158Y-84199500D01*
X78921155Y-84199500D01*
X78766510Y-84230261D01*
X78766498Y-84230264D01*
X78620827Y-84290602D01*
X78620814Y-84290609D01*
X78489714Y-84378208D01*
X78485007Y-84382072D01*
X78483588Y-84380343D01*
X78431036Y-84409018D01*
X78361346Y-84404012D01*
X78335829Y-84390948D01*
X78316651Y-84378134D01*
X78316647Y-84378132D01*
X78316645Y-84378131D01*
X78170973Y-84317792D01*
X78170961Y-84317789D01*
X78016317Y-84287028D01*
X78016314Y-84287028D01*
X77858630Y-84287028D01*
X77858627Y-84287028D01*
X77703982Y-84317789D01*
X77703970Y-84317792D01*
X77558299Y-84378130D01*
X77558286Y-84378137D01*
X77477493Y-84432122D01*
X77450858Y-84440461D01*
X77425381Y-84451880D01*
X77417967Y-84450760D01*
X77410815Y-84453000D01*
X77383897Y-84445615D01*
X77356294Y-84441447D01*
X77350663Y-84436498D01*
X77343435Y-84434515D01*
X77324782Y-84413749D01*
X77303815Y-84395320D01*
X77300277Y-84386468D01*
X77296745Y-84382536D01*
X77289381Y-84363113D01*
X77287978Y-84358208D01*
X77269737Y-84266503D01*
X77243956Y-84204263D01*
X77242010Y-84197457D01*
X77242208Y-84169321D01*
X77239201Y-84141349D01*
X77242452Y-84134852D01*
X77242504Y-84127589D01*
X77257880Y-84104029D01*
X77270475Y-84078869D01*
X77273521Y-84075712D01*
X78514662Y-82834572D01*
X78575983Y-82801089D01*
X78578150Y-82800638D01*
X78652944Y-82785760D01*
X78733497Y-82769737D01*
X78861270Y-82716812D01*
X78879172Y-82709397D01*
X78879172Y-82709396D01*
X78879179Y-82709394D01*
X79010289Y-82621789D01*
X79121789Y-82510289D01*
X79209394Y-82379179D01*
X79269737Y-82233497D01*
X79300500Y-82078842D01*
X79300500Y-81921158D01*
X79300500Y-81921155D01*
X79300499Y-81921153D01*
X79290271Y-81869735D01*
X79269737Y-81766503D01*
X79260509Y-81744224D01*
X79209397Y-81620827D01*
X79209390Y-81620814D01*
X79121789Y-81489711D01*
X79121786Y-81489707D01*
X79010292Y-81378213D01*
X79010288Y-81378210D01*
X78879185Y-81290609D01*
X78879172Y-81290602D01*
X78733501Y-81230264D01*
X78733489Y-81230261D01*
X78578845Y-81199500D01*
X78578842Y-81199500D01*
X78424500Y-81199500D01*
X78357461Y-81179815D01*
X78311706Y-81127011D01*
X78300500Y-81075500D01*
X78300500Y-81021155D01*
X78300499Y-81021153D01*
X78287501Y-80955809D01*
X78269737Y-80866503D01*
X78228314Y-80766498D01*
X78209397Y-80720827D01*
X78209390Y-80720814D01*
X78121789Y-80589711D01*
X78121786Y-80589707D01*
X78010292Y-80478213D01*
X78010288Y-80478210D01*
X77879185Y-80390609D01*
X77879172Y-80390602D01*
X77733501Y-80330264D01*
X77733489Y-80330261D01*
X77578845Y-80299500D01*
X77578842Y-80299500D01*
X77421158Y-80299500D01*
X77421155Y-80299500D01*
X77266510Y-80330261D01*
X77266498Y-80330264D01*
X77122136Y-80390061D01*
X77074684Y-80399500D01*
X74024097Y-80399500D01*
X73957058Y-80379815D01*
X73911303Y-80327011D01*
X73901359Y-80257853D01*
X73930384Y-80194297D01*
X73936416Y-80187819D01*
X74630011Y-79494225D01*
X75437417Y-78686819D01*
X75498740Y-78653334D01*
X75525098Y-78650500D01*
X76220234Y-78650500D01*
X76287273Y-78670185D01*
X76289125Y-78671398D01*
X76420814Y-78759390D01*
X76420827Y-78759397D01*
X76532624Y-78805704D01*
X76566503Y-78819737D01*
X76716131Y-78849500D01*
X76721153Y-78850499D01*
X76721156Y-78850500D01*
X76721158Y-78850500D01*
X76878844Y-78850500D01*
X76878845Y-78850499D01*
X77033497Y-78819737D01*
X77179179Y-78759394D01*
X77310289Y-78671789D01*
X77421789Y-78560289D01*
X77463723Y-78497530D01*
X77517332Y-78452726D01*
X77586657Y-78444017D01*
X77649685Y-78474171D01*
X77654505Y-78478740D01*
X77863181Y-78687416D01*
X77877884Y-78714343D01*
X77894477Y-78740162D01*
X77895368Y-78746362D01*
X77896666Y-78748739D01*
X77899500Y-78775097D01*
X77899500Y-78920234D01*
X77879815Y-78987273D01*
X77878602Y-78989125D01*
X77790609Y-79120814D01*
X77790602Y-79120827D01*
X77730264Y-79266498D01*
X77730262Y-79266506D01*
X77699500Y-79421153D01*
X77699500Y-79578846D01*
X77730261Y-79733489D01*
X77730264Y-79733501D01*
X77790602Y-79879172D01*
X77790609Y-79879185D01*
X77878210Y-80010288D01*
X77878213Y-80010292D01*
X77989707Y-80121786D01*
X77989711Y-80121789D01*
X78120814Y-80209390D01*
X78120827Y-80209397D01*
X78235509Y-80256899D01*
X78266503Y-80269737D01*
X78416131Y-80299500D01*
X78421153Y-80300499D01*
X78421156Y-80300500D01*
X78421158Y-80300500D01*
X78578844Y-80300500D01*
X78578845Y-80300499D01*
X78733497Y-80269737D01*
X78879179Y-80209394D01*
X79010289Y-80121789D01*
X79121789Y-80010289D01*
X79209394Y-79879179D01*
X79269737Y-79733497D01*
X79300500Y-79578842D01*
X79300500Y-79421158D01*
X79300500Y-79421155D01*
X79300499Y-79421153D01*
X79269738Y-79266506D01*
X79267969Y-79260676D01*
X79269075Y-79260340D01*
X79262271Y-79197036D01*
X79293547Y-79134557D01*
X79353636Y-79098906D01*
X79416396Y-79099281D01*
X79420942Y-79100500D01*
X79420943Y-79100500D01*
X81420234Y-79100500D01*
X81487273Y-79120185D01*
X81489125Y-79121398D01*
X81620814Y-79209390D01*
X81620827Y-79209397D01*
X81766498Y-79269735D01*
X81766503Y-79269737D01*
X81921153Y-79300499D01*
X81921156Y-79300500D01*
X81921158Y-79300500D01*
X82078844Y-79300500D01*
X82078845Y-79300499D01*
X82233497Y-79269737D01*
X82291902Y-79245544D01*
X82329048Y-79230159D01*
X82398517Y-79222690D01*
X82460996Y-79253965D01*
X82496648Y-79314054D01*
X82500500Y-79344720D01*
X82500500Y-81370234D01*
X82480815Y-81437273D01*
X82479602Y-81439125D01*
X82391609Y-81570814D01*
X82391602Y-81570827D01*
X82331264Y-81716498D01*
X82331261Y-81716510D01*
X82300500Y-81871153D01*
X82300500Y-82028846D01*
X82331261Y-82183489D01*
X82331264Y-82183501D01*
X82391602Y-82329172D01*
X82391609Y-82329185D01*
X82445302Y-82409541D01*
X82477794Y-82458169D01*
X82479602Y-82460874D01*
X82500480Y-82527551D01*
X82500500Y-82529765D01*
X82500500Y-90643568D01*
X82497372Y-90656586D01*
X82498363Y-90666487D01*
X82490174Y-90686551D01*
X82486970Y-90699892D01*
X82483655Y-90706391D01*
X82440606Y-90770821D01*
X82396430Y-90877470D01*
X82394211Y-90881824D01*
X82373440Y-90903803D01*
X82354462Y-90927356D01*
X82349681Y-90928947D01*
X82346223Y-90932607D01*
X82316865Y-90939869D01*
X82288167Y-90949421D01*
X82283741Y-90949500D01*
X82171155Y-90949500D01*
X82016510Y-90980261D01*
X82016498Y-90980264D01*
X81870827Y-91040602D01*
X81870814Y-91040609D01*
X81739711Y-91128210D01*
X81739707Y-91128213D01*
X81628213Y-91239707D01*
X81628210Y-91239711D01*
X81540609Y-91370814D01*
X81540602Y-91370827D01*
X81480264Y-91516498D01*
X81480261Y-91516508D01*
X81449361Y-91671850D01*
X81416976Y-91733761D01*
X81415425Y-91735339D01*
X80787584Y-92363181D01*
X80726261Y-92396666D01*
X80699903Y-92399500D01*
X73579766Y-92399500D01*
X73512727Y-92379815D01*
X73510875Y-92378602D01*
X73379185Y-92290609D01*
X73379172Y-92290602D01*
X73233501Y-92230264D01*
X73233489Y-92230261D01*
X73078845Y-92199500D01*
X73078842Y-92199500D01*
X72921158Y-92199500D01*
X72921155Y-92199500D01*
X72766510Y-92230261D01*
X72766498Y-92230264D01*
X72620827Y-92290602D01*
X72620814Y-92290609D01*
X72489711Y-92378210D01*
X72489707Y-92378213D01*
X72378213Y-92489707D01*
X72378210Y-92489711D01*
X72290609Y-92620814D01*
X72290602Y-92620827D01*
X72230264Y-92766498D01*
X72230261Y-92766510D01*
X72199500Y-92921153D01*
X72199500Y-93078846D01*
X72230261Y-93233489D01*
X72230264Y-93233501D01*
X72267473Y-93323332D01*
X72274942Y-93392801D01*
X72243666Y-93455280D01*
X72183577Y-93490932D01*
X72113752Y-93488438D01*
X72084021Y-93473886D01*
X72049185Y-93450609D01*
X72049172Y-93450602D01*
X71903501Y-93390264D01*
X71903489Y-93390261D01*
X71748845Y-93359500D01*
X71748842Y-93359500D01*
X71591158Y-93359500D01*
X71591155Y-93359500D01*
X71436510Y-93390261D01*
X71436498Y-93390264D01*
X71290827Y-93450602D01*
X71290814Y-93450609D01*
X71159711Y-93538210D01*
X71159707Y-93538213D01*
X71048213Y-93649707D01*
X71048210Y-93649711D01*
X70960609Y-93780814D01*
X70960602Y-93780827D01*
X70900264Y-93926498D01*
X70900261Y-93926510D01*
X70869500Y-94081153D01*
X70869500Y-94238846D01*
X70900261Y-94393489D01*
X70900264Y-94393501D01*
X70960602Y-94539172D01*
X70960609Y-94539185D01*
X71048210Y-94670288D01*
X71048213Y-94670292D01*
X71159707Y-94781786D01*
X71159711Y-94781789D01*
X71290814Y-94869390D01*
X71290827Y-94869397D01*
X71436498Y-94929735D01*
X71436503Y-94929737D01*
X71591153Y-94960499D01*
X71591156Y-94960500D01*
X71591158Y-94960500D01*
X71748844Y-94960500D01*
X71748845Y-94960499D01*
X71903497Y-94929737D01*
X72049179Y-94869394D01*
X72059901Y-94862230D01*
X72180875Y-94781398D01*
X72247553Y-94760520D01*
X72249766Y-94760500D01*
X73843741Y-94760500D01*
X73910780Y-94780185D01*
X73956535Y-94832989D01*
X73958302Y-94837048D01*
X74000602Y-94939172D01*
X74000609Y-94939185D01*
X74088210Y-95070288D01*
X74088213Y-95070292D01*
X74204018Y-95186097D01*
X74202517Y-95187597D01*
X74236437Y-95237400D01*
X74238303Y-95307244D01*
X74202112Y-95367011D01*
X74139354Y-95397723D01*
X74118435Y-95399500D01*
X60079766Y-95399500D01*
X60012727Y-95379815D01*
X60010875Y-95378602D01*
X59879185Y-95290609D01*
X59879172Y-95290602D01*
X59733501Y-95230264D01*
X59733489Y-95230261D01*
X59578845Y-95199500D01*
X59578842Y-95199500D01*
X59421158Y-95199500D01*
X59421155Y-95199500D01*
X59266510Y-95230261D01*
X59266498Y-95230264D01*
X59120827Y-95290602D01*
X59120814Y-95290609D01*
X58989711Y-95378210D01*
X58989707Y-95378213D01*
X58878213Y-95489707D01*
X58878210Y-95489711D01*
X58790609Y-95620814D01*
X58790602Y-95620827D01*
X58730264Y-95766498D01*
X58730261Y-95766510D01*
X58699500Y-95921153D01*
X58699500Y-96078846D01*
X58730261Y-96233489D01*
X58730264Y-96233501D01*
X58790602Y-96379172D01*
X58790609Y-96379185D01*
X58878210Y-96510288D01*
X58878213Y-96510292D01*
X58989707Y-96621786D01*
X58989711Y-96621789D01*
X59120814Y-96709390D01*
X59120827Y-96709397D01*
X59266498Y-96769735D01*
X59266503Y-96769737D01*
X59418574Y-96799986D01*
X59421153Y-96800499D01*
X59421156Y-96800500D01*
X59421158Y-96800500D01*
X59578844Y-96800500D01*
X59578845Y-96800499D01*
X59733497Y-96769737D01*
X59879179Y-96709394D01*
X59986372Y-96637770D01*
X60010875Y-96621398D01*
X60077553Y-96600520D01*
X60079766Y-96600500D01*
X62926898Y-96600500D01*
X62993937Y-96620185D01*
X63039692Y-96672989D01*
X63049636Y-96742147D01*
X63025274Y-96799986D01*
X62916400Y-96941873D01*
X62791837Y-97157623D01*
X62791830Y-97157638D01*
X62696498Y-97387792D01*
X62632017Y-97628438D01*
X62599501Y-97875424D01*
X62599500Y-97875441D01*
X62599500Y-98124558D01*
X62599501Y-98124575D01*
X62631642Y-98368716D01*
X62632018Y-98371565D01*
X62663052Y-98487385D01*
X62696498Y-98612207D01*
X62791830Y-98842361D01*
X62791837Y-98842376D01*
X62916400Y-99058126D01*
X63068060Y-99255774D01*
X63068066Y-99255781D01*
X63244218Y-99431933D01*
X63244225Y-99431939D01*
X63441873Y-99583599D01*
X63657623Y-99708162D01*
X63657638Y-99708169D01*
X63756825Y-99749253D01*
X63887793Y-99803502D01*
X64128435Y-99867982D01*
X64375435Y-99900500D01*
X64375442Y-99900500D01*
X64624558Y-99900500D01*
X64624565Y-99900500D01*
X64871565Y-99867982D01*
X65112207Y-99803502D01*
X65342373Y-99708164D01*
X65558127Y-99583599D01*
X65755776Y-99431938D01*
X65931938Y-99255776D01*
X66083599Y-99058127D01*
X66208164Y-98842373D01*
X66276644Y-98677048D01*
X66320485Y-98622644D01*
X66386779Y-98600579D01*
X66391205Y-98600500D01*
X80913331Y-98600500D01*
X80913347Y-98600501D01*
X80920943Y-98600501D01*
X81079054Y-98600501D01*
X81079057Y-98600501D01*
X81231785Y-98559577D01*
X81281904Y-98530639D01*
X81368716Y-98480520D01*
X81480520Y-98368716D01*
X81480520Y-98368714D01*
X81490728Y-98358507D01*
X81490729Y-98358504D01*
X85514662Y-94334572D01*
X85575983Y-94301089D01*
X85578150Y-94300638D01*
X85636085Y-94289113D01*
X85733497Y-94269737D01*
X85879179Y-94209394D01*
X86010289Y-94121789D01*
X86121789Y-94010289D01*
X86209394Y-93879179D01*
X86269737Y-93733497D01*
X86300500Y-93578842D01*
X86300500Y-93421158D01*
X86300500Y-93421155D01*
X86300499Y-93421153D01*
X86294355Y-93390264D01*
X86269737Y-93266503D01*
X86232043Y-93175500D01*
X86209397Y-93120827D01*
X86209395Y-93120823D01*
X86209394Y-93120821D01*
X86181347Y-93078846D01*
X86157657Y-93043391D01*
X86136779Y-92976714D01*
X86155263Y-92909334D01*
X86207242Y-92862643D01*
X86260759Y-92850500D01*
X86563331Y-92850500D01*
X86563347Y-92850501D01*
X86570943Y-92850501D01*
X86729054Y-92850501D01*
X86729057Y-92850501D01*
X86881785Y-92809577D01*
X86953424Y-92768216D01*
X87018716Y-92730520D01*
X87130520Y-92618716D01*
X87130520Y-92618714D01*
X87140724Y-92608511D01*
X87140727Y-92608506D01*
X87914662Y-91834572D01*
X87975983Y-91801089D01*
X87978150Y-91800638D01*
X88036085Y-91789113D01*
X88133497Y-91769737D01*
X88264182Y-91715606D01*
X88279172Y-91709397D01*
X88279172Y-91709396D01*
X88279179Y-91709394D01*
X88410289Y-91621789D01*
X88521789Y-91510289D01*
X88609394Y-91379179D01*
X88612854Y-91370827D01*
X88628983Y-91331887D01*
X88669737Y-91233497D01*
X88696429Y-91099309D01*
X88728814Y-91037398D01*
X88789529Y-91002824D01*
X88818046Y-90999500D01*
X92348903Y-90999500D01*
X92415942Y-91019185D01*
X92436584Y-91035819D01*
X96485425Y-95084660D01*
X96518910Y-95145983D01*
X96519361Y-95148149D01*
X96550261Y-95303491D01*
X96550264Y-95303501D01*
X96610602Y-95449172D01*
X96610609Y-95449185D01*
X96698210Y-95580288D01*
X96698213Y-95580292D01*
X96809707Y-95691786D01*
X96809711Y-95691789D01*
X96940814Y-95779390D01*
X96940827Y-95779397D01*
X97086498Y-95839735D01*
X97086503Y-95839737D01*
X97241153Y-95870499D01*
X97241156Y-95870500D01*
X97241158Y-95870500D01*
X97398844Y-95870500D01*
X97398845Y-95870499D01*
X97553497Y-95839737D01*
X97567026Y-95834132D01*
X97578048Y-95829568D01*
X97647517Y-95822099D01*
X97709996Y-95853374D01*
X97745648Y-95913463D01*
X97749500Y-95944129D01*
X97749500Y-96637770D01*
X97729815Y-96704809D01*
X97713181Y-96725451D01*
X89725451Y-104713181D01*
X89664128Y-104746666D01*
X89637770Y-104749500D01*
X85254604Y-104749500D01*
X85207155Y-104740062D01*
X85183497Y-104730263D01*
X85183493Y-104730262D01*
X85183488Y-104730260D01*
X85028845Y-104699500D01*
X85028842Y-104699500D01*
X84871158Y-104699500D01*
X84871155Y-104699500D01*
X84716510Y-104730261D01*
X84716498Y-104730264D01*
X84570827Y-104790602D01*
X84570814Y-104790609D01*
X84439711Y-104878210D01*
X84439707Y-104878213D01*
X84328213Y-104989707D01*
X84328210Y-104989711D01*
X84240609Y-105120814D01*
X84240602Y-105120827D01*
X84180264Y-105266498D01*
X84180261Y-105266510D01*
X84149500Y-105421153D01*
X84149500Y-105578846D01*
X84180261Y-105733489D01*
X84180264Y-105733501D01*
X84240602Y-105879172D01*
X84240609Y-105879185D01*
X84328210Y-106010288D01*
X84328213Y-106010292D01*
X84439707Y-106121786D01*
X84439711Y-106121789D01*
X84570814Y-106209390D01*
X84570827Y-106209397D01*
X84670060Y-106250500D01*
X84716503Y-106269737D01*
X84871153Y-106300499D01*
X84871156Y-106300500D01*
X84871158Y-106300500D01*
X85028844Y-106300500D01*
X85028845Y-106300499D01*
X85105152Y-106285320D01*
X85183488Y-106269739D01*
X85183489Y-106269738D01*
X85183497Y-106269737D01*
X85207155Y-106259937D01*
X85254604Y-106250500D01*
X89695396Y-106250500D01*
X89742844Y-106259937D01*
X89766503Y-106269737D01*
X89766508Y-106269738D01*
X89766511Y-106269739D01*
X89921153Y-106300499D01*
X89921156Y-106300500D01*
X89921158Y-106300500D01*
X90078844Y-106300500D01*
X90078845Y-106300499D01*
X90233497Y-106269737D01*
X90379179Y-106209394D01*
X90510289Y-106121789D01*
X90621789Y-106010289D01*
X90709394Y-105879179D01*
X90719191Y-105855524D01*
X90746069Y-105815297D01*
X95461867Y-101099500D01*
X97980215Y-98581153D01*
X102959500Y-98581153D01*
X102959500Y-98738846D01*
X102990261Y-98893489D01*
X102990264Y-98893501D01*
X103050602Y-99039172D01*
X103050609Y-99039185D01*
X103138602Y-99170874D01*
X103159480Y-99237551D01*
X103159500Y-99239765D01*
X103159500Y-103573330D01*
X103159499Y-103573348D01*
X103159499Y-103739054D01*
X103159498Y-103739054D01*
X103159499Y-103739057D01*
X103196786Y-103878213D01*
X103200424Y-103891787D01*
X103218753Y-103923533D01*
X103218754Y-103923535D01*
X103279477Y-104028712D01*
X103279481Y-104028717D01*
X103398349Y-104147585D01*
X103398355Y-104147590D01*
X103765425Y-104514660D01*
X103798910Y-104575983D01*
X103799361Y-104578149D01*
X103830261Y-104733491D01*
X103830264Y-104733501D01*
X103890602Y-104879172D01*
X103890609Y-104879185D01*
X103978210Y-105010288D01*
X103978213Y-105010292D01*
X104089707Y-105121786D01*
X104089711Y-105121789D01*
X104220814Y-105209390D01*
X104220827Y-105209397D01*
X104358683Y-105266498D01*
X104366503Y-105269737D01*
X104521153Y-105300499D01*
X104521156Y-105300500D01*
X104521158Y-105300500D01*
X104678844Y-105300500D01*
X104678845Y-105300499D01*
X104833497Y-105269737D01*
X104979179Y-105209394D01*
X105110289Y-105121789D01*
X105221789Y-105010289D01*
X105309394Y-104879179D01*
X105369737Y-104733497D01*
X105400500Y-104578842D01*
X105400500Y-104421158D01*
X105400500Y-104421155D01*
X105400499Y-104421153D01*
X105378327Y-104309688D01*
X105369737Y-104266503D01*
X105317554Y-104140520D01*
X105309397Y-104120827D01*
X105309390Y-104120814D01*
X105221789Y-103989711D01*
X105221786Y-103989707D01*
X105110292Y-103878213D01*
X105110288Y-103878210D01*
X104979185Y-103790609D01*
X104979172Y-103790602D01*
X104833501Y-103730264D01*
X104833491Y-103730261D01*
X104678149Y-103699361D01*
X104616238Y-103666976D01*
X104614660Y-103665425D01*
X104396819Y-103447584D01*
X104363334Y-103386261D01*
X104360500Y-103359903D01*
X104360500Y-99239765D01*
X104380185Y-99172726D01*
X104381398Y-99170874D01*
X104469390Y-99039185D01*
X104469390Y-99039184D01*
X104469394Y-99039179D01*
X104529737Y-98893497D01*
X104560500Y-98738842D01*
X104560500Y-98581158D01*
X104560500Y-98581155D01*
X104560499Y-98581153D01*
X104541847Y-98487385D01*
X104529737Y-98426503D01*
X104526935Y-98419738D01*
X104469397Y-98280827D01*
X104469390Y-98280814D01*
X104381789Y-98149711D01*
X104381786Y-98149707D01*
X104270292Y-98038213D01*
X104270288Y-98038210D01*
X104139185Y-97950609D01*
X104139172Y-97950602D01*
X103993501Y-97890264D01*
X103993489Y-97890261D01*
X103838845Y-97859500D01*
X103838842Y-97859500D01*
X103681158Y-97859500D01*
X103681155Y-97859500D01*
X103526510Y-97890261D01*
X103526498Y-97890264D01*
X103380827Y-97950602D01*
X103380814Y-97950609D01*
X103249711Y-98038210D01*
X103249707Y-98038213D01*
X103138213Y-98149707D01*
X103138210Y-98149711D01*
X103050609Y-98280814D01*
X103050602Y-98280827D01*
X102990264Y-98426498D01*
X102990261Y-98426510D01*
X102959500Y-98581153D01*
X97980215Y-98581153D01*
X98073983Y-98487385D01*
X99082948Y-97478419D01*
X99082951Y-97478416D01*
X99165084Y-97355495D01*
X99221658Y-97218913D01*
X99237413Y-97139711D01*
X99250500Y-97073920D01*
X99250500Y-95275153D01*
X102779500Y-95275153D01*
X102779500Y-95432846D01*
X102810261Y-95587489D01*
X102810264Y-95587501D01*
X102870602Y-95733172D01*
X102870609Y-95733185D01*
X102958210Y-95864288D01*
X102958213Y-95864292D01*
X103069707Y-95975786D01*
X103069711Y-95975789D01*
X103200814Y-96063390D01*
X103200827Y-96063397D01*
X103341259Y-96121565D01*
X103346503Y-96123737D01*
X103411147Y-96136595D01*
X103501849Y-96154638D01*
X103563760Y-96187023D01*
X103565339Y-96188574D01*
X105041425Y-97664660D01*
X105074910Y-97725983D01*
X105075361Y-97728149D01*
X105106261Y-97883491D01*
X105106264Y-97883501D01*
X105166602Y-98029172D01*
X105166609Y-98029185D01*
X105254210Y-98160288D01*
X105254213Y-98160292D01*
X105365707Y-98271786D01*
X105365711Y-98271789D01*
X105496814Y-98359390D01*
X105496827Y-98359397D01*
X105642498Y-98419735D01*
X105642503Y-98419737D01*
X105797153Y-98450499D01*
X105797156Y-98450500D01*
X105797158Y-98450500D01*
X105954844Y-98450500D01*
X105954845Y-98450499D01*
X106109497Y-98419737D01*
X106255179Y-98359394D01*
X106386289Y-98271789D01*
X106497789Y-98160289D01*
X106585394Y-98029179D01*
X106645737Y-97883497D01*
X106676500Y-97728842D01*
X106676500Y-97571158D01*
X106676500Y-97571155D01*
X106676499Y-97571153D01*
X106654024Y-97458164D01*
X106645737Y-97416503D01*
X106633845Y-97387792D01*
X106585397Y-97270827D01*
X106585390Y-97270814D01*
X106497789Y-97139711D01*
X106497786Y-97139707D01*
X106386292Y-97028213D01*
X106386288Y-97028210D01*
X106255185Y-96940609D01*
X106255172Y-96940602D01*
X106109501Y-96880264D01*
X106109491Y-96880261D01*
X105954149Y-96849361D01*
X105892238Y-96816976D01*
X105890660Y-96815425D01*
X104414574Y-95339339D01*
X104381089Y-95278016D01*
X104380638Y-95275849D01*
X104349738Y-95120510D01*
X104349737Y-95120503D01*
X104349005Y-95118735D01*
X104289397Y-94974827D01*
X104289390Y-94974814D01*
X104201789Y-94843711D01*
X104201786Y-94843707D01*
X104090292Y-94732213D01*
X104090288Y-94732210D01*
X103959185Y-94644609D01*
X103959172Y-94644602D01*
X103813501Y-94584264D01*
X103813489Y-94584261D01*
X103658845Y-94553500D01*
X103658842Y-94553500D01*
X103501158Y-94553500D01*
X103501155Y-94553500D01*
X103346510Y-94584261D01*
X103346498Y-94584264D01*
X103200827Y-94644602D01*
X103200814Y-94644609D01*
X103069711Y-94732210D01*
X103069707Y-94732213D01*
X102958213Y-94843707D01*
X102958210Y-94843711D01*
X102870609Y-94974814D01*
X102870602Y-94974827D01*
X102810264Y-95120498D01*
X102810261Y-95120510D01*
X102779500Y-95275153D01*
X99250500Y-95275153D01*
X99250500Y-94862230D01*
X99270185Y-94795191D01*
X99286819Y-94774549D01*
X100249549Y-93811819D01*
X100310872Y-93778334D01*
X100337230Y-93775500D01*
X105945234Y-93775500D01*
X106012273Y-93795185D01*
X106014125Y-93796398D01*
X106145814Y-93884390D01*
X106145827Y-93884397D01*
X106291498Y-93944735D01*
X106291503Y-93944737D01*
X106446153Y-93975499D01*
X106446156Y-93975500D01*
X106446158Y-93975500D01*
X106603844Y-93975500D01*
X106603845Y-93975499D01*
X106758497Y-93944737D01*
X106904179Y-93884394D01*
X107035289Y-93796789D01*
X107146789Y-93685289D01*
X107234394Y-93554179D01*
X107294737Y-93408497D01*
X107304483Y-93359500D01*
X107321231Y-93275308D01*
X107353616Y-93213397D01*
X107414332Y-93178823D01*
X107442848Y-93175500D01*
X113495396Y-93175500D01*
X113542844Y-93184937D01*
X113566503Y-93194737D01*
X113566508Y-93194738D01*
X113566511Y-93194739D01*
X113721153Y-93225499D01*
X113721156Y-93225500D01*
X113721158Y-93225500D01*
X113878844Y-93225500D01*
X113878845Y-93225499D01*
X114033497Y-93194737D01*
X114179179Y-93134394D01*
X114310289Y-93046789D01*
X114421789Y-92935289D01*
X114509394Y-92804179D01*
X114569737Y-92658497D01*
X114600500Y-92503842D01*
X114600500Y-92346158D01*
X114600500Y-92346155D01*
X114600499Y-92346153D01*
X114591299Y-92299902D01*
X114569737Y-92191503D01*
X114569735Y-92191498D01*
X114509397Y-92045827D01*
X114509390Y-92045814D01*
X114421789Y-91914711D01*
X114421786Y-91914707D01*
X114310292Y-91803213D01*
X114310288Y-91803210D01*
X114179185Y-91715609D01*
X114179172Y-91715602D01*
X114033501Y-91655264D01*
X114033489Y-91655261D01*
X113878845Y-91624500D01*
X113878842Y-91624500D01*
X113721158Y-91624500D01*
X113721155Y-91624500D01*
X113566511Y-91655260D01*
X113566506Y-91655262D01*
X113566504Y-91655262D01*
X113566503Y-91655263D01*
X113542844Y-91665062D01*
X113495396Y-91674500D01*
X102829604Y-91674500D01*
X102782155Y-91665062D01*
X102758497Y-91655263D01*
X102758493Y-91655262D01*
X102758488Y-91655260D01*
X102603845Y-91624500D01*
X102603842Y-91624500D01*
X102446158Y-91624500D01*
X102446155Y-91624500D01*
X102291510Y-91655261D01*
X102291498Y-91655264D01*
X102145827Y-91715602D01*
X102145814Y-91715609D01*
X102014711Y-91803210D01*
X102014707Y-91803213D01*
X101903213Y-91914707D01*
X101903210Y-91914711D01*
X101815609Y-92045814D01*
X101815602Y-92045827D01*
X101755264Y-92191498D01*
X101755261Y-92191510D01*
X101724500Y-92346153D01*
X101724500Y-92450500D01*
X101704815Y-92517539D01*
X101652011Y-92563294D01*
X101600500Y-92574500D01*
X100699500Y-92574500D01*
X100632461Y-92554815D01*
X100586706Y-92502011D01*
X100575500Y-92450500D01*
X100575500Y-90145090D01*
X100595185Y-90078051D01*
X100647989Y-90032296D01*
X100717147Y-90022352D01*
X100731595Y-90025316D01*
X100740412Y-90027678D01*
X100750942Y-90030500D01*
X100750943Y-90030500D01*
X114730234Y-90030500D01*
X114797273Y-90050185D01*
X114799125Y-90051398D01*
X114930814Y-90139390D01*
X114930827Y-90139397D01*
X115074417Y-90198873D01*
X115076503Y-90199737D01*
X115231153Y-90230499D01*
X115231156Y-90230500D01*
X115231158Y-90230500D01*
X115388844Y-90230500D01*
X115388845Y-90230499D01*
X115543497Y-90199737D01*
X115675428Y-90145090D01*
X115689172Y-90139397D01*
X115689172Y-90139396D01*
X115689179Y-90139394D01*
X115820289Y-90051789D01*
X115834077Y-90038000D01*
X115895398Y-90004516D01*
X115965089Y-90009498D01*
X116021024Y-90051368D01*
X116024862Y-90056791D01*
X116045299Y-90087378D01*
X116156794Y-90198873D01*
X116156798Y-90198876D01*
X116287901Y-90286477D01*
X116287914Y-90286484D01*
X116433585Y-90346822D01*
X116433590Y-90346824D01*
X116588240Y-90377586D01*
X116588243Y-90377587D01*
X116588245Y-90377587D01*
X116745931Y-90377587D01*
X116745932Y-90377586D01*
X116900584Y-90346824D01*
X117013253Y-90300154D01*
X117046259Y-90286484D01*
X117046259Y-90286483D01*
X117046266Y-90286481D01*
X117177376Y-90198876D01*
X117288876Y-90087376D01*
X117376481Y-89956266D01*
X117436824Y-89810584D01*
X117467587Y-89655929D01*
X117467587Y-89498245D01*
X117467587Y-89498242D01*
X117467586Y-89498240D01*
X117454398Y-89431939D01*
X117436824Y-89343590D01*
X117436822Y-89343585D01*
X117376484Y-89197914D01*
X117376477Y-89197901D01*
X117288876Y-89066798D01*
X117288873Y-89066794D01*
X117177379Y-88955300D01*
X117177375Y-88955297D01*
X117046272Y-88867696D01*
X117046259Y-88867689D01*
X116900588Y-88807351D01*
X116900578Y-88807348D01*
X116745236Y-88776448D01*
X116683325Y-88744063D01*
X116681747Y-88742512D01*
X116406590Y-88467355D01*
X116406588Y-88467352D01*
X116287717Y-88348481D01*
X116287716Y-88348480D01*
X116200904Y-88298360D01*
X116200904Y-88298359D01*
X116200900Y-88298358D01*
X116150785Y-88269423D01*
X115998057Y-88228499D01*
X115839943Y-88228499D01*
X115832347Y-88228499D01*
X115832331Y-88228500D01*
X115147727Y-88228500D01*
X115147711Y-88228499D01*
X115140115Y-88228499D01*
X114982000Y-88228499D01*
X114905636Y-88248961D01*
X114829271Y-88269423D01*
X114829266Y-88269426D01*
X114692347Y-88348475D01*
X114692339Y-88348481D01*
X114648640Y-88392181D01*
X114587317Y-88425666D01*
X114560959Y-88428500D01*
X101296197Y-88428500D01*
X101229158Y-88408815D01*
X101208516Y-88392181D01*
X99537488Y-86721153D01*
X112999500Y-86721153D01*
X112999500Y-86878846D01*
X113030261Y-87033489D01*
X113030264Y-87033501D01*
X113090602Y-87179172D01*
X113090609Y-87179185D01*
X113178210Y-87310288D01*
X113178213Y-87310292D01*
X113289707Y-87421786D01*
X113289711Y-87421789D01*
X113420814Y-87509390D01*
X113420827Y-87509397D01*
X113566498Y-87569735D01*
X113566503Y-87569737D01*
X113708610Y-87598004D01*
X113721153Y-87600499D01*
X113721156Y-87600500D01*
X113721158Y-87600500D01*
X113878844Y-87600500D01*
X113878845Y-87600499D01*
X114033497Y-87569737D01*
X114179179Y-87509394D01*
X114310289Y-87421789D01*
X114421789Y-87310289D01*
X114509394Y-87179179D01*
X114519191Y-87155524D01*
X114546069Y-87115297D01*
X116307951Y-85353416D01*
X116316963Y-85339928D01*
X116374484Y-85253842D01*
X116390079Y-85230503D01*
X116390080Y-85230500D01*
X116390084Y-85230495D01*
X116446658Y-85093913D01*
X116459408Y-85029815D01*
X116475500Y-84948920D01*
X116475500Y-83672547D01*
X119059339Y-83672547D01*
X119059339Y-85798282D01*
X119059340Y-85798288D01*
X119065747Y-85857895D01*
X119116041Y-85992740D01*
X119116045Y-85992747D01*
X119202291Y-86107956D01*
X119202294Y-86107959D01*
X119317503Y-86194205D01*
X119317510Y-86194209D01*
X119452356Y-86244503D01*
X119452355Y-86244503D01*
X119459283Y-86245247D01*
X119511966Y-86250912D01*
X121337711Y-86250911D01*
X121397322Y-86244503D01*
X121532170Y-86194208D01*
X121647385Y-86107958D01*
X121733635Y-85992743D01*
X121776887Y-85876777D01*
X121818756Y-85820845D01*
X121884220Y-85796427D01*
X121952493Y-85811278D01*
X121980749Y-85832430D01*
X122075276Y-85926957D01*
X122249161Y-86053292D01*
X122339851Y-86099501D01*
X122440668Y-86150870D01*
X122440671Y-86150871D01*
X122596644Y-86201549D01*
X122645084Y-86217288D01*
X122857372Y-86250912D01*
X122857373Y-86250912D01*
X123072305Y-86250912D01*
X123072306Y-86250912D01*
X123284594Y-86217288D01*
X123284597Y-86217287D01*
X123284598Y-86217287D01*
X123489006Y-86150871D01*
X123489009Y-86150870D01*
X123498932Y-86145814D01*
X123680517Y-86053292D01*
X123854402Y-85926957D01*
X124006384Y-85774975D01*
X124132719Y-85601090D01*
X124132720Y-85601087D01*
X124134829Y-85598185D01*
X124190159Y-85555519D01*
X124259772Y-85549540D01*
X124321567Y-85582146D01*
X124335465Y-85598184D01*
X124463677Y-85774651D01*
X124463677Y-85774652D01*
X124615598Y-85926573D01*
X124789422Y-86052864D01*
X124980863Y-86150408D01*
X125185198Y-86216800D01*
X125254838Y-86227830D01*
X125254839Y-86227830D01*
X125254839Y-85179972D01*
X125307986Y-85210657D01*
X125437696Y-85245412D01*
X125571982Y-85245412D01*
X125701692Y-85210657D01*
X125754839Y-85179972D01*
X125754839Y-86227830D01*
X125824477Y-86216800D01*
X125824480Y-86216800D01*
X126028814Y-86150408D01*
X126220255Y-86052864D01*
X126394079Y-85926573D01*
X126546000Y-85774652D01*
X126672291Y-85600828D01*
X126769835Y-85409387D01*
X126836227Y-85205054D01*
X126836227Y-85205051D01*
X126869839Y-84992839D01*
X126869839Y-84985412D01*
X125949399Y-84985412D01*
X125980084Y-84932265D01*
X126014839Y-84802555D01*
X126014839Y-84668269D01*
X125980084Y-84538559D01*
X125949399Y-84485412D01*
X126869839Y-84485412D01*
X126869839Y-84477984D01*
X126836227Y-84265772D01*
X126836227Y-84265769D01*
X126769835Y-84061436D01*
X126672291Y-83869995D01*
X126546000Y-83696171D01*
X126394079Y-83544250D01*
X126220255Y-83417959D01*
X126028814Y-83320415D01*
X125824474Y-83254022D01*
X125824475Y-83254022D01*
X125754839Y-83242993D01*
X125754839Y-84290851D01*
X125701692Y-84260167D01*
X125571982Y-84225412D01*
X125437696Y-84225412D01*
X125307986Y-84260167D01*
X125254839Y-84290851D01*
X125254839Y-83242993D01*
X125185203Y-83254022D01*
X124980863Y-83320415D01*
X124789422Y-83417959D01*
X124615598Y-83544250D01*
X124463677Y-83696171D01*
X124463677Y-83696172D01*
X124335465Y-83872639D01*
X124280135Y-83915304D01*
X124210521Y-83921283D01*
X124148726Y-83888677D01*
X124134829Y-83872638D01*
X124083918Y-83802565D01*
X124006384Y-83695849D01*
X123854402Y-83543867D01*
X123680517Y-83417532D01*
X123647610Y-83400765D01*
X123489009Y-83319953D01*
X123489006Y-83319952D01*
X123284596Y-83253536D01*
X123143068Y-83231120D01*
X123072306Y-83219912D01*
X122857372Y-83219912D01*
X122786609Y-83231120D01*
X122645082Y-83253536D01*
X122645079Y-83253536D01*
X122440671Y-83319952D01*
X122440668Y-83319953D01*
X122249160Y-83417532D01*
X122075277Y-83543866D01*
X121980749Y-83638394D01*
X121919425Y-83671878D01*
X121849734Y-83666894D01*
X121793801Y-83625022D01*
X121776886Y-83594044D01*
X121733637Y-83478085D01*
X121733632Y-83478076D01*
X121647386Y-83362867D01*
X121647383Y-83362864D01*
X121532174Y-83276618D01*
X121532167Y-83276614D01*
X121397321Y-83226320D01*
X121397322Y-83226320D01*
X121337722Y-83219913D01*
X121337720Y-83219912D01*
X121337712Y-83219912D01*
X121337703Y-83219912D01*
X119511968Y-83219912D01*
X119511962Y-83219913D01*
X119452355Y-83226320D01*
X119317510Y-83276614D01*
X119317503Y-83276618D01*
X119202294Y-83362864D01*
X119202291Y-83362867D01*
X119116045Y-83478076D01*
X119116041Y-83478083D01*
X119065747Y-83612929D01*
X119059340Y-83672528D01*
X119059339Y-83672547D01*
X116475500Y-83672547D01*
X116475500Y-81304604D01*
X116484939Y-81257151D01*
X116494737Y-81233497D01*
X116525500Y-81078842D01*
X116525500Y-80921158D01*
X116525500Y-80921155D01*
X116525499Y-80921153D01*
X116494737Y-80766503D01*
X116494735Y-80766498D01*
X116434397Y-80620827D01*
X116434390Y-80620814D01*
X116346789Y-80489711D01*
X116346786Y-80489707D01*
X116235292Y-80378213D01*
X116235288Y-80378210D01*
X116104185Y-80290609D01*
X116104172Y-80290602D01*
X115958501Y-80230264D01*
X115958489Y-80230261D01*
X115803845Y-80199500D01*
X115803842Y-80199500D01*
X115646158Y-80199500D01*
X115646155Y-80199500D01*
X115491510Y-80230261D01*
X115491498Y-80230264D01*
X115345827Y-80290602D01*
X115345814Y-80290609D01*
X115214711Y-80378210D01*
X115214707Y-80378213D01*
X115103213Y-80489707D01*
X115103210Y-80489711D01*
X115015609Y-80620814D01*
X115015602Y-80620827D01*
X114955264Y-80766498D01*
X114955261Y-80766510D01*
X114924500Y-80921153D01*
X114924500Y-81078846D01*
X114955261Y-81233489D01*
X114955263Y-81233497D01*
X114965061Y-81257151D01*
X114974500Y-81304604D01*
X114974500Y-84512769D01*
X114954815Y-84579808D01*
X114938181Y-84600450D01*
X113484703Y-86053927D01*
X113444480Y-86080805D01*
X113420819Y-86090606D01*
X113420818Y-86090607D01*
X113289715Y-86178207D01*
X113289707Y-86178213D01*
X113178213Y-86289707D01*
X113178210Y-86289711D01*
X113090609Y-86420814D01*
X113090602Y-86420827D01*
X113030264Y-86566498D01*
X113030261Y-86566510D01*
X112999500Y-86721153D01*
X99537488Y-86721153D01*
X99278516Y-86462181D01*
X99245031Y-86400858D01*
X99250015Y-86331166D01*
X99291887Y-86275233D01*
X99357351Y-86250816D01*
X99366197Y-86250500D01*
X105870234Y-86250500D01*
X105937273Y-86270185D01*
X105939125Y-86271398D01*
X106070814Y-86359390D01*
X106070827Y-86359397D01*
X106208449Y-86416401D01*
X106216503Y-86419737D01*
X106371153Y-86450499D01*
X106371156Y-86450500D01*
X106371158Y-86450500D01*
X106528844Y-86450500D01*
X106528845Y-86450499D01*
X106683497Y-86419737D01*
X106829179Y-86359394D01*
X106960289Y-86271789D01*
X107071789Y-86160289D01*
X107159394Y-86029179D01*
X107160602Y-86026264D01*
X107194165Y-85945234D01*
X107219737Y-85883497D01*
X107250500Y-85728842D01*
X107250500Y-85571158D01*
X107250500Y-85571155D01*
X107250499Y-85571153D01*
X107234097Y-85488690D01*
X107240324Y-85419098D01*
X107283187Y-85363921D01*
X107349077Y-85340677D01*
X107355714Y-85340499D01*
X108837871Y-85340499D01*
X108837872Y-85340499D01*
X108897483Y-85334091D01*
X109032331Y-85283796D01*
X109147546Y-85197546D01*
X109233796Y-85082331D01*
X109277048Y-84966365D01*
X109318917Y-84910433D01*
X109384381Y-84886015D01*
X109452654Y-84900866D01*
X109480910Y-84922018D01*
X109575437Y-85016545D01*
X109749322Y-85142880D01*
X109818663Y-85178211D01*
X109940829Y-85240458D01*
X109940832Y-85240459D01*
X110091730Y-85289488D01*
X110145245Y-85306876D01*
X110357533Y-85340500D01*
X110357534Y-85340500D01*
X110572466Y-85340500D01*
X110572467Y-85340500D01*
X110784755Y-85306876D01*
X110784758Y-85306875D01*
X110784759Y-85306875D01*
X110989167Y-85240459D01*
X110989170Y-85240458D01*
X111004512Y-85232641D01*
X111180678Y-85142880D01*
X111354563Y-85016545D01*
X111506545Y-84864563D01*
X111632880Y-84690678D01*
X111632881Y-84690675D01*
X111634990Y-84687773D01*
X111690320Y-84645107D01*
X111759933Y-84639128D01*
X111821728Y-84671734D01*
X111835626Y-84687772D01*
X111963838Y-84864239D01*
X111963838Y-84864240D01*
X112115759Y-85016161D01*
X112289583Y-85142452D01*
X112481024Y-85239996D01*
X112685359Y-85306388D01*
X112754999Y-85317418D01*
X112755000Y-85317418D01*
X112755000Y-84269560D01*
X112808147Y-84300245D01*
X112937857Y-84335000D01*
X113072143Y-84335000D01*
X113201853Y-84300245D01*
X113255000Y-84269560D01*
X113255000Y-85317418D01*
X113324638Y-85306388D01*
X113324641Y-85306388D01*
X113528975Y-85239996D01*
X113720416Y-85142452D01*
X113894240Y-85016161D01*
X114046161Y-84864240D01*
X114172452Y-84690416D01*
X114269996Y-84498975D01*
X114336388Y-84294642D01*
X114336388Y-84294639D01*
X114370000Y-84082427D01*
X114370000Y-84075000D01*
X113449560Y-84075000D01*
X113480245Y-84021853D01*
X113515000Y-83892143D01*
X113515000Y-83757857D01*
X113480245Y-83628147D01*
X113449560Y-83575000D01*
X114370000Y-83575000D01*
X114370000Y-83567572D01*
X114336388Y-83355360D01*
X114336388Y-83355357D01*
X114269996Y-83151024D01*
X114172452Y-82959583D01*
X114046161Y-82785759D01*
X113894240Y-82633838D01*
X113720416Y-82507547D01*
X113528975Y-82410003D01*
X113324635Y-82343610D01*
X113324636Y-82343610D01*
X113255000Y-82332581D01*
X113255000Y-83380439D01*
X113201853Y-83349755D01*
X113072143Y-83315000D01*
X112937857Y-83315000D01*
X112808147Y-83349755D01*
X112755000Y-83380439D01*
X112755000Y-82332581D01*
X112685364Y-82343610D01*
X112481024Y-82410003D01*
X112289583Y-82507547D01*
X112115759Y-82633838D01*
X111963838Y-82785759D01*
X111963838Y-82785760D01*
X111835626Y-82962227D01*
X111780296Y-83004892D01*
X111710682Y-83010871D01*
X111648887Y-82978265D01*
X111634990Y-82962226D01*
X111517489Y-82800500D01*
X111506545Y-82785437D01*
X111354563Y-82633455D01*
X111180678Y-82507120D01*
X110989170Y-82409541D01*
X110989167Y-82409540D01*
X110784757Y-82343124D01*
X110643229Y-82320708D01*
X110572467Y-82309500D01*
X110357533Y-82309500D01*
X110286770Y-82320708D01*
X110145243Y-82343124D01*
X110145240Y-82343124D01*
X109940832Y-82409540D01*
X109940829Y-82409541D01*
X109749321Y-82507120D01*
X109575438Y-82633454D01*
X109480910Y-82727982D01*
X109419586Y-82761466D01*
X109349895Y-82756482D01*
X109293962Y-82714610D01*
X109277047Y-82683632D01*
X109275230Y-82678761D01*
X109256052Y-82627340D01*
X109233798Y-82567673D01*
X109233793Y-82567664D01*
X109147547Y-82452455D01*
X109147544Y-82452452D01*
X109032335Y-82366206D01*
X109032328Y-82366202D01*
X108897482Y-82315908D01*
X108897483Y-82315908D01*
X108837883Y-82309501D01*
X108837881Y-82309500D01*
X108837873Y-82309500D01*
X108837864Y-82309500D01*
X107012129Y-82309500D01*
X107012123Y-82309501D01*
X106952516Y-82315908D01*
X106817671Y-82366202D01*
X106817664Y-82366206D01*
X106702455Y-82452452D01*
X106702452Y-82452455D01*
X106616206Y-82567664D01*
X106616202Y-82567671D01*
X106565908Y-82702517D01*
X106559501Y-82762116D01*
X106559500Y-82762135D01*
X106559500Y-84725500D01*
X106539815Y-84792539D01*
X106487011Y-84838294D01*
X106435500Y-84849500D01*
X106371155Y-84849500D01*
X106216510Y-84880261D01*
X106216498Y-84880264D01*
X106070827Y-84940602D01*
X106070814Y-84940609D01*
X105939125Y-85028602D01*
X105872447Y-85049480D01*
X105870234Y-85049500D01*
X102667848Y-85049500D01*
X102639668Y-85041225D01*
X102610829Y-85035613D01*
X102606523Y-85031493D01*
X102600809Y-85029815D01*
X102581577Y-85007620D01*
X102560349Y-84987306D01*
X102557578Y-84979924D01*
X102555054Y-84977011D01*
X102547291Y-84954516D01*
X102546707Y-84952090D01*
X102519737Y-84816503D01*
X102506218Y-84783865D01*
X102503943Y-84774412D01*
X102504406Y-84765036D01*
X102500500Y-84745396D01*
X102500500Y-84476136D01*
X102471659Y-84331149D01*
X102471658Y-84331148D01*
X102471658Y-84331144D01*
X102466239Y-84318062D01*
X102415087Y-84194568D01*
X102415080Y-84194555D01*
X102332952Y-84071642D01*
X102283163Y-84021853D01*
X102228416Y-83967106D01*
X101928204Y-83666894D01*
X101027364Y-82766052D01*
X101027357Y-82766046D01*
X100953672Y-82716812D01*
X100953672Y-82716813D01*
X100904434Y-82683913D01*
X100767860Y-82627343D01*
X100767850Y-82627340D01*
X100622863Y-82598500D01*
X100622861Y-82598500D01*
X98424917Y-82598500D01*
X98277082Y-82598500D01*
X98277080Y-82598500D01*
X98132092Y-82627340D01*
X98132082Y-82627343D01*
X97995506Y-82683914D01*
X97995504Y-82683915D01*
X97990062Y-82687552D01*
X97959768Y-82697035D01*
X97930023Y-82708130D01*
X97926663Y-82707399D01*
X97923383Y-82708426D01*
X97892768Y-82700025D01*
X97861750Y-82693278D01*
X97858031Y-82690494D01*
X97856004Y-82689938D01*
X97833496Y-82672127D01*
X97794634Y-82633265D01*
X97761149Y-82571942D01*
X97758315Y-82545584D01*
X97758315Y-80195044D01*
X97778000Y-80128005D01*
X97794634Y-80107363D01*
X98490178Y-79411819D01*
X98551501Y-79378334D01*
X98577859Y-79375500D01*
X100695396Y-79375500D01*
X100742844Y-79384937D01*
X100766503Y-79394737D01*
X100766508Y-79394738D01*
X100766511Y-79394739D01*
X100921153Y-79425499D01*
X100921156Y-79425500D01*
X100921158Y-79425500D01*
X101078844Y-79425500D01*
X101078845Y-79425499D01*
X101233497Y-79394737D01*
X101379179Y-79334394D01*
X101510289Y-79246789D01*
X101621789Y-79135289D01*
X101709394Y-79004179D01*
X101769737Y-78858497D01*
X101800500Y-78703842D01*
X101800500Y-78546158D01*
X101800500Y-78546155D01*
X101800499Y-78546153D01*
X101794675Y-78516873D01*
X101769737Y-78391503D01*
X101765772Y-78381931D01*
X101709397Y-78245827D01*
X101709390Y-78245814D01*
X101621789Y-78114711D01*
X101621786Y-78114707D01*
X101510292Y-78003213D01*
X101510288Y-78003210D01*
X101379185Y-77915609D01*
X101379172Y-77915602D01*
X101233501Y-77855264D01*
X101233489Y-77855261D01*
X101078845Y-77824500D01*
X101078842Y-77824500D01*
X100921158Y-77824500D01*
X100921155Y-77824500D01*
X100766511Y-77855260D01*
X100766506Y-77855262D01*
X100766504Y-77855262D01*
X100766503Y-77855263D01*
X100742844Y-77865062D01*
X100695396Y-77874500D01*
X98141710Y-77874500D01*
X97996722Y-77903340D01*
X97996712Y-77903343D01*
X97860141Y-77959912D01*
X97860128Y-77959919D01*
X97737214Y-78042048D01*
X97737210Y-78042051D01*
X96692518Y-79086742D01*
X96652295Y-79113620D01*
X96628634Y-79123421D01*
X96628633Y-79123422D01*
X96497530Y-79211022D01*
X96497522Y-79211028D01*
X96386028Y-79322522D01*
X96386025Y-79322526D01*
X96298424Y-79453629D01*
X96298417Y-79453642D01*
X96238079Y-79599313D01*
X96238076Y-79599325D01*
X96207315Y-79753968D01*
X96207315Y-79911661D01*
X96238076Y-80066304D01*
X96238078Y-80066312D01*
X96247876Y-80089966D01*
X96257315Y-80137419D01*
X96257315Y-82574517D01*
X96237630Y-82641556D01*
X96184826Y-82687311D01*
X96115668Y-82697255D01*
X96052112Y-82668230D01*
X96045634Y-82662198D01*
X95361819Y-81978383D01*
X95328334Y-81917060D01*
X95325500Y-81890702D01*
X95325500Y-79404765D01*
X95345185Y-79337726D01*
X95346398Y-79335874D01*
X95434390Y-79204185D01*
X95434390Y-79204184D01*
X95434394Y-79204179D01*
X95494737Y-79058497D01*
X95525500Y-78903842D01*
X95525500Y-78746158D01*
X95525500Y-78746155D01*
X95525499Y-78746153D01*
X95521040Y-78723735D01*
X95494737Y-78591503D01*
X95475955Y-78546158D01*
X95434397Y-78445827D01*
X95434390Y-78445814D01*
X95346789Y-78314711D01*
X95346786Y-78314707D01*
X95235292Y-78203213D01*
X95235288Y-78203210D01*
X95104185Y-78115609D01*
X95104172Y-78115602D01*
X94958501Y-78055264D01*
X94958489Y-78055261D01*
X94803845Y-78024500D01*
X94803842Y-78024500D01*
X94646158Y-78024500D01*
X94646155Y-78024500D01*
X94491510Y-78055261D01*
X94491498Y-78055264D01*
X94345827Y-78115602D01*
X94345814Y-78115609D01*
X94214711Y-78203210D01*
X94214707Y-78203213D01*
X94137681Y-78280240D01*
X94076358Y-78313725D01*
X94006666Y-78308741D01*
X93962319Y-78280240D01*
X93935292Y-78253213D01*
X93935288Y-78253210D01*
X93804185Y-78165609D01*
X93804172Y-78165602D01*
X93658501Y-78105264D01*
X93658489Y-78105261D01*
X93503845Y-78074500D01*
X93503842Y-78074500D01*
X93346158Y-78074500D01*
X93346155Y-78074500D01*
X93191510Y-78105261D01*
X93191498Y-78105264D01*
X93045827Y-78165602D01*
X93045814Y-78165609D01*
X92914711Y-78253210D01*
X92914707Y-78253213D01*
X92803213Y-78364707D01*
X92803210Y-78364711D01*
X92715609Y-78495814D01*
X92715602Y-78495827D01*
X92655264Y-78641498D01*
X92655261Y-78641510D01*
X92624500Y-78796153D01*
X92624500Y-78953846D01*
X92655261Y-79108489D01*
X92655264Y-79108501D01*
X92715602Y-79254172D01*
X92715609Y-79254185D01*
X92784027Y-79356578D01*
X92802976Y-79384938D01*
X92803602Y-79385874D01*
X92824480Y-79452551D01*
X92824500Y-79454765D01*
X92824500Y-80888770D01*
X92804815Y-80955809D01*
X92752011Y-81001564D01*
X92682853Y-81011508D01*
X92619297Y-80982483D01*
X92612819Y-80976451D01*
X91954590Y-80318222D01*
X91921105Y-80256899D01*
X91918271Y-80230541D01*
X91918271Y-76162596D01*
X100818587Y-76162596D01*
X100818587Y-76320289D01*
X100849348Y-76474932D01*
X100849351Y-76474944D01*
X100909689Y-76620615D01*
X100909696Y-76620628D01*
X100997297Y-76751731D01*
X100997300Y-76751735D01*
X101108794Y-76863229D01*
X101108798Y-76863232D01*
X101239901Y-76950833D01*
X101239914Y-76950840D01*
X101383439Y-77010289D01*
X101385590Y-77011180D01*
X101540240Y-77041942D01*
X101540243Y-77041943D01*
X101540245Y-77041943D01*
X101697931Y-77041943D01*
X101697932Y-77041942D01*
X101852584Y-77011180D01*
X101998266Y-76950837D01*
X102129376Y-76863232D01*
X102240876Y-76751732D01*
X102328481Y-76620622D01*
X102388824Y-76474940D01*
X102419587Y-76320285D01*
X102419587Y-76162601D01*
X102419587Y-76162598D01*
X102419586Y-76162596D01*
X102411424Y-76121565D01*
X102388824Y-76007946D01*
X102348840Y-75911415D01*
X102328482Y-75862266D01*
X102271398Y-75776833D01*
X102250520Y-75710155D01*
X102250500Y-75707942D01*
X102250500Y-75325692D01*
X102270185Y-75258653D01*
X102305610Y-75222590D01*
X102356100Y-75188852D01*
X102410288Y-75152646D01*
X102521788Y-75041146D01*
X102609393Y-74910036D01*
X102610393Y-74907623D01*
X102640650Y-74834574D01*
X102669736Y-74764354D01*
X102700499Y-74609699D01*
X102700499Y-74452015D01*
X102700499Y-74452012D01*
X102700498Y-74452010D01*
X102686011Y-74379179D01*
X102669736Y-74297360D01*
X102643285Y-74233501D01*
X102609396Y-74151684D01*
X102609389Y-74151671D01*
X102521788Y-74020568D01*
X102521785Y-74020564D01*
X102410291Y-73909070D01*
X102410287Y-73909067D01*
X102305609Y-73839123D01*
X102300518Y-73833031D01*
X102293297Y-73829734D01*
X102278433Y-73806606D01*
X102260804Y-73785511D01*
X102258852Y-73776136D01*
X102255523Y-73770956D01*
X102250500Y-73736021D01*
X102250500Y-73604765D01*
X102270185Y-73537726D01*
X102271398Y-73535874D01*
X102359390Y-73404185D01*
X102359390Y-73404184D01*
X102359394Y-73404179D01*
X102419737Y-73258497D01*
X102450500Y-73103842D01*
X102450500Y-72946158D01*
X102450500Y-72946155D01*
X102450499Y-72946153D01*
X102448182Y-72934504D01*
X102419737Y-72791503D01*
X102395712Y-72733501D01*
X102359397Y-72645827D01*
X102359390Y-72645814D01*
X102271789Y-72514711D01*
X102271786Y-72514707D01*
X102160292Y-72403213D01*
X102160288Y-72403210D01*
X102029185Y-72315609D01*
X102029172Y-72315602D01*
X101883501Y-72255264D01*
X101883489Y-72255261D01*
X101728845Y-72224500D01*
X101728842Y-72224500D01*
X101571158Y-72224500D01*
X101571155Y-72224500D01*
X101416510Y-72255261D01*
X101416498Y-72255264D01*
X101270827Y-72315602D01*
X101270814Y-72315609D01*
X101139711Y-72403210D01*
X101139707Y-72403213D01*
X101028213Y-72514707D01*
X101028210Y-72514711D01*
X100940609Y-72645814D01*
X100940602Y-72645827D01*
X100880264Y-72791498D01*
X100880261Y-72791510D01*
X100849500Y-72946153D01*
X100849500Y-73103846D01*
X100880261Y-73258489D01*
X100880264Y-73258501D01*
X100940602Y-73404172D01*
X100940609Y-73404185D01*
X101028602Y-73535874D01*
X101049480Y-73602551D01*
X101049500Y-73604765D01*
X101049500Y-75627589D01*
X101029815Y-75694628D01*
X101013181Y-75715270D01*
X100997300Y-75731150D01*
X100997297Y-75731154D01*
X100909696Y-75862257D01*
X100909689Y-75862270D01*
X100849351Y-76007941D01*
X100849348Y-76007953D01*
X100818587Y-76162596D01*
X91918271Y-76162596D01*
X91918271Y-63093850D01*
X91898406Y-62993987D01*
X91894729Y-62975500D01*
X91889430Y-62948859D01*
X91840305Y-62830263D01*
X91832855Y-62812276D01*
X91764183Y-62709501D01*
X91764109Y-62709390D01*
X91750725Y-62689358D01*
X91750723Y-62689356D01*
X90746071Y-61684703D01*
X90719191Y-61644475D01*
X90709394Y-61620821D01*
X90697561Y-61603111D01*
X90621789Y-61489710D01*
X90510292Y-61378213D01*
X90510288Y-61378210D01*
X90379185Y-61290609D01*
X90379172Y-61290602D01*
X90233501Y-61230264D01*
X90233489Y-61230261D01*
X90078845Y-61199500D01*
X90078842Y-61199500D01*
X89921158Y-61199500D01*
X89921155Y-61199500D01*
X89766510Y-61230261D01*
X89766498Y-61230264D01*
X89620827Y-61290602D01*
X89620814Y-61290609D01*
X89489711Y-61378210D01*
X89489708Y-61378212D01*
X89488798Y-61379123D01*
X89488204Y-61379446D01*
X89485001Y-61382076D01*
X89484502Y-61381468D01*
X89427471Y-61412602D01*
X89357780Y-61407611D01*
X89301851Y-61365734D01*
X89279508Y-61315624D01*
X89269738Y-61266509D01*
X89269737Y-61266503D01*
X89257985Y-61238131D01*
X89209397Y-61120827D01*
X89209390Y-61120814D01*
X89121789Y-60989711D01*
X89121786Y-60989707D01*
X89010292Y-60878213D01*
X89010288Y-60878210D01*
X88879185Y-60790609D01*
X88879172Y-60790602D01*
X88733501Y-60730264D01*
X88733489Y-60730261D01*
X88578845Y-60699500D01*
X88578842Y-60699500D01*
X88421158Y-60699500D01*
X88421155Y-60699500D01*
X88266510Y-60730261D01*
X88266498Y-60730264D01*
X88120827Y-60790602D01*
X88120814Y-60790609D01*
X87989711Y-60878210D01*
X87989707Y-60878213D01*
X87946259Y-60921662D01*
X87884936Y-60955147D01*
X87815244Y-60950163D01*
X87770897Y-60921662D01*
X87587590Y-60738355D01*
X87587588Y-60738352D01*
X87468717Y-60619481D01*
X87468716Y-60619480D01*
X87381904Y-60569360D01*
X87381904Y-60569359D01*
X87381900Y-60569358D01*
X87331785Y-60540423D01*
X87179057Y-60499499D01*
X87020943Y-60499499D01*
X87013347Y-60499499D01*
X87013331Y-60499500D01*
X82861230Y-60499500D01*
X82794191Y-60479815D01*
X82748436Y-60427011D01*
X82738492Y-60357853D01*
X82767517Y-60294297D01*
X82773549Y-60287819D01*
X85299549Y-57761819D01*
X85360872Y-57728334D01*
X85387230Y-57725500D01*
X99787770Y-57725500D01*
X99854809Y-57745185D01*
X99875451Y-57761819D01*
X103456008Y-61342376D01*
X106901452Y-64787819D01*
X106934937Y-64849142D01*
X106929953Y-64918834D01*
X106888081Y-64974767D01*
X106822617Y-64999184D01*
X106813771Y-64999500D01*
X100352730Y-64999500D01*
X100332516Y-64993564D01*
X100311477Y-64992437D01*
X100299662Y-64983917D01*
X100285691Y-64979815D01*
X100271895Y-64963894D01*
X100254805Y-64951570D01*
X100249472Y-64938016D01*
X100239936Y-64927011D01*
X100236937Y-64906156D01*
X100229224Y-64886552D01*
X100230553Y-64861755D01*
X100229992Y-64857853D01*
X100231113Y-64851309D01*
X100250638Y-64753150D01*
X100283023Y-64691239D01*
X100284514Y-64689720D01*
X100706520Y-64267716D01*
X100785577Y-64130784D01*
X100826501Y-63978057D01*
X100826501Y-63819942D01*
X100826501Y-63812347D01*
X100826500Y-63812329D01*
X100826500Y-61532159D01*
X100826501Y-61532146D01*
X100826501Y-61364045D01*
X100826501Y-61364043D01*
X100785577Y-61211315D01*
X100759297Y-61165798D01*
X100742685Y-61103798D01*
X100742685Y-61080440D01*
X100742684Y-61080438D01*
X100717762Y-60955147D01*
X100711922Y-60925788D01*
X100692215Y-60878210D01*
X100651582Y-60780112D01*
X100651575Y-60780099D01*
X100563974Y-60648996D01*
X100563971Y-60648992D01*
X100452477Y-60537498D01*
X100452473Y-60537495D01*
X100321370Y-60449894D01*
X100321357Y-60449887D01*
X100175686Y-60389549D01*
X100175674Y-60389546D01*
X100021030Y-60358785D01*
X100021027Y-60358785D01*
X99863343Y-60358785D01*
X99863340Y-60358785D01*
X99708695Y-60389546D01*
X99708683Y-60389549D01*
X99563012Y-60449887D01*
X99562999Y-60449894D01*
X99431896Y-60537495D01*
X99431892Y-60537498D01*
X99320398Y-60648992D01*
X99320395Y-60648996D01*
X99232794Y-60780099D01*
X99232787Y-60780112D01*
X99172449Y-60925783D01*
X99172446Y-60925795D01*
X99141685Y-61080438D01*
X99141685Y-61238131D01*
X99172446Y-61392774D01*
X99172449Y-61392786D01*
X99221698Y-61511685D01*
X99229167Y-61581154D01*
X99197891Y-61643633D01*
X99176029Y-61662239D01*
X99114707Y-61703213D01*
X99003213Y-61814707D01*
X99003210Y-61814711D01*
X98915609Y-61945814D01*
X98915602Y-61945827D01*
X98855264Y-62091498D01*
X98855261Y-62091508D01*
X98824361Y-62246850D01*
X98791976Y-62308761D01*
X98790425Y-62310339D01*
X98316714Y-62784049D01*
X98255391Y-62817534D01*
X98253225Y-62817985D01*
X98191508Y-62830261D01*
X98191498Y-62830264D01*
X98045827Y-62890602D01*
X98045814Y-62890609D01*
X97914711Y-62978210D01*
X97914707Y-62978213D01*
X97803213Y-63089707D01*
X97803210Y-63089711D01*
X97715609Y-63220814D01*
X97715602Y-63220827D01*
X97655264Y-63366498D01*
X97655261Y-63366510D01*
X97624500Y-63521153D01*
X97624500Y-63678846D01*
X97655261Y-63833489D01*
X97655264Y-63833501D01*
X97715602Y-63979172D01*
X97715609Y-63979185D01*
X97803210Y-64110288D01*
X97803213Y-64110292D01*
X97914707Y-64221786D01*
X97914711Y-64221789D01*
X98045814Y-64309390D01*
X98045827Y-64309397D01*
X98129346Y-64343991D01*
X98191503Y-64369737D01*
X98306136Y-64392539D01*
X98346153Y-64400499D01*
X98346156Y-64400500D01*
X98346158Y-64400500D01*
X98503842Y-64400500D01*
X98514006Y-64398478D01*
X98583598Y-64404704D01*
X98638776Y-64447566D01*
X98662022Y-64513455D01*
X98659817Y-64544286D01*
X98649500Y-64596153D01*
X98649500Y-64596158D01*
X98649500Y-64753842D01*
X98649500Y-64753844D01*
X98649499Y-64753844D01*
X98668887Y-64851308D01*
X98662660Y-64920900D01*
X98619797Y-64976077D01*
X98553907Y-64999322D01*
X98547270Y-64999500D01*
X97554766Y-64999500D01*
X97487727Y-64979815D01*
X97485875Y-64978602D01*
X97354185Y-64890609D01*
X97354172Y-64890602D01*
X97208501Y-64830264D01*
X97208489Y-64830261D01*
X97053845Y-64799500D01*
X97053842Y-64799500D01*
X96896158Y-64799500D01*
X96896155Y-64799500D01*
X96741510Y-64830261D01*
X96741498Y-64830264D01*
X96595827Y-64890602D01*
X96595814Y-64890609D01*
X96464711Y-64978210D01*
X96464707Y-64978213D01*
X96353213Y-65089707D01*
X96353210Y-65089711D01*
X96265609Y-65220814D01*
X96265602Y-65220827D01*
X96205264Y-65366498D01*
X96205261Y-65366510D01*
X96174500Y-65521153D01*
X96174500Y-65678846D01*
X96205261Y-65833489D01*
X96205264Y-65833501D01*
X96265602Y-65979172D01*
X96265609Y-65979185D01*
X96353210Y-66110288D01*
X96353213Y-66110292D01*
X96464707Y-66221786D01*
X96464711Y-66221789D01*
X96595814Y-66309390D01*
X96595827Y-66309397D01*
X96675447Y-66342376D01*
X96741503Y-66369737D01*
X96891030Y-66399480D01*
X96896153Y-66400499D01*
X96896156Y-66400500D01*
X96896158Y-66400500D01*
X96922071Y-66400500D01*
X96989110Y-66420185D01*
X97034865Y-66472989D01*
X97043688Y-66500308D01*
X97055261Y-66558491D01*
X97055264Y-66558501D01*
X97115602Y-66704172D01*
X97115609Y-66704185D01*
X97203210Y-66835288D01*
X97203213Y-66835292D01*
X97314707Y-66946786D01*
X97314711Y-66946789D01*
X97445814Y-67034390D01*
X97445827Y-67034397D01*
X97564613Y-67083599D01*
X97591503Y-67094737D01*
X97746153Y-67125499D01*
X97746156Y-67125500D01*
X97746158Y-67125500D01*
X97903844Y-67125500D01*
X97903845Y-67125499D01*
X98058497Y-67094737D01*
X98204179Y-67034394D01*
X98271929Y-66989125D01*
X98335875Y-66946398D01*
X98402553Y-66925520D01*
X98404766Y-66925500D01*
X108049903Y-66925500D01*
X108116942Y-66945185D01*
X108137583Y-66961818D01*
X110981284Y-69805520D01*
X110981286Y-69805521D01*
X110981290Y-69805524D01*
X111102395Y-69875443D01*
X111118216Y-69884577D01*
X111270943Y-69925501D01*
X111270945Y-69925501D01*
X111436654Y-69925501D01*
X111436670Y-69925500D01*
X124407803Y-69925500D01*
X124474842Y-69945185D01*
X124495484Y-69961819D01*
X131004631Y-76470966D01*
X131038116Y-76532289D01*
X131040950Y-76558647D01*
X131040950Y-87432280D01*
X131040949Y-87432298D01*
X131040949Y-87598004D01*
X131040948Y-87598004D01*
X131081873Y-87750737D01*
X131086139Y-87758124D01*
X131086142Y-87758129D01*
X131160927Y-87887662D01*
X131160931Y-87887667D01*
X131279799Y-88006535D01*
X131279805Y-88006540D01*
X138110598Y-94837334D01*
X138144083Y-94898657D01*
X138139099Y-94968349D01*
X138137478Y-94972467D01*
X138068998Y-95137792D01*
X138004517Y-95378438D01*
X137972001Y-95625424D01*
X137972000Y-95625441D01*
X137972000Y-95874558D01*
X137972001Y-95874575D01*
X137996859Y-96063394D01*
X138004518Y-96121565D01*
X138022473Y-96188574D01*
X138068998Y-96362207D01*
X138164330Y-96592361D01*
X138164337Y-96592376D01*
X138288900Y-96808126D01*
X138440560Y-97005774D01*
X138440566Y-97005781D01*
X138616718Y-97181933D01*
X138616725Y-97181939D01*
X138814373Y-97333599D01*
X139030123Y-97458162D01*
X139030138Y-97458169D01*
X139129325Y-97499253D01*
X139260293Y-97553502D01*
X139500935Y-97617982D01*
X139747935Y-97650500D01*
X139747942Y-97650500D01*
X139997058Y-97650500D01*
X139997065Y-97650500D01*
X140244065Y-97617982D01*
X140484707Y-97553502D01*
X140714873Y-97458164D01*
X140930627Y-97333599D01*
X141128276Y-97181938D01*
X141304438Y-97005776D01*
X141456099Y-96808127D01*
X141580664Y-96592373D01*
X141676002Y-96362207D01*
X141740482Y-96121565D01*
X141773000Y-95874565D01*
X141773000Y-95625435D01*
X141740482Y-95378435D01*
X141676002Y-95137793D01*
X141602565Y-94960500D01*
X141580669Y-94907638D01*
X141580662Y-94907623D01*
X141456099Y-94691873D01*
X141304439Y-94494225D01*
X141304433Y-94494218D01*
X141128281Y-94318066D01*
X141128274Y-94318060D01*
X140930626Y-94166400D01*
X140714876Y-94041837D01*
X140714861Y-94041830D01*
X140484707Y-93946498D01*
X140410066Y-93926498D01*
X140244065Y-93882018D01*
X140244064Y-93882017D01*
X140244061Y-93882017D01*
X139997075Y-93849501D01*
X139997070Y-93849500D01*
X139997065Y-93849500D01*
X139747935Y-93849500D01*
X139747929Y-93849500D01*
X139747924Y-93849501D01*
X139500938Y-93882017D01*
X139260292Y-93946498D01*
X139094967Y-94014978D01*
X139025498Y-94022447D01*
X138963019Y-93991172D01*
X138959834Y-93988098D01*
X132278269Y-87306533D01*
X132244784Y-87245210D01*
X132241950Y-87218852D01*
X132241950Y-84268047D01*
X132261635Y-84201008D01*
X132314439Y-84155253D01*
X132383597Y-84145309D01*
X132447153Y-84174334D01*
X132453631Y-84180366D01*
X138110598Y-89837333D01*
X138144083Y-89898656D01*
X138139099Y-89968348D01*
X138137478Y-89972466D01*
X138068998Y-90137792D01*
X138004517Y-90378438D01*
X137972001Y-90625424D01*
X137972000Y-90625441D01*
X137972000Y-90874558D01*
X137972001Y-90874575D01*
X138004517Y-91121561D01*
X138068998Y-91362207D01*
X138164330Y-91592361D01*
X138164337Y-91592376D01*
X138288900Y-91808126D01*
X138440560Y-92005774D01*
X138440566Y-92005781D01*
X138616718Y-92181933D01*
X138616725Y-92181939D01*
X138814373Y-92333599D01*
X139030123Y-92458162D01*
X139030138Y-92458169D01*
X139106278Y-92489707D01*
X139260293Y-92553502D01*
X139500935Y-92617982D01*
X139747935Y-92650500D01*
X139747942Y-92650500D01*
X139997058Y-92650500D01*
X139997065Y-92650500D01*
X140244065Y-92617982D01*
X140484707Y-92553502D01*
X140714873Y-92458164D01*
X140930627Y-92333599D01*
X141128276Y-92181938D01*
X141304438Y-92005776D01*
X141456099Y-91808127D01*
X141580664Y-91592373D01*
X141676002Y-91362207D01*
X141740482Y-91121565D01*
X141773000Y-90874565D01*
X141773000Y-90625435D01*
X141740482Y-90378435D01*
X141676002Y-90137793D01*
X141614609Y-89989577D01*
X141580669Y-89907638D01*
X141580662Y-89907623D01*
X141456099Y-89691873D01*
X141304439Y-89494225D01*
X141304433Y-89494218D01*
X141128281Y-89318066D01*
X141128274Y-89318060D01*
X140930626Y-89166400D01*
X140714876Y-89041837D01*
X140714861Y-89041830D01*
X140484707Y-88946498D01*
X140329779Y-88904985D01*
X140244065Y-88882018D01*
X140244064Y-88882017D01*
X140244061Y-88882017D01*
X139997075Y-88849501D01*
X139997070Y-88849500D01*
X139997065Y-88849500D01*
X139747935Y-88849500D01*
X139747929Y-88849500D01*
X139747924Y-88849501D01*
X139500938Y-88882017D01*
X139260292Y-88946498D01*
X139094966Y-89014978D01*
X139025497Y-89022447D01*
X138963018Y-88991171D01*
X138959833Y-88988098D01*
X132711819Y-82740084D01*
X132678334Y-82678761D01*
X132675500Y-82652403D01*
X132675500Y-79913729D01*
X132695185Y-79846690D01*
X132747989Y-79800935D01*
X132817147Y-79790991D01*
X132880703Y-79820016D01*
X132887181Y-79826048D01*
X138048466Y-84987333D01*
X138081951Y-85048656D01*
X138076967Y-85118348D01*
X138075346Y-85122467D01*
X138068999Y-85137788D01*
X138004517Y-85378438D01*
X137972001Y-85625424D01*
X137972000Y-85625441D01*
X137972000Y-85874558D01*
X137972001Y-85874575D01*
X138002726Y-86107959D01*
X138004518Y-86121565D01*
X138050142Y-86291836D01*
X138068998Y-86362207D01*
X138164330Y-86592361D01*
X138164337Y-86592376D01*
X138288900Y-86808126D01*
X138440560Y-87005774D01*
X138440566Y-87005781D01*
X138616718Y-87181933D01*
X138616725Y-87181939D01*
X138814373Y-87333599D01*
X139030123Y-87458162D01*
X139030138Y-87458169D01*
X139104873Y-87489125D01*
X139260293Y-87553502D01*
X139500935Y-87617982D01*
X139747935Y-87650500D01*
X139747942Y-87650500D01*
X139997058Y-87650500D01*
X139997065Y-87650500D01*
X140244065Y-87617982D01*
X140484707Y-87553502D01*
X140714873Y-87458164D01*
X140930627Y-87333599D01*
X141128276Y-87181938D01*
X141304438Y-87005776D01*
X141456099Y-86808127D01*
X141580664Y-86592373D01*
X141676002Y-86362207D01*
X141740482Y-86121565D01*
X141773000Y-85874565D01*
X141773000Y-85625435D01*
X141740482Y-85378435D01*
X141676002Y-85137793D01*
X141612884Y-84985412D01*
X141580669Y-84907638D01*
X141580662Y-84907623D01*
X141456099Y-84691873D01*
X141304439Y-84494225D01*
X141304433Y-84494218D01*
X141128281Y-84318066D01*
X141128274Y-84318060D01*
X140930626Y-84166400D01*
X140714876Y-84041837D01*
X140714861Y-84041830D01*
X140484707Y-83946498D01*
X140408077Y-83925965D01*
X140244065Y-83882018D01*
X140244064Y-83882017D01*
X140244061Y-83882017D01*
X139997075Y-83849501D01*
X139997070Y-83849500D01*
X139997065Y-83849500D01*
X139747935Y-83849500D01*
X139747929Y-83849500D01*
X139747924Y-83849501D01*
X139500938Y-83882017D01*
X139260286Y-83946500D01*
X139244962Y-83952847D01*
X139175492Y-83960313D01*
X139113014Y-83929035D01*
X139109833Y-83925965D01*
X135809309Y-80625441D01*
X137972000Y-80625441D01*
X137972000Y-80874558D01*
X137972001Y-80874575D01*
X138004517Y-81121561D01*
X138068998Y-81362207D01*
X138164330Y-81592361D01*
X138164337Y-81592376D01*
X138288900Y-81808126D01*
X138440560Y-82005774D01*
X138440566Y-82005781D01*
X138616718Y-82181933D01*
X138616725Y-82181939D01*
X138814373Y-82333599D01*
X139030123Y-82458162D01*
X139030138Y-82458169D01*
X139086653Y-82481578D01*
X139260293Y-82553502D01*
X139500935Y-82617982D01*
X139747935Y-82650500D01*
X139747942Y-82650500D01*
X139997058Y-82650500D01*
X139997065Y-82650500D01*
X140244065Y-82617982D01*
X140484707Y-82553502D01*
X140650035Y-82485020D01*
X140719501Y-82477552D01*
X140781981Y-82508827D01*
X140785166Y-82511901D01*
X143860875Y-85587610D01*
X143894360Y-85648933D01*
X143894811Y-85699483D01*
X143890500Y-85721155D01*
X143890500Y-85878846D01*
X143921261Y-86033489D01*
X143921264Y-86033501D01*
X143981602Y-86179172D01*
X143981609Y-86179185D01*
X144069210Y-86310288D01*
X144069213Y-86310292D01*
X144180707Y-86421786D01*
X144180711Y-86421789D01*
X144311814Y-86509390D01*
X144311827Y-86509397D01*
X144449683Y-86566498D01*
X144457503Y-86569737D01*
X144612153Y-86600499D01*
X144612156Y-86600500D01*
X144612158Y-86600500D01*
X144769844Y-86600500D01*
X144769845Y-86600499D01*
X144924497Y-86569737D01*
X145070179Y-86509394D01*
X145201289Y-86421789D01*
X145312789Y-86310289D01*
X145400394Y-86179179D01*
X145460737Y-86033497D01*
X145491500Y-85878842D01*
X145491500Y-85721158D01*
X145491500Y-85721155D01*
X145491499Y-85721153D01*
X145488600Y-85706578D01*
X145460737Y-85566503D01*
X145419733Y-85467510D01*
X145400397Y-85420827D01*
X145400390Y-85420814D01*
X145312789Y-85289711D01*
X145312786Y-85289707D01*
X145201292Y-85178213D01*
X145201284Y-85178207D01*
X145070183Y-85090608D01*
X145069550Y-85090270D01*
X145068399Y-85089416D01*
X145065115Y-85087222D01*
X145065222Y-85087060D01*
X145040333Y-85068598D01*
X141634401Y-81662666D01*
X141600916Y-81601343D01*
X141605900Y-81531651D01*
X141607500Y-81527583D01*
X141676002Y-81362207D01*
X141740482Y-81121565D01*
X141773000Y-80874565D01*
X141773000Y-80625435D01*
X141740482Y-80378435D01*
X141676002Y-80137793D01*
X141600085Y-79954513D01*
X141580669Y-79907638D01*
X141580662Y-79907623D01*
X141456099Y-79691873D01*
X141304439Y-79494225D01*
X141304433Y-79494218D01*
X141128281Y-79318066D01*
X141128274Y-79318060D01*
X140930626Y-79166400D01*
X140714876Y-79041837D01*
X140714861Y-79041830D01*
X140484707Y-78946498D01*
X140325528Y-78903846D01*
X140244065Y-78882018D01*
X140244064Y-78882017D01*
X140244061Y-78882017D01*
X139997075Y-78849501D01*
X139997070Y-78849500D01*
X139997065Y-78849500D01*
X139747935Y-78849500D01*
X139747929Y-78849500D01*
X139747924Y-78849501D01*
X139500938Y-78882017D01*
X139260292Y-78946498D01*
X139030138Y-79041830D01*
X139030123Y-79041837D01*
X138814373Y-79166400D01*
X138616725Y-79318060D01*
X138616718Y-79318066D01*
X138440566Y-79494218D01*
X138440560Y-79494225D01*
X138288900Y-79691873D01*
X138164337Y-79907623D01*
X138164330Y-79907638D01*
X138068998Y-80137792D01*
X138004517Y-80378438D01*
X137972001Y-80625424D01*
X137972000Y-80625441D01*
X135809309Y-80625441D01*
X133461819Y-78277951D01*
X133428334Y-78216628D01*
X133425500Y-78190270D01*
X133425500Y-75826079D01*
X133396659Y-75681092D01*
X133396657Y-75681085D01*
X133378998Y-75638454D01*
X133373608Y-75625441D01*
X137972000Y-75625441D01*
X137972000Y-75874558D01*
X137972001Y-75874575D01*
X138002184Y-76103842D01*
X138004518Y-76121565D01*
X138050142Y-76291836D01*
X138068998Y-76362207D01*
X138164330Y-76592361D01*
X138164337Y-76592376D01*
X138288900Y-76808126D01*
X138440560Y-77005774D01*
X138440566Y-77005781D01*
X138616718Y-77181933D01*
X138616725Y-77181939D01*
X138814373Y-77333599D01*
X139030123Y-77458162D01*
X139030138Y-77458169D01*
X139108007Y-77490423D01*
X139260293Y-77553502D01*
X139500935Y-77617982D01*
X139747935Y-77650500D01*
X139747942Y-77650500D01*
X139997058Y-77650500D01*
X139997065Y-77650500D01*
X140244065Y-77617982D01*
X140484707Y-77553502D01*
X140714873Y-77458164D01*
X140930627Y-77333599D01*
X141128276Y-77181938D01*
X141304438Y-77005776D01*
X141456099Y-76808127D01*
X141580664Y-76592373D01*
X141676002Y-76362207D01*
X141740482Y-76121565D01*
X141773000Y-75874565D01*
X141773000Y-75625435D01*
X141740482Y-75378435D01*
X141676002Y-75137793D01*
X141591797Y-74934504D01*
X141580669Y-74907638D01*
X141580662Y-74907623D01*
X141456099Y-74691873D01*
X141304439Y-74494225D01*
X141304433Y-74494218D01*
X141128281Y-74318066D01*
X141128274Y-74318060D01*
X140930626Y-74166400D01*
X140714876Y-74041837D01*
X140714861Y-74041830D01*
X140484707Y-73946498D01*
X140244061Y-73882017D01*
X139997075Y-73849501D01*
X139997070Y-73849500D01*
X139997065Y-73849500D01*
X139747935Y-73849500D01*
X139747929Y-73849500D01*
X139747924Y-73849501D01*
X139500938Y-73882017D01*
X139260292Y-73946498D01*
X139030138Y-74041830D01*
X139030123Y-74041837D01*
X138814373Y-74166400D01*
X138616725Y-74318060D01*
X138616718Y-74318066D01*
X138440566Y-74494218D01*
X138440560Y-74494225D01*
X138288900Y-74691873D01*
X138164337Y-74907623D01*
X138164330Y-74907638D01*
X138068998Y-75137792D01*
X138004517Y-75378438D01*
X137972001Y-75625424D01*
X137972000Y-75625441D01*
X133373608Y-75625441D01*
X133340087Y-75544511D01*
X133340080Y-75544498D01*
X133257952Y-75421585D01*
X133206102Y-75369735D01*
X133153416Y-75317049D01*
X130901861Y-73065494D01*
X128545425Y-70709057D01*
X128461809Y-70625441D01*
X137972000Y-70625441D01*
X137972000Y-70874558D01*
X137972001Y-70874575D01*
X138004517Y-71121561D01*
X138068998Y-71362207D01*
X138164330Y-71592361D01*
X138164337Y-71592376D01*
X138288900Y-71808126D01*
X138440560Y-72005774D01*
X138440566Y-72005781D01*
X138616718Y-72181933D01*
X138616725Y-72181939D01*
X138814373Y-72333599D01*
X139030123Y-72458162D01*
X139030138Y-72458169D01*
X139121022Y-72495814D01*
X139260293Y-72553502D01*
X139500935Y-72617982D01*
X139747935Y-72650500D01*
X139747942Y-72650500D01*
X139997058Y-72650500D01*
X139997065Y-72650500D01*
X140244065Y-72617982D01*
X140484707Y-72553502D01*
X140714873Y-72458164D01*
X140930627Y-72333599D01*
X141128276Y-72181938D01*
X141304438Y-72005776D01*
X141456099Y-71808127D01*
X141580664Y-71592373D01*
X141676002Y-71362207D01*
X141740482Y-71121565D01*
X141773000Y-70874565D01*
X141773000Y-70625435D01*
X141740482Y-70378435D01*
X141676002Y-70137793D01*
X141588068Y-69925501D01*
X141580669Y-69907638D01*
X141580662Y-69907623D01*
X141456099Y-69691873D01*
X141304439Y-69494225D01*
X141304433Y-69494218D01*
X141128281Y-69318066D01*
X141128274Y-69318060D01*
X140930626Y-69166400D01*
X140714876Y-69041837D01*
X140714861Y-69041830D01*
X140484707Y-68946498D01*
X140244061Y-68882017D01*
X139997075Y-68849501D01*
X139997070Y-68849500D01*
X139997065Y-68849500D01*
X139747935Y-68849500D01*
X139747929Y-68849500D01*
X139747924Y-68849501D01*
X139500938Y-68882017D01*
X139260292Y-68946498D01*
X139030138Y-69041830D01*
X139030123Y-69041837D01*
X138814373Y-69166400D01*
X138616725Y-69318060D01*
X138616718Y-69318066D01*
X138440566Y-69494218D01*
X138440560Y-69494225D01*
X138288900Y-69691873D01*
X138164337Y-69907623D01*
X138164330Y-69907638D01*
X138068998Y-70137792D01*
X138004517Y-70378438D01*
X137972001Y-70625424D01*
X137972000Y-70625441D01*
X128461809Y-70625441D01*
X125228421Y-67392052D01*
X125228414Y-67392046D01*
X125154729Y-67342812D01*
X125154729Y-67342813D01*
X125105491Y-67309913D01*
X124968917Y-67253343D01*
X124968907Y-67253340D01*
X124823920Y-67224500D01*
X124823918Y-67224500D01*
X111708562Y-67224500D01*
X111641523Y-67204815D01*
X111620881Y-67188181D01*
X108898749Y-64466049D01*
X108873981Y-64449500D01*
X108821852Y-64414669D01*
X108821851Y-64414668D01*
X108775832Y-64383919D01*
X108775820Y-64383912D01*
X108639247Y-64327342D01*
X108639239Y-64327340D01*
X108581843Y-64315923D01*
X108519932Y-64283538D01*
X108518354Y-64281987D01*
X107482854Y-63246487D01*
X107398502Y-63162135D01*
X118904500Y-63162135D01*
X118904500Y-65287870D01*
X118904501Y-65287876D01*
X118910908Y-65347483D01*
X118961202Y-65482328D01*
X118961206Y-65482335D01*
X119047452Y-65597544D01*
X119047455Y-65597547D01*
X119162664Y-65683793D01*
X119162671Y-65683797D01*
X119297517Y-65734091D01*
X119297516Y-65734091D01*
X119304444Y-65734835D01*
X119357127Y-65740500D01*
X121182872Y-65740499D01*
X121242483Y-65734091D01*
X121377331Y-65683796D01*
X121492546Y-65597546D01*
X121578796Y-65482331D01*
X121622048Y-65366365D01*
X121663917Y-65310433D01*
X121729381Y-65286015D01*
X121797654Y-65300866D01*
X121825910Y-65322018D01*
X121920437Y-65416545D01*
X122094322Y-65542880D01*
X122184928Y-65589046D01*
X122285829Y-65640458D01*
X122285832Y-65640459D01*
X122425936Y-65685981D01*
X122490245Y-65706876D01*
X122702533Y-65740500D01*
X122702534Y-65740500D01*
X122917466Y-65740500D01*
X122917467Y-65740500D01*
X123129755Y-65706876D01*
X123129758Y-65706875D01*
X123129759Y-65706875D01*
X123334167Y-65640459D01*
X123334170Y-65640458D01*
X123341314Y-65636818D01*
X123525678Y-65542880D01*
X123699563Y-65416545D01*
X123851545Y-65264563D01*
X123977880Y-65090678D01*
X123977881Y-65090675D01*
X123979990Y-65087773D01*
X124035320Y-65045107D01*
X124104933Y-65039128D01*
X124166728Y-65071734D01*
X124180626Y-65087772D01*
X124308838Y-65264239D01*
X124308838Y-65264240D01*
X124460759Y-65416161D01*
X124634583Y-65542452D01*
X124826024Y-65639996D01*
X125030359Y-65706388D01*
X125099999Y-65717418D01*
X125100000Y-65717418D01*
X125100000Y-64669560D01*
X125153147Y-64700245D01*
X125282857Y-64735000D01*
X125417143Y-64735000D01*
X125546853Y-64700245D01*
X125600000Y-64669560D01*
X125600000Y-65717418D01*
X125669638Y-65706388D01*
X125669641Y-65706388D01*
X125873975Y-65639996D01*
X126065416Y-65542452D01*
X126239240Y-65416161D01*
X126391161Y-65264240D01*
X126517452Y-65090416D01*
X126614996Y-64898975D01*
X126681388Y-64694642D01*
X126681388Y-64694639D01*
X126704295Y-64550014D01*
X137972500Y-64550014D01*
X137972500Y-65500000D01*
X139272499Y-65500000D01*
X139247479Y-65560402D01*
X139222500Y-65685981D01*
X139222500Y-65814019D01*
X139247479Y-65939598D01*
X139272499Y-66000000D01*
X137972500Y-66000000D01*
X137972500Y-66949985D01*
X137982993Y-67052689D01*
X137982994Y-67052696D01*
X138038141Y-67219118D01*
X138038143Y-67219123D01*
X138130184Y-67368344D01*
X138254155Y-67492315D01*
X138403376Y-67584356D01*
X138403381Y-67584358D01*
X138569803Y-67639505D01*
X138569810Y-67639506D01*
X138672514Y-67649999D01*
X138672527Y-67650000D01*
X139622500Y-67650000D01*
X139622500Y-66350001D01*
X139682902Y-66375021D01*
X139808481Y-66400000D01*
X139936519Y-66400000D01*
X140062098Y-66375021D01*
X140122500Y-66350001D01*
X140122500Y-67650000D01*
X141072473Y-67650000D01*
X141072485Y-67649999D01*
X141175189Y-67639506D01*
X141175196Y-67639505D01*
X141341618Y-67584358D01*
X141341623Y-67584356D01*
X141490844Y-67492315D01*
X141614815Y-67368344D01*
X141706856Y-67219123D01*
X141706858Y-67219118D01*
X141762005Y-67052696D01*
X141762006Y-67052689D01*
X141772499Y-66949985D01*
X141772500Y-66949972D01*
X141772500Y-66000000D01*
X140472501Y-66000000D01*
X140497521Y-65939598D01*
X140522500Y-65814019D01*
X140522500Y-65685981D01*
X140497521Y-65560402D01*
X140472501Y-65500000D01*
X141772500Y-65500000D01*
X141772500Y-64550027D01*
X141772499Y-64550014D01*
X141762006Y-64447310D01*
X141762005Y-64447303D01*
X141706858Y-64280881D01*
X141706856Y-64280876D01*
X141614815Y-64131655D01*
X141490844Y-64007684D01*
X141341623Y-63915643D01*
X141341618Y-63915641D01*
X141175196Y-63860494D01*
X141175189Y-63860493D01*
X141072485Y-63850000D01*
X140122500Y-63850000D01*
X140122500Y-65149998D01*
X140062098Y-65124979D01*
X139936519Y-65100000D01*
X139808481Y-65100000D01*
X139682902Y-65124979D01*
X139622500Y-65149998D01*
X139622500Y-63850000D01*
X138672514Y-63850000D01*
X138569810Y-63860493D01*
X138569803Y-63860494D01*
X138403381Y-63915641D01*
X138403376Y-63915643D01*
X138254155Y-64007684D01*
X138130184Y-64131655D01*
X138038143Y-64280876D01*
X138038141Y-64280881D01*
X137982994Y-64447303D01*
X137982993Y-64447310D01*
X137972500Y-64550014D01*
X126704295Y-64550014D01*
X126707866Y-64527467D01*
X126707866Y-64527466D01*
X126715000Y-64482425D01*
X126715000Y-64475000D01*
X125794560Y-64475000D01*
X125825245Y-64421853D01*
X125860000Y-64292143D01*
X125860000Y-64157857D01*
X125825245Y-64028147D01*
X125794560Y-63975000D01*
X126715000Y-63975000D01*
X126715000Y-63967572D01*
X126681388Y-63755360D01*
X126681388Y-63755357D01*
X126614996Y-63551024D01*
X126517452Y-63359583D01*
X126391161Y-63185759D01*
X126239240Y-63033838D01*
X126065416Y-62907547D01*
X125873975Y-62810003D01*
X125669635Y-62743610D01*
X125669636Y-62743610D01*
X125600000Y-62732581D01*
X125600000Y-63780439D01*
X125546853Y-63749755D01*
X125417143Y-63715000D01*
X125282857Y-63715000D01*
X125153147Y-63749755D01*
X125100000Y-63780439D01*
X125100000Y-62732581D01*
X125030364Y-62743610D01*
X124826024Y-62810003D01*
X124634583Y-62907547D01*
X124460759Y-63033838D01*
X124308838Y-63185759D01*
X124308838Y-63185760D01*
X124180626Y-63362227D01*
X124125296Y-63404892D01*
X124055682Y-63410871D01*
X123993887Y-63378265D01*
X123979990Y-63362226D01*
X123895900Y-63246487D01*
X123851545Y-63185437D01*
X123699563Y-63033455D01*
X123525678Y-62907120D01*
X123334170Y-62809541D01*
X123334167Y-62809540D01*
X123129757Y-62743124D01*
X122988229Y-62720708D01*
X122917467Y-62709500D01*
X122702533Y-62709500D01*
X122631770Y-62720708D01*
X122490243Y-62743124D01*
X122490240Y-62743124D01*
X122285832Y-62809540D01*
X122285829Y-62809541D01*
X122094321Y-62907120D01*
X121920438Y-63033454D01*
X121825910Y-63127982D01*
X121764586Y-63161466D01*
X121694895Y-63156482D01*
X121638962Y-63114610D01*
X121622047Y-63083632D01*
X121620260Y-63078842D01*
X121588612Y-62993987D01*
X121578798Y-62967673D01*
X121578793Y-62967664D01*
X121492547Y-62852455D01*
X121492544Y-62852452D01*
X121377335Y-62766206D01*
X121377328Y-62766202D01*
X121242482Y-62715908D01*
X121242483Y-62715908D01*
X121182883Y-62709501D01*
X121182881Y-62709500D01*
X121182873Y-62709500D01*
X121182864Y-62709500D01*
X119357129Y-62709500D01*
X119357123Y-62709501D01*
X119297516Y-62715908D01*
X119162671Y-62766202D01*
X119162664Y-62766206D01*
X119047455Y-62852452D01*
X119047452Y-62852455D01*
X118961206Y-62967664D01*
X118961202Y-62967671D01*
X118910908Y-63102517D01*
X118904501Y-63162116D01*
X118904500Y-63162135D01*
X107398502Y-63162135D01*
X104556688Y-60320321D01*
X100628416Y-56392048D01*
X100628415Y-56392047D01*
X100628413Y-56392045D01*
X100583808Y-56362243D01*
X100554070Y-56342373D01*
X100505495Y-56309916D01*
X100505494Y-56309915D01*
X100505492Y-56309914D01*
X100505490Y-56309913D01*
X100368917Y-56253343D01*
X100368907Y-56253340D01*
X100223920Y-56224500D01*
X100223918Y-56224500D01*
X84951082Y-56224500D01*
X84951080Y-56224500D01*
X84806092Y-56253340D01*
X84806082Y-56253343D01*
X84669509Y-56309913D01*
X84669507Y-56309914D01*
X84620930Y-56342373D01*
X84620928Y-56342374D01*
X84546589Y-56392043D01*
X84546584Y-56392047D01*
X81184703Y-59753927D01*
X81144480Y-59780805D01*
X81120819Y-59790606D01*
X81120818Y-59790607D01*
X80989715Y-59878207D01*
X80989707Y-59878213D01*
X80878213Y-59989707D01*
X80878210Y-59989711D01*
X80790609Y-60120814D01*
X80790602Y-60120828D01*
X80782379Y-60140679D01*
X80738537Y-60195081D01*
X80672242Y-60217143D01*
X80604543Y-60199862D01*
X80580139Y-60180903D01*
X77416424Y-57017189D01*
X77411859Y-57012373D01*
X77403196Y-57002730D01*
X77381520Y-56965184D01*
X77269716Y-56853380D01*
X77269713Y-56853378D01*
X73136819Y-52720484D01*
X73103334Y-52659161D01*
X73100500Y-52632803D01*
X73100500Y-51572483D01*
X111454500Y-51572483D01*
X111454500Y-53772501D01*
X111454501Y-53772518D01*
X111465000Y-53875296D01*
X111465001Y-53875299D01*
X111512506Y-54018657D01*
X111520186Y-54041834D01*
X111612288Y-54191156D01*
X111736344Y-54315212D01*
X111885666Y-54407314D01*
X112052203Y-54462499D01*
X112154991Y-54473000D01*
X114154902Y-54472999D01*
X114184342Y-54481643D01*
X114214329Y-54488167D01*
X114219344Y-54491921D01*
X114221941Y-54492684D01*
X114242583Y-54509318D01*
X114372639Y-54639374D01*
X114372649Y-54639385D01*
X114376979Y-54643715D01*
X114376980Y-54643716D01*
X114488784Y-54755520D01*
X114488786Y-54755521D01*
X114540419Y-54785331D01*
X114540418Y-54785331D01*
X114540421Y-54785332D01*
X114625709Y-54834574D01*
X114625710Y-54834574D01*
X114625715Y-54834577D01*
X114778442Y-54875500D01*
X114778443Y-54875500D01*
X121122270Y-54875500D01*
X121189309Y-54895185D01*
X121235064Y-54947989D01*
X121245008Y-55017147D01*
X121243887Y-55023692D01*
X121224500Y-55121155D01*
X121224500Y-55278846D01*
X121255261Y-55433489D01*
X121255264Y-55433501D01*
X121315602Y-55579172D01*
X121315609Y-55579185D01*
X121403210Y-55710288D01*
X121403213Y-55710292D01*
X121514707Y-55821786D01*
X121514711Y-55821789D01*
X121645814Y-55909390D01*
X121645827Y-55909397D01*
X121791498Y-55969735D01*
X121791503Y-55969737D01*
X121946153Y-56000499D01*
X121946156Y-56000500D01*
X121946158Y-56000500D01*
X122103844Y-56000500D01*
X122103845Y-56000499D01*
X122258497Y-55969737D01*
X122404179Y-55909394D01*
X122535289Y-55821789D01*
X122646789Y-55710289D01*
X122734394Y-55579179D01*
X122794737Y-55433497D01*
X122814113Y-55336085D01*
X122825638Y-55278150D01*
X122858023Y-55216239D01*
X122859462Y-55214772D01*
X123162418Y-54911816D01*
X123223740Y-54878334D01*
X123250098Y-54875500D01*
X128978331Y-54875500D01*
X128978347Y-54875501D01*
X128985943Y-54875501D01*
X129144054Y-54875501D01*
X129144057Y-54875501D01*
X129296785Y-54834577D01*
X129382081Y-54785331D01*
X129433716Y-54755520D01*
X129545520Y-54643716D01*
X129545520Y-54643714D01*
X129555724Y-54633511D01*
X129555728Y-54633506D01*
X129852416Y-54336818D01*
X129913739Y-54303333D01*
X129940097Y-54300499D01*
X131940002Y-54300499D01*
X131940008Y-54300499D01*
X132042797Y-54289999D01*
X132209334Y-54234814D01*
X132358656Y-54142712D01*
X132482712Y-54018656D01*
X132574814Y-53869334D01*
X132629999Y-53702797D01*
X132640500Y-53600009D01*
X132640499Y-52381995D01*
X134119500Y-52381995D01*
X134119500Y-52618004D01*
X134119501Y-52618020D01*
X134150306Y-52852010D01*
X134211394Y-53079993D01*
X134301714Y-53298045D01*
X134301719Y-53298056D01*
X134360521Y-53399902D01*
X134419727Y-53502450D01*
X134419729Y-53502453D01*
X134419730Y-53502454D01*
X134563406Y-53689697D01*
X134563412Y-53689704D01*
X134730295Y-53856587D01*
X134730302Y-53856593D01*
X134754678Y-53875297D01*
X134917550Y-54000273D01*
X135034961Y-54068060D01*
X135121943Y-54118280D01*
X135121948Y-54118282D01*
X135121951Y-54118284D01*
X135340007Y-54208606D01*
X135567986Y-54269693D01*
X135801989Y-54300500D01*
X135801996Y-54300500D01*
X136038004Y-54300500D01*
X136038011Y-54300500D01*
X136272014Y-54269693D01*
X136499993Y-54208606D01*
X136718049Y-54118284D01*
X136922450Y-54000273D01*
X137109699Y-53856592D01*
X137276592Y-53689699D01*
X137420273Y-53502450D01*
X137538284Y-53298049D01*
X137628606Y-53079993D01*
X137689693Y-52852014D01*
X137720500Y-52618011D01*
X137720500Y-52381995D01*
X139199500Y-52381995D01*
X139199500Y-52618004D01*
X139199501Y-52618020D01*
X139230306Y-52852010D01*
X139291394Y-53079993D01*
X139381714Y-53298045D01*
X139381719Y-53298056D01*
X139440521Y-53399902D01*
X139499727Y-53502450D01*
X139499729Y-53502453D01*
X139499730Y-53502454D01*
X139643406Y-53689697D01*
X139643412Y-53689704D01*
X139810295Y-53856587D01*
X139810302Y-53856593D01*
X139834678Y-53875297D01*
X139997550Y-54000273D01*
X140114961Y-54068060D01*
X140201943Y-54118280D01*
X140201948Y-54118282D01*
X140201951Y-54118284D01*
X140420007Y-54208606D01*
X140647986Y-54269693D01*
X140881989Y-54300500D01*
X140881996Y-54300500D01*
X141118004Y-54300500D01*
X141118011Y-54300500D01*
X141352014Y-54269693D01*
X141579993Y-54208606D01*
X141798049Y-54118284D01*
X142002450Y-54000273D01*
X142189699Y-53856592D01*
X142356592Y-53689699D01*
X142500273Y-53502450D01*
X142618284Y-53298049D01*
X142708606Y-53079993D01*
X142769693Y-52852014D01*
X142800500Y-52618011D01*
X142800500Y-52381989D01*
X142769693Y-52147986D01*
X142708606Y-51920007D01*
X142618284Y-51701951D01*
X142618282Y-51701948D01*
X142618280Y-51701943D01*
X142543544Y-51572498D01*
X142500273Y-51497550D01*
X142381202Y-51342373D01*
X142356593Y-51310302D01*
X142356587Y-51310295D01*
X142189704Y-51143412D01*
X142189697Y-51143406D01*
X142002454Y-50999730D01*
X142002453Y-50999729D01*
X142002450Y-50999727D01*
X141894992Y-50937686D01*
X141798056Y-50881719D01*
X141798045Y-50881714D01*
X141579993Y-50791394D01*
X141352010Y-50730306D01*
X141118020Y-50699501D01*
X141118017Y-50699500D01*
X141118011Y-50699500D01*
X140881989Y-50699500D01*
X140881983Y-50699500D01*
X140881979Y-50699501D01*
X140647989Y-50730306D01*
X140420006Y-50791394D01*
X140201954Y-50881714D01*
X140201943Y-50881719D01*
X139997545Y-50999730D01*
X139810302Y-51143406D01*
X139810295Y-51143412D01*
X139643412Y-51310295D01*
X139643406Y-51310302D01*
X139499730Y-51497545D01*
X139381719Y-51701943D01*
X139381714Y-51701954D01*
X139291394Y-51920006D01*
X139230306Y-52147989D01*
X139199501Y-52381979D01*
X139199500Y-52381995D01*
X137720500Y-52381995D01*
X137720500Y-52381989D01*
X137689693Y-52147986D01*
X137628606Y-51920007D01*
X137538284Y-51701951D01*
X137538282Y-51701948D01*
X137538280Y-51701943D01*
X137463544Y-51572498D01*
X137420273Y-51497550D01*
X137301202Y-51342373D01*
X137276593Y-51310302D01*
X137276587Y-51310295D01*
X137109704Y-51143412D01*
X137109697Y-51143406D01*
X136922454Y-50999730D01*
X136922453Y-50999729D01*
X136922450Y-50999727D01*
X136814992Y-50937686D01*
X136718056Y-50881719D01*
X136718045Y-50881714D01*
X136499993Y-50791394D01*
X136272010Y-50730306D01*
X136038020Y-50699501D01*
X136038017Y-50699500D01*
X136038011Y-50699500D01*
X135801989Y-50699500D01*
X135801983Y-50699500D01*
X135801979Y-50699501D01*
X135567989Y-50730306D01*
X135340006Y-50791394D01*
X135121954Y-50881714D01*
X135121943Y-50881719D01*
X134917545Y-50999730D01*
X134730302Y-51143406D01*
X134730295Y-51143412D01*
X134563412Y-51310295D01*
X134563406Y-51310302D01*
X134419730Y-51497545D01*
X134301719Y-51701943D01*
X134301714Y-51701954D01*
X134211394Y-51920006D01*
X134150306Y-52147989D01*
X134119501Y-52381979D01*
X134119500Y-52381995D01*
X132640499Y-52381995D01*
X132640499Y-51399992D01*
X132634613Y-51342376D01*
X132629999Y-51297203D01*
X132629998Y-51297200D01*
X132618554Y-51262665D01*
X132574814Y-51130666D01*
X132482712Y-50981344D01*
X132358656Y-50857288D01*
X132209334Y-50765186D01*
X132042797Y-50710001D01*
X132042795Y-50710000D01*
X131940010Y-50699500D01*
X129739998Y-50699500D01*
X129739981Y-50699501D01*
X129637203Y-50710000D01*
X129637200Y-50710001D01*
X129470668Y-50765185D01*
X129470663Y-50765187D01*
X129321342Y-50857289D01*
X129197289Y-50981342D01*
X129105187Y-51130663D01*
X129105185Y-51130668D01*
X129091414Y-51172227D01*
X129050001Y-51297203D01*
X129050001Y-51297204D01*
X129050000Y-51297204D01*
X129039500Y-51399983D01*
X129039500Y-53399902D01*
X129030855Y-53429342D01*
X129024332Y-53459329D01*
X129020577Y-53464344D01*
X129019815Y-53466941D01*
X129003185Y-53487578D01*
X128852582Y-53638182D01*
X128791261Y-53671666D01*
X128764903Y-53674500D01*
X125130307Y-53674500D01*
X125063268Y-53654815D01*
X125017513Y-53602011D01*
X125007569Y-53532853D01*
X125022920Y-53488500D01*
X125023449Y-53487583D01*
X125033284Y-53470549D01*
X125123606Y-53252493D01*
X125184693Y-53024514D01*
X125215500Y-52790511D01*
X125215500Y-52554489D01*
X125184693Y-52320486D01*
X125123606Y-52092507D01*
X125033284Y-51874451D01*
X125033282Y-51874448D01*
X125033280Y-51874443D01*
X124991118Y-51801418D01*
X124915273Y-51670050D01*
X124782909Y-51497550D01*
X124771593Y-51482802D01*
X124771587Y-51482795D01*
X124604704Y-51315912D01*
X124604697Y-51315906D01*
X124417454Y-51172230D01*
X124417453Y-51172229D01*
X124417450Y-51172227D01*
X124313496Y-51112209D01*
X124213056Y-51054219D01*
X124213045Y-51054214D01*
X123994993Y-50963894D01*
X123767010Y-50902806D01*
X123533020Y-50872001D01*
X123533017Y-50872000D01*
X123533011Y-50872000D01*
X123296989Y-50872000D01*
X123296983Y-50872000D01*
X123296979Y-50872001D01*
X123062989Y-50902806D01*
X122835006Y-50963894D01*
X122616954Y-51054214D01*
X122616943Y-51054219D01*
X122412545Y-51172230D01*
X122225302Y-51315906D01*
X122225295Y-51315912D01*
X122058412Y-51482795D01*
X122058406Y-51482802D01*
X121914730Y-51670045D01*
X121796719Y-51874443D01*
X121796714Y-51874454D01*
X121706394Y-52092506D01*
X121645306Y-52320489D01*
X121614501Y-52554479D01*
X121614500Y-52554495D01*
X121614500Y-52790504D01*
X121614501Y-52790520D01*
X121645306Y-53024510D01*
X121706394Y-53252493D01*
X121796713Y-53470542D01*
X121796717Y-53470551D01*
X121807080Y-53488500D01*
X121823553Y-53556400D01*
X121800700Y-53622427D01*
X121745779Y-53665618D01*
X121699693Y-53674500D01*
X120050307Y-53674500D01*
X119983268Y-53654815D01*
X119937513Y-53602011D01*
X119927569Y-53532853D01*
X119942920Y-53488500D01*
X119943449Y-53487583D01*
X119953284Y-53470549D01*
X120043606Y-53252493D01*
X120104693Y-53024514D01*
X120135500Y-52790511D01*
X120135500Y-52554489D01*
X120104693Y-52320486D01*
X120043606Y-52092507D01*
X119953284Y-51874451D01*
X119953282Y-51874448D01*
X119953280Y-51874443D01*
X119911118Y-51801418D01*
X119835273Y-51670050D01*
X119702909Y-51497550D01*
X119691593Y-51482802D01*
X119691587Y-51482795D01*
X119524704Y-51315912D01*
X119524697Y-51315906D01*
X119337454Y-51172230D01*
X119337453Y-51172229D01*
X119337450Y-51172227D01*
X119233496Y-51112209D01*
X119133056Y-51054219D01*
X119133045Y-51054214D01*
X118914993Y-50963894D01*
X118687010Y-50902806D01*
X118453020Y-50872001D01*
X118453017Y-50872000D01*
X118453011Y-50872000D01*
X118216989Y-50872000D01*
X118216983Y-50872000D01*
X118216979Y-50872001D01*
X117982989Y-50902806D01*
X117755006Y-50963894D01*
X117536954Y-51054214D01*
X117536943Y-51054219D01*
X117332545Y-51172230D01*
X117145302Y-51315906D01*
X117145295Y-51315912D01*
X116978412Y-51482795D01*
X116978406Y-51482802D01*
X116834730Y-51670045D01*
X116716719Y-51874443D01*
X116716714Y-51874454D01*
X116626394Y-52092506D01*
X116565306Y-52320489D01*
X116534501Y-52554479D01*
X116534500Y-52554495D01*
X116534500Y-52790504D01*
X116534501Y-52790520D01*
X116565306Y-53024510D01*
X116626394Y-53252493D01*
X116716713Y-53470542D01*
X116716717Y-53470551D01*
X116727080Y-53488500D01*
X116743553Y-53556400D01*
X116720700Y-53622427D01*
X116665779Y-53665618D01*
X116619693Y-53674500D01*
X115179499Y-53674500D01*
X115112460Y-53654815D01*
X115066705Y-53602011D01*
X115055499Y-53550500D01*
X115055499Y-51572498D01*
X115055498Y-51572481D01*
X115044999Y-51469703D01*
X115044998Y-51469700D01*
X115021899Y-51399992D01*
X114989814Y-51303166D01*
X114897712Y-51153844D01*
X114773656Y-51029788D01*
X114624334Y-50937686D01*
X114457797Y-50882501D01*
X114457795Y-50882500D01*
X114355010Y-50872000D01*
X112154998Y-50872000D01*
X112154981Y-50872001D01*
X112052203Y-50882500D01*
X112052200Y-50882501D01*
X111885668Y-50937685D01*
X111885663Y-50937687D01*
X111736342Y-51029789D01*
X111612289Y-51153842D01*
X111520187Y-51303163D01*
X111520185Y-51303168D01*
X111515962Y-51315912D01*
X111465001Y-51469703D01*
X111465001Y-51469704D01*
X111465000Y-51469704D01*
X111454500Y-51572483D01*
X73100500Y-51572483D01*
X73100500Y-48420945D01*
X73100500Y-48420943D01*
X73059577Y-48268216D01*
X73059573Y-48268209D01*
X72980524Y-48131290D01*
X72980521Y-48131286D01*
X72980520Y-48131284D01*
X72868716Y-48019480D01*
X72868715Y-48019479D01*
X72864385Y-48015149D01*
X72864374Y-48015139D01*
X66261901Y-41412666D01*
X66228416Y-41351343D01*
X66233400Y-41281651D01*
X66235000Y-41277583D01*
X66303502Y-41112207D01*
X66367982Y-40871565D01*
X66400500Y-40624565D01*
X66400500Y-40375435D01*
X66367982Y-40128435D01*
X66303502Y-39887793D01*
X66208164Y-39657627D01*
X66083599Y-39441873D01*
X65931938Y-39244224D01*
X65931934Y-39244219D01*
X65852901Y-39165186D01*
X72417948Y-39165186D01*
X72417948Y-39434813D01*
X72448134Y-39702719D01*
X72448136Y-39702731D01*
X72508132Y-39965594D01*
X72508135Y-39965602D01*
X72597182Y-40220082D01*
X72714162Y-40462994D01*
X72714164Y-40462997D01*
X72857610Y-40691289D01*
X73025714Y-40902085D01*
X73216363Y-41092734D01*
X73427159Y-41260838D01*
X73655451Y-41404284D01*
X73898369Y-41521267D01*
X74089497Y-41588145D01*
X74152845Y-41610312D01*
X74152853Y-41610315D01*
X74152856Y-41610315D01*
X74152857Y-41610316D01*
X74415716Y-41670312D01*
X74683635Y-41700499D01*
X74683636Y-41700500D01*
X74683639Y-41700500D01*
X74953260Y-41700500D01*
X74953260Y-41700499D01*
X75221180Y-41670312D01*
X75484039Y-41610316D01*
X75738527Y-41521267D01*
X75981445Y-41404284D01*
X76209737Y-41260838D01*
X76420533Y-41092734D01*
X76611182Y-40902085D01*
X76779286Y-40691289D01*
X76922732Y-40462997D01*
X77039715Y-40220079D01*
X77128764Y-39965591D01*
X77188760Y-39702732D01*
X77218948Y-39434809D01*
X77218948Y-39165191D01*
X77218947Y-39165186D01*
X137924500Y-39165186D01*
X137924500Y-39434813D01*
X137954686Y-39702719D01*
X137954688Y-39702731D01*
X138014684Y-39965594D01*
X138014687Y-39965602D01*
X138103734Y-40220082D01*
X138220714Y-40462994D01*
X138220716Y-40462997D01*
X138364162Y-40691289D01*
X138532266Y-40902085D01*
X138722915Y-41092734D01*
X138933711Y-41260838D01*
X139162003Y-41404284D01*
X139404921Y-41521267D01*
X139596049Y-41588145D01*
X139659397Y-41610312D01*
X139659405Y-41610315D01*
X139659408Y-41610315D01*
X139659409Y-41610316D01*
X139922268Y-41670312D01*
X140190187Y-41700499D01*
X140190188Y-41700500D01*
X140190191Y-41700500D01*
X140459812Y-41700500D01*
X140459812Y-41700499D01*
X140727732Y-41670312D01*
X140990591Y-41610316D01*
X141245079Y-41521267D01*
X141487997Y-41404284D01*
X141716289Y-41260838D01*
X141927085Y-41092734D01*
X142117734Y-40902085D01*
X142285838Y-40691289D01*
X142429284Y-40462997D01*
X142546267Y-40220079D01*
X142635316Y-39965591D01*
X142695312Y-39702732D01*
X142725500Y-39434809D01*
X142725500Y-39165191D01*
X142695312Y-38897268D01*
X142635316Y-38634409D01*
X142634479Y-38632018D01*
X142613145Y-38571049D01*
X142546267Y-38379921D01*
X142429284Y-38137003D01*
X142285838Y-37908711D01*
X142117734Y-37697915D01*
X141927085Y-37507266D01*
X141716289Y-37339162D01*
X141487997Y-37195716D01*
X141487994Y-37195714D01*
X141245082Y-37078734D01*
X140990602Y-36989687D01*
X140990594Y-36989684D01*
X140793446Y-36944687D01*
X140727732Y-36929688D01*
X140727728Y-36929687D01*
X140727719Y-36929686D01*
X140459813Y-36899500D01*
X140459809Y-36899500D01*
X140190191Y-36899500D01*
X140190186Y-36899500D01*
X139922280Y-36929686D01*
X139922268Y-36929688D01*
X139659405Y-36989684D01*
X139659397Y-36989687D01*
X139404917Y-37078734D01*
X139162005Y-37195714D01*
X138933712Y-37339161D01*
X138722915Y-37507265D01*
X138532265Y-37697915D01*
X138364161Y-37908712D01*
X138220714Y-38137005D01*
X138103734Y-38379917D01*
X138014687Y-38634397D01*
X138014684Y-38634405D01*
X137954688Y-38897268D01*
X137954686Y-38897280D01*
X137924500Y-39165186D01*
X77218947Y-39165186D01*
X77188760Y-38897268D01*
X77128764Y-38634409D01*
X77127927Y-38632018D01*
X77106593Y-38571049D01*
X77039715Y-38379921D01*
X76922732Y-38137003D01*
X76779286Y-37908711D01*
X76611182Y-37697915D01*
X76420533Y-37507266D01*
X76209737Y-37339162D01*
X75981445Y-37195716D01*
X75981442Y-37195714D01*
X75738530Y-37078734D01*
X75484050Y-36989687D01*
X75484042Y-36989684D01*
X75286894Y-36944687D01*
X75221180Y-36929688D01*
X75221176Y-36929687D01*
X75221167Y-36929686D01*
X74953261Y-36899500D01*
X74953257Y-36899500D01*
X74683639Y-36899500D01*
X74683634Y-36899500D01*
X74415728Y-36929686D01*
X74415716Y-36929688D01*
X74152853Y-36989684D01*
X74152845Y-36989687D01*
X73898365Y-37078734D01*
X73655453Y-37195714D01*
X73427160Y-37339161D01*
X73216363Y-37507265D01*
X73025713Y-37697915D01*
X72857609Y-37908712D01*
X72714162Y-38137005D01*
X72597182Y-38379917D01*
X72508135Y-38634397D01*
X72508132Y-38634405D01*
X72448136Y-38897268D01*
X72448134Y-38897280D01*
X72417948Y-39165186D01*
X65852901Y-39165186D01*
X65755781Y-39068066D01*
X65755774Y-39068060D01*
X65558126Y-38916400D01*
X65342376Y-38791837D01*
X65342361Y-38791830D01*
X65112207Y-38696498D01*
X64880473Y-38634405D01*
X64871565Y-38632018D01*
X64871564Y-38632017D01*
X64871561Y-38632017D01*
X64624575Y-38599501D01*
X64624570Y-38599500D01*
X64624565Y-38599500D01*
X64375435Y-38599500D01*
X64375429Y-38599500D01*
X64375424Y-38599501D01*
X64128438Y-38632017D01*
X63887792Y-38696498D01*
X63657638Y-38791830D01*
X63657623Y-38791837D01*
X63441873Y-38916400D01*
X63244225Y-39068060D01*
X63244218Y-39068066D01*
X63068066Y-39244218D01*
X63068060Y-39244225D01*
X62916400Y-39441873D01*
X62791837Y-39657623D01*
X62791830Y-39657638D01*
X62696498Y-39887792D01*
X62632017Y-40128438D01*
X62599501Y-40375424D01*
X62599500Y-40375441D01*
X62599500Y-40624558D01*
X62599501Y-40624575D01*
X62632017Y-40871561D01*
X62696498Y-41112207D01*
X62791830Y-41342361D01*
X62791837Y-41342376D01*
X62916400Y-41558126D01*
X63068060Y-41755774D01*
X63068066Y-41755781D01*
X63244218Y-41931933D01*
X63244225Y-41931939D01*
X63441873Y-42083599D01*
X63657623Y-42208162D01*
X63657638Y-42208169D01*
X63722465Y-42235021D01*
X63887793Y-42303502D01*
X64128435Y-42367982D01*
X64375435Y-42400500D01*
X64375442Y-42400500D01*
X64624558Y-42400500D01*
X64624565Y-42400500D01*
X64871565Y-42367982D01*
X65112207Y-42303502D01*
X65277535Y-42235020D01*
X65347001Y-42227552D01*
X65409481Y-42258827D01*
X65412666Y-42261901D01*
X71863181Y-48712416D01*
X71896666Y-48773739D01*
X71899500Y-48800097D01*
X71899500Y-51750902D01*
X71879815Y-51817941D01*
X71827011Y-51863696D01*
X71757853Y-51873640D01*
X71694297Y-51844615D01*
X71687819Y-51838583D01*
X66261901Y-46412666D01*
X66228416Y-46351343D01*
X66233400Y-46281651D01*
X66235000Y-46277583D01*
X66303502Y-46112207D01*
X66367982Y-45871565D01*
X66400500Y-45624565D01*
X66400500Y-45375435D01*
X66367982Y-45128435D01*
X66303502Y-44887793D01*
X66208164Y-44657627D01*
X66083599Y-44441873D01*
X65931938Y-44244224D01*
X65931933Y-44244218D01*
X65755781Y-44068066D01*
X65755774Y-44068060D01*
X65558126Y-43916400D01*
X65342376Y-43791837D01*
X65342361Y-43791830D01*
X65112207Y-43696498D01*
X64871561Y-43632017D01*
X64624575Y-43599501D01*
X64624570Y-43599500D01*
X64624565Y-43599500D01*
X64375435Y-43599500D01*
X64375429Y-43599500D01*
X64375424Y-43599501D01*
X64128438Y-43632017D01*
X63887792Y-43696498D01*
X63657638Y-43791830D01*
X63657623Y-43791837D01*
X63441873Y-43916400D01*
X63244225Y-44068060D01*
X63244218Y-44068066D01*
X63068066Y-44244218D01*
X63068060Y-44244225D01*
X62916400Y-44441873D01*
X62791837Y-44657623D01*
X62791830Y-44657638D01*
X62696498Y-44887792D01*
X62632017Y-45128438D01*
X62599501Y-45375424D01*
X62599500Y-45375441D01*
X62599500Y-45624558D01*
X62599501Y-45624575D01*
X62632017Y-45871561D01*
X62696498Y-46112207D01*
X62791830Y-46342361D01*
X62791837Y-46342376D01*
X62916400Y-46558126D01*
X63068060Y-46755774D01*
X63068066Y-46755781D01*
X63244218Y-46931933D01*
X63244225Y-46931939D01*
X63441873Y-47083599D01*
X63657623Y-47208162D01*
X63657638Y-47208169D01*
X63722465Y-47235021D01*
X63887793Y-47303502D01*
X64128435Y-47367982D01*
X64375435Y-47400500D01*
X64375442Y-47400500D01*
X64624558Y-47400500D01*
X64624565Y-47400500D01*
X64871565Y-47367982D01*
X65112207Y-47303502D01*
X65277535Y-47235020D01*
X65347001Y-47227552D01*
X65409481Y-47258827D01*
X65412666Y-47261901D01*
X75863181Y-57712416D01*
X75896666Y-57773739D01*
X75899500Y-57800097D01*
X75899500Y-66082351D01*
X75879815Y-66149390D01*
X75827011Y-66195145D01*
X75757853Y-66205089D01*
X75751310Y-66203969D01*
X75728842Y-66199500D01*
X75571158Y-66199500D01*
X75571155Y-66199500D01*
X75416510Y-66230261D01*
X75416498Y-66230264D01*
X75270827Y-66290602D01*
X75270814Y-66290609D01*
X75139125Y-66378602D01*
X75072447Y-66399480D01*
X75070234Y-66399500D01*
X72557654Y-66399500D01*
X72490615Y-66379815D01*
X72469973Y-66363181D01*
X70099793Y-63993001D01*
X70098864Y-63991300D01*
X70097192Y-63990321D01*
X70082188Y-63960760D01*
X70066308Y-63931678D01*
X70066446Y-63929745D01*
X70065569Y-63928017D01*
X70068927Y-63895047D01*
X70071292Y-63861986D01*
X70072453Y-63860434D01*
X70072650Y-63858507D01*
X70093301Y-63832586D01*
X70113164Y-63806053D01*
X70115362Y-63804895D01*
X70116187Y-63803860D01*
X70122278Y-63801252D01*
X70147659Y-63787886D01*
X70155328Y-63785285D01*
X70233497Y-63769737D01*
X70379179Y-63709394D01*
X70379188Y-63709387D01*
X70383087Y-63708066D01*
X70391676Y-63707711D01*
X70422902Y-63701500D01*
X72312331Y-63701500D01*
X72312347Y-63701501D01*
X72319943Y-63701501D01*
X72478054Y-63701501D01*
X72478057Y-63701501D01*
X72630785Y-63660577D01*
X72699644Y-63620821D01*
X72767716Y-63581520D01*
X72879520Y-63469716D01*
X72879520Y-63469714D01*
X72889724Y-63459511D01*
X72889727Y-63459506D01*
X73514662Y-62834572D01*
X73575983Y-62801089D01*
X73578150Y-62800638D01*
X73636085Y-62789113D01*
X73733497Y-62769737D01*
X73879179Y-62709394D01*
X74010289Y-62621789D01*
X74121789Y-62510289D01*
X74209394Y-62379179D01*
X74269737Y-62233497D01*
X74300500Y-62078842D01*
X74300500Y-61921158D01*
X74300500Y-61921155D01*
X74300499Y-61921153D01*
X74281538Y-61825829D01*
X74269737Y-61766503D01*
X74243521Y-61703211D01*
X74209397Y-61620827D01*
X74209390Y-61620814D01*
X74121789Y-61489711D01*
X74121786Y-61489707D01*
X74010292Y-61378213D01*
X74010288Y-61378210D01*
X73879185Y-61290609D01*
X73879172Y-61290602D01*
X73733501Y-61230264D01*
X73733489Y-61230261D01*
X73578845Y-61199500D01*
X73578842Y-61199500D01*
X73421158Y-61199500D01*
X73421155Y-61199500D01*
X73266510Y-61230261D01*
X73266498Y-61230264D01*
X73120827Y-61290602D01*
X73120814Y-61290609D01*
X72989711Y-61378210D01*
X72989707Y-61378213D01*
X72878213Y-61489707D01*
X72878210Y-61489711D01*
X72790609Y-61620814D01*
X72790602Y-61620827D01*
X72730264Y-61766498D01*
X72730261Y-61766508D01*
X72699361Y-61921850D01*
X72666976Y-61983761D01*
X72665425Y-61985339D01*
X72186584Y-62464181D01*
X72125261Y-62497666D01*
X72098903Y-62500500D01*
X70683941Y-62500500D01*
X70616902Y-62480815D01*
X70596260Y-62464181D01*
X70510292Y-62378213D01*
X70510288Y-62378210D01*
X70379185Y-62290609D01*
X70379176Y-62290604D01*
X70237783Y-62232038D01*
X70183380Y-62188197D01*
X70170675Y-62164929D01*
X70130711Y-62068444D01*
X70130704Y-62068432D01*
X70043103Y-61937329D01*
X70043100Y-61937325D01*
X69931606Y-61825831D01*
X69931602Y-61825828D01*
X69800499Y-61738227D01*
X69800486Y-61738220D01*
X69654815Y-61677882D01*
X69654803Y-61677879D01*
X69500159Y-61647118D01*
X69500156Y-61647118D01*
X69342472Y-61647118D01*
X69342469Y-61647118D01*
X69187824Y-61677879D01*
X69187812Y-61677882D01*
X69042141Y-61738220D01*
X69042128Y-61738227D01*
X68911025Y-61825828D01*
X68911021Y-61825831D01*
X68799527Y-61937325D01*
X68799524Y-61937329D01*
X68711923Y-62068432D01*
X68711916Y-62068445D01*
X68651578Y-62214116D01*
X68651575Y-62214128D01*
X68620814Y-62368771D01*
X68620814Y-62526464D01*
X68651575Y-62681107D01*
X68651578Y-62681119D01*
X68711917Y-62826792D01*
X68711918Y-62826793D01*
X68711920Y-62826797D01*
X68765591Y-62907120D01*
X68777602Y-62925096D01*
X68798480Y-62991773D01*
X68798500Y-62993987D01*
X68798500Y-64054773D01*
X68798499Y-64054791D01*
X68798499Y-64220497D01*
X68798498Y-64220497D01*
X68839423Y-64373229D01*
X68855167Y-64400496D01*
X68855168Y-64400501D01*
X68855170Y-64400501D01*
X68918479Y-64510157D01*
X68918481Y-64510160D01*
X69037349Y-64629028D01*
X69037355Y-64629033D01*
X71772696Y-67364374D01*
X71772706Y-67364385D01*
X71777036Y-67368715D01*
X71777037Y-67368716D01*
X71888841Y-67480520D01*
X71975652Y-67530639D01*
X71975654Y-67530641D01*
X72013708Y-67552611D01*
X72025772Y-67559577D01*
X72178500Y-67600500D01*
X72336614Y-67600500D01*
X75070234Y-67600500D01*
X75137273Y-67620185D01*
X75139125Y-67621398D01*
X75270814Y-67709390D01*
X75270827Y-67709397D01*
X75404369Y-67764711D01*
X75416503Y-67769737D01*
X75548691Y-67796031D01*
X75571153Y-67800499D01*
X75571156Y-67800500D01*
X75571158Y-67800500D01*
X75728842Y-67800500D01*
X75751308Y-67796031D01*
X75820898Y-67802257D01*
X75876076Y-67845119D01*
X75899322Y-67911008D01*
X75899500Y-67917648D01*
X75899500Y-71420234D01*
X75879815Y-71487273D01*
X75878602Y-71489125D01*
X75790609Y-71620814D01*
X75790602Y-71620827D01*
X75730264Y-71766498D01*
X75730261Y-71766510D01*
X75699500Y-71921153D01*
X75699500Y-72078846D01*
X75730261Y-72233489D01*
X75730264Y-72233501D01*
X75790602Y-72379172D01*
X75790609Y-72379185D01*
X75878210Y-72510288D01*
X75878213Y-72510292D01*
X75989707Y-72621786D01*
X75989711Y-72621789D01*
X76120814Y-72709390D01*
X76120821Y-72709394D01*
X76176030Y-72732262D01*
X76230433Y-72776102D01*
X76252499Y-72842396D01*
X76235221Y-72910095D01*
X76216259Y-72934504D01*
X75985339Y-73165425D01*
X75924016Y-73198910D01*
X75921850Y-73199361D01*
X75766508Y-73230261D01*
X75766498Y-73230264D01*
X75620827Y-73290602D01*
X75620814Y-73290609D01*
X75489711Y-73378210D01*
X75489707Y-73378213D01*
X75378213Y-73489707D01*
X75378210Y-73489711D01*
X75290609Y-73620814D01*
X75290602Y-73620827D01*
X75230264Y-73766498D01*
X75230261Y-73766510D01*
X75199500Y-73921153D01*
X75199500Y-74078846D01*
X75230261Y-74233489D01*
X75230264Y-74233501D01*
X75290602Y-74379172D01*
X75290609Y-74379185D01*
X75378210Y-74510288D01*
X75378213Y-74510292D01*
X75489707Y-74621786D01*
X75489711Y-74621789D01*
X75620814Y-74709390D01*
X75620821Y-74709394D01*
X75676030Y-74732262D01*
X75730433Y-74776102D01*
X75752499Y-74842396D01*
X75735221Y-74910095D01*
X75716259Y-74934504D01*
X73287584Y-77363181D01*
X73226261Y-77396666D01*
X73199903Y-77399500D01*
X66391205Y-77399500D01*
X66324166Y-77379815D01*
X66278411Y-77327011D01*
X66276644Y-77322952D01*
X66208169Y-77157638D01*
X66208162Y-77157623D01*
X66083599Y-76941873D01*
X65931939Y-76744225D01*
X65931933Y-76744218D01*
X65755781Y-76568066D01*
X65755774Y-76568060D01*
X65558126Y-76416400D01*
X65342376Y-76291837D01*
X65342361Y-76291830D01*
X65112207Y-76196498D01*
X64871561Y-76132017D01*
X64624575Y-76099501D01*
X64624570Y-76099500D01*
X64624565Y-76099500D01*
X64375435Y-76099500D01*
X64375429Y-76099500D01*
X64375424Y-76099501D01*
X64128438Y-76132017D01*
X63887792Y-76196498D01*
X63657638Y-76291830D01*
X63657623Y-76291837D01*
X63441873Y-76416400D01*
X63244225Y-76568060D01*
X63244218Y-76568066D01*
X63068066Y-76744218D01*
X63068060Y-76744225D01*
X62916400Y-76941873D01*
X62791837Y-77157623D01*
X62791830Y-77157638D01*
X62696498Y-77387792D01*
X62632017Y-77628438D01*
X62599501Y-77875424D01*
X62599500Y-77875441D01*
X62599500Y-78124558D01*
X62599501Y-78124575D01*
X62631642Y-78368716D01*
X62632018Y-78371565D01*
X62665311Y-78495814D01*
X62696498Y-78612207D01*
X62791830Y-78842361D01*
X62791837Y-78842376D01*
X62916400Y-79058126D01*
X63068060Y-79255774D01*
X63068066Y-79255781D01*
X63244218Y-79431933D01*
X63244225Y-79431939D01*
X63432131Y-79576124D01*
X63473334Y-79632552D01*
X63477489Y-79702298D01*
X63443277Y-79763218D01*
X63381560Y-79795971D01*
X63356645Y-79798500D01*
X58470998Y-79798500D01*
X58452331Y-79803501D01*
X58452332Y-79803502D01*
X58318271Y-79839423D01*
X58318266Y-79839426D01*
X58181347Y-79918475D01*
X58181339Y-79918481D01*
X57262181Y-80837640D01*
X57200858Y-80871125D01*
X57131166Y-80866141D01*
X57075233Y-80824269D01*
X57050816Y-80758805D01*
X57050500Y-80749959D01*
X57050500Y-69300014D01*
X62600000Y-69300014D01*
X62600000Y-70250000D01*
X63899999Y-70250000D01*
X63874979Y-70310402D01*
X63850000Y-70435981D01*
X63850000Y-70564019D01*
X63874979Y-70689598D01*
X63899999Y-70750000D01*
X62600000Y-70750000D01*
X62600000Y-71699985D01*
X62610493Y-71802689D01*
X62610494Y-71802696D01*
X62665641Y-71969118D01*
X62665643Y-71969123D01*
X62757684Y-72118344D01*
X62881655Y-72242315D01*
X63030876Y-72334356D01*
X63030881Y-72334358D01*
X63197303Y-72389505D01*
X63197310Y-72389506D01*
X63300014Y-72399999D01*
X63300027Y-72400000D01*
X64250000Y-72400000D01*
X64250000Y-71100001D01*
X64310402Y-71125021D01*
X64435981Y-71150000D01*
X64564019Y-71150000D01*
X64689598Y-71125021D01*
X64750000Y-71100001D01*
X64750000Y-72400000D01*
X65699973Y-72400000D01*
X65699985Y-72399999D01*
X65802689Y-72389506D01*
X65802696Y-72389505D01*
X65969118Y-72334358D01*
X65969123Y-72334356D01*
X66118344Y-72242315D01*
X66242315Y-72118344D01*
X66334356Y-71969123D01*
X66334358Y-71969118D01*
X66389505Y-71802696D01*
X66389506Y-71802689D01*
X66399999Y-71699985D01*
X66400000Y-71699972D01*
X66400000Y-70750000D01*
X65100001Y-70750000D01*
X65125021Y-70689598D01*
X65150000Y-70564019D01*
X65150000Y-70435981D01*
X65125021Y-70310402D01*
X65100001Y-70250000D01*
X66400000Y-70250000D01*
X66400000Y-69300027D01*
X66399999Y-69300014D01*
X66389506Y-69197310D01*
X66389505Y-69197303D01*
X66334358Y-69030881D01*
X66334356Y-69030876D01*
X66242315Y-68881655D01*
X66118344Y-68757684D01*
X65969123Y-68665643D01*
X65969118Y-68665641D01*
X65802696Y-68610494D01*
X65802689Y-68610493D01*
X65699985Y-68600000D01*
X64750000Y-68600000D01*
X64750000Y-69899998D01*
X64689598Y-69874979D01*
X64564019Y-69850000D01*
X64435981Y-69850000D01*
X64310402Y-69874979D01*
X64250000Y-69899998D01*
X64250000Y-68600000D01*
X63300014Y-68600000D01*
X63197310Y-68610493D01*
X63197303Y-68610494D01*
X63030881Y-68665641D01*
X63030876Y-68665643D01*
X62881655Y-68757684D01*
X62757684Y-68881655D01*
X62665643Y-69030876D01*
X62665641Y-69030881D01*
X62610494Y-69197303D01*
X62610493Y-69197310D01*
X62600000Y-69300014D01*
X57050500Y-69300014D01*
X57050500Y-65375441D01*
X62599500Y-65375441D01*
X62599500Y-65624558D01*
X62599501Y-65624575D01*
X62631563Y-65868116D01*
X62632018Y-65871565D01*
X62666432Y-66000000D01*
X62696498Y-66112207D01*
X62791830Y-66342361D01*
X62791837Y-66342376D01*
X62916400Y-66558126D01*
X63068060Y-66755774D01*
X63068066Y-66755781D01*
X63244218Y-66931933D01*
X63244225Y-66931939D01*
X63441873Y-67083599D01*
X63657623Y-67208162D01*
X63657638Y-67208169D01*
X63756825Y-67249253D01*
X63887793Y-67303502D01*
X64128435Y-67367982D01*
X64375435Y-67400500D01*
X64375442Y-67400500D01*
X64624558Y-67400500D01*
X64624565Y-67400500D01*
X64871565Y-67367982D01*
X65112207Y-67303502D01*
X65342373Y-67208164D01*
X65558127Y-67083599D01*
X65755776Y-66931938D01*
X65931938Y-66755776D01*
X66083599Y-66558127D01*
X66208164Y-66342373D01*
X66303502Y-66112207D01*
X66367982Y-65871565D01*
X66400500Y-65624565D01*
X66400500Y-65375435D01*
X66367982Y-65128435D01*
X66303502Y-64887793D01*
X66217540Y-64680263D01*
X66208169Y-64657638D01*
X66208162Y-64657623D01*
X66083599Y-64441873D01*
X65931939Y-64244225D01*
X65931933Y-64244218D01*
X65755781Y-64068066D01*
X65755774Y-64068060D01*
X65558126Y-63916400D01*
X65342376Y-63791837D01*
X65342361Y-63791830D01*
X65112207Y-63696498D01*
X64871561Y-63632017D01*
X64624575Y-63599501D01*
X64624570Y-63599500D01*
X64624565Y-63599500D01*
X64375435Y-63599500D01*
X64375429Y-63599500D01*
X64375424Y-63599501D01*
X64128438Y-63632017D01*
X63887792Y-63696498D01*
X63657638Y-63791830D01*
X63657623Y-63791837D01*
X63441873Y-63916400D01*
X63244225Y-64068060D01*
X63244218Y-64068066D01*
X63068066Y-64244218D01*
X63068060Y-64244225D01*
X62916400Y-64441873D01*
X62791837Y-64657623D01*
X62791830Y-64657638D01*
X62696498Y-64887792D01*
X62632017Y-65128438D01*
X62599501Y-65375424D01*
X62599500Y-65375441D01*
X57050500Y-65375441D01*
X57050500Y-60375441D01*
X62599500Y-60375441D01*
X62599500Y-60624558D01*
X62599501Y-60624575D01*
X62621359Y-60790606D01*
X62632018Y-60871565D01*
X62687986Y-61080440D01*
X62696498Y-61112207D01*
X62791830Y-61342361D01*
X62791837Y-61342376D01*
X62916400Y-61558126D01*
X63068060Y-61755774D01*
X63068066Y-61755781D01*
X63244218Y-61931933D01*
X63244225Y-61931939D01*
X63441873Y-62083599D01*
X63657623Y-62208162D01*
X63657638Y-62208169D01*
X63751023Y-62246850D01*
X63887793Y-62303502D01*
X64128435Y-62367982D01*
X64375435Y-62400500D01*
X64375442Y-62400500D01*
X64624558Y-62400500D01*
X64624565Y-62400500D01*
X64871565Y-62367982D01*
X65112207Y-62303502D01*
X65342373Y-62208164D01*
X65558127Y-62083599D01*
X65755776Y-61931938D01*
X65931938Y-61755776D01*
X66083599Y-61558127D01*
X66208164Y-61342373D01*
X66303502Y-61112207D01*
X66367982Y-60871565D01*
X66400500Y-60624565D01*
X66400500Y-60375435D01*
X66367982Y-60128435D01*
X66303502Y-59887793D01*
X66208164Y-59657627D01*
X66083599Y-59441873D01*
X65931938Y-59244224D01*
X65931933Y-59244218D01*
X65755781Y-59068066D01*
X65755774Y-59068060D01*
X65558126Y-58916400D01*
X65342376Y-58791837D01*
X65342361Y-58791830D01*
X65112207Y-58696498D01*
X64871561Y-58632017D01*
X64624575Y-58599501D01*
X64624570Y-58599500D01*
X64624565Y-58599500D01*
X64375435Y-58599500D01*
X64375429Y-58599500D01*
X64375424Y-58599501D01*
X64128438Y-58632017D01*
X63887792Y-58696498D01*
X63657638Y-58791830D01*
X63657623Y-58791837D01*
X63441873Y-58916400D01*
X63244225Y-59068060D01*
X63244218Y-59068066D01*
X63068066Y-59244218D01*
X63068060Y-59244225D01*
X62916400Y-59441873D01*
X62791837Y-59657623D01*
X62791830Y-59657638D01*
X62696498Y-59887792D01*
X62632017Y-60128438D01*
X62599501Y-60375424D01*
X62599500Y-60375441D01*
X57050500Y-60375441D01*
X57050500Y-55375441D01*
X62599500Y-55375441D01*
X62599500Y-55624558D01*
X62599501Y-55624575D01*
X62632017Y-55871561D01*
X62696498Y-56112207D01*
X62791830Y-56342361D01*
X62791836Y-56342373D01*
X62916400Y-56558126D01*
X63068060Y-56755774D01*
X63068066Y-56755781D01*
X63244218Y-56931933D01*
X63244225Y-56931939D01*
X63441873Y-57083599D01*
X63657623Y-57208162D01*
X63657638Y-57208169D01*
X63756825Y-57249253D01*
X63887793Y-57303502D01*
X64128435Y-57367982D01*
X64375435Y-57400500D01*
X64375442Y-57400500D01*
X64624558Y-57400500D01*
X64624565Y-57400500D01*
X64871565Y-57367982D01*
X65112207Y-57303502D01*
X65342373Y-57208164D01*
X65558127Y-57083599D01*
X65755776Y-56931938D01*
X65931938Y-56755776D01*
X66083599Y-56558127D01*
X66208164Y-56342373D01*
X66303502Y-56112207D01*
X66367982Y-55871565D01*
X66400500Y-55624565D01*
X66400500Y-55375435D01*
X66367982Y-55128435D01*
X66303502Y-54887793D01*
X66208164Y-54657627D01*
X66083599Y-54441873D01*
X66057081Y-54407314D01*
X65931939Y-54244225D01*
X65931933Y-54244218D01*
X65755781Y-54068066D01*
X65755774Y-54068060D01*
X65558126Y-53916400D01*
X65342376Y-53791837D01*
X65342361Y-53791830D01*
X65112207Y-53696498D01*
X64871565Y-53632018D01*
X64871564Y-53632017D01*
X64871561Y-53632017D01*
X64624575Y-53599501D01*
X64624570Y-53599500D01*
X64624565Y-53599500D01*
X64375435Y-53599500D01*
X64375429Y-53599500D01*
X64375424Y-53599501D01*
X64128438Y-53632017D01*
X63887792Y-53696498D01*
X63657638Y-53791830D01*
X63657623Y-53791837D01*
X63441873Y-53916400D01*
X63244225Y-54068060D01*
X63244218Y-54068066D01*
X63068066Y-54244218D01*
X63068060Y-54244225D01*
X62916400Y-54441873D01*
X62791837Y-54657623D01*
X62791830Y-54657638D01*
X62696498Y-54887792D01*
X62632017Y-55128438D01*
X62599501Y-55375424D01*
X62599500Y-55375441D01*
X57050500Y-55375441D01*
X57050500Y-50375441D01*
X62599500Y-50375441D01*
X62599500Y-50624558D01*
X62599501Y-50624575D01*
X62632017Y-50871561D01*
X62696498Y-51112207D01*
X62791830Y-51342361D01*
X62791837Y-51342376D01*
X62916400Y-51558126D01*
X63068060Y-51755774D01*
X63068066Y-51755781D01*
X63244218Y-51931933D01*
X63244225Y-51931939D01*
X63441873Y-52083599D01*
X63657623Y-52208162D01*
X63657638Y-52208169D01*
X63756825Y-52249253D01*
X63887793Y-52303502D01*
X64128435Y-52367982D01*
X64375435Y-52400500D01*
X64375442Y-52400500D01*
X64624558Y-52400500D01*
X64624565Y-52400500D01*
X64871565Y-52367982D01*
X65112207Y-52303502D01*
X65127528Y-52297155D01*
X65196994Y-52289683D01*
X65259475Y-52320954D01*
X65262665Y-52324033D01*
X69853927Y-56915295D01*
X69880807Y-56955523D01*
X69890604Y-56979175D01*
X69890609Y-56979185D01*
X69978210Y-57110288D01*
X69978213Y-57110292D01*
X70089707Y-57221786D01*
X70089711Y-57221789D01*
X70220814Y-57309390D01*
X70220827Y-57309397D01*
X70362266Y-57367982D01*
X70366503Y-57369737D01*
X70521148Y-57400498D01*
X70521153Y-57400499D01*
X70521156Y-57400500D01*
X70521158Y-57400500D01*
X71903844Y-57400500D01*
X71903845Y-57400499D01*
X72058497Y-57369737D01*
X72204179Y-57309394D01*
X72335289Y-57221789D01*
X72446789Y-57110289D01*
X72534394Y-56979179D01*
X72594737Y-56833497D01*
X72625500Y-56678842D01*
X72625500Y-56521158D01*
X72625500Y-56521155D01*
X72625499Y-56521153D01*
X72599818Y-56392047D01*
X72594737Y-56366503D01*
X72535918Y-56224500D01*
X72534397Y-56220827D01*
X72534390Y-56220814D01*
X72446789Y-56089711D01*
X72446786Y-56089707D01*
X72335292Y-55978213D01*
X72335288Y-55978210D01*
X72204185Y-55890609D01*
X72204172Y-55890602D01*
X72058501Y-55830264D01*
X72058489Y-55830261D01*
X71903845Y-55799500D01*
X71903842Y-55799500D01*
X70912230Y-55799500D01*
X70845191Y-55779815D01*
X70824549Y-55763181D01*
X66324033Y-51262665D01*
X66290548Y-51201342D01*
X66295532Y-51131650D01*
X66297136Y-51127574D01*
X66303502Y-51112207D01*
X66367982Y-50871565D01*
X66400500Y-50624565D01*
X66400500Y-50375435D01*
X66367982Y-50128435D01*
X66303502Y-49887793D01*
X66208164Y-49657627D01*
X66083599Y-49441873D01*
X65931938Y-49244224D01*
X65931933Y-49244218D01*
X65755781Y-49068066D01*
X65755774Y-49068060D01*
X65558126Y-48916400D01*
X65342376Y-48791837D01*
X65342361Y-48791830D01*
X65112207Y-48696498D01*
X64871561Y-48632017D01*
X64624575Y-48599501D01*
X64624570Y-48599500D01*
X64624565Y-48599500D01*
X64375435Y-48599500D01*
X64375429Y-48599500D01*
X64375424Y-48599501D01*
X64128438Y-48632017D01*
X63887792Y-48696498D01*
X63657638Y-48791830D01*
X63657623Y-48791837D01*
X63441873Y-48916400D01*
X63244225Y-49068060D01*
X63244218Y-49068066D01*
X63068066Y-49244218D01*
X63068060Y-49244225D01*
X62916400Y-49441873D01*
X62791837Y-49657623D01*
X62791830Y-49657638D01*
X62696498Y-49887792D01*
X62632017Y-50128438D01*
X62599501Y-50375424D01*
X62599500Y-50375441D01*
X57050500Y-50375441D01*
X57050500Y-32924500D01*
X57070185Y-32857461D01*
X57122989Y-32811706D01*
X57174500Y-32800500D01*
X145825500Y-32800500D01*
X145892539Y-32820185D01*
G37*
%TD.AperFunction*%
%TA.AperFunction,Conductor*%
G36*
X91416942Y-86120185D02*
G01*
X91437584Y-86136819D01*
X91465425Y-86164660D01*
X91498910Y-86225983D01*
X91499361Y-86228149D01*
X91530261Y-86383491D01*
X91530264Y-86383501D01*
X91590602Y-86529172D01*
X91590609Y-86529185D01*
X91678210Y-86660288D01*
X91680233Y-86662311D01*
X91680955Y-86663633D01*
X91682076Y-86664999D01*
X91681817Y-86665211D01*
X91713723Y-86723631D01*
X91708744Y-86793323D01*
X91680241Y-86837680D01*
X91578210Y-86939711D01*
X91490609Y-87070814D01*
X91490602Y-87070827D01*
X91430264Y-87216498D01*
X91430261Y-87216510D01*
X91399500Y-87371153D01*
X91399500Y-87528846D01*
X91430261Y-87683489D01*
X91430264Y-87683501D01*
X91490602Y-87829172D01*
X91490609Y-87829185D01*
X91578210Y-87960288D01*
X91578213Y-87960292D01*
X91689707Y-88071786D01*
X91689711Y-88071789D01*
X91820814Y-88159390D01*
X91820821Y-88159394D01*
X91909794Y-88196247D01*
X91964195Y-88240086D01*
X91983957Y-88286616D01*
X92012296Y-88429084D01*
X92012299Y-88429096D01*
X92072637Y-88574767D01*
X92072644Y-88574780D01*
X92160245Y-88705883D01*
X92160248Y-88705887D01*
X92271742Y-88817381D01*
X92271746Y-88817384D01*
X92402849Y-88904985D01*
X92402862Y-88904992D01*
X92524318Y-88955300D01*
X92548538Y-88965332D01*
X92662990Y-88988098D01*
X92703188Y-88996094D01*
X92703191Y-88996095D01*
X92703193Y-88996095D01*
X92860879Y-88996095D01*
X92860880Y-88996094D01*
X93015532Y-88965332D01*
X93161214Y-88904989D01*
X93168077Y-88900403D01*
X93292910Y-88816993D01*
X93310956Y-88811342D01*
X93326866Y-88801118D01*
X93357827Y-88796666D01*
X93359588Y-88796115D01*
X93361801Y-88796095D01*
X93434782Y-88796095D01*
X93434798Y-88796096D01*
X93442394Y-88796096D01*
X93600505Y-88796096D01*
X93600508Y-88796096D01*
X93753236Y-88755172D01*
X93803355Y-88726234D01*
X93890167Y-88676115D01*
X94001971Y-88564311D01*
X94001971Y-88564309D01*
X94012179Y-88554102D01*
X94012180Y-88554099D01*
X95164042Y-87402239D01*
X95261506Y-87304773D01*
X95261510Y-87304771D01*
X95271714Y-87294566D01*
X95271716Y-87294566D01*
X95383520Y-87182762D01*
X95462577Y-87045830D01*
X95495346Y-86923535D01*
X95503500Y-86893104D01*
X95503500Y-86734989D01*
X95503500Y-86289230D01*
X95523185Y-86222191D01*
X95575989Y-86176436D01*
X95645147Y-86166492D01*
X95708703Y-86195517D01*
X95715181Y-86201549D01*
X99038181Y-89524549D01*
X99071666Y-89585872D01*
X99074500Y-89612230D01*
X99074500Y-92812769D01*
X99054815Y-92879808D01*
X99038181Y-92900450D01*
X98481614Y-93457017D01*
X98420291Y-93490502D01*
X98350599Y-93485518D01*
X98306252Y-93457017D01*
X97784527Y-92935292D01*
X97236819Y-92387583D01*
X97222115Y-92360655D01*
X97205523Y-92334837D01*
X97204631Y-92328636D01*
X97203334Y-92326260D01*
X97200500Y-92299902D01*
X97200500Y-92229765D01*
X97220185Y-92162726D01*
X97221398Y-92160874D01*
X97309390Y-92029185D01*
X97309390Y-92029184D01*
X97309394Y-92029179D01*
X97369737Y-91883497D01*
X97400500Y-91728842D01*
X97400500Y-91571158D01*
X97400500Y-91571155D01*
X97400499Y-91571153D01*
X97369738Y-91416510D01*
X97369737Y-91416503D01*
X97356062Y-91383489D01*
X97309397Y-91270827D01*
X97309390Y-91270814D01*
X97221789Y-91139711D01*
X97221786Y-91139707D01*
X97110291Y-91028212D01*
X97110288Y-91028210D01*
X96979185Y-90940609D01*
X96979172Y-90940602D01*
X96833501Y-90880264D01*
X96833489Y-90880261D01*
X96678845Y-90849500D01*
X96678842Y-90849500D01*
X96521158Y-90849500D01*
X96521155Y-90849500D01*
X96366510Y-90880261D01*
X96366498Y-90880264D01*
X96220827Y-90940602D01*
X96220814Y-90940609D01*
X96089711Y-91028210D01*
X96089709Y-91028212D01*
X95978213Y-91139707D01*
X95978210Y-91139711D01*
X95890609Y-91270814D01*
X95890602Y-91270827D01*
X95830264Y-91416498D01*
X95830261Y-91416510D01*
X95799500Y-91571153D01*
X95799500Y-91728846D01*
X95830261Y-91883489D01*
X95830264Y-91883501D01*
X95890602Y-92029172D01*
X95890609Y-92029185D01*
X95978602Y-92160874D01*
X95999480Y-92227551D01*
X95999500Y-92229765D01*
X95999500Y-92520939D01*
X95999499Y-92520943D01*
X95999499Y-92563294D01*
X95999499Y-92600902D01*
X95979814Y-92667942D01*
X95927009Y-92713696D01*
X95867795Y-92722209D01*
X95857852Y-92723639D01*
X95828826Y-92710383D01*
X95794296Y-92694614D01*
X95787818Y-92688582D01*
X93136590Y-90037355D01*
X93136588Y-90037352D01*
X93017717Y-89918481D01*
X93017712Y-89918477D01*
X92924585Y-89864711D01*
X92880785Y-89839423D01*
X92728057Y-89798499D01*
X92569943Y-89798499D01*
X92562347Y-89798499D01*
X92562331Y-89798500D01*
X89407902Y-89798500D01*
X89340863Y-89778815D01*
X89295108Y-89726011D01*
X89285164Y-89656853D01*
X89286285Y-89650309D01*
X89300499Y-89578846D01*
X89300500Y-89578844D01*
X89300500Y-89421155D01*
X89300499Y-89421153D01*
X89285072Y-89343597D01*
X89269737Y-89266503D01*
X89241327Y-89197914D01*
X89209397Y-89120827D01*
X89209390Y-89120814D01*
X89121789Y-88989711D01*
X89121786Y-88989707D01*
X89093805Y-88961726D01*
X89060320Y-88900403D01*
X89057486Y-88874045D01*
X89057486Y-86948442D01*
X89077171Y-86881403D01*
X89129975Y-86835648D01*
X89133988Y-86833900D01*
X89193153Y-86809394D01*
X89324263Y-86721789D01*
X89435763Y-86610289D01*
X89523368Y-86479179D01*
X89583711Y-86333497D01*
X89588556Y-86309142D01*
X89610205Y-86200308D01*
X89642590Y-86138397D01*
X89703306Y-86103823D01*
X89731822Y-86100500D01*
X91349903Y-86100500D01*
X91416942Y-86120185D01*
G37*
%TD.AperFunction*%
%TA.AperFunction,Conductor*%
G36*
X84805703Y-78909726D02*
G01*
X84827602Y-78934548D01*
X84878210Y-79010288D01*
X84878213Y-79010292D01*
X84989707Y-79121786D01*
X84989711Y-79121789D01*
X85120814Y-79209390D01*
X85120827Y-79209397D01*
X85266498Y-79269735D01*
X85266503Y-79269737D01*
X85421153Y-79300499D01*
X85421156Y-79300500D01*
X85575500Y-79300500D01*
X85642539Y-79320185D01*
X85688294Y-79372989D01*
X85699500Y-79424500D01*
X85699500Y-79478846D01*
X85730261Y-79633489D01*
X85730264Y-79633501D01*
X85790602Y-79779172D01*
X85790609Y-79779185D01*
X85878210Y-79910288D01*
X85882076Y-79914999D01*
X85881200Y-79915717D01*
X85883056Y-79918635D01*
X85889256Y-79923372D01*
X85899058Y-79943805D01*
X85905866Y-79954513D01*
X85907673Y-79959508D01*
X85940423Y-80081728D01*
X85965696Y-80125501D01*
X85971174Y-80134990D01*
X85971176Y-80134994D01*
X86019479Y-80218657D01*
X86019481Y-80218660D01*
X86138349Y-80337528D01*
X86138355Y-80337533D01*
X87665196Y-81864374D01*
X87665206Y-81864385D01*
X87669536Y-81868715D01*
X87669537Y-81868716D01*
X87781341Y-81980520D01*
X87848824Y-82019481D01*
X87918272Y-82059577D01*
X87918499Y-82059638D01*
X87925702Y-82063789D01*
X87932435Y-82070840D01*
X87951465Y-82083543D01*
X87989707Y-82121786D01*
X87989711Y-82121789D01*
X88120814Y-82209390D01*
X88120827Y-82209397D01*
X88266498Y-82269735D01*
X88266503Y-82269737D01*
X88421153Y-82300499D01*
X88421156Y-82300500D01*
X88421158Y-82300500D01*
X88578844Y-82300500D01*
X88578845Y-82300499D01*
X88733497Y-82269737D01*
X88879179Y-82209394D01*
X89010289Y-82121789D01*
X89121789Y-82010289D01*
X89193742Y-81902603D01*
X89247351Y-81857801D01*
X89316676Y-81849092D01*
X89379704Y-81879247D01*
X89384523Y-81883815D01*
X92685869Y-85185161D01*
X92719354Y-85246484D01*
X92714370Y-85316176D01*
X92672498Y-85372109D01*
X92607034Y-85396526D01*
X92570363Y-85393680D01*
X92560287Y-85391359D01*
X92533497Y-85380263D01*
X92378842Y-85349500D01*
X92378503Y-85349500D01*
X92374516Y-85348582D01*
X92345609Y-85332340D01*
X92316238Y-85316976D01*
X92314660Y-85315425D01*
X92137590Y-85138355D01*
X92137588Y-85138352D01*
X92018717Y-85019481D01*
X92018716Y-85019480D01*
X91929549Y-84968000D01*
X91881785Y-84940423D01*
X91729057Y-84899499D01*
X91570943Y-84899499D01*
X91563347Y-84899499D01*
X91563331Y-84899500D01*
X88206669Y-84899500D01*
X88206653Y-84899499D01*
X88199057Y-84899499D01*
X88040943Y-84899499D01*
X87926397Y-84930192D01*
X87888214Y-84940423D01*
X87843924Y-84965994D01*
X87843914Y-84966000D01*
X87840451Y-84968000D01*
X87751284Y-85019480D01*
X87726300Y-85044463D01*
X87716101Y-85051268D01*
X87693979Y-85058176D01*
X87673641Y-85069282D01*
X87661258Y-85068396D01*
X87649408Y-85072097D01*
X87627064Y-85065949D01*
X87603950Y-85064296D01*
X87584066Y-85054119D01*
X87582042Y-85053563D01*
X87581247Y-85052677D01*
X87578396Y-85051218D01*
X87489183Y-84991608D01*
X87489172Y-84991602D01*
X87343501Y-84931264D01*
X87343489Y-84931261D01*
X87188845Y-84900500D01*
X87188842Y-84900500D01*
X87031158Y-84900500D01*
X87031155Y-84900500D01*
X86876510Y-84931261D01*
X86876498Y-84931264D01*
X86730827Y-84991602D01*
X86730814Y-84991609D01*
X86599711Y-85079210D01*
X86599707Y-85079213D01*
X86488213Y-85190707D01*
X86488210Y-85190711D01*
X86400609Y-85321814D01*
X86400602Y-85321827D01*
X86340264Y-85467498D01*
X86340261Y-85467510D01*
X86309500Y-85622153D01*
X86309500Y-85779846D01*
X86340261Y-85934489D01*
X86340264Y-85934501D01*
X86400602Y-86080172D01*
X86400609Y-86080185D01*
X86488210Y-86211288D01*
X86488213Y-86211292D01*
X86524740Y-86247819D01*
X86558225Y-86309142D01*
X86553241Y-86378834D01*
X86524742Y-86423179D01*
X86508213Y-86439708D01*
X86508208Y-86439714D01*
X86420609Y-86570814D01*
X86420602Y-86570827D01*
X86360264Y-86716498D01*
X86360261Y-86716510D01*
X86329500Y-86871153D01*
X86329500Y-86969921D01*
X86325275Y-87002014D01*
X86298499Y-87101943D01*
X86298499Y-87270046D01*
X86298500Y-87270059D01*
X86298500Y-89162273D01*
X86298499Y-89162291D01*
X86298499Y-89327997D01*
X86298498Y-89327997D01*
X86339423Y-89480730D01*
X86349537Y-89498246D01*
X86349536Y-89498246D01*
X86349538Y-89498248D01*
X86418475Y-89617652D01*
X86418481Y-89617660D01*
X86537349Y-89736528D01*
X86537355Y-89736533D01*
X87211187Y-90410365D01*
X87244672Y-90471688D01*
X87239688Y-90541380D01*
X87226609Y-90566935D01*
X87190611Y-90620811D01*
X87190602Y-90620827D01*
X87130264Y-90766498D01*
X87130261Y-90766508D01*
X87099361Y-90921850D01*
X87066976Y-90983761D01*
X87065425Y-90985339D01*
X86437584Y-91613181D01*
X86376261Y-91646666D01*
X86349903Y-91649500D01*
X83995134Y-91649500D01*
X83928095Y-91629815D01*
X83882340Y-91577011D01*
X83872396Y-91507853D01*
X83880573Y-91478047D01*
X83919737Y-91383497D01*
X83950500Y-91228842D01*
X83950500Y-91071158D01*
X83950500Y-91071155D01*
X83950499Y-91071153D01*
X83943785Y-91037398D01*
X83919737Y-90916503D01*
X83906808Y-90885289D01*
X83859397Y-90770827D01*
X83859390Y-90770814D01*
X83771789Y-90639711D01*
X83771786Y-90639707D01*
X83737819Y-90605740D01*
X83704334Y-90544417D01*
X83701500Y-90518059D01*
X83701500Y-87432901D01*
X83721185Y-87365862D01*
X83773989Y-87320107D01*
X83843147Y-87310163D01*
X83849670Y-87311280D01*
X83894046Y-87320107D01*
X83921157Y-87325500D01*
X83921158Y-87325500D01*
X84078844Y-87325500D01*
X84078845Y-87325499D01*
X84233497Y-87294737D01*
X84379179Y-87234394D01*
X84510289Y-87146789D01*
X84621789Y-87035289D01*
X84709394Y-86904179D01*
X84769737Y-86758497D01*
X84800500Y-86603842D01*
X84800500Y-86446158D01*
X84800500Y-86446155D01*
X84800499Y-86446153D01*
X84795245Y-86419738D01*
X84769737Y-86291503D01*
X84768993Y-86289707D01*
X84709397Y-86145827D01*
X84709390Y-86145814D01*
X84621398Y-86014125D01*
X84600520Y-85947447D01*
X84600500Y-85945234D01*
X84600500Y-79003439D01*
X84620185Y-78936400D01*
X84672989Y-78890645D01*
X84742147Y-78880701D01*
X84805703Y-78909726D01*
G37*
%TD.AperFunction*%
%TA.AperFunction,Conductor*%
G36*
X87775820Y-87538773D02*
G01*
X87831753Y-87580645D01*
X87856170Y-87646109D01*
X87856486Y-87654955D01*
X87856486Y-88984609D01*
X87851158Y-89002752D01*
X87850821Y-89021662D01*
X87837320Y-89049879D01*
X87836801Y-89051648D01*
X87835588Y-89053500D01*
X87806259Y-89097394D01*
X87752647Y-89142199D01*
X87683322Y-89150906D01*
X87620295Y-89120752D01*
X87615476Y-89116184D01*
X87535819Y-89036527D01*
X87502334Y-88975204D01*
X87499500Y-88948846D01*
X87499500Y-87732140D01*
X87519185Y-87665101D01*
X87554607Y-87629039D01*
X87640289Y-87571789D01*
X87642343Y-87569735D01*
X87644805Y-87567274D01*
X87706128Y-87533789D01*
X87775820Y-87538773D01*
G37*
%TD.AperFunction*%
%TA.AperFunction,Conductor*%
G36*
X77305703Y-58605384D02*
G01*
X77312180Y-58611415D01*
X80281284Y-61580520D01*
X80281286Y-61580521D01*
X80281290Y-61580524D01*
X80351098Y-61620827D01*
X80418216Y-61659577D01*
X80570943Y-61700501D01*
X80570945Y-61700501D01*
X80736654Y-61700501D01*
X80736670Y-61700500D01*
X86799903Y-61700500D01*
X86866942Y-61720185D01*
X86887584Y-61736819D01*
X89363181Y-64212416D01*
X89377884Y-64239343D01*
X89394477Y-64265162D01*
X89395368Y-64271362D01*
X89396666Y-64273739D01*
X89399500Y-64300097D01*
X89399500Y-64325500D01*
X89379815Y-64392539D01*
X89327011Y-64438294D01*
X89275500Y-64449500D01*
X89146155Y-64449500D01*
X88991510Y-64480261D01*
X88991498Y-64480264D01*
X88845827Y-64540602D01*
X88845814Y-64540609D01*
X88714711Y-64628210D01*
X88714707Y-64628213D01*
X88603213Y-64739707D01*
X88603210Y-64739711D01*
X88515609Y-64870814D01*
X88515602Y-64870827D01*
X88455264Y-65016498D01*
X88455261Y-65016510D01*
X88424500Y-65171153D01*
X88424500Y-65328846D01*
X88455261Y-65483489D01*
X88455264Y-65483501D01*
X88515602Y-65629172D01*
X88515609Y-65629185D01*
X88603602Y-65760874D01*
X88624480Y-65827551D01*
X88624500Y-65829765D01*
X88624500Y-66575500D01*
X88604815Y-66642539D01*
X88552011Y-66688294D01*
X88500500Y-66699500D01*
X88421155Y-66699500D01*
X88266510Y-66730261D01*
X88266498Y-66730264D01*
X88120827Y-66790602D01*
X88120814Y-66790609D01*
X87989711Y-66878210D01*
X87989707Y-66878213D01*
X87878213Y-66989707D01*
X87878210Y-66989711D01*
X87790609Y-67120814D01*
X87790602Y-67120827D01*
X87730264Y-67266498D01*
X87730261Y-67266508D01*
X87699361Y-67421850D01*
X87666976Y-67483761D01*
X87665425Y-67485339D01*
X87194481Y-67956282D01*
X87194475Y-67956290D01*
X87145279Y-68041502D01*
X87145279Y-68041503D01*
X87115423Y-68093215D01*
X87074499Y-68245943D01*
X87074499Y-68245945D01*
X87074499Y-68414046D01*
X87074500Y-68414059D01*
X87074500Y-70874902D01*
X87054815Y-70941941D01*
X87038181Y-70962583D01*
X86418481Y-71582282D01*
X86418479Y-71582285D01*
X86380356Y-71648316D01*
X86380353Y-71648322D01*
X86376198Y-71655520D01*
X86339423Y-71719215D01*
X86317220Y-71802074D01*
X86314206Y-71809416D01*
X86297131Y-71830737D01*
X86282910Y-71854069D01*
X86275605Y-71857617D01*
X86270532Y-71863953D01*
X86244639Y-71872659D01*
X86220063Y-71884598D01*
X86212001Y-71883634D01*
X86204306Y-71886222D01*
X86177809Y-71879545D01*
X86150687Y-71876303D01*
X86144427Y-71871134D01*
X86136554Y-71869151D01*
X86117875Y-71849211D01*
X86096809Y-71831818D01*
X86094336Y-71824084D01*
X86088787Y-71818160D01*
X86083853Y-71791289D01*
X86075535Y-71765266D01*
X86075500Y-71762315D01*
X86075500Y-66029765D01*
X86095185Y-65962726D01*
X86096398Y-65960874D01*
X86184390Y-65829185D01*
X86184390Y-65829184D01*
X86184394Y-65829179D01*
X86244737Y-65683497D01*
X86275500Y-65528842D01*
X86275500Y-65371158D01*
X86275500Y-65371155D01*
X86275499Y-65371153D01*
X86268437Y-65335649D01*
X86244737Y-65216503D01*
X86209441Y-65131290D01*
X86184397Y-65070827D01*
X86184390Y-65070814D01*
X86096789Y-64939711D01*
X86096786Y-64939707D01*
X85985292Y-64828213D01*
X85985288Y-64828210D01*
X85854185Y-64740609D01*
X85854172Y-64740602D01*
X85708501Y-64680264D01*
X85708489Y-64680261D01*
X85553845Y-64649500D01*
X85553842Y-64649500D01*
X85396158Y-64649500D01*
X85396155Y-64649500D01*
X85241510Y-64680261D01*
X85241498Y-64680264D01*
X85095827Y-64740602D01*
X85095814Y-64740609D01*
X84964711Y-64828210D01*
X84964707Y-64828213D01*
X84853213Y-64939707D01*
X84853208Y-64939713D01*
X84827601Y-64978037D01*
X84773989Y-65022841D01*
X84704664Y-65031548D01*
X84641636Y-65001393D01*
X84604918Y-64941949D01*
X84600500Y-64909145D01*
X84600500Y-64579765D01*
X84620185Y-64512726D01*
X84621398Y-64510874D01*
X84649694Y-64468527D01*
X84709394Y-64379179D01*
X84769737Y-64233497D01*
X84800500Y-64078842D01*
X84800500Y-63921158D01*
X84800500Y-63921155D01*
X84800499Y-63921153D01*
X84781857Y-63827433D01*
X84769737Y-63766503D01*
X84767683Y-63761543D01*
X84709397Y-63620827D01*
X84709390Y-63620814D01*
X84621789Y-63489711D01*
X84621786Y-63489707D01*
X84510292Y-63378213D01*
X84510288Y-63378210D01*
X84379185Y-63290609D01*
X84379172Y-63290602D01*
X84233501Y-63230264D01*
X84233489Y-63230261D01*
X84078845Y-63199500D01*
X84078842Y-63199500D01*
X83924500Y-63199500D01*
X83857461Y-63179815D01*
X83811706Y-63127011D01*
X83800500Y-63075500D01*
X83800500Y-62921155D01*
X83800499Y-62921153D01*
X83782419Y-62830261D01*
X83769737Y-62766503D01*
X83769612Y-62766202D01*
X83709397Y-62620827D01*
X83709390Y-62620814D01*
X83621789Y-62489711D01*
X83621786Y-62489707D01*
X83510292Y-62378213D01*
X83510288Y-62378210D01*
X83379185Y-62290609D01*
X83379172Y-62290602D01*
X83233501Y-62230264D01*
X83233489Y-62230261D01*
X83078845Y-62199500D01*
X83078842Y-62199500D01*
X82921158Y-62199500D01*
X82921155Y-62199500D01*
X82766510Y-62230261D01*
X82766498Y-62230264D01*
X82620827Y-62290602D01*
X82620814Y-62290609D01*
X82489711Y-62378210D01*
X82489707Y-62378213D01*
X82378213Y-62489707D01*
X82378210Y-62489711D01*
X82290609Y-62620814D01*
X82290602Y-62620827D01*
X82230264Y-62766498D01*
X82230261Y-62766510D01*
X82199500Y-62921153D01*
X82199500Y-63078846D01*
X82230261Y-63233489D01*
X82230264Y-63233501D01*
X82290602Y-63379172D01*
X82290609Y-63379185D01*
X82378209Y-63510287D01*
X82378210Y-63510288D01*
X82378211Y-63510289D01*
X82464182Y-63596260D01*
X82497666Y-63657581D01*
X82500500Y-63683940D01*
X82500500Y-72295234D01*
X82480815Y-72362273D01*
X82479602Y-72364125D01*
X82391609Y-72495814D01*
X82391602Y-72495827D01*
X82331264Y-72641498D01*
X82331261Y-72641510D01*
X82300500Y-72796153D01*
X82300500Y-72953846D01*
X82331261Y-73108489D01*
X82331264Y-73108501D01*
X82391602Y-73254172D01*
X82391609Y-73254185D01*
X82479602Y-73385874D01*
X82500480Y-73452551D01*
X82500500Y-73454765D01*
X82500500Y-77655279D01*
X82480815Y-77722318D01*
X82428011Y-77768073D01*
X82358853Y-77778017D01*
X82329049Y-77769841D01*
X82271309Y-77745925D01*
X82233497Y-77730263D01*
X82233493Y-77730262D01*
X82233489Y-77730261D01*
X82078845Y-77699500D01*
X82078842Y-77699500D01*
X81921158Y-77699500D01*
X81921155Y-77699500D01*
X81766510Y-77730261D01*
X81766498Y-77730264D01*
X81620827Y-77790602D01*
X81620814Y-77790609D01*
X81489125Y-77878602D01*
X81422447Y-77899480D01*
X81420234Y-77899500D01*
X79800097Y-77899500D01*
X79733058Y-77879815D01*
X79712416Y-77863181D01*
X79161819Y-77312584D01*
X79147115Y-77285656D01*
X79130523Y-77259838D01*
X79129631Y-77253637D01*
X79128334Y-77251261D01*
X79125500Y-77224903D01*
X79125500Y-77154765D01*
X79145185Y-77087726D01*
X79146398Y-77085874D01*
X79175753Y-77041942D01*
X79234394Y-76954179D01*
X79294737Y-76808497D01*
X79325500Y-76653842D01*
X79325500Y-76496158D01*
X79325500Y-76496155D01*
X79325499Y-76496153D01*
X79307204Y-76404179D01*
X79294737Y-76341503D01*
X79283063Y-76313319D01*
X79234397Y-76195827D01*
X79234390Y-76195814D01*
X79146789Y-76064711D01*
X79146786Y-76064707D01*
X79035292Y-75953213D01*
X79035288Y-75953210D01*
X78904185Y-75865609D01*
X78904172Y-75865602D01*
X78758501Y-75805264D01*
X78758489Y-75805261D01*
X78603845Y-75774500D01*
X78603842Y-75774500D01*
X78446158Y-75774500D01*
X78446153Y-75774500D01*
X78330274Y-75797550D01*
X78260683Y-75791323D01*
X78205505Y-75748460D01*
X78191522Y-75723385D01*
X78159397Y-75645827D01*
X78159390Y-75645814D01*
X78071789Y-75514711D01*
X78071786Y-75514707D01*
X77960292Y-75403213D01*
X77960288Y-75403210D01*
X77829185Y-75315609D01*
X77829172Y-75315602D01*
X77683501Y-75255264D01*
X77683489Y-75255261D01*
X77528845Y-75224500D01*
X77528842Y-75224500D01*
X77424097Y-75224500D01*
X77357058Y-75204815D01*
X77311303Y-75152011D01*
X77301359Y-75082853D01*
X77330384Y-75019297D01*
X77336416Y-75012819D01*
X77414731Y-74934504D01*
X77514662Y-74834572D01*
X77575983Y-74801089D01*
X77578150Y-74800638D01*
X77637973Y-74788738D01*
X77733497Y-74769737D01*
X77879179Y-74709394D01*
X78010289Y-74621789D01*
X78010289Y-74621788D01*
X78012981Y-74619990D01*
X78079658Y-74599112D01*
X78147038Y-74617596D01*
X78193729Y-74669575D01*
X78203489Y-74698900D01*
X78230261Y-74833491D01*
X78230264Y-74833501D01*
X78290602Y-74979172D01*
X78290609Y-74979185D01*
X78378210Y-75110288D01*
X78378213Y-75110292D01*
X78489707Y-75221786D01*
X78489711Y-75221789D01*
X78620814Y-75309390D01*
X78620827Y-75309397D01*
X78723445Y-75351902D01*
X78766503Y-75369737D01*
X78921153Y-75400499D01*
X78921156Y-75400500D01*
X78921158Y-75400500D01*
X79078844Y-75400500D01*
X79078845Y-75400499D01*
X79233497Y-75369737D01*
X79364182Y-75315606D01*
X79379172Y-75309397D01*
X79379172Y-75309396D01*
X79379179Y-75309394D01*
X79510289Y-75221789D01*
X79621789Y-75110289D01*
X79709394Y-74979179D01*
X79769737Y-74833497D01*
X79800500Y-74678842D01*
X79800500Y-74521158D01*
X79800500Y-74521155D01*
X79800499Y-74521153D01*
X79795141Y-74494218D01*
X79769737Y-74366503D01*
X79749672Y-74318062D01*
X79709397Y-74220827D01*
X79709390Y-74220814D01*
X79621398Y-74089125D01*
X79600520Y-74022447D01*
X79600500Y-74020234D01*
X79600500Y-71079765D01*
X79620185Y-71012726D01*
X79621398Y-71010874D01*
X79709390Y-70879185D01*
X79709390Y-70879184D01*
X79709394Y-70879179D01*
X79769737Y-70733497D01*
X79800500Y-70578842D01*
X79800500Y-70421158D01*
X79800500Y-70421155D01*
X79800499Y-70421153D01*
X79769738Y-70266510D01*
X79769737Y-70266503D01*
X79716424Y-70137792D01*
X79709397Y-70120827D01*
X79709390Y-70120814D01*
X79621789Y-69989711D01*
X79621786Y-69989707D01*
X79510292Y-69878213D01*
X79510288Y-69878210D01*
X79379185Y-69790609D01*
X79379172Y-69790602D01*
X79323969Y-69767737D01*
X79298429Y-69747156D01*
X79272153Y-69727485D01*
X79271351Y-69725335D01*
X79269565Y-69723896D01*
X79259201Y-69692759D01*
X79247737Y-69662020D01*
X79248224Y-69659778D01*
X79247500Y-69657602D01*
X79255615Y-69625803D01*
X79262590Y-69593747D01*
X79264422Y-69591298D01*
X79264779Y-69589903D01*
X79283735Y-69565500D01*
X79312419Y-69536816D01*
X79373742Y-69503333D01*
X79400098Y-69500500D01*
X80420234Y-69500500D01*
X80487273Y-69520185D01*
X80489125Y-69521398D01*
X80620814Y-69609390D01*
X80620827Y-69609397D01*
X80747872Y-69662020D01*
X80766503Y-69669737D01*
X80882242Y-69692759D01*
X80921153Y-69700499D01*
X80921156Y-69700500D01*
X80921158Y-69700500D01*
X81078844Y-69700500D01*
X81078845Y-69700499D01*
X81233497Y-69669737D01*
X81379179Y-69609394D01*
X81510289Y-69521789D01*
X81621789Y-69410289D01*
X81709394Y-69279179D01*
X81769737Y-69133497D01*
X81800500Y-68978842D01*
X81800500Y-68821158D01*
X81800500Y-68821155D01*
X81800499Y-68821153D01*
X81793365Y-68785289D01*
X81769737Y-68666503D01*
X81764632Y-68654179D01*
X81709397Y-68520827D01*
X81709390Y-68520814D01*
X81621789Y-68389711D01*
X81621786Y-68389707D01*
X81510292Y-68278213D01*
X81510288Y-68278210D01*
X81379185Y-68190609D01*
X81379172Y-68190602D01*
X81233501Y-68130264D01*
X81233489Y-68130261D01*
X81078845Y-68099500D01*
X81078842Y-68099500D01*
X80921158Y-68099500D01*
X80921155Y-68099500D01*
X80766510Y-68130261D01*
X80766498Y-68130264D01*
X80620827Y-68190602D01*
X80620814Y-68190609D01*
X80489125Y-68278602D01*
X80422447Y-68299480D01*
X80420234Y-68299500D01*
X79186668Y-68299500D01*
X79179061Y-68299499D01*
X79179058Y-68299499D01*
X79131940Y-68299499D01*
X79092570Y-68287938D01*
X79064903Y-68279814D01*
X79064902Y-68279813D01*
X79064901Y-68279813D01*
X79028511Y-68237815D01*
X79019148Y-68227010D01*
X79019147Y-68227008D01*
X79009204Y-68157850D01*
X79021261Y-68131451D01*
X79038229Y-68094296D01*
X79044261Y-68087818D01*
X79121786Y-68010292D01*
X79121789Y-68010289D01*
X79209394Y-67879179D01*
X79269737Y-67733497D01*
X79300500Y-67578842D01*
X79300500Y-67421158D01*
X79300500Y-67421155D01*
X79300499Y-67421153D01*
X79294709Y-67392046D01*
X79269737Y-67266503D01*
X79250110Y-67219118D01*
X79209397Y-67120827D01*
X79209390Y-67120814D01*
X79121398Y-66989125D01*
X79100520Y-66922447D01*
X79100500Y-66920234D01*
X79100500Y-65800098D01*
X79109144Y-65770660D01*
X79115668Y-65740670D01*
X79119423Y-65735653D01*
X79120185Y-65733059D01*
X79136819Y-65712416D01*
X79212418Y-65636818D01*
X79273742Y-65603334D01*
X79300099Y-65600500D01*
X80420234Y-65600500D01*
X80487273Y-65620185D01*
X80489125Y-65621398D01*
X80620814Y-65709390D01*
X80620827Y-65709397D01*
X80766498Y-65769735D01*
X80766503Y-65769737D01*
X80919137Y-65800098D01*
X80921153Y-65800499D01*
X80921156Y-65800500D01*
X80921158Y-65800500D01*
X81078844Y-65800500D01*
X81078845Y-65800499D01*
X81233497Y-65769737D01*
X81379179Y-65709394D01*
X81510289Y-65621789D01*
X81621789Y-65510289D01*
X81709394Y-65379179D01*
X81712719Y-65371153D01*
X81741832Y-65300866D01*
X81769737Y-65233497D01*
X81800500Y-65078842D01*
X81800500Y-64921158D01*
X81800500Y-64921155D01*
X81800499Y-64921153D01*
X81782012Y-64828213D01*
X81769737Y-64766503D01*
X81764206Y-64753150D01*
X81709397Y-64620827D01*
X81709390Y-64620814D01*
X81621789Y-64489711D01*
X81621786Y-64489707D01*
X81510292Y-64378213D01*
X81510288Y-64378210D01*
X81379185Y-64290609D01*
X81379172Y-64290602D01*
X81233501Y-64230264D01*
X81233489Y-64230261D01*
X81078845Y-64199500D01*
X81078842Y-64199500D01*
X80921158Y-64199500D01*
X80921155Y-64199500D01*
X80766510Y-64230261D01*
X80766498Y-64230264D01*
X80620827Y-64290602D01*
X80620814Y-64290609D01*
X80489125Y-64378602D01*
X80422447Y-64399480D01*
X80420234Y-64399500D01*
X79086670Y-64399500D01*
X79086654Y-64399499D01*
X79079058Y-64399499D01*
X78920943Y-64399499D01*
X78844579Y-64419961D01*
X78768214Y-64440423D01*
X78768209Y-64440426D01*
X78631290Y-64519475D01*
X78631282Y-64519481D01*
X78124217Y-65026546D01*
X78124214Y-65026548D01*
X78124215Y-65026549D01*
X78019478Y-65131286D01*
X78019475Y-65131290D01*
X77970279Y-65216502D01*
X77970279Y-65216503D01*
X77953762Y-65245112D01*
X77942719Y-65264239D01*
X77940423Y-65268215D01*
X77899499Y-65420943D01*
X77899499Y-65420945D01*
X77899499Y-65589046D01*
X77899500Y-65589059D01*
X77899500Y-66920234D01*
X77879815Y-66987273D01*
X77878602Y-66989125D01*
X77790609Y-67120814D01*
X77790602Y-67120827D01*
X77730264Y-67266498D01*
X77730261Y-67266510D01*
X77699500Y-67421153D01*
X77699500Y-67578846D01*
X77730261Y-67733489D01*
X77730264Y-67733501D01*
X77790602Y-67879172D01*
X77790609Y-67879185D01*
X77878210Y-68010288D01*
X77878213Y-68010292D01*
X77989707Y-68121786D01*
X77989711Y-68121789D01*
X78120814Y-68209390D01*
X78120827Y-68209397D01*
X78266498Y-68269735D01*
X78266503Y-68269737D01*
X78416030Y-68299480D01*
X78421153Y-68300499D01*
X78421156Y-68300500D01*
X78550902Y-68300500D01*
X78617941Y-68320185D01*
X78663696Y-68372989D01*
X78673640Y-68442147D01*
X78644615Y-68505703D01*
X78638583Y-68512181D01*
X77312181Y-69838583D01*
X77250858Y-69872068D01*
X77181166Y-69867084D01*
X77125233Y-69825212D01*
X77100816Y-69759748D01*
X77100500Y-69750902D01*
X77100500Y-58699097D01*
X77120185Y-58632058D01*
X77172989Y-58586303D01*
X77242147Y-58576359D01*
X77305703Y-58605384D01*
G37*
%TD.AperFunction*%
%TA.AperFunction,Conductor*%
G36*
X89719834Y-71731915D02*
G01*
X89775767Y-71773787D01*
X89800184Y-71839251D01*
X89800500Y-71848097D01*
X89800500Y-73298902D01*
X89780815Y-73365941D01*
X89764181Y-73386583D01*
X87711181Y-75439583D01*
X87649858Y-75473068D01*
X87580166Y-75468084D01*
X87524233Y-75426212D01*
X87499816Y-75360748D01*
X87499500Y-75351902D01*
X87499500Y-73344720D01*
X87519185Y-73277681D01*
X87571989Y-73231926D01*
X87641147Y-73221982D01*
X87670952Y-73230159D01*
X87761672Y-73267736D01*
X87766503Y-73269737D01*
X87913124Y-73298902D01*
X87921153Y-73300499D01*
X87921156Y-73300500D01*
X87921158Y-73300500D01*
X88078844Y-73300500D01*
X88078845Y-73300499D01*
X88233497Y-73269737D01*
X88379179Y-73209394D01*
X88510289Y-73121789D01*
X88621789Y-73010289D01*
X88709394Y-72879179D01*
X88713728Y-72868717D01*
X88745712Y-72791498D01*
X88769737Y-72733497D01*
X88792715Y-72617982D01*
X88800638Y-72578150D01*
X88833023Y-72516239D01*
X88834528Y-72514707D01*
X89588819Y-71760416D01*
X89650142Y-71726931D01*
X89719834Y-71731915D01*
G37*
%TD.AperFunction*%
%TD*%
M02*
